<svg xmlns="http://www.w3.org/2000/svg" xmlns:xlink="http://www.w3.org/1999/xlink" width="1366" height="533" viewBox="0 0 1366 533"><defs><clipPath id="a"><rect width="1366" height="533" transform="translate(15)" fill="#fff" stroke="#707070" stroke-width="1"/></clipPath><linearGradient id="b" x1="1" y1="0.5" x2="0" y2="0.5" gradientUnits="objectBoundingBox"><stop offset="0" stop-color="#c8c3ea"/><stop offset="0.151" stop-color="#cac7ea"/><stop offset="0.303" stop-color="#d3d3ec"/><stop offset="0.456" stop-color="#eae0f0"/><stop offset="0.519" stop-color="#ede8f2"/><stop offset="1" stop-color="#c8c3ea"/></linearGradient><linearGradient id="c" x1="1" y1="0.5" x2="0" y2="0.5" gradientUnits="objectBoundingBox"><stop offset="0" stop-color="#a99ed8"/><stop offset="0.152" stop-color="#aca2d9"/><stop offset="0.307" stop-color="#b6aedf"/><stop offset="0.461" stop-color="#c7c2e9"/><stop offset="0.465" stop-color="#c8c3ea"/><stop offset="1" stop-color="#c8c3ea"/></linearGradient><linearGradient id="d" x1="0.5" y1="0.104" x2="0.5" y2="0.956" gradientUnits="objectBoundingBox"><stop offset="0" stop-color="#8675ba"/><stop offset="0.995" stop-color="#635093"/></linearGradient></defs><g transform="translate(-15)" clip-path="url(#a)"><g transform="translate(0 4.313)"><path d="M1390.986,157.719s-11.3-8.11-16.217-8.11-12.016-2.7-16.932-3.243-20.754,3.786-26.216,5.677-20.208-5.137-28.4-8.379-20.754-12.433-27.31-12.433-16.384.54-22.938,3.243-31.678,10.273-34.954,10-20.13-6.117-23.286-7.8-8.74-4.327-10.681-4.327-1.943.481-3.641,1.2-2.429-.962-4.856.481-4.368,4.085-6.554,4.564-3.641-1.441-6.554,1.442-2.427,4.324-7.284,6.247-8.738,4.566-9.224,6.727-10.438,6.248-14.808,7.929-10.438,6.968-15.049,10.814-8.983,6.247-9.711,5.764-7.525-6.966-8.5-6.247-5.825-.719-6.8-1.921-5.583-3.844-7.283-3.844-11.651.481-14.08-.482-15.051-3.6-17.964-8.168-33.083-25.627-43.461-25.627-16.384,4.323-21.3,4.323-6.008-1.621-11.47-1.621-20.208,2.7-20.208,2.7-15.84-2.162-24.578-2.7-17.476-4.323-19.662-2.7a8.9,8.9,0,0,1-8.128.88c-2.913-.962-5.827-4.243-8.983-1.28s-4.127-.162-7.04.319-16.749.721-25.489,1.2-27.914,3.746-36.108,6.988-16.386,2.7-33.862,5.406-21.848-7.568-28.4-7.568-18.57-7.01-20.754-7.559-4.916-4.874-11.47-3.793-22.392-3.243-25.67-3.783-20.752,0-24.032,0-13.106,1.621-19.114,6.485-10.378-.539-22.94,9.731-57.3,12.353-68.225,17.4-14.562,5.045-25.487,5.045-21.85-5.766-24.032-7.928-8.011-.4-13.837-3.082-17.48-2.685-29.132,3.8-18.206,2.883-27.673,1.441-26.946-7.208-32.772-8.65-12.381-1.441-19.664-1.441-18.935,5.367-21.849,4.847-3.64.2-23.3,4.523-48.065,3.606-48.065,3.606-24.249-.643-29.163-.643-13.108,2.162-24.58,2.7a65.018,65.018,0,0,1-19.662-1.62,156.768,156.768,0,0,0-15.838-1.623H202.146c-3.276,0-9.832-2.162-15.294-3.243s-9.282,0-14.744-6.489-10.924-11.891-15.294-12.433S132.784,122.1,127.866,121.8s-8.192,5.645-13.108,7.808-12.56,2.162-15.838,4.864-4.914,11.354-8.74,10.812-19.395-.922-24.251-.2-10.438,4.087-22.091,6.006-21.362,4.087-26.7,7.931-24.411,1.161-24.411,1.161V767.369H1398.534Z" transform="translate(7.275 -109.791)" fill="url(#b)"/><path d="M1391.755,218.4s-69.839-16.6-76.393-16.6-.729,2.883-25.489,0-54.62-14.414-65.543-18.019-56.075-15.137-71.37-15.137-68.456-18.022-77.925-24.509-52.434,16.578-68.456,21.624a190.507,190.507,0,0,1-45.151,8.65c-13.11.719-17.48,3.6-41.511,12.976s-37.142,12.972-46.608,18.019-17.478,5.045-29.859,7.208-37.87,2.2-50.978,5.786-3.641,9.351-21.848,9.351-43.7-11.533-47.337-12.976-12.379.721-20.391,4.325-16.749-1.441-22.576-3.6-21.119-8.649-29.857-13.7-18.935-19.461-21.85-23.786-14.565-9.37-18.935-10.091-5.1-.721-13.106-7.21-13.84-13.813-19.665-17.718-11.653-12.555-24.76-13.274-14.345,4.293-22.576,12.972-8.01,5.046-15.294,12.253-16.748,10.814-18.2,15.858-16.024,2.163-21.121-2.16S458.2,154.225,449.46,149.18s-21.119-14.554-22.576-19.531-10.924-7.861-22.575-4.255-13.838,6.487-58.263,13.693-54.619,7.208-66.27,8.65-41.511,16.58-50.98,24.507-32.241-4.323-47.535,3.517-38.237,5.682-61.178,13.252S96.049,212.8,66.55,216.046-7.275,243.08-7.275,243.08V765.966H1398.534Z" transform="translate(7.275 -110.084)" fill="url(#c)"/><path d="M450.629,215.477c-1.594-2.523-16.125-6.848-19.845-9.373s0,0-7.619-3.781-5.14-1.983-9.569-5.227-4.075-2.342-5.67-2.881S398,191.87,397.3,191.508s-8.151-3.964-10.454-4.685S379.93,182.5,376.21,179.8s-2.305-3.423-3.544-4.5c-.712-.621-3.234-3.023-5.252-4.956a260.852,260.852,0,0,0,26.691,12.343c5.671,2.163,14.177,7.21,21.972,3.6a60.976,60.976,0,0,1,11.339-4.012c-1.593,1.572-2.3,4.192-1.237,4.552s3.364,4.325,3.364,4.325a34.235,34.235,0,0,0-.355,4.325c0,1.983.533,1.081,1.064,1.442s4.251,1.262,8.151,3.243,3.011,2.523,4.253,3.6,3.9,3.062,6.556,5.406a45.338,45.338,0,0,0,3.72,3.064s4.608,5.227,5.492,7.928,2.483,2.163,2.483,2.163l4.075,6.489s-6.38-3.785-7.089-4.506A93.744,93.744,0,0,1,450.629,215.477Z" transform="translate(294.111 77.728)" fill="#8675ba" opacity="0.8"/><path d="M553.9,153.468c-.355,1.623.355,2.344,0,3.065a10.555,10.555,0,0,1-1.239,2.341c-.889,1.263-.889.542-2.127,2.344a15.137,15.137,0,0,0-1.95,3.244c-.355.9,1.242-1.623,0,1.62s.179,2.163-1.239,3.244a23.57,23.57,0,0,1-3.9,2.163,25.8,25.8,0,0,1-2.481-3.244c-1.6-2.341-5.14-3.783-7.264-4.685s-4.255-1.083-6.734-1.981a33.241,33.241,0,0,1-5.492-2.864s-3.9-5.788-4.608-6.869-.178-1.441-1.6-3.6-.558-3.984-2.885-5.749c6.167,4.762,12.2,10.11,15.466,12.959,4.96,4.323,19.137,7.206,20.556,2.16.738-2.629,3.594-4.867,7.163-7.426A6.968,6.968,0,0,0,553.9,153.468Z" transform="translate(-45.65 88.627)" fill="#8675ba"/><path d="M538.16,140.564c1.458,1.031,2.945,2.136,4.424,3.278C540.425,142.209,538.438,140.765,538.16,140.564Z" transform="translate(-76.35 92.717)" fill="#a8d9e4"/><path d="M940.413,264.355s-6.98-5.3-16.5-11.784-16.5-11.786-25.382-17.089-23.479-12.374-25.384-14.142-7.616-4.124-9.518-5.892-13.326-5.527-13.326-5.527-10.789,2.134-15.23,0-9.52-2.7-15.23,2.3-4.442,5.587-13.327,7.355-10.152,1.178-19.037,2.946-8.883,1.768-16.5,3.536-31.1,2.356-34.9,4.714,6.348,2.358-11.421,2.358-44.421-1.18-48.228-4.716-27.92-7.66-31.727-7.66-11.423-2.356-23.481-3.534-28.555,1.178-31.093,1.766-16.5,16.479-22.21,17.372-3.807,3.251-9.517,3.841-19.039,7.072-21.577,7.072-20.306,5.894-23.479,8.25-15.228,8.838-17.768,8.838-37.44-4.985-43.785-6.028-3.809-5.166-36.171-3.4a297.268,297.268,0,0,0-59.015,9.428s-33,12.965-35.538,14.143-8.883-1.178-31.727,6.482-50.767,22.98-58.381,25.337-24.113,22.393-24.113,22.393l7.614,40.659L607.9,440.544l177.045,5.894s239.869-77.784,248.117-74.248,35.536,4.941,38.075,5.713-26.653-55.21-28.557-56.978-50.764-30.641-50.764-30.641S947.975,269.9,940.413,264.355Z" transform="translate(-62.051 13.574)" fill="#8675ba" opacity="0.4"/><path d="M1092.329,357.483s-31.9-4.325-44.654-5.767-41.108-5.766-59.538-10.091S975,333.409,954.992,327.065,930.019,320,914.425,309.909s-38.272-14.416-43.941-14.416H840.711s-17.007-4.325-24.8,0,9.213-.721-26.227,5.766-51.032,9.372-65.206,3.606S694,298.137,685.493,293.57s-19.847-13.77-19.847-13.77-19.138-8.546-40.4-15.529-34.02-11.307-46.779-8.422-22.681,2.162-33.313,2.162-19.138,1.442-38.275,1.442-29.058,0-38.273-7.928-12.048-10.093-30.475-11.535-48.31-18.02-48.31-18.02V672.708Z" transform="translate(-389.822 -112.55)" fill="#7768a5"/><path d="M476.874,238.541s-17.535-14.1-28.25-15.7-21.429-3.805-29.223,0-37.988,0-37.988,0-22.4-2.723-30.2,0-11.688,4.383-17.533,6.8.974-.83-11.689,8.9,13.637,2.16-12.663,9.731-42.86,8.65-42.86,8.65-15.585-.859-26.3,8.219-7.793,17.65-21.431,15.529-40.912-6.449-52.6-6.449-37.775-12.768-65.266-2.162-75,23.791-98.383,30.28S21,368.3,21,368.3l413.991,25.953,42.86-27.035Z" transform="translate(923.487 32.2)" fill="#8675ba" opacity="0.4"/><path d="M1394.741,280.956h-45.153c-14.565,0-49.521,2.883-59.716,0s-37.87,0-52.435,10.091-93.216,8.649-107.782,8.649-83.023-31.717-97.588-34.6-83.021-11.535-91.759-7.208-17.48,12.974-32.043,10.089S876.22,252.628,860.2,256.7s-4.368,2.631-16.021,4.073-14.565,4.325-24.762,5.767-43.694,2.881-62.629,2.881-37.87-3.6-45.88,0-11.98,4.687-15.275,4.687-17.133,5.045-18.591,6.127a66.329,66.329,0,0,1-7.281,3.6s-.729,1.8-6.921,1.8-14.2-1.081-18.2-.721S634.439,286,624.97,287.8s-24.03,6.847-27.31,7.21-33.137,11.891-42.24,13.693-26.581,1.8-32.406,1.8-19.3-1.081-22.94,2.162,1.457,1.083-3.64,3.244-13.11,2.162-13.11,2.162,1.09-1.441-1.822,0,.365-1.081-2.913,1.442-8.74,5.046-12.016,5.046-19.836,5.979-43.871,13.548S338.581,381.365,299.25,393.26s-78.658,11.895-116.9,11.895S88.4,427.861,88.4,427.861L-7.275,448.408V685.554l1405.809-12.706Z" transform="translate(7.275 -135.933)" fill="url(#d)"/><path d="M497.574,242.452c-1.412.523-14.1-2.358-20.308-3.144s-11.562-2.619-13.818-2.1-4.233,2.1-9.027,2.619a63.6,63.6,0,0,0-7.9,1.309,26.618,26.618,0,0,1-6.2.261c-3.385-.261-3.385,5.762-10.437-.261s-25.384-9.167-28.2-9.69-5.076-5.432-8.744-5.2-3.1,1.606-6.488,0-10.435-3.178-11.562-3.439-9.016-6.864-14.915-7.757c6.268,1.066,10.595,2.146,13.173,2.146,3.807,0,27.92,4.124,31.727,7.66s30.46,4.716,48.228,4.716,7.616,0,11.421-2.358,27.29-2.948,34.9-4.714,7.614-1.768,16.5-3.536,10.154-1.178,19.037-2.946c4.674-.929,6.536-1.534,8.083-2.625a48.779,48.779,0,0,0-4.571,4.7c-1.973,2.619.565,3.406-3.948,4.717s-8.462,2.094-8.462,2.094-4.229,2.1-4.793,3.144-1.97,1.57-2.959,4.189,2.112-.261-7.2,4.455S498.983,241.927,497.574,242.452Z" transform="translate(227.587 74.671)" fill="#8675ba" opacity="0.6"/><path d="M754.24,370.226s-3.386-.643-9.081-1.347-8.38,4.782-13.751.673-14.1-6.906-14.1-6.906-10.373-.017-12.834,1.575-9.627,3.019-11.195,2.648-5.373-.767-7.161,0-3.136,1-5.6,1.906-4.7,1.822-8.283.684-9.876-2.9-10.87-2.59-5.472-.825-9.054,1-9.178,1.822-9.178,1.822l-10.97-2.818s-10.969,1.906-12.311,2.818-.225-.145-4.7,1.407a23.771,23.771,0,0,1-6.939,1.553s-7.388-1.6-8.508-1.823-8.281-1.592-10.746.455-29.1-10.664-36.488-8.633-19.924,3.853-22.609,3.853-13.433-.227-15-.455-4.7-1.366-8.729-.228-7.165,2.3-8.955,1.72-10.521,1.7-12.538,1.7-2.908.682-8.058,0-10.744-3.618-17.684-1.7-37.831,2.151-40.07,2.833-9.627-1.568-13.431-2.833-5.6-1.949-6.94-1.949-4.03-.453-5.82-.227-17.237,4.327-22.162,5.237a103.565,103.565,0,0,1-14.328,2.049c-4.924.228-4.028-1.6-11.639,4.325s-2.687,5.919-14.777,10.471-14.326,7.742-16.118,7.742h-4.476c-5.374,0-11.728,2.731-15.713,3.642s-1.748-.453-8.912,4.1-4.478,1.821-7.165,4.554-10.746,1.9-23.728,6.642-27.759,14.757-27.759,14.757l-7.165,5.921,175.06,75.126,141.03,24.589,107.454,12.294Z" transform="translate(255.649 -66.683)" fill="#635093"/><path d="M1117.315,511.427s-26.934-14.416-36.146-16.58-21.972-7.206-29.769-10.091-.709,0-14.885-5.767-2.127-5.046-26.224-10.812-37.529-3.6-40.382-3.6-5.688-2.162-17.029-5.768-13.468-5.046-15.6-5.046-10.316-2.881-16.142-2.881-28.508-3.6-32.761,0-.709,2.562-10.63-1.6-12.761-7.048-19.139-8.49S853,438.625,844.468,437.9s-11.371,5.046-14.206,0-10.63-10.091-19.847-10.091-28.349-6.489-43.941-8.652-16.3-7.926-33.315-8.647-55.993,2.883-63.08,0-31.543-15.831-37.564-18.549a40.11,40.11,0,0,0-15.949-3.8H603.1c-1.418,0-3.9,1.081-7.8,0s-10.274-1.442-12.755-1.8S528.68,372.31,517.34,375.195s-20.911,1.8-24.809,3.6,6.025-1.8-3.9,1.8-31.189,3.964-41.82,7.208-22.68,10.452-38.627,5.767-20.552-8.65-36.148-8.65-13.111-1.441-29.767-2.883-12.757.721-21.972-2.523-8.275-3.969-18.43-7.57-16.058-4.323-16.058-4.323V606.8l876.865-8.141Z" transform="translate(-285.813 -63.019)" fill="#433d4b"/><path d="M12.206,634.367c1.418-.358,27.286-6.125,33.667-6.847s42.526-8.289,52.449-8.289,36.148-11.893,56.348-22.345,19.845-1.081,43.237-5.338,19.843,1.734,31.538,0,30.48.653,40.756-3.672,24.663,3.846,28.917,1.683,44.654,5.408,45.718,0,3.188-7.568,7.441-10.814,41.469-17.3,55.292-22.707,70.173-31.356,90.377-58.391c3.643-4.874,3.941-5.268,5.329-7.133,7.552-8.9,11.21-7.59,19.126-11.249,11.7-5.406,11.7-16.22,13.823-21.628s31.9-19.462,35.086-30.275,10.393-12.483,35.556-18.968,17.364-4.325,25.87-6.487,6.025-.36,16.656-2.163,10.276-2.883,19.845-7.568,14.885-3.243,18.782-3.819a73.627,73.627,0,0,1,15.24-.029c2.479.474,14.885-4.8,21.542-10.5s7.517-4.034,10.707-7.28,4.253-.719,8.506-2.521,10.985-1.8,13.111-3.964,9.924-7.929,12.759-7.929A159.969,159.969,0,0,1,786.54,358.3c1.063.36,16.3-2.162,16.3-2.162s1.145-.731,2.9-1.884c-.109-1.524.952-.626,2.716-1.792l.007,0c1.757-1.163.045-1.008.664-1.817s0,0,.887-.629,1.063-.453,1.152-1.173.974-1.442.974-2.073,2.126,0,2.481,0a1.137,1.137,0,0,0,1.063-.45c.354-.45.62,0,.62,0a6.581,6.581,0,0,0,2.044-.67c.146-.107.293-.215.438-.319a17.6,17.6,0,0,1,3.9-2.187l.007,0a2.833,2.833,0,0,0,.966-.515,7.6,7.6,0,0,1,2.114-.416l0,0a28.977,28.977,0,0,1,3.695-.513,5.59,5.59,0,0,1,.392-1.014c.531-1.028.974-.041,2.3-.041s2.746.09,3.1,0,.885-1.262,1.329-1.531,2.038.631,3.277.631,1.152-.631,1.329-.9a5.4,5.4,0,0,1,1.063-.812,10.678,10.678,0,0,0,1.772-.9,1.587,1.587,0,0,0,.62-1.081,4.644,4.644,0,0,1,1.063-1.652l.354-.022a10.711,10.711,0,0,0,1.329,0c.355-.055.622-.668,1.065-1.478a5.036,5.036,0,0,1,.443-.721c.443-.721.531-.542,1.861-1.441l1.417-1.173c1.418-1.171.355-.54.887-1.712s.531.09,2.214,0,1.95-.812,2.657-1.355,3.366,0,3.366,0v0c2.6-1.441,6.845-2.977,12.405-4.956,7.088-2.523,9.213-5.768,12.4-6.581s17.366.813,19.138,0,9.922-.266,13.466-2.791,13.032-4.323,13.032-4.323,21.265-4.832,28.708,0,32.119,0,32.119,0v329.9L-7.275,647.03S10.788,634.728,12.206,634.367Z" transform="translate(413.224 -106.671)" fill="#433d4b"/><rect width="1380.034" height="414.618" transform="translate(13.578 113.799)" fill="none"/></g></g></svg>