<svg xmlns="http://www.w3.org/2000/svg" width="27.523" height="27.522" viewBox="0 0 27.523 27.522"><path d="M302,632.929c3.674,0,4.11.014,5.561.081a7.615,7.615,0,0,1,2.555.474,4.558,4.558,0,0,1,2.611,2.612,7.611,7.611,0,0,1,.474,2.555c.066,1.451.08,1.886.08,5.561s-.014,4.11-.08,5.56a7.611,7.611,0,0,1-.474,2.555,4.556,4.556,0,0,1-2.611,2.612,7.616,7.616,0,0,1-2.555.474c-1.451.066-1.886.08-5.561.08s-4.11-.014-5.561-.08a7.612,7.612,0,0,1-2.555-.474,4.559,4.559,0,0,1-2.612-2.612,7.617,7.617,0,0,1-.474-2.555c-.066-1.451-.08-1.886-.08-5.56s.014-4.11.08-5.561a7.617,7.617,0,0,1,.474-2.555,4.561,4.561,0,0,1,2.612-2.612,7.611,7.611,0,0,1,2.555-.474c1.451-.067,1.887-.081,5.561-.081m0-2.479c-3.737,0-4.206.016-5.674.083a10.105,10.105,0,0,0-3.341.64,7.032,7.032,0,0,0-4.024,4.025,10.1,10.1,0,0,0-.64,3.34c-.067,1.468-.083,1.936-.083,5.674s.016,4.206.083,5.674a10.105,10.105,0,0,0,.64,3.341,7.036,7.036,0,0,0,4.024,4.024,10.108,10.108,0,0,0,3.341.64c1.467.067,1.936.083,5.674.083s4.206-.016,5.674-.083a10.111,10.111,0,0,0,3.341-.64,7.04,7.04,0,0,0,4.024-4.024,10.105,10.105,0,0,0,.64-3.341c.067-1.468.083-1.936.083-5.674s-.016-4.206-.083-5.674a10.1,10.1,0,0,0-.64-3.34,7.036,7.036,0,0,0-4.024-4.025,10.108,10.108,0,0,0-3.341-.64c-1.468-.067-1.936-.083-5.674-.083Z" transform="translate(-288.234 -630.45)" fill="#fff"/><path d="M308.193,643.342a7.066,7.066,0,1,0,7.066,7.066A7.066,7.066,0,0,0,308.193,643.342Zm0,11.653a4.587,4.587,0,1,1,4.587-4.587A4.587,4.587,0,0,1,308.193,655Z" transform="translate(-294.432 -636.647)" fill="#fff"/><path d="M329,641.275a1.651,1.651,0,1,1-1.651-1.651A1.651,1.651,0,0,1,329,641.275Z" transform="translate(-306.245 -634.86)" fill="#fff"/></svg>