<svg xmlns="http://www.w3.org/2000/svg" width="135.604" height="184.575" viewBox="0 0 135.604 184.575">
  <g id="Group_944" data-name="Group 944" transform="translate(-243.972 306.341)">
    <path id="Path_15978" data-name="Path 15978" d="M273.759-166.16l-.156-.113c.5-.484,10.8-13.347,20.849-18.982,2.343-1.313,2.846-3.4,2.3-4.892-.59-1.625-2.684-3.259-6.643-2.516-5.736,1.077-14.168,7.821-17.691,14.149l-1.664-.926c3.818-6.858,12.7-13.911,19-15.1,5.133-.964,7.94,1.412,8.785,3.738.979,2.7-.292,5.594-3.165,7.2C285.55-178.082,273.879-166.277,273.759-166.16Z" fill="#fff"/>
    <path id="Path_15979" data-name="Path 15979" d="M274.035-166.009l-.055-.048a111.632,111.632,0,0,1,21.909-17.164,6.625,6.625,0,0,0,3.155-8.067c-.993-2.558-4.044-4.906-9.628-3.733-6.9,1.418-15.574,9.1-19.047,15.1l-.412-.239c3.524-6.089,12.343-13.88,19.363-15.324,5.9-1.226,9.1,1.288,10.168,4.026a7.093,7.093,0,0,1-3.356,8.65A125.326,125.326,0,0,0,274.035-166.009Z" fill="#fff"/>
    <g id="Group_938" data-name="Group 938">
      <path id="Path_15980" data-name="Path 15980" d="M348.735-167.572a185.237,185.237,0,0,0-15.37-12.979l1.137-1.529a80.155,80.155,0,0,1,14.374,14.444Z" fill="#fff"/>
      <path id="Path_15981" data-name="Path 15981" d="M348.375-167.373c-.061-.065-6.919-6.161-15.4-12.426l.283-.383a171.615,171.615,0,0,1,15.232,12.747Z" fill="#fff"/>
    </g>
    <g id="Group_939" data-name="Group 939" opacity="0.4">
      <path id="Path_15982" data-name="Path 15982" d="M313.88-167.485l-.25,7.152-.25-7.152Z" fill="#fff"/>
      <path id="Path_15983" data-name="Path 15983" d="M299.74-156.351a2.256,2.256,0,0,1,1.121-1.676,8.259,8.259,0,0,1,1.706-.862,20.745,20.745,0,0,1,3.627-.967,42.057,42.057,0,0,1,7.436-.6,42.108,42.108,0,0,1,7.424.663,20.679,20.679,0,0,1,3.6.994,8.047,8.047,0,0,1,1.677.864,2.151,2.151,0,0,1,1.06,1.586,2.146,2.146,0,0,1-1.069,1.575,8.114,8.114,0,0,1-1.679.847,20.629,20.629,0,0,1-3.6.961,41.972,41.972,0,0,1-7.413.6,42.014,42.014,0,0,1-7.4-.661,20.621,20.621,0,0,1-3.581-.987,8,8,0,0,1-1.65-.85,2.03,2.03,0,0,1-1.007-1.485Zm.25,0a2.028,2.028,0,0,0,1.016,1.473,8,8,0,0,0,1.652.833,20.6,20.6,0,0,0,3.581.954,41.882,41.882,0,0,0,7.391.6,41.928,41.928,0,0,0,7.379-.659,20.5,20.5,0,0,0,3.558-.981,7.828,7.828,0,0,0,1.623-.835,1.921,1.921,0,0,0,.955-1.383,1.919,1.919,0,0,0-.964-1.37,7.807,7.807,0,0,0-1.625-.818,20.451,20.451,0,0,0-3.559-.949,41.87,41.87,0,0,0-7.367-.595,41.624,41.624,0,0,0-7.356.657,20.229,20.229,0,0,0-3.536.974,7.74,7.74,0,0,0-1.6.821,1.8,1.8,0,0,0-.9,1.28Z" fill="#fff"/>
      <path id="Path_15984" data-name="Path 15984" d="M307.125-167.452l4.108,7.174L306.7-167.19Z" fill="#fff"/>
      <path id="Path_15985" data-name="Path 15985" d="M299.993-155.544a4.39,4.39,0,0,1-.2-.5,1.586,1.586,0,0,1,0-.558,1.8,1.8,0,0,1,.5-.92,5.017,5.017,0,0,1,1.61-1.078,17,17,0,0,1,3.591-1.115,39.367,39.367,0,0,1,7.425-.736,43.554,43.554,0,0,1,7.435.529,24.722,24.722,0,0,1,3.633.873,6.286,6.286,0,0,1,3.194,1.951,4.462,4.462,0,0,1,.188.467,1.446,1.446,0,0,1,0,.508,1.7,1.7,0,0,1-.474.858,4.924,4.924,0,0,1-1.572,1.049,16.908,16.908,0,0,1-3.564,1.1,39.229,39.229,0,0,1-7.4.734,43.486,43.486,0,0,1-7.413-.528,24.616,24.616,0,0,1-3.613-.868,6.184,6.184,0,0,1-3.126-1.9Zm.214-.131a6.16,6.16,0,0,0,3.136,1.868,24.521,24.521,0,0,0,3.613.837,43.543,43.543,0,0,0,7.4.464,39.113,39.113,0,0,0,7.364-.792,16.792,16.792,0,0,0,3.51-1.12,4.7,4.7,0,0,0,1.492-1.01,1.211,1.211,0,0,0,.242-1.543,6.08,6.08,0,0,0-3.069-1.815,24.24,24.24,0,0,0-3.594-.831,43.157,43.157,0,0,0-7.379-.463,38.9,38.9,0,0,0-7.339.789,16.631,16.631,0,0,0-3.482,1.11,4.58,4.58,0,0,0-1.454.982,1.084,1.084,0,0,0-.228,1.393Z" fill="#fff"/>
      <path id="Path_15986" data-name="Path 15986" d="M300.55-167.02l8.356,6.917-8.666-6.524Z" fill="#fff"/>
      <path id="Path_15987" data-name="Path 15987" d="M300.673-154.824a3.273,3.273,0,0,1-.678-.757,1.866,1.866,0,0,1-.2-.5,1.925,1.925,0,0,1,0-.557,2.7,2.7,0,0,1,1.291-1.523,12.575,12.575,0,0,1,3.523-1.355,36.379,36.379,0,0,1,7.406-.919,45.4,45.4,0,0,1,7.444.373,29.117,29.117,0,0,1,3.66.742,10.516,10.516,0,0,1,3.423,1.523,1.83,1.83,0,0,1,.834,1.693,2.589,2.589,0,0,1-1.236,1.444,12.466,12.466,0,0,1-3.486,1.338,36.212,36.212,0,0,1-7.38.915,45.031,45.031,0,0,1-7.423-.372,28.948,28.948,0,0,1-3.643-.738,10.412,10.412,0,0,1-3.379-1.5Zm.155-.2a10.391,10.391,0,0,0,3.387,1.47,28.925,28.925,0,0,0,3.643.706,45.1,45.1,0,0,0,7.411.31,36.153,36.153,0,0,0,7.338-.972,12.344,12.344,0,0,0,3.414-1.341,2.4,2.4,0,0,0,1.125-1.307,1.6,1.6,0,0,0-.76-1.45,10.3,10.3,0,0,0-3.343-1.448,28.874,28.874,0,0,0-3.626-.7,45.064,45.064,0,0,0-7.39-.308,35.982,35.982,0,0,0-7.312.968,12.214,12.214,0,0,0-3.377,1.325,2.284,2.284,0,0,0-1.07,1.226c-.109.491.274.968.715,1.327Z" fill="#fff"/>
      <path id="Path_15988" data-name="Path 15988" d="M294.389-166.233l12.331,6.417-12.554-5.97Z" fill="#fff"/>
      <path id="Path_15989" data-name="Path 15989" d="M301.725-154.183a5.1,5.1,0,0,1-1.568-1.163c-.1-.147-.189-.3-.272-.455a1.9,1.9,0,0,1-.106-.541,1.271,1.271,0,0,1,.106-.538,1.3,1.3,0,0,1,.261-.457,4.357,4.357,0,0,1,1.555-1.169,12.193,12.193,0,0,1,1.76-.7,32.258,32.258,0,0,1,7.371-1.187,46.7,46.7,0,0,1,7.451.18,23.034,23.034,0,0,1,7.234,1.77,4.994,4.994,0,0,1,1.526,1.129c.088.139.176.281.254.425a1.736,1.736,0,0,1,.1.495,1.148,1.148,0,0,1-.1.492,1.188,1.188,0,0,1-.245.426,4.251,4.251,0,0,1-1.511,1.133,12.137,12.137,0,0,1-1.741.688,32.078,32.078,0,0,1-7.341,1.181,46.448,46.448,0,0,1-7.431-.179,22.933,22.933,0,0,1-7.191-1.758Zm.111-.224a22.893,22.893,0,0,0,7.2,1.7,46.5,46.5,0,0,0,7.416.117,31.967,31.967,0,0,0,7.292-1.236,11.875,11.875,0,0,0,1.7-.69,4.049,4.049,0,0,0,1.429-1.082,1.181,1.181,0,0,0-.017-1.562,4.785,4.785,0,0,0-1.453-1.051,22.784,22.784,0,0,0-7.155-1.683,46.36,46.36,0,0,0-7.4-.117,31.821,31.821,0,0,0-7.261,1.23,11.787,11.787,0,0,0-1.687.683,3.927,3.927,0,0,0-1.385,1.045,1.051,1.051,0,0,0,.015,1.41,4.68,4.68,0,0,0,1.411,1.016Z" fill="#fff"/>
      <path id="Path_15990" data-name="Path 15990" d="M288.826-165.139l15.915,5.715-16.077-5.242Z" fill="#fff"/>
      <path id="Path_15991" data-name="Path 15991" d="M303.119-153.616a11.149,11.149,0,0,1-1.739-.77,3.4,3.4,0,0,1-1.44-1.345,1.469,1.469,0,0,1-.092-1.07,2.389,2.389,0,0,1,.577-.855,6.132,6.132,0,0,1,1.632-1.024,25.02,25.02,0,0,1,7.3-1.6,46.368,46.368,0,0,1,7.453-.058,30.208,30.208,0,0,1,7.33,1.327,11.076,11.076,0,0,1,1.717.76,3.3,3.3,0,0,1,1.389,1.29,1.339,1.339,0,0,1,.085.978,2.258,2.258,0,0,1-.544.8,6.043,6.043,0,0,1-1.6,1,24.883,24.883,0,0,1-7.258,1.589,46.351,46.351,0,0,1-7.433.058,30.033,30.033,0,0,1-7.3-1.321Zm.081-.237a30,30,0,0,0,7.3,1.259,46.14,46.14,0,0,0,7.416-.121,24.757,24.757,0,0,0,7.193-1.635,5.831,5.831,0,0,0,1.532-.975,2.067,2.067,0,0,0,.485-.721,1.125,1.125,0,0,0-.082-.821,3.093,3.093,0,0,0-1.307-1.18,10.78,10.78,0,0,0-1.682-.727,29.9,29.9,0,0,0-7.271-1.252,45.993,45.993,0,0,0-7.4.12,24.679,24.679,0,0,0-7.154,1.624,5.75,5.75,0,0,0-1.5.951,1.142,1.142,0,0,0-.377,1.4,2.978,2.978,0,0,0,1.255,1.125,10.656,10.656,0,0,0,1.662.718Z" fill="#fff"/>
      <path id="Path_15992" data-name="Path 15992" d="M284.024-163.778l19,4.84-19.122-4.354Z" fill="#fff"/>
      <path id="Path_15993" data-name="Path 15993" d="M304.818-153.132a13.694,13.694,0,0,1-3.536-1.321,3.167,3.167,0,0,1-1.39-1.4,1.617,1.617,0,0,1-.109-.534,2.06,2.06,0,0,1,.115-.532,2.5,2.5,0,0,1,.613-.815,9.327,9.327,0,0,1,3.427-1.6,27.954,27.954,0,0,1,3.667-.741,45.546,45.546,0,0,1,7.445-.353,37.954,37.954,0,0,1,7.391.931,13.6,13.6,0,0,1,3.5,1.307,3.052,3.052,0,0,1,1.337,1.339,1.474,1.474,0,0,1,.1.488,1.916,1.916,0,0,1-.105.487,2.394,2.394,0,0,1-.581.769,9.243,9.243,0,0,1-3.378,1.577,27.887,27.887,0,0,1-3.65.736,45.272,45.272,0,0,1-7.424.352,37.867,37.867,0,0,1-7.365-.927Zm.059-.243a37.793,37.793,0,0,0,7.367.865,45.366,45.366,0,0,0,7.4-.413,28.025,28.025,0,0,0,3.623-.763,9.11,9.11,0,0,0,3.3-1.566,1.351,1.351,0,0,0,.522-1.532,2.87,2.87,0,0,0-1.258-1.224,13.364,13.364,0,0,0-3.449-1.252,37.652,37.652,0,0,0-7.342-.861,45.087,45.087,0,0,0-7.383.412,27.51,27.51,0,0,0-3.607.759,9,9,0,0,0-3.247,1.539,1.224,1.224,0,0,0-.489,1.393,2.774,2.774,0,0,0,1.2,1.162,13.28,13.28,0,0,0,3.415,1.238Z" fill="#fff"/>
      <path id="Path_15994" data-name="Path 15994" d="M280.126-162.2l21.51,3.823L280.044-161.7Z" fill="#fff"/>
      <path id="Path_15995" data-name="Path 15995" d="M306.776-152.742a24.25,24.25,0,0,1-3.643-.9,10.127,10.127,0,0,1-1.739-.759,3.57,3.57,0,0,1-1.442-1.326,1.318,1.318,0,0,1-.151-.515c-.006-.092-.015-.185-.015-.275l.067-.265a1.951,1.951,0,0,1,.559-.855,5.622,5.622,0,0,1,1.624-1.024,17.538,17.538,0,0,1,3.592-1.085,39.892,39.892,0,0,1,7.422-.708,43.383,43.383,0,0,1,7.428.551,24.106,24.106,0,0,1,3.623.894,10.011,10.011,0,0,1,1.717.749,3.441,3.441,0,0,1,1.392,1.274,1.188,1.188,0,0,1,.139.472l.014.25-.062.241a1.823,1.823,0,0,1-.527.8,5.512,5.512,0,0,1-1.588,1,17.5,17.5,0,0,1-3.565,1.077,39.942,39.942,0,0,1-7.4.705,43.2,43.2,0,0,1-7.406-.55Zm.041-.247a43.193,43.193,0,0,0,7.4.487,39.729,39.729,0,0,0,7.373-.765,17.352,17.352,0,0,0,3.526-1.1,5.379,5.379,0,0,0,1.532-.979,1.292,1.292,0,0,0,.39-1.56,3.292,3.292,0,0,0-1.324-1.18,9.808,9.808,0,0,0-1.69-.719,23.756,23.756,0,0,0-3.592-.854,43.132,43.132,0,0,0-7.384-.486,39.692,39.692,0,0,0-7.349.763,17.2,17.2,0,0,0-3.5,1.087,5.239,5.239,0,0,0-1.5.955,1.165,1.165,0,0,0-.366,1.415,3.184,3.184,0,0,0,1.274,1.126,9.628,9.628,0,0,0,1.668.711,23.751,23.751,0,0,0,3.573.848Z" fill="#fff"/>
      <path id="Path_15996" data-name="Path 15996" d="M277.246-160.445l23.358,2.695-23.41-2.2Z" fill="#fff"/>
      <path id="Path_15997" data-name="Path 15997" d="M308.935-152.456a22.767,22.767,0,0,1-7.26-1.8,4.535,4.535,0,0,1-1.539-1.178,1.457,1.457,0,0,1-.253-.455l-.085-.255c-.007-.09-.005-.182-.006-.274a1.584,1.584,0,0,1,.386-.963,7.3,7.3,0,0,1,3.315-1.824,32.012,32.012,0,0,1,7.366-1.172,46.757,46.757,0,0,1,7.446.183,22.649,22.649,0,0,1,7.217,1.79,4.415,4.415,0,0,1,1.495,1.142,1.323,1.323,0,0,1,.236.423l.079.234,0,.249a1.46,1.46,0,0,1-.359.888,7.211,7.211,0,0,1-3.254,1.783,31.951,31.951,0,0,1-7.336,1.166,46.5,46.5,0,0,1-7.426-.183Zm.026-.249a46.452,46.452,0,0,0,7.422.12,31.851,31.851,0,0,0,7.3-1.222,7.115,7.115,0,0,0,3.169-1.76,1.208,1.208,0,0,0,.025-1.6,4.256,4.256,0,0,0-1.442-1.077,22.463,22.463,0,0,0-7.158-1.708,46.424,46.424,0,0,0-7.4-.12,31.78,31.78,0,0,0-7.272,1.217,7.028,7.028,0,0,0-3.109,1.718,1.082,1.082,0,0,0-.023,1.444,4.152,4.152,0,0,0,1.4,1.04,22.345,22.345,0,0,0,7.114,1.7Z" fill="#fff"/>
      <path id="Path_15998" data-name="Path 15998" d="M275.472-158.576l24.494,1.492-24.52-.992Z" fill="#fff"/>
      <path id="Path_15999" data-name="Path 15999" d="M311.232-152.283a33.805,33.805,0,0,1-7.382-1.149,9.074,9.074,0,0,1-3.4-1.657,2.161,2.161,0,0,1-.581-.828,1.185,1.185,0,0,1-.077-.529l.025-.271.1-.243a3.291,3.291,0,0,1,1.4-1.347,20.649,20.649,0,0,1,7.221-1.878,46.173,46.173,0,0,1,7.445-.193,33.655,33.655,0,0,1,7.354,1.144,8.99,8.99,0,0,1,3.349,1.628,2.047,2.047,0,0,1,.549.779,1.065,1.065,0,0,1,.07.482l-.021.246-.1.224a3.178,3.178,0,0,1-1.351,1.288,20.545,20.545,0,0,1-7.172,1.862,46.036,46.036,0,0,1-7.425.192Zm.013-.25a46.063,46.063,0,0,0,7.418-.254,20.471,20.471,0,0,0,7.116-1.908,3.056,3.056,0,0,0,1.285-1.236,1.329,1.329,0,0,0-.48-1.561,8.845,8.845,0,0,0-3.3-1.562,33.514,33.514,0,0,0-7.313-1.075,46.037,46.037,0,0,0-7.4.254,20.391,20.391,0,0,0-7.068,1.892,2.957,2.957,0,0,0-1.233,1.177,1.207,1.207,0,0,0,.451,1.421,8.757,8.757,0,0,0,3.245,1.533,33.358,33.358,0,0,0,7.284,1.07Z" fill="#fff"/>
      <path id="Path_16000" data-name="Path 16000" d="M274.855-156.647l24.885.25-24.885.25Z" fill="#fff"/>
      <path id="Path_16001" data-name="Path 16001" d="M313.6-152.227a42.063,42.063,0,0,1-7.436-.664,20.714,20.714,0,0,1-3.616-1,8.128,8.128,0,0,1-1.69-.871,2.208,2.208,0,0,1-1.086-1.638,2.2,2.2,0,0,1,1.1-1.625,8.151,8.151,0,0,1,1.693-.854,20.716,20.716,0,0,1,3.615-.965,42.115,42.115,0,0,1,7.425-.6,42.081,42.081,0,0,1,7.413.663,20.645,20.645,0,0,1,3.592.99,8.014,8.014,0,0,1,1.664.857A2.092,2.092,0,0,1,327.3-156.4a2.084,2.084,0,0,1-1.042,1.524,8.036,8.036,0,0,1-1.666.84,20.675,20.675,0,0,1-3.593.958,41.914,41.914,0,0,1-7.4.6Zm0-.25a41.872,41.872,0,0,0,7.39-.66,20.6,20.6,0,0,0,3.57-.983,7.962,7.962,0,0,0,1.636-.843,1.974,1.974,0,0,0,.981-1.434,1.973,1.973,0,0,0-.99-1.421,7.92,7.92,0,0,0-1.639-.826,20.457,20.457,0,0,0-3.569-.951,41.834,41.834,0,0,0-7.379-.6,41.872,41.872,0,0,0-7.368.658,20.367,20.367,0,0,0-3.547.978,7.82,7.82,0,0,0-1.61.828,1.863,1.863,0,0,0-.928,1.331,1.861,1.861,0,0,0,.937,1.32,7.853,7.853,0,0,0,1.612.811,20.338,20.338,0,0,0,3.548.945,41.629,41.629,0,0,0,7.356.594Z" fill="#fff"/>
      <path id="Path_16002" data-name="Path 16002" d="M275.413-154.716l24.52-.992-24.494,1.492Z" fill="#fff"/>
      <path id="Path_16003" data-name="Path 16003" d="M315.961-152.289a46.349,46.349,0,0,1-7.459-.256,20.706,20.706,0,0,1-7.213-1.94,3.3,3.3,0,0,1-1.39-1.353l-.1-.242-.023-.267a1.173,1.173,0,0,1,.079-.52,2.166,2.166,0,0,1,.581-.814,9.034,9.034,0,0,1,3.4-1.619,33.713,33.713,0,0,1,7.371-1.085,46.214,46.214,0,0,1,7.439.256,20.6,20.6,0,0,1,7.164,1.923,3.182,3.182,0,0,1,1.338,1.295l.092.222.019.243a1.038,1.038,0,0,1-.072.472,2.025,2.025,0,0,1-.548.765,8.961,8.961,0,0,1-3.346,1.591,33.617,33.617,0,0,1-7.342,1.079Zm-.012-.25a33.6,33.6,0,0,0,7.324-1.139,8.867,8.867,0,0,0,3.3-1.6,1.352,1.352,0,0,0,.473-1.59,3.069,3.069,0,0,0-1.3-1.229,20.447,20.447,0,0,0-7.124-1.846,46,46,0,0,0-7.4-.192,33.387,33.387,0,0,0-7.3,1.135,8.778,8.778,0,0,0-3.249,1.57,1.227,1.227,0,0,0-.443,1.45,2.955,2.955,0,0,0,1.247,1.17,20.345,20.345,0,0,0,7.075,1.83,45.864,45.864,0,0,0,7.384.191Z" fill="#fff"/>
      <path id="Path_16004" data-name="Path 16004" d="M277.129-152.842l23.41-2.2-23.358,2.695Z" fill="#fff"/>
      <path id="Path_16005" data-name="Path 16005" d="M318.252-152.469a46.6,46.6,0,0,1-7.462.121,32.015,32.015,0,0,1-7.363-1.234,7.288,7.288,0,0,1-3.29-1.843,1.543,1.543,0,0,1-.371-.945l.007-.266.085-.247a1.406,1.406,0,0,1,.25-.442,4.488,4.488,0,0,1,1.529-1.151,22.7,22.7,0,0,1,7.246-1.733,46.588,46.588,0,0,1,7.442-.121,31.988,31.988,0,0,1,7.332,1.228,7.206,7.206,0,0,1,3.23,1.8,1.424,1.424,0,0,1,.344.87l0,.241-.079.226a1.309,1.309,0,0,1-.233.411,4.385,4.385,0,0,1-1.486,1.114,22.56,22.56,0,0,1-7.2,1.72Zm-.026-.249a22.509,22.509,0,0,0,7.173-1.776,4.309,4.309,0,0,0,1.452-1.1,1.248,1.248,0,0,0-.038-1.643,7.122,7.122,0,0,0-3.194-1.741,31.867,31.867,0,0,0-7.3-1.16,46.472,46.472,0,0,0-7.4.182,22.446,22.446,0,0,0-7.13,1.764,4.2,4.2,0,0,0-1.408,1.068,1.12,1.12,0,0,0,.036,1.491,7.032,7.032,0,0,0,3.133,1.7,31.7,31.7,0,0,0,7.276,1.154,46.21,46.21,0,0,0,7.384-.181Z" fill="#fff"/>
      <path id="Path_16006" data-name="Path 16006" d="M279.948-151.082l21.592-3.329-21.51,3.822Z" fill="#fff"/>
      <path id="Path_16007" data-name="Path 16007" d="M320.4-152.761a43.336,43.336,0,0,1-7.449.491,40.146,40.146,0,0,1-7.421-.77,17.644,17.644,0,0,1-3.579-1.114,5.6,5.6,0,0,1-1.6-1.029,1.9,1.9,0,0,1-.539-.837l-.063-.255c0-.087.01-.176.017-.263a1.254,1.254,0,0,1,.148-.494,3.5,3.5,0,0,1,1.425-1.286,10.032,10.032,0,0,1,1.73-.738,24.026,24.026,0,0,1,3.634-.864,43.254,43.254,0,0,1,7.427-.489,39.861,39.861,0,0,1,7.4.768,17.41,17.41,0,0,1,3.552,1.105,5.455,5.455,0,0,1,1.568,1,1.416,1.416,0,0,1,.413,1.7,3.387,3.387,0,0,1-1.374,1.233,9.866,9.866,0,0,1-1.71.729,23.938,23.938,0,0,1-3.613.859Zm-.041-.246a23.935,23.935,0,0,0,3.6-.889,9.919,9.919,0,0,0,1.7-.74,3.337,3.337,0,0,0,1.341-1.22,1.346,1.346,0,0,0-.412-1.621,5.4,5.4,0,0,0-1.552-.974,17.366,17.366,0,0,0-3.539-1.068,39.821,39.821,0,0,0-7.374-.7,43.219,43.219,0,0,0-7.383.548,23.852,23.852,0,0,0-3.583.884,9.738,9.738,0,0,0-1.676.731,3.229,3.229,0,0,0-1.292,1.167,1.221,1.221,0,0,0,.389,1.476,5.28,5.28,0,0,0,1.516.949,17.219,17.219,0,0,0,3.512,1.059,39.615,39.615,0,0,0,7.35.7,42.952,42.952,0,0,0,7.362-.546Z" fill="#fff"/>
      <path id="Path_16008" data-name="Path 16008" d="M283.784-149.488l19.122-4.354-19,4.84Z" fill="#fff"/>
      <path id="Path_16009" data-name="Path 16009" d="M322.347-153.156a38.039,38.039,0,0,1-7.418.872,45.462,45.462,0,0,1-7.447-.416,27.959,27.959,0,0,1-3.659-.77,9.309,9.309,0,0,1-3.394-1.621,2.439,2.439,0,0,1-.59-.795,2.007,2.007,0,0,1-.1-.506,1.508,1.508,0,0,1,.108-.505,3.088,3.088,0,0,1,1.364-1.35,13.563,13.563,0,0,1,3.518-1.279,37.807,37.807,0,0,1,7.393-.869,45.421,45.421,0,0,1,7.426.414,27.914,27.914,0,0,1,3.641.767,9.212,9.212,0,0,1,3.345,1.593,1.476,1.476,0,0,1,.554,1.669,2.976,2.976,0,0,1-1.311,1.287,13.444,13.444,0,0,1-3.484,1.266Zm-.059-.243a13.439,13.439,0,0,0,3.468-1.293,2.94,2.94,0,0,0,1.284-1.277,1.42,1.42,0,0,0-.553-1.605,9.145,9.145,0,0,0-3.329-1.55,27.888,27.888,0,0,0-3.633-.733,45.343,45.343,0,0,0-7.4-.351,37.7,37.7,0,0,0-7.339.925,13.361,13.361,0,0,0-3.434,1.278,2.842,2.842,0,0,0-1.23,1.215,1.3,1.3,0,0,0,.52,1.468,9.054,9.054,0,0,0,3.28,1.522,27.646,27.646,0,0,0,3.615.729,45.184,45.184,0,0,0,7.382.35,37.624,37.624,0,0,0,7.314-.921Z" fill="#fff"/>
      <path id="Path_16010" data-name="Path 16010" d="M288.517-148.108l16.077-5.242-15.915,5.715Z" fill="#fff"/>
      <path id="Path_16011" data-name="Path 16011" d="M324.031-153.645a30.228,30.228,0,0,1-7.366,1.272,46.416,46.416,0,0,1-7.457-.121,25,25,0,0,1-7.272-1.656,6.1,6.1,0,0,1-1.6-1.023,2.331,2.331,0,0,1-.549-.826,1.378,1.378,0,0,1,.094-1,3.318,3.318,0,0,1,1.41-1.291,11.079,11.079,0,0,1,1.725-.746,30.121,30.121,0,0,1,7.334-1.265,46.272,46.272,0,0,1,7.436.121,24.9,24.9,0,0,1,7.233,1.645,5.979,5.979,0,0,1,1.568,1,2.194,2.194,0,0,1,.517.774,1.247,1.247,0,0,1-.088.912,3.2,3.2,0,0,1-1.358,1.235,10.889,10.889,0,0,1-1.7.737Zm-.081-.236a10.971,10.971,0,0,0,1.7-.75,3.183,3.183,0,0,0,1.338-1.235,1.217,1.217,0,0,0,.079-.887,2.148,2.148,0,0,0-.513-.752,5.945,5.945,0,0,0-1.56-.976,24.817,24.817,0,0,0-7.219-1.578,46.206,46.206,0,0,0-7.412-.058,29.867,29.867,0,0,0-7.266,1.315,10.642,10.642,0,0,0-1.675.741,3.057,3.057,0,0,0-1.286,1.179,1.09,1.09,0,0,0-.073.8,2.049,2.049,0,0,0,.48.7,5.82,5.82,0,0,0,1.525.951,24.713,24.713,0,0,0,7.18,1.568,46.057,46.057,0,0,0,7.391.058,29.8,29.8,0,0,0,7.234-1.309Z" fill="#fff"/>
      <path id="Path_16012" data-name="Path 16012" d="M294-146.98l12.554-5.97-12.331,6.417Z" fill="#fff"/>
      <path id="Path_16013" data-name="Path 16013" d="M325.406-154.215a23.058,23.058,0,0,1-7.283,1.72,46.543,46.543,0,0,1-7.457.118,32.184,32.184,0,0,1-7.353-1.246,12.187,12.187,0,0,1-1.743-.707,4.268,4.268,0,0,1-1.515-1.155,1.212,1.212,0,0,1-.246-.435,1.191,1.191,0,0,1-.094-.5,1.777,1.777,0,0,1,.1-.5c.081-.146.17-.289.26-.427a5,5,0,0,1,1.538-1.12,22.987,22.987,0,0,1,7.241-1.707,46.521,46.521,0,0,1,7.437-.118,32.058,32.058,0,0,1,7.322,1.241,12.029,12.029,0,0,1,1.724.7,4.183,4.183,0,0,1,1.472,1.119,1.106,1.106,0,0,1,.228.405,1.038,1.038,0,0,1,.087.455,1.643,1.643,0,0,1-.092.456c-.075.135-.159.268-.242.4a4.885,4.885,0,0,1-1.5,1.085Zm-.111-.224a4.861,4.861,0,0,0,1.483-1.1c.082-.129.163-.262.237-.4a1.646,1.646,0,0,0,.087-.449,1.046,1.046,0,0,0-.089-.446,1.073,1.073,0,0,0-.228-.395,4.133,4.133,0,0,0-1.469-1.1,11.75,11.75,0,0,0-1.721-.68,31.955,31.955,0,0,0-7.311-1.176,46.418,46.418,0,0,0-7.41.179,22.8,22.8,0,0,0-7.148,1.745,4.77,4.77,0,0,0-1.442,1.061,1.156,1.156,0,0,0,0,1.533,4.013,4.013,0,0,0,1.425,1.059,11.822,11.822,0,0,0,1.7.673,31.87,31.87,0,0,0,7.28,1.17,46.281,46.281,0,0,0,7.39-.179,22.69,22.69,0,0,0,7.106-1.733Z" fill="#fff"/>
      <path id="Path_16014" data-name="Path 16014" d="M300.06-146.129l8.666-6.524-8.356,6.917Z" fill="#fff"/>
      <path id="Path_16015" data-name="Path 16015" d="M326.438-154.859a10.585,10.585,0,0,1-3.476,1.515,29.091,29.091,0,0,1-3.676.714,45.392,45.392,0,0,1-7.452.311,36.3,36.3,0,0,1-7.391-.98,12.493,12.493,0,0,1-3.488-1.373,2.615,2.615,0,0,1-1.235-1.466,1.838,1.838,0,0,1,.85-1.7A10.484,10.484,0,0,1,304-159.327a28.891,28.891,0,0,1,3.659-.71,45.134,45.134,0,0,1,7.431-.31,36.183,36.183,0,0,1,7.365.975,12.455,12.455,0,0,1,3.451,1.357,2.506,2.506,0,0,1,1.18,1.387,1.717,1.717,0,0,1-.805,1.573Zm-.155-.2a1.708,1.708,0,0,0,.789-1.57,2.474,2.474,0,0,0-1.181-1.363,12.362,12.362,0,0,0-3.449-1.323,36.045,36.045,0,0,0-7.354-.911,44.99,44.99,0,0,0-7.4.371,28.716,28.716,0,0,0-3.626.735,10.267,10.267,0,0,0-3.335,1.478,1.588,1.588,0,0,0-.744,1.447,2.371,2.371,0,0,0,1.126,1.283,12.265,12.265,0,0,0,3.412,1.306,35.939,35.939,0,0,0,7.328.908,44.951,44.951,0,0,0,7.381-.37,28.693,28.693,0,0,0,3.609-.732,10.173,10.173,0,0,0,3.291-1.455Z" fill="#fff"/>
      <path id="Path_16016" data-name="Path 16016" d="M306.509-145.558l4.534-6.912-4.108,7.174Z" fill="#fff"/>
      <path id="Path_16017" data-name="Path 16017" d="M327.1-155.58a6.349,6.349,0,0,1-3.271,1.974,24.681,24.681,0,0,1-3.652.846,43.573,43.573,0,0,1-7.445.467,39.225,39.225,0,0,1-7.412-.8,16.925,16.925,0,0,1-3.564-1.138,4.942,4.942,0,0,1-1.57-1.067,1.7,1.7,0,0,1-.47-.867,1.483,1.483,0,0,1,.006-.51,4.4,4.4,0,0,1,.193-.466,6.256,6.256,0,0,1,3.2-1.921,24.56,24.56,0,0,1,3.633-.842,43.506,43.506,0,0,1,7.423-.465,39.174,39.174,0,0,1,7.388.794,16.869,16.869,0,0,1,3.537,1.129,4.817,4.817,0,0,1,1.531,1.039,1.577,1.577,0,0,1,.439.8,1.348,1.348,0,0,1-.005.461c-.043.147-.119.285-.177.428Zm-.213-.131a1.334,1.334,0,0,0-.269-1.683,4.814,4.814,0,0,0-1.532-1.021,16.935,16.935,0,0,0-3.537-1.1,39.106,39.106,0,0,0-7.377-.73,43.309,43.309,0,0,0-7.391.526,24.457,24.457,0,0,0-3.594.863,6.093,6.093,0,0,0-3.059,1.845,1.206,1.206,0,0,0,.254,1.533,4.707,4.707,0,0,0,1.494.992,16.738,16.738,0,0,0,3.509,1.087,38.984,38.984,0,0,0,7.353.727,43.131,43.131,0,0,0,7.369-.524,24.133,24.133,0,0,0,3.574-.859,6.006,6.006,0,0,0,2.993-1.791Z" fill="#fff"/>
      <path id="Path_16018" data-name="Path 16018" d="M313.188-145.253l.25-7.152.25,7.152Z" fill="#fff"/>
      <path id="Path_16019" data-name="Path 16019" d="M327.327-156.387a2.255,2.255,0,0,1-1.121,1.676,8.258,8.258,0,0,1-1.706.862,20.757,20.757,0,0,1-3.626.967,42.074,42.074,0,0,1-7.436.6,42.112,42.112,0,0,1-7.425-.663,20.681,20.681,0,0,1-3.6-.994,8.048,8.048,0,0,1-1.677-.864,2.147,2.147,0,0,1-1.059-1.586,2.142,2.142,0,0,1,1.068-1.575,8.116,8.116,0,0,1,1.679-.847,20.63,20.63,0,0,1,3.6-.961,41.975,41.975,0,0,1,7.414-.6,42.013,42.013,0,0,1,7.4.661,20.632,20.632,0,0,1,3.582.987,8.016,8.016,0,0,1,1.649.85,2.03,2.03,0,0,1,1.007,1.485Zm-.25,0a2.028,2.028,0,0,0-1.016-1.473,8,8,0,0,0-1.652-.833,20.575,20.575,0,0,0-3.581-.954,41.869,41.869,0,0,0-7.39-.6,41.92,41.92,0,0,0-7.379.659,20.488,20.488,0,0,0-3.559.981,7.827,7.827,0,0,0-1.623.835,1.917,1.917,0,0,0-.954,1.383,1.916,1.916,0,0,0,.963,1.37,7.79,7.79,0,0,0,1.626.818,20.439,20.439,0,0,0,3.558.949,41.875,41.875,0,0,0,7.368.6,41.623,41.623,0,0,0,7.355-.657,20.231,20.231,0,0,0,3.536-.974,7.717,7.717,0,0,0,1.6-.821,1.8,1.8,0,0,0,.9-1.28Z" fill="#fff"/>
      <path id="Path_16020" data-name="Path 16020" d="M319.942-145.286l-4.108-7.174,4.534,6.912Z" fill="#fff"/>
      <path id="Path_16021" data-name="Path 16021" d="M327.074-157.194a4.216,4.216,0,0,1,.2.5,1.586,1.586,0,0,1,0,.558,1.812,1.812,0,0,1-.505.921,5.03,5.03,0,0,1-1.61,1.077,16.982,16.982,0,0,1-3.591,1.115,39.368,39.368,0,0,1-7.425.736,43.554,43.554,0,0,1-7.435-.529,24.724,24.724,0,0,1-3.633-.873,6.279,6.279,0,0,1-3.193-1.951,4.261,4.261,0,0,1-.189-.467,1.5,1.5,0,0,1,0-.508,1.7,1.7,0,0,1,.475-.858,4.909,4.909,0,0,1,1.571-1.049,16.909,16.909,0,0,1,3.564-1.1,39.231,39.231,0,0,1,7.4-.734,43.486,43.486,0,0,1,7.413.528,24.553,24.553,0,0,1,3.613.868,6.19,6.19,0,0,1,3.127,1.9Zm-.213.131a6.174,6.174,0,0,0-3.137-1.868,24.523,24.523,0,0,0-3.613-.837,43.541,43.541,0,0,0-7.4-.464,39.123,39.123,0,0,0-7.364.792,16.767,16.767,0,0,0-3.509,1.12,4.694,4.694,0,0,0-1.493,1.01,1.212,1.212,0,0,0-.242,1.543,6.085,6.085,0,0,0,3.069,1.815,24.27,24.27,0,0,0,3.594.831,43.156,43.156,0,0,0,7.379.463,38.9,38.9,0,0,0,7.339-.789,16.639,16.639,0,0,0,3.483-1.11,4.576,4.576,0,0,0,1.453-.982,1.084,1.084,0,0,0,.229-1.393Z" fill="#fff"/>
      <path id="Path_16022" data-name="Path 16022" d="M326.517-145.718l-8.356-6.917,8.666,6.524Z" fill="#fff"/>
      <path id="Path_16023" data-name="Path 16023" d="M326.394-157.914a3.273,3.273,0,0,1,.678.757,1.832,1.832,0,0,1,.2.5,1.926,1.926,0,0,1,0,.557,2.7,2.7,0,0,1-1.291,1.523,12.563,12.563,0,0,1-3.523,1.355,36.379,36.379,0,0,1-7.406.919,45.4,45.4,0,0,1-7.444-.373,29.152,29.152,0,0,1-3.66-.742,10.5,10.5,0,0,1-3.422-1.523,1.829,1.829,0,0,1-.835-1.693,2.592,2.592,0,0,1,1.236-1.444,12.478,12.478,0,0,1,3.486-1.338,36.211,36.211,0,0,1,7.38-.915,45.033,45.033,0,0,1,7.423.372,28.911,28.911,0,0,1,3.643.738,10.412,10.412,0,0,1,3.379,1.5Zm-.155.2a10.391,10.391,0,0,0-3.387-1.47,28.922,28.922,0,0,0-3.643-.706,45.089,45.089,0,0,0-7.41-.31,36.153,36.153,0,0,0-7.339.972,12.344,12.344,0,0,0-3.414,1.341,2.392,2.392,0,0,0-1.124,1.307,1.6,1.6,0,0,0,.76,1.45,10.289,10.289,0,0,0,3.342,1.448,28.854,28.854,0,0,0,3.627.7,45.044,45.044,0,0,0,7.389.308,35.962,35.962,0,0,0,7.312-.968,12.19,12.19,0,0,0,3.377-1.325,2.285,2.285,0,0,0,1.07-1.226c.109-.491-.274-.968-.715-1.327Z" fill="#fff"/>
      <path id="Path_16024" data-name="Path 16024" d="M332.678-146.5l-12.331-6.417,12.554,5.97Z" fill="#fff"/>
      <path id="Path_16025" data-name="Path 16025" d="M325.342-158.555a5.1,5.1,0,0,1,1.568,1.163c.1.147.189.3.272.455a1.9,1.9,0,0,1,.106.541,1.286,1.286,0,0,1-.1.538,1.314,1.314,0,0,1-.262.457,4.357,4.357,0,0,1-1.555,1.169,12.192,12.192,0,0,1-1.76.7,32.248,32.248,0,0,1-7.371,1.187,46.7,46.7,0,0,1-7.451-.18,23.034,23.034,0,0,1-7.234-1.77,4.994,4.994,0,0,1-1.526-1.129c-.088-.139-.175-.281-.254-.425a1.773,1.773,0,0,1-.1-.5,1.148,1.148,0,0,1,.1-.492,1.189,1.189,0,0,1,.245-.426,4.246,4.246,0,0,1,1.512-1.133,12.077,12.077,0,0,1,1.74-.688,32.078,32.078,0,0,1,7.341-1.181,46.563,46.563,0,0,1,7.431.179,22.927,22.927,0,0,1,7.191,1.758Zm-.111.224a22.858,22.858,0,0,0-7.2-1.7,46.375,46.375,0,0,0-7.416-.118,31.976,31.976,0,0,0-7.292,1.236,11.876,11.876,0,0,0-1.705.69,4.067,4.067,0,0,0-1.429,1.082,1.181,1.181,0,0,0,.017,1.562,4.777,4.777,0,0,0,1.454,1.051,22.778,22.778,0,0,0,7.154,1.683,46.359,46.359,0,0,0,7.4.117,31.838,31.838,0,0,0,7.262-1.23,11.658,11.658,0,0,0,1.686-.683,3.927,3.927,0,0,0,1.385-1.045,1.052,1.052,0,0,0-.014-1.41,4.693,4.693,0,0,0-1.411-1.016Z" fill="#fff"/>
      <path id="Path_16026" data-name="Path 16026" d="M338.241-147.6l-15.915-5.715,16.077,5.242Z" fill="#fff"/>
      <path id="Path_16027" data-name="Path 16027" d="M323.949-159.122a11.178,11.178,0,0,1,1.738.77,3.4,3.4,0,0,1,1.44,1.345,1.469,1.469,0,0,1,.092,1.07,2.388,2.388,0,0,1-.577.855,6.1,6.1,0,0,1-1.632,1.024,25.022,25.022,0,0,1-7.3,1.6,46.368,46.368,0,0,1-7.453.058,30.191,30.191,0,0,1-7.329-1.327,11.041,11.041,0,0,1-1.718-.76,3.3,3.3,0,0,1-1.389-1.29,1.339,1.339,0,0,1-.085-.978,2.261,2.261,0,0,1,.545-.8,6.022,6.022,0,0,1,1.6-1,24.89,24.89,0,0,1,7.259-1.589,46.336,46.336,0,0,1,7.432-.058,30.041,30.041,0,0,1,7.3,1.321Zm-.081.237a30.007,30.007,0,0,0-7.3-1.259,46.14,46.14,0,0,0-7.416.121,24.758,24.758,0,0,0-7.193,1.635,5.863,5.863,0,0,0-1.532.975,2.081,2.081,0,0,0-.485.721,1.125,1.125,0,0,0,.082.821,3.1,3.1,0,0,0,1.307,1.18,10.752,10.752,0,0,0,1.683.727,29.933,29.933,0,0,0,7.27,1.253,46.106,46.106,0,0,0,7.395-.121,24.679,24.679,0,0,0,7.154-1.624,5.751,5.751,0,0,0,1.5-.951,1.144,1.144,0,0,0,.378-1.4,2.987,2.987,0,0,0-1.256-1.125,10.684,10.684,0,0,0-1.661-.718Z" fill="#fff"/>
      <path id="Path_16028" data-name="Path 16028" d="M343.043-148.96l-19-4.84,19.122,4.354Z" fill="#fff"/>
      <path id="Path_16029" data-name="Path 16029" d="M322.249-159.606a13.694,13.694,0,0,1,3.536,1.321,3.167,3.167,0,0,1,1.39,1.4,1.592,1.592,0,0,1,.109.534,2.06,2.06,0,0,1-.114.532,2.518,2.518,0,0,1-.614.815,9.327,9.327,0,0,1-3.427,1.6,27.955,27.955,0,0,1-3.667.741,45.546,45.546,0,0,1-7.445.353,37.952,37.952,0,0,1-7.391-.931,13.6,13.6,0,0,1-3.5-1.307,3.052,3.052,0,0,1-1.337-1.339,1.474,1.474,0,0,1-.1-.488,1.959,1.959,0,0,1,.1-.487,2.4,2.4,0,0,1,.581-.769,9.244,9.244,0,0,1,3.378-1.577,27.92,27.92,0,0,1,3.65-.736,45.274,45.274,0,0,1,7.424-.352,37.867,37.867,0,0,1,7.365.927Zm-.059.243a37.792,37.792,0,0,0-7.367-.865,45.354,45.354,0,0,0-7.4.413,28.008,28.008,0,0,0-3.624.763,9.11,9.11,0,0,0-3.3,1.566,1.351,1.351,0,0,0-.522,1.532,2.871,2.871,0,0,0,1.258,1.224,13.359,13.359,0,0,0,3.45,1.252,37.633,37.633,0,0,0,7.341.861,45.1,45.1,0,0,0,7.384-.412,27.5,27.5,0,0,0,3.606-.759,8.991,8.991,0,0,0,3.247-1.539,1.224,1.224,0,0,0,.489-1.393,2.769,2.769,0,0,0-1.205-1.162,13.28,13.28,0,0,0-3.415-1.238Z" fill="#fff"/>
      <path id="Path_16030" data-name="Path 16030" d="M346.941-150.541l-21.51-3.823,21.592,3.329Z" fill="#fff"/>
      <path id="Path_16031" data-name="Path 16031" d="M320.291-160a24.253,24.253,0,0,1,3.643.9,10.125,10.125,0,0,1,1.739.759,3.557,3.557,0,0,1,1.442,1.326,1.317,1.317,0,0,1,.151.515c.006.092.015.185.015.275l-.067.265a1.942,1.942,0,0,1-.559.855,5.608,5.608,0,0,1-1.624,1.024,17.52,17.52,0,0,1-3.592,1.085,39.888,39.888,0,0,1-7.421.708,43.37,43.37,0,0,1-7.428-.551,24.08,24.08,0,0,1-3.623-.894,9.986,9.986,0,0,1-1.718-.749,3.447,3.447,0,0,1-1.392-1.274,1.187,1.187,0,0,1-.138-.472l-.015-.25.063-.241a1.813,1.813,0,0,1,.526-.8,5.526,5.526,0,0,1,1.588-1,17.5,17.5,0,0,1,3.565-1.077,39.948,39.948,0,0,1,7.4-.705,43.2,43.2,0,0,1,7.406.55Zm-.041.247a43.191,43.191,0,0,0-7.4-.487,39.728,39.728,0,0,0-7.373.765,17.371,17.371,0,0,0-3.526,1.1,5.378,5.378,0,0,0-1.532.979,1.29,1.29,0,0,0-.389,1.56,3.279,3.279,0,0,0,1.324,1.18,9.766,9.766,0,0,0,1.689.719,23.773,23.773,0,0,0,3.593.854,43.112,43.112,0,0,0,7.383.486,39.692,39.692,0,0,0,7.349-.763,17.181,17.181,0,0,0,3.5-1.087,5.239,5.239,0,0,0,1.5-.955,1.165,1.165,0,0,0,.366-1.415,3.177,3.177,0,0,0-1.274-1.126,9.628,9.628,0,0,0-1.668-.711,23.752,23.752,0,0,0-3.573-.848Z" fill="#fff"/>
      <path id="Path_16032" data-name="Path 16032" d="M349.821-152.293l-23.358-2.695,23.41,2.2Z" fill="#fff"/>
      <path id="Path_16033" data-name="Path 16033" d="M318.132-160.282a22.766,22.766,0,0,1,7.26,1.8,4.525,4.525,0,0,1,1.539,1.178,1.455,1.455,0,0,1,.253.455l.085.255c.007.09,0,.183.006.274a1.589,1.589,0,0,1-.385.963,7.3,7.3,0,0,1-3.316,1.824,32.012,32.012,0,0,1-7.366,1.172,46.757,46.757,0,0,1-7.446-.183,22.648,22.648,0,0,1-7.217-1.79,4.415,4.415,0,0,1-1.5-1.142,1.342,1.342,0,0,1-.236-.423l-.079-.234,0-.249a1.46,1.46,0,0,1,.359-.888,7.214,7.214,0,0,1,3.255-1.783,31.936,31.936,0,0,1,7.335-1.166,46.5,46.5,0,0,1,7.426.183Zm-.026.249a46.454,46.454,0,0,0-7.422-.12,31.861,31.861,0,0,0-7.3,1.222,7.115,7.115,0,0,0-3.169,1.76,1.208,1.208,0,0,0-.025,1.6,4.276,4.276,0,0,0,1.442,1.077,22.469,22.469,0,0,0,7.158,1.708,46.436,46.436,0,0,0,7.4.12,31.764,31.764,0,0,0,7.271-1.217,7.023,7.023,0,0,0,3.109-1.718,1.082,1.082,0,0,0,.023-1.444,4.152,4.152,0,0,0-1.4-1.04,22.345,22.345,0,0,0-7.114-1.695Z" fill="#fff"/>
      <path id="Path_16034" data-name="Path 16034" d="M351.6-154.162,327.1-155.653l24.52.992Z" fill="#fff"/>
      <path id="Path_16035" data-name="Path 16035" d="M315.835-160.455a33.806,33.806,0,0,1,7.382,1.149,9.075,9.075,0,0,1,3.4,1.657,2.174,2.174,0,0,1,.582.828,1.214,1.214,0,0,1,.077.529l-.026.271-.1.243a3.291,3.291,0,0,1-1.4,1.347,20.644,20.644,0,0,1-7.22,1.878,46.186,46.186,0,0,1-7.446.193,33.655,33.655,0,0,1-7.354-1.144,8.99,8.99,0,0,1-3.349-1.628,2.058,2.058,0,0,1-.549-.779,1.066,1.066,0,0,1-.07-.482l.022-.246.1-.224a3.178,3.178,0,0,1,1.351-1.288,20.551,20.551,0,0,1,7.173-1.862,46.025,46.025,0,0,1,7.424-.192Zm-.013.25a46.052,46.052,0,0,0-7.417.254,20.477,20.477,0,0,0-7.117,1.908A3.056,3.056,0,0,0,300-156.807a1.331,1.331,0,0,0,.48,1.561,8.837,8.837,0,0,0,3.3,1.562,33.514,33.514,0,0,0,7.314,1.075,46.029,46.029,0,0,0,7.4-.254,20.391,20.391,0,0,0,7.068-1.892,2.958,2.958,0,0,0,1.233-1.177,1.206,1.206,0,0,0-.451-1.421,8.749,8.749,0,0,0-3.245-1.533,33.358,33.358,0,0,0-7.284-1.07Z" fill="#fff"/>
      <path id="Path_16036" data-name="Path 16036" d="M352.212-156.091l-24.885-.25,24.885-.25Z" fill="#fff"/>
      <path id="Path_16037" data-name="Path 16037" d="M313.47-160.511a42.08,42.08,0,0,1,7.436.664,20.728,20.728,0,0,1,3.615,1,8.128,8.128,0,0,1,1.69.871,2.208,2.208,0,0,1,1.086,1.638,2.2,2.2,0,0,1-1.1,1.625,8.144,8.144,0,0,1-1.692.854,20.751,20.751,0,0,1-3.616.965,42.111,42.111,0,0,1-7.424.6,42.083,42.083,0,0,1-7.414-.663,20.644,20.644,0,0,1-3.592-.99,8.008,8.008,0,0,1-1.663-.857,2.09,2.09,0,0,1-1.034-1.535,2.085,2.085,0,0,1,1.043-1.524,8.028,8.028,0,0,1,1.665-.84,20.7,20.7,0,0,1,3.593-.958,41.918,41.918,0,0,1,7.4-.6Zm0,.25a41.881,41.881,0,0,0-7.391.66,20.535,20.535,0,0,0-3.57.984,7.909,7.909,0,0,0-1.636.842,1.977,1.977,0,0,0-.981,1.434,1.971,1.971,0,0,0,.99,1.421,7.946,7.946,0,0,0,1.639.826,20.443,20.443,0,0,0,3.57.951,41.823,41.823,0,0,0,7.379.6,41.871,41.871,0,0,0,7.367-.658,20.366,20.366,0,0,0,3.547-.978,7.8,7.8,0,0,0,1.61-.828,1.86,1.86,0,0,0,.928-1.331,1.861,1.861,0,0,0-.937-1.32,7.851,7.851,0,0,0-1.612-.811,20.329,20.329,0,0,0-3.547-.945,41.636,41.636,0,0,0-7.356-.594Z" fill="#fff"/>
      <path id="Path_16038" data-name="Path 16038" d="M351.654-158.022l-24.52.992,24.494-1.492Z" fill="#fff"/>
      <path id="Path_16039" data-name="Path 16039" d="M311.106-160.449a46.35,46.35,0,0,1,7.459.256,20.706,20.706,0,0,1,7.213,1.94,3.293,3.293,0,0,1,1.39,1.353l.1.242.022.267a1.173,1.173,0,0,1-.079.52,2.158,2.158,0,0,1-.581.814,9.034,9.034,0,0,1-3.4,1.619,33.7,33.7,0,0,1-7.371,1.085,46.2,46.2,0,0,1-7.438-.255,20.624,20.624,0,0,1-7.165-1.924,3.182,3.182,0,0,1-1.338-1.295l-.092-.222-.019-.243a1.066,1.066,0,0,1,.072-.472,2.028,2.028,0,0,1,.549-.765,8.949,8.949,0,0,1,3.345-1.591,33.616,33.616,0,0,1,7.343-1.079Zm.013.25a33.606,33.606,0,0,0-7.325,1.139,8.867,8.867,0,0,0-3.3,1.6,1.352,1.352,0,0,0-.473,1.59,3.069,3.069,0,0,0,1.3,1.229,20.453,20.453,0,0,0,7.124,1.846,46,46,0,0,0,7.4.192,33.387,33.387,0,0,0,7.3-1.135,8.763,8.763,0,0,0,3.249-1.57,1.228,1.228,0,0,0,.444-1.45,2.964,2.964,0,0,0-1.248-1.17,20.344,20.344,0,0,0-7.075-1.83,45.864,45.864,0,0,0-7.384-.191Z" fill="#fff"/>
      <path id="Path_16040" data-name="Path 16040" d="M349.938-159.9l-23.41,2.2,23.358-2.695Z" fill="#fff"/>
      <path id="Path_16041" data-name="Path 16041" d="M308.815-160.269a46.617,46.617,0,0,1,7.463-.121,32.008,32.008,0,0,1,7.362,1.234,7.29,7.29,0,0,1,3.291,1.844,1.549,1.549,0,0,1,.371.944l-.008.266-.085.247a1.4,1.4,0,0,1-.249.442,4.5,4.5,0,0,1-1.53,1.151,22.7,22.7,0,0,1-7.246,1.733,46.584,46.584,0,0,1-7.442.121,31.988,31.988,0,0,1-7.332-1.228,7.211,7.211,0,0,1-3.23-1.8,1.43,1.43,0,0,1-.344-.87l.005-.241.079-.226a1.309,1.309,0,0,1,.233-.411,4.385,4.385,0,0,1,1.486-1.114,22.56,22.56,0,0,1,7.2-1.72Zm.026.249a22.517,22.517,0,0,0-7.173,1.776,4.308,4.308,0,0,0-1.452,1.1,1.25,1.25,0,0,0,.038,1.643,7.127,7.127,0,0,0,3.194,1.741,31.866,31.866,0,0,0,7.306,1.16,46.463,46.463,0,0,0,7.4-.182,22.447,22.447,0,0,0,7.13-1.764,4.2,4.2,0,0,0,1.408-1.068,1.12,1.12,0,0,0-.036-1.491,7.032,7.032,0,0,0-3.133-1.7,31.691,31.691,0,0,0-7.275-1.154,46.222,46.222,0,0,0-7.385.181Z" fill="#fff"/>
      <path id="Path_16042" data-name="Path 16042" d="M347.119-161.656l-21.592,3.329,21.51-3.823Z" fill="#fff"/>
      <path id="Path_16043" data-name="Path 16043" d="M306.665-159.977a43.341,43.341,0,0,1,7.45-.491,40.144,40.144,0,0,1,7.42.77,17.644,17.644,0,0,1,3.579,1.114,5.6,5.6,0,0,1,1.6,1.029,1.891,1.891,0,0,1,.539.837l.064.255c0,.087-.011.176-.017.263a1.272,1.272,0,0,1-.149.494,3.49,3.49,0,0,1-1.424,1.286,10.075,10.075,0,0,1-1.731.738,24.013,24.013,0,0,1-3.633.864,43.274,43.274,0,0,1-7.428.489,39.871,39.871,0,0,1-7.4-.768,17.41,17.41,0,0,1-3.552-1.1,5.456,5.456,0,0,1-1.568-1,1.416,1.416,0,0,1-.413-1.7,3.387,3.387,0,0,1,1.374-1.233,9.979,9.979,0,0,1,1.71-.729,24.088,24.088,0,0,1,3.613-.859Zm.041.246a23.935,23.935,0,0,0-3.6.889,9.953,9.953,0,0,0-1.7.74,3.337,3.337,0,0,0-1.341,1.22,1.346,1.346,0,0,0,.412,1.621,5.409,5.409,0,0,0,1.552.974,17.387,17.387,0,0,0,3.539,1.068,39.822,39.822,0,0,0,7.374.7,43.236,43.236,0,0,0,7.384-.548,23.842,23.842,0,0,0,3.582-.884,9.749,9.749,0,0,0,1.677-.731,3.233,3.233,0,0,0,1.291-1.167,1.221,1.221,0,0,0-.389-1.476,5.279,5.279,0,0,0-1.516-.949,17.2,17.2,0,0,0-3.512-1.059,39.615,39.615,0,0,0-7.35-.7,42.949,42.949,0,0,0-7.362.546Z" fill="#fff"/>
      <path id="Path_16044" data-name="Path 16044" d="M343.283-163.25,324.162-158.9l19-4.84Z" fill="#fff"/>
      <path id="Path_16045" data-name="Path 16045" d="M304.72-159.582a38.039,38.039,0,0,1,7.418-.872,45.471,45.471,0,0,1,7.448.416,27.979,27.979,0,0,1,3.658.77,9.3,9.3,0,0,1,3.394,1.621,2.44,2.44,0,0,1,.59.795,2.007,2.007,0,0,1,.105.506,1.509,1.509,0,0,1-.108.5,3.089,3.089,0,0,1-1.364,1.35,13.55,13.55,0,0,1-3.518,1.279,37.805,37.805,0,0,1-7.393.869,45.4,45.4,0,0,1-7.425-.414,27.909,27.909,0,0,1-3.641-.767,9.2,9.2,0,0,1-3.345-1.593,1.475,1.475,0,0,1-.555-1.669,2.976,2.976,0,0,1,1.311-1.287,13.444,13.444,0,0,1,3.484-1.266Zm.059.243a13.44,13.44,0,0,0-3.468,1.293,2.94,2.94,0,0,0-1.284,1.277,1.42,1.42,0,0,0,.553,1.6,9.15,9.15,0,0,0,3.33,1.55,27.843,27.843,0,0,0,3.632.733,45.347,45.347,0,0,0,7.4.351,37.718,37.718,0,0,0,7.34-.925,13.366,13.366,0,0,0,3.433-1.278,2.839,2.839,0,0,0,1.231-1.215,1.3,1.3,0,0,0-.521-1.468,9.047,9.047,0,0,0-3.28-1.522,27.615,27.615,0,0,0-3.615-.729,45.186,45.186,0,0,0-7.382-.35,37.632,37.632,0,0,0-7.314.921Z" fill="#fff"/>
      <path id="Path_16046" data-name="Path 16046" d="M338.55-164.63l-16.077,5.242,15.915-5.715Z" fill="#fff"/>
      <path id="Path_16047" data-name="Path 16047" d="M303.036-159.093a30.237,30.237,0,0,1,7.366-1.272,46.42,46.42,0,0,1,7.457.121,25,25,0,0,1,7.272,1.656,6.1,6.1,0,0,1,1.6,1.023,2.318,2.318,0,0,1,.549.826,1.373,1.373,0,0,1-.094,1,3.312,3.312,0,0,1-1.41,1.291,11.036,11.036,0,0,1-1.725.746,30.1,30.1,0,0,1-7.334,1.265,46.272,46.272,0,0,1-7.436-.121,24.9,24.9,0,0,1-7.233-1.645,6,6,0,0,1-1.568-1,2.207,2.207,0,0,1-.517-.774,1.252,1.252,0,0,1,.088-.912,3.2,3.2,0,0,1,1.358-1.235,10.89,10.89,0,0,1,1.7-.737Zm.081.236a10.97,10.97,0,0,0-1.7.75,3.18,3.18,0,0,0-1.337,1.235,1.217,1.217,0,0,0-.08.887,2.175,2.175,0,0,0,.513.752,5.934,5.934,0,0,0,1.561.976,24.81,24.81,0,0,0,7.219,1.578,46.192,46.192,0,0,0,7.411.058,29.866,29.866,0,0,0,7.266-1.315,10.731,10.731,0,0,0,1.675-.74,3.065,3.065,0,0,0,1.286-1.18,1.085,1.085,0,0,0,.074-.8,2.051,2.051,0,0,0-.481-.7A5.8,5.8,0,0,0,325-158.3a24.706,24.706,0,0,0-7.179-1.568,46.072,46.072,0,0,0-7.392-.058,29.812,29.812,0,0,0-7.234,1.309Z" fill="#fff"/>
      <path id="Path_16048" data-name="Path 16048" d="M333.067-165.758l-12.554,5.97,12.331-6.417Z" fill="#fff"/>
      <path id="Path_16049" data-name="Path 16049" d="M301.661-158.523a23.064,23.064,0,0,1,7.283-1.72,46.54,46.54,0,0,1,7.457-.118,32.183,32.183,0,0,1,7.353,1.246,12.1,12.1,0,0,1,1.743.707,4.268,4.268,0,0,1,1.515,1.155,1.212,1.212,0,0,1,.246.435,1.192,1.192,0,0,1,.1.5,1.779,1.779,0,0,1-.1.5c-.08.146-.17.289-.26.427a5,5,0,0,1-1.538,1.12,22.988,22.988,0,0,1-7.24,1.707,46.523,46.523,0,0,1-7.437.118,32.039,32.039,0,0,1-7.322-1.241,12.04,12.04,0,0,1-1.725-.7,4.184,4.184,0,0,1-1.472-1.119,1.1,1.1,0,0,1-.228-.4,1.053,1.053,0,0,1-.087-.455,1.644,1.644,0,0,1,.092-.456c.076-.135.159-.268.243-.4a4.88,4.88,0,0,1,1.495-1.085Zm.111.224a4.861,4.861,0,0,0-1.483,1.1c-.082.13-.163.262-.237.4a1.631,1.631,0,0,0-.087.448,1.044,1.044,0,0,0,.089.446,1.1,1.1,0,0,0,.228.4,4.141,4.141,0,0,0,1.469,1.1,11.717,11.717,0,0,0,1.722.68,31.939,31.939,0,0,0,7.31,1.176,46.413,46.413,0,0,0,7.41-.179,22.818,22.818,0,0,0,7.149-1.745,4.778,4.778,0,0,0,1.441-1.061,1.155,1.155,0,0,0,0-1.533,4.025,4.025,0,0,0-1.425-1.059,11.776,11.776,0,0,0-1.7-.673,31.869,31.869,0,0,0-7.28-1.17,46.281,46.281,0,0,0-7.39.179,22.677,22.677,0,0,0-7.105,1.733Z" fill="#fff"/>
      <path id="Path_16050" data-name="Path 16050" d="M327.008-166.609l-8.666,6.524L326.7-167Z" fill="#fff"/>
      <path id="Path_16051" data-name="Path 16051" d="M300.63-157.879a10.571,10.571,0,0,1,3.475-1.515,29.124,29.124,0,0,1,3.676-.714,45.4,45.4,0,0,1,7.452-.311,36.3,36.3,0,0,1,7.392.98,12.5,12.5,0,0,1,3.487,1.373,2.615,2.615,0,0,1,1.235,1.466,1.838,1.838,0,0,1-.85,1.7,10.489,10.489,0,0,1-3.431,1.492,28.911,28.911,0,0,1-3.66.71,45.13,45.13,0,0,1-7.431.31,36.192,36.192,0,0,1-7.365-.975,12.455,12.455,0,0,1-3.451-1.357,2.5,2.5,0,0,1-1.179-1.387,1.713,1.713,0,0,1,.8-1.573Zm.155.2a1.707,1.707,0,0,0-.79,1.57,2.478,2.478,0,0,0,1.181,1.363,12.362,12.362,0,0,0,3.449,1.323,36.044,36.044,0,0,0,7.354.911,44.992,44.992,0,0,0,7.4-.371,28.717,28.717,0,0,0,3.626-.735,10.267,10.267,0,0,0,3.335-1.478,1.588,1.588,0,0,0,.744-1.447,2.371,2.371,0,0,0-1.126-1.283,12.254,12.254,0,0,0-3.412-1.306,35.939,35.939,0,0,0-7.328-.908,44.951,44.951,0,0,0-7.381.37,28.729,28.729,0,0,0-3.609.732,10.158,10.158,0,0,0-3.29,1.455Z" fill="#fff"/>
      <path id="Path_16052" data-name="Path 16052" d="M320.558-167.18l-4.534,6.912,4.108-7.174Z" fill="#fff"/>
      <ellipse id="Ellipse_71" data-name="Ellipse 71" cx="18.959" cy="5.449" rx="18.959" ry="5.449" transform="translate(294.658 -161.795)" fill="#fff"/>
      <path id="Path_16053" data-name="Path 16053" d="M313.6-144.9c-2.231,0-4.49-.056-6.761-.171-16.579-.84-29.429-4.65-31.974-9.481a3.692,3.692,0,0,1,.17-3.87h0c3.774-6.15,24.121-10.277,45.36-9.2,16.579.84,29.429,4.65,31.974,9.481a3.692,3.692,0,0,1-.17,3.87C348.829-148.779,332.238-144.9,313.6-144.9ZM275.461-158.16a3.224,3.224,0,0,0-.154,3.376c2.466,4.68,15.148,8.384,31.558,9.215,21.079,1.069,41.22-2.953,44.908-8.964a3.222,3.222,0,0,0,.154-3.375c-2.466-4.68-15.148-8.384-31.557-9.215-21.073-1.064-41.22,2.953-44.909,8.963Z" fill="#fff"/>
    </g>
    <path id="Path_16054" data-name="Path 16054" d="M312.332-121.766c-26.02,0-50.846-5.848-68.114-16.045a.5.5,0,0,1-.239-.349.5.5,0,0,1,.114-.407c.87-1.015,1.792-2.108,2.76-3.255,7.1-8.423,16.834-19.96,26.987-25.019a.5.5,0,0,1,.67.224.5.5,0,0,1-.224.67c-9.968,4.968-19.62,16.413-26.669,24.77-.826.98-1.619,1.92-2.376,2.806,17.1,9.923,41.5,15.605,67.091,15.605,25,0,49.029-5.465,66.046-15.006-4.432-7.094-18.3-26.084-29.195-28.705a.5.5,0,0,1-.37-.6.5.5,0,0,1,.6-.37c5.061,1.218,11.122,5.763,18.014,13.512A125.834,125.834,0,0,1,379.5-137.854a.5.5,0,0,1,.058.386.5.5,0,0,1-.237.31C362.137-127.376,337.719-121.766,312.332-121.766Z" fill="#fff"/>
    <g id="Group_940" data-name="Group 940">
      <circle id="Ellipse_72" data-name="Ellipse 72" cx="0.729" cy="0.729" r="0.729" transform="translate(315.286 -174.078)" fill="#fff"/>
      <circle id="Ellipse_73" data-name="Ellipse 73" cx="0.729" cy="0.729" r="0.729" transform="translate(315.286 -177.724)" fill="#fff"/>
      <circle id="Ellipse_74" data-name="Ellipse 74" cx="0.729" cy="0.729" r="0.729" transform="translate(315.286 -181.369)" fill="#fff"/>
      <circle id="Ellipse_75" data-name="Ellipse 75" cx="0.729" cy="0.729" r="0.729" transform="translate(315.286 -185.015)" fill="#fff"/>
      <circle id="Ellipse_76" data-name="Ellipse 76" cx="0.729" cy="0.729" r="0.729" transform="translate(315.286 -188.66)" fill="#fff"/>
      <circle id="Ellipse_77" data-name="Ellipse 77" cx="0.729" cy="0.729" r="0.729" transform="translate(315.286 -192.305)" fill="#fff"/>
      <circle id="Ellipse_78" data-name="Ellipse 78" cx="0.729" cy="0.729" r="0.729" transform="translate(315.286 -195.951)" fill="#fff"/>
      <circle id="Ellipse_79" data-name="Ellipse 79" cx="0.729" cy="0.729" r="0.729" transform="translate(315.286 -199.596)" fill="#fff"/>
      <circle id="Ellipse_80" data-name="Ellipse 80" cx="0.729" cy="0.729" r="0.729" transform="translate(315.286 -203.242)" fill="#fff"/>
      <circle id="Ellipse_81" data-name="Ellipse 81" cx="0.729" cy="0.729" r="0.729" transform="translate(315.286 -206.887)" fill="#fff"/>
      <circle id="Ellipse_82" data-name="Ellipse 82" cx="0.729" cy="0.729" r="0.729" transform="translate(315.286 -210.532)" fill="#fff"/>
      <circle id="Ellipse_83" data-name="Ellipse 83" cx="0.729" cy="0.729" r="0.729" transform="translate(315.286 -214.178)" fill="#fff"/>
      <circle id="Ellipse_84" data-name="Ellipse 84" cx="0.729" cy="0.729" r="0.729" transform="translate(315.286 -217.823)" fill="#fff"/>
      <circle id="Ellipse_85" data-name="Ellipse 85" cx="0.729" cy="0.729" r="0.729" transform="translate(315.286 -221.469)" fill="#fff"/>
      <circle id="Ellipse_86" data-name="Ellipse 86" cx="0.729" cy="0.729" r="0.729" transform="translate(315.286 -225.114)" fill="#fff"/>
      <circle id="Ellipse_87" data-name="Ellipse 87" cx="0.729" cy="0.729" r="0.729" transform="translate(315.286 -228.759)" fill="#fff"/>
      <circle id="Ellipse_88" data-name="Ellipse 88" cx="0.729" cy="0.729" r="0.729" transform="translate(315.286 -232.405)" fill="#fff"/>
      <circle id="Ellipse_89" data-name="Ellipse 89" cx="0.729" cy="0.729" r="0.729" transform="translate(315.286 -236.05)" fill="#fff"/>
      <circle id="Ellipse_90" data-name="Ellipse 90" cx="0.729" cy="0.729" r="0.729" transform="translate(315.286 -239.696)" fill="#fff"/>
      <circle id="Ellipse_91" data-name="Ellipse 91" cx="0.729" cy="0.729" r="0.729" transform="translate(315.286 -243.341)" fill="#fff"/>
    </g>
    <g id="Group_941" data-name="Group 941">
      <circle id="Ellipse_92" data-name="Ellipse 92" cx="0.729" cy="0.729" r="0.729" transform="translate(311.236 -174.078)" fill="#fff"/>
      <circle id="Ellipse_93" data-name="Ellipse 93" cx="0.729" cy="0.729" r="0.729" transform="translate(311.236 -177.724)" fill="#fff"/>
      <circle id="Ellipse_94" data-name="Ellipse 94" cx="0.729" cy="0.729" r="0.729" transform="translate(311.236 -181.369)" fill="#fff"/>
      <circle id="Ellipse_95" data-name="Ellipse 95" cx="0.729" cy="0.729" r="0.729" transform="translate(311.236 -185.015)" fill="#fff"/>
      <circle id="Ellipse_96" data-name="Ellipse 96" cx="0.729" cy="0.729" r="0.729" transform="translate(311.236 -188.66)" fill="#fff"/>
      <circle id="Ellipse_97" data-name="Ellipse 97" cx="0.729" cy="0.729" r="0.729" transform="translate(311.236 -192.305)" fill="#fff"/>
      <circle id="Ellipse_98" data-name="Ellipse 98" cx="0.729" cy="0.729" r="0.729" transform="translate(311.236 -195.951)" fill="#fff"/>
      <circle id="Ellipse_99" data-name="Ellipse 99" cx="0.729" cy="0.729" r="0.729" transform="translate(311.236 -199.596)" fill="#fff"/>
      <circle id="Ellipse_100" data-name="Ellipse 100" cx="0.729" cy="0.729" r="0.729" transform="translate(311.236 -203.242)" fill="#fff"/>
      <circle id="Ellipse_101" data-name="Ellipse 101" cx="0.729" cy="0.729" r="0.729" transform="translate(311.236 -206.887)" fill="#fff"/>
      <circle id="Ellipse_102" data-name="Ellipse 102" cx="0.729" cy="0.729" r="0.729" transform="translate(311.236 -210.532)" fill="#fff"/>
      <circle id="Ellipse_103" data-name="Ellipse 103" cx="0.729" cy="0.729" r="0.729" transform="translate(311.236 -214.178)" fill="#fff"/>
      <circle id="Ellipse_104" data-name="Ellipse 104" cx="0.729" cy="0.729" r="0.729" transform="translate(311.236 -217.823)" fill="#fff"/>
      <circle id="Ellipse_105" data-name="Ellipse 105" cx="0.729" cy="0.729" r="0.729" transform="translate(311.236 -221.469)" fill="#fff"/>
      <circle id="Ellipse_106" data-name="Ellipse 106" cx="0.729" cy="0.729" r="0.729" transform="translate(311.236 -225.114)" fill="#fff"/>
      <circle id="Ellipse_107" data-name="Ellipse 107" cx="0.729" cy="0.729" r="0.729" transform="translate(311.236 -228.759)" fill="#fff"/>
      <circle id="Ellipse_108" data-name="Ellipse 108" cx="0.729" cy="0.729" r="0.729" transform="translate(311.236 -232.405)" fill="#fff"/>
      <circle id="Ellipse_109" data-name="Ellipse 109" cx="0.729" cy="0.729" r="0.729" transform="translate(311.236 -236.05)" fill="#fff"/>
      <circle id="Ellipse_110" data-name="Ellipse 110" cx="0.729" cy="0.729" r="0.729" transform="translate(311.236 -239.696)" fill="#fff"/>
      <circle id="Ellipse_111" data-name="Ellipse 111" cx="0.729" cy="0.729" r="0.729" transform="translate(311.236 -243.341)" fill="#fff"/>
    </g>
    <g id="Group_942" data-name="Group 942">
      <circle id="Ellipse_112" data-name="Ellipse 112" cx="0.729" cy="0.729" r="0.729" transform="translate(304.548 -174.136)" fill="#fff"/>
      <circle id="Ellipse_113" data-name="Ellipse 113" cx="0.729" cy="0.729" r="0.729" transform="translate(304.757 -177.775)" fill="#fff"/>
      <circle id="Ellipse_114" data-name="Ellipse 114" cx="0.729" cy="0.729" r="0.729" transform="translate(304.967 -181.414)" fill="#fff"/>
      <circle id="Ellipse_115" data-name="Ellipse 115" cx="0.729" cy="0.729" r="0.729" transform="translate(305.176 -185.054)" fill="#fff"/>
      <circle id="Ellipse_116" data-name="Ellipse 116" cx="0.729" cy="0.729" r="0.729" transform="translate(305.386 -188.693)" fill="#fff"/>
      <circle id="Ellipse_117" data-name="Ellipse 117" cx="0.729" cy="0.729" r="0.729" transform="translate(305.595 -192.332)" fill="#fff"/>
      <circle id="Ellipse_118" data-name="Ellipse 118" cx="0.729" cy="0.729" r="0.729" transform="translate(305.804 -195.972)" fill="#fff"/>
      <circle id="Ellipse_119" data-name="Ellipse 119" cx="0.729" cy="0.729" r="0.729" transform="translate(306.014 -199.611)" fill="#fff"/>
      <circle id="Ellipse_120" data-name="Ellipse 120" cx="0.729" cy="0.729" r="0.729" transform="translate(306.223 -203.251)" fill="#fff"/>
      <circle id="Ellipse_121" data-name="Ellipse 121" cx="0.729" cy="0.729" r="0.729" transform="translate(306.433 -206.89)" fill="#fff"/>
      <circle id="Ellipse_122" data-name="Ellipse 122" cx="0.729" cy="0.729" r="0.729" transform="translate(306.642 -210.529)" fill="#fff"/>
      <circle id="Ellipse_123" data-name="Ellipse 123" cx="0.729" cy="0.729" r="0.729" transform="translate(306.852 -214.169)" fill="#fff"/>
      <circle id="Ellipse_124" data-name="Ellipse 124" cx="0.729" cy="0.729" r="0.729" transform="translate(307.061 -217.808)" fill="#fff"/>
      <circle id="Ellipse_125" data-name="Ellipse 125" cx="0.729" cy="0.729" r="0.729" transform="translate(307.27 -221.447)" fill="#fff"/>
      <circle id="Ellipse_126" data-name="Ellipse 126" cx="0.729" cy="0.729" r="0.729" transform="translate(307.48 -225.087)" fill="#fff"/>
      <circle id="Ellipse_127" data-name="Ellipse 127" cx="0.729" cy="0.729" r="0.729" transform="translate(307.689 -228.726)" fill="#fff"/>
      <circle id="Ellipse_128" data-name="Ellipse 128" cx="0.729" cy="0.729" r="0.729" transform="translate(307.899 -232.366)" fill="#fff"/>
      <circle id="Ellipse_129" data-name="Ellipse 129" cx="0.729" cy="0.729" r="0.729" transform="translate(308.108 -236.005)" fill="#fff"/>
      <circle id="Ellipse_130" data-name="Ellipse 130" cx="0.729" cy="0.729" r="0.729" transform="translate(308.317 -239.644)" fill="#fff"/>
      <circle id="Ellipse_131" data-name="Ellipse 131" cx="0.729" cy="0.729" r="0.729" transform="translate(308.527 -243.284)" fill="#fff"/>
    </g>
    <g id="Group_943" data-name="Group 943">
      <circle id="Ellipse_132" data-name="Ellipse 132" cx="0.729" cy="0.729" r="0.729" transform="translate(321.817 -174.136)" fill="#fff"/>
      <circle id="Ellipse_133" data-name="Ellipse 133" cx="0.729" cy="0.729" r="0.729" transform="translate(321.608 -177.775)" fill="#fff"/>
      <circle id="Ellipse_134" data-name="Ellipse 134" cx="0.729" cy="0.729" r="0.729" transform="translate(321.398 -181.414)" fill="#fff"/>
      <circle id="Ellipse_135" data-name="Ellipse 135" cx="0.729" cy="0.729" r="0.729" transform="translate(321.189 -185.054)" fill="#fff"/>
      <circle id="Ellipse_136" data-name="Ellipse 136" cx="0.729" cy="0.729" r="0.729" transform="translate(320.98 -188.693)" fill="#fff"/>
      <circle id="Ellipse_137" data-name="Ellipse 137" cx="0.729" cy="0.729" r="0.729" transform="translate(320.77 -192.332)" fill="#fff"/>
      <circle id="Ellipse_138" data-name="Ellipse 138" cx="0.729" cy="0.729" r="0.729" transform="translate(320.561 -195.972)" fill="#fff"/>
      <circle id="Ellipse_139" data-name="Ellipse 139" cx="0.729" cy="0.729" r="0.729" transform="translate(320.351 -199.611)" fill="#fff"/>
      <circle id="Ellipse_140" data-name="Ellipse 140" cx="0.729" cy="0.729" r="0.729" transform="translate(320.142 -203.251)" fill="#fff"/>
      <circle id="Ellipse_141" data-name="Ellipse 141" cx="0.729" cy="0.729" r="0.729" transform="translate(319.933 -206.89)" fill="#fff"/>
      <circle id="Ellipse_142" data-name="Ellipse 142" cx="0.729" cy="0.729" r="0.729" transform="translate(319.723 -210.529)" fill="#fff"/>
      <circle id="Ellipse_143" data-name="Ellipse 143" cx="0.729" cy="0.729" r="0.729" transform="translate(319.514 -214.169)" fill="#fff"/>
      <circle id="Ellipse_144" data-name="Ellipse 144" cx="0.729" cy="0.729" r="0.729" transform="translate(319.304 -217.808)" fill="#fff"/>
      <circle id="Ellipse_145" data-name="Ellipse 145" cx="0.729" cy="0.729" r="0.729" transform="translate(319.095 -221.447)" fill="#fff"/>
      <circle id="Ellipse_146" data-name="Ellipse 146" cx="0.729" cy="0.729" r="0.729" transform="translate(318.886 -225.087)" fill="#fff"/>
      <circle id="Ellipse_147" data-name="Ellipse 147" cx="0.729" cy="0.729" r="0.729" transform="translate(318.676 -228.726)" fill="#fff"/>
      <circle id="Ellipse_148" data-name="Ellipse 148" cx="0.729" cy="0.729" r="0.729" transform="translate(318.467 -232.366)" fill="#fff"/>
      <circle id="Ellipse_149" data-name="Ellipse 149" cx="0.729" cy="0.729" r="0.729" transform="translate(318.257 -236.005)" fill="#fff"/>
      <circle id="Ellipse_150" data-name="Ellipse 150" cx="0.729" cy="0.729" r="0.729" transform="translate(318.048 -239.644)" fill="#fff"/>
      <circle id="Ellipse_151" data-name="Ellipse 151" cx="0.729" cy="0.729" r="0.729" transform="translate(317.839 -243.284)" fill="#fff"/>
    </g>
    <text id="LASIK" transform="translate(267.774 -306.341)" fill="#fff" font-size="19" font-family="Lato-Bold, Lato" font-weight="700"><tspan x="17.633" y="19">LASIK</tspan></text>
  </g>
</svg>
