<svg xmlns="http://www.w3.org/2000/svg" xmlns:xlink="http://www.w3.org/1999/xlink" width="1542.754" height="850.555" viewBox="0 0 1542.754 850.555"><defs><linearGradient id="a" x1="1" y1="0.5" x2="0" y2="0.5" gradientUnits="objectBoundingBox"><stop offset="0" stop-color="#c8c3ea"/><stop offset="0.151" stop-color="#cac7ea"/><stop offset="0.303" stop-color="#d3d3ec"/><stop offset="0.456" stop-color="#eae0f0"/><stop offset="0.519" stop-color="#ede8f2"/><stop offset="1" stop-color="#c8c3ea"/></linearGradient><linearGradient id="b" y1="0.5" x2="1" y2="0.5" gradientUnits="objectBoundingBox"><stop offset="0" stop-color="#a99ed8"/><stop offset="0.152" stop-color="#aca2d9"/><stop offset="0.307" stop-color="#b6aedf"/><stop offset="0.461" stop-color="#c7c2e9"/><stop offset="0.465" stop-color="#c8c3ea"/><stop offset="1" stop-color="#c8c3ea"/></linearGradient></defs><g transform="translate(12.403)" opacity="0.317"><g transform="translate(-12.403)"><path d="M.2,157.719s12.117-8.11,17.388-8.11,12.884-2.7,18.155-3.243,22.253,3.786,28.109,5.677,21.667-5.137,30.451-8.379,22.253-12.433,29.282-12.433,17.567.54,24.595,3.243,33.966,10.273,37.478,10,21.584-6.117,24.968-7.8,9.371-4.327,11.452-4.327,2.083.481,3.9,1.2,2.6-.962,5.206.481,4.684,4.085,7.027,4.564,3.9-1.441,7.027,1.442,2.6,4.324,7.81,6.247,9.369,4.566,9.89,6.727,11.192,6.248,15.877,7.929,11.192,6.968,16.136,10.814,9.631,6.247,10.412,5.764,8.069-6.966,9.111-6.247,6.246-.719,7.288-1.921,5.986-3.844,7.808-3.844,12.492.481,15.1-.482,16.138-3.6,19.261-8.168,35.473-25.627,46.6-25.627,17.568,4.323,22.838,4.323,6.442-1.621,12.3-1.621,21.667,2.7,21.667,2.7,16.984-2.162,26.353-2.7,18.738-4.323,21.082-2.7a10.138,10.138,0,0,0,8.715.88c3.123-.962,6.248-4.243,9.631-1.28s4.425-.162,7.548.319,17.959.721,27.33,1.2,29.93,3.746,38.716,6.988,17.569,2.7,36.307,5.406,23.426-7.568,30.453-7.568,19.911-7.01,22.253-7.559,5.271-4.874,12.3-3.793,24.009-3.243,27.524-3.783,22.251,0,25.767,0,14.053,1.621,20.495,6.485,11.127-.539,24.6,9.731,61.438,12.353,73.152,17.4,15.613,5.045,27.328,5.045,23.428-5.766,25.767-7.928,8.59-.4,14.836-3.082,18.742-2.685,31.236,3.8,19.521,2.883,29.672,1.441,28.892-7.208,35.139-8.65,13.275-1.441,21.084-1.441,20.3,5.367,23.427,4.847,3.9.2,24.984,4.523,51.537,3.606,51.537,3.606,26-.643,31.269-.643,14.055,2.162,26.355,2.7a74.55,74.55,0,0,0,21.082-1.62c2.927-.542,14.054-1.623,16.982-1.623h14.64c3.513,0,10.542-2.162,16.4-3.243s9.953,0,15.809-6.489,11.713-11.891,16.4-12.433,25.766-12.372,31.038-12.672,8.784,5.645,14.055,7.808,13.467,2.162,16.982,4.864,5.269,11.354,9.371,10.812,20.8-.922,26-.2,11.192,4.087,23.686,6.006,22.9,4.087,28.632,7.931,26.174,1.161,26.174,1.161V302.272l8.093,107.722H.2Z" transform="translate(7.897 85.844)" fill="url(#a)"/><path d="M-.006,218.4s74.883-16.6,81.91-16.6.781,2.883,27.33,0,58.564-14.414,70.277-18.019,60.125-15.137,76.525-15.137,73.4-18.022,83.552-24.509,56.22,16.578,73.4,21.624a217.448,217.448,0,0,0,48.412,8.65c14.056.719,18.742,3.6,44.509,12.976s39.824,12.972,49.974,18.019,18.74,5.045,32.015,7.208,40.605,2.2,54.66,5.786,3.9,9.351,23.426,9.351,46.851-11.533,50.755-12.976,13.273.721,21.863,4.325,17.959-1.441,24.207-3.6,22.644-8.649,32.014-13.7,20.3-19.461,23.427-23.786,15.617-9.37,20.3-10.091,5.467-.721,14.053-7.21,14.84-13.813,21.086-17.718,12.494-12.555,26.549-13.274,15.381,4.293,24.207,12.972,8.588,5.046,16.4,12.253,17.957,10.814,19.52,15.858,17.181,2.163,22.646-2.16,17.959-14.418,27.33-19.463,22.644-14.554,24.207-19.531,11.713-7.861,24.2-4.255,14.838,6.487,62.47,13.693,58.564,7.208,71.056,8.65,44.509,16.58,54.661,24.507,34.57-4.323,50.968,3.517,41,5.682,65.6,13.252,25.769,23.788,57.4,27.032,79.156,27.034,79.156,27.034V415.221H-7.275Z" transform="translate(7.275 87.246)" fill="url(#b)"/><path d="M383.227,215.477c1.756-2.523,17.765-6.848,21.863-9.373s0,0,8.394-3.781,5.662-1.983,10.542-5.227,4.49-2.342,6.246-2.881,10.932-2.344,11.713-2.706,8.98-3.964,11.517-4.685,7.615-4.325,11.713-7.027,2.539-3.423,3.9-4.5c.785-.621,3.563-3.023,5.786-4.956A302.088,302.088,0,0,1,445.5,182.679c-6.248,2.163-15.619,7.21-24.207,3.6a71.835,71.835,0,0,0-12.492-4.012c1.755,1.572,2.536,4.192,1.363,4.552s-3.707,4.325-3.707,4.325a31.158,31.158,0,0,1,.392,4.325c0,1.983-.587,1.081-1.173,1.442s-4.684,1.262-8.979,3.243-3.317,2.523-4.686,3.6-4.294,3.062-7.223,5.406a49.39,49.39,0,0,1-4.1,3.064s-5.077,5.227-6.05,7.928-2.735,2.163-2.735,2.163l-4.49,6.489s7.029-3.785,7.81-4.506A96.405,96.405,0,0,0,383.227,215.477Z" transform="translate(324.585 120.061)" fill="#8675ba" opacity="0.8"/><path d="M514.23,153.468c.392,1.623-.391,2.344,0,3.065a10.237,10.237,0,0,0,1.365,2.341c.979,1.263.979.542,2.344,2.344a14.891,14.891,0,0,1,2.148,3.244c.391.9-1.369-1.623,0,1.62s-.2,2.163,1.365,3.244a26.9,26.9,0,0,0,4.3,2.163,26.352,26.352,0,0,0,2.733-3.244c1.758-2.341,5.663-3.783,8-4.685s4.687-1.083,7.419-1.981a37.992,37.992,0,0,0,6.05-2.864s4.3-5.788,5.077-6.869.2-1.441,1.758-3.6.615-3.984,3.178-5.749c-6.795,4.762-13.441,10.11-17.039,12.959-5.465,4.323-21.084,7.206-22.646,2.16-.813-2.629-3.96-4.867-7.892-7.426A6.8,6.8,0,0,1,514.23,153.468Z" transform="translate(447.358 100.436)" fill="#8675ba"/><path d="M543.034,140.564c-1.607,1.031-3.245,2.136-4.874,3.278C540.539,142.209,542.727,140.765,543.034,140.564Z" transform="translate(469.183 99.076)" fill="#a8d9e4"/><path d="M380.551,264.355s9.265-5.3,21.9-11.784,21.9-11.786,33.687-17.089,31.162-12.374,33.69-14.142,10.108-4.124,12.633-5.892,17.686-5.527,17.686-5.527,14.319,2.134,20.213,0,12.635-2.7,20.213,2.3,5.9,5.587,17.688,7.355,13.474,1.178,25.266,2.946,11.79,1.768,21.9,3.536,41.27,2.356,46.325,4.714-8.426,2.358,15.158,2.358,58.956-1.18,64.008-4.716,37.056-7.66,42.109-7.66,15.161-2.356,31.164-3.534,37.9,1.178,41.267,1.766,21.9,16.479,29.478,17.372,5.053,3.251,12.631,3.841,25.268,7.072,28.637,7.072,26.95,5.894,31.162,8.25,20.211,8.838,23.582,8.838,49.691-4.985,58.112-6.028,5.055-5.166,48.007-3.4a513.147,513.147,0,0,1,78.326,9.428s43.795,12.965,47.166,14.143,11.79-1.178,42.108,6.482,67.379,22.98,77.485,25.337,32,22.393,32,22.393l-10.106,40.659L821.87,440.545l-234.977,5.894s-318.357-77.784-329.3-74.248-47.164,4.941-50.534,5.713,35.374-55.21,37.9-56.978,67.375-30.641,67.375-30.641S370.515,269.9,380.551,264.355Z" transform="translate(188.608 146.859)" fill="#fff"/><path d="M-3.533,238.541s19.318-14.1,31.123-15.7,23.608-3.805,32.195,0,41.852,0,41.852,0,24.683-2.723,33.269,0,12.876,4.383,19.316,6.8-1.073-.83,12.878,8.9-15.024,2.16,13.951,9.731,47.219,8.65,47.219,8.65,17.17-.859,28.975,8.219,8.586,17.65,23.61,15.529,45.073-6.449,57.949-6.449,41.617-12.768,71.9-2.162,82.632,23.791,108.389,30.28S498.706,368.3,498.706,368.3L42.613,394.251-4.606,367.216Z" transform="translate(9.535 155.584)" fill="#fff"/><rect width="1478.938" height="850.555" transform="translate(13.437)" fill="none"/></g></g></svg>