<svg xmlns="http://www.w3.org/2000/svg" width="135.605" height="184.575" viewBox="0 0 135.605 184.575">
  <g id="Group_952" data-name="Group 952" transform="translate(-432.623 306.341)">
    <g id="Group_945" data-name="Group 945">
      <path id="Path_16055" data-name="Path 16055" d="M537.386-167.572a185.231,185.231,0,0,0-15.37-12.979l1.137-1.529a80.156,80.156,0,0,1,14.374,14.444Z" fill="#fff"/>
      <path id="Path_16056" data-name="Path 16056" d="M537.026-167.373c-.061-.065-6.92-6.161-15.4-12.426l.283-.383a171.626,171.626,0,0,1,15.232,12.747Z" fill="#fff"/>
    </g>
    <g id="Group_946" data-name="Group 946">
      <path id="Path_16057" data-name="Path 16057" d="M462.654-167.572a185.629,185.629,0,0,1,15.37-12.979l-1.137-1.529a80.091,80.091,0,0,0-14.373,14.444Z" fill="#fff"/>
      <path id="Path_16058" data-name="Path 16058" d="M463.015-167.373c.061-.065,6.919-6.161,15.395-12.426l-.283-.383a171.624,171.624,0,0,0-15.232,12.747Z" fill="#fff"/>
    </g>
    <g id="Group_947" data-name="Group 947" opacity="0.4">
      <path id="Path_16059" data-name="Path 16059" d="M502.53-167.485l-.25,7.152-.25-7.152Z" fill="#fff"/>
      <path id="Path_16060" data-name="Path 16060" d="M488.39-156.351a2.259,2.259,0,0,1,1.122-1.676,8.259,8.259,0,0,1,1.706-.862,20.758,20.758,0,0,1,3.626-.967,42.072,42.072,0,0,1,7.436-.6,42.119,42.119,0,0,1,7.425.663,20.68,20.68,0,0,1,3.6.994,8.048,8.048,0,0,1,1.677.864,2.147,2.147,0,0,1,1.059,1.586,2.142,2.142,0,0,1-1.068,1.575,8.115,8.115,0,0,1-1.679.847,20.628,20.628,0,0,1-3.6.961,41.976,41.976,0,0,1-7.414.6,42.012,42.012,0,0,1-7.4-.661,20.632,20.632,0,0,1-3.582-.987,8.017,8.017,0,0,1-1.649-.85,2.034,2.034,0,0,1-1.008-1.485Zm.25,0a2.032,2.032,0,0,0,1.017,1.473,8,8,0,0,0,1.652.833,20.576,20.576,0,0,0,3.581.954,41.87,41.87,0,0,0,7.39.6,41.92,41.92,0,0,0,7.379-.659,20.491,20.491,0,0,0,3.559-.981,7.827,7.827,0,0,0,1.623-.835,1.917,1.917,0,0,0,.954-1.383,1.915,1.915,0,0,0-.963-1.37,7.79,7.79,0,0,0-1.626-.818,20.441,20.441,0,0,0-3.558-.949,41.874,41.874,0,0,0-7.368-.595,41.641,41.641,0,0,0-7.356.657,20.242,20.242,0,0,0-3.535.974,7.715,7.715,0,0,0-1.6.821,1.809,1.809,0,0,0-.9,1.28Z" fill="#fff"/>
      <path id="Path_16061" data-name="Path 16061" d="M495.776-167.452l4.108,7.174-4.534-6.912Z" fill="#fff"/>
      <path id="Path_16062" data-name="Path 16062" d="M488.644-155.544a4.215,4.215,0,0,1-.2-.5,1.586,1.586,0,0,1,0-.558,1.8,1.8,0,0,1,.5-.92,5.024,5.024,0,0,1,1.609-1.078,17.007,17.007,0,0,1,3.592-1.115,39.367,39.367,0,0,1,7.425-.736,43.554,43.554,0,0,1,7.435.529,24.722,24.722,0,0,1,3.633.873,6.283,6.283,0,0,1,3.193,1.951,4.254,4.254,0,0,1,.189.467,1.5,1.5,0,0,1,0,.508,1.7,1.7,0,0,1-.475.858,4.909,4.909,0,0,1-1.571,1.049,16.906,16.906,0,0,1-3.564,1.1,39.229,39.229,0,0,1-7.4.734,43.487,43.487,0,0,1-7.413-.528,24.555,24.555,0,0,1-3.613-.868,6.191,6.191,0,0,1-3.127-1.9Zm.213-.131a6.167,6.167,0,0,0,3.137,1.868,24.521,24.521,0,0,0,3.613.837,43.543,43.543,0,0,0,7.4.464,39.122,39.122,0,0,0,7.364-.792,16.765,16.765,0,0,0,3.509-1.12,4.706,4.706,0,0,0,1.493-1.01,1.212,1.212,0,0,0,.242-1.543,6.085,6.085,0,0,0-3.069-1.815,24.27,24.27,0,0,0-3.594-.831,43.157,43.157,0,0,0-7.379-.463,38.9,38.9,0,0,0-7.339.789,16.639,16.639,0,0,0-3.483,1.11,4.576,4.576,0,0,0-1.453.982,1.085,1.085,0,0,0-.229,1.393Z" fill="#fff"/>
      <path id="Path_16063" data-name="Path 16063" d="M489.2-167.02l8.356,6.917-8.666-6.524Z" fill="#fff"/>
      <path id="Path_16064" data-name="Path 16064" d="M489.324-154.824a3.273,3.273,0,0,1-.678-.757,1.835,1.835,0,0,1-.2-.5,1.925,1.925,0,0,1,0-.557,2.7,2.7,0,0,1,1.29-1.523,12.582,12.582,0,0,1,3.524-1.355,36.379,36.379,0,0,1,7.406-.919,45.4,45.4,0,0,1,7.444.373,29.1,29.1,0,0,1,3.659.742,10.5,10.5,0,0,1,3.423,1.523,1.828,1.828,0,0,1,.835,1.693,2.593,2.593,0,0,1-1.236,1.444,12.478,12.478,0,0,1-3.486,1.338,36.211,36.211,0,0,1-7.38.915,45.031,45.031,0,0,1-7.423-.372,28.913,28.913,0,0,1-3.643-.738,10.412,10.412,0,0,1-3.379-1.5Zm.155-.2a10.391,10.391,0,0,0,3.387,1.47,28.891,28.891,0,0,0,3.643.706,45.092,45.092,0,0,0,7.41.31,36.154,36.154,0,0,0,7.339-.972,12.344,12.344,0,0,0,3.414-1.341,2.392,2.392,0,0,0,1.124-1.307,1.6,1.6,0,0,0-.76-1.45,10.289,10.289,0,0,0-3.342-1.448,28.889,28.889,0,0,0-3.627-.7,45.047,45.047,0,0,0-7.389-.308,35.963,35.963,0,0,0-7.312.968,12.189,12.189,0,0,0-3.377,1.325,2.284,2.284,0,0,0-1.07,1.226c-.109.491.274.968.715,1.327Z" fill="#fff"/>
      <path id="Path_16065" data-name="Path 16065" d="M483.04-166.233l12.331,6.417-12.554-5.97Z" fill="#fff"/>
      <path id="Path_16066" data-name="Path 16066" d="M490.376-154.183a5.1,5.1,0,0,1-1.568-1.163c-.1-.147-.189-.3-.272-.455a1.9,1.9,0,0,1-.106-.541,1.286,1.286,0,0,1,.105-.538,1.314,1.314,0,0,1,.262-.457,4.357,4.357,0,0,1,1.555-1.169,12.227,12.227,0,0,1,1.759-.7,32.266,32.266,0,0,1,7.372-1.187,46.7,46.7,0,0,1,7.451.18,23.034,23.034,0,0,1,7.234,1.77,4.993,4.993,0,0,1,1.526,1.129c.088.139.175.281.254.425a1.773,1.773,0,0,1,.1.495,1.148,1.148,0,0,1-.1.492,1.188,1.188,0,0,1-.245.426,4.246,4.246,0,0,1-1.512,1.133,12.08,12.08,0,0,1-1.74.688,32.078,32.078,0,0,1-7.341,1.181,46.445,46.445,0,0,1-7.431-.179,22.927,22.927,0,0,1-7.191-1.758Zm.111-.224a22.887,22.887,0,0,0,7.2,1.7,46.5,46.5,0,0,0,7.416.117,31.977,31.977,0,0,0,7.292-1.236,11.876,11.876,0,0,0,1.705-.69,4.067,4.067,0,0,0,1.429-1.082,1.181,1.181,0,0,0-.017-1.562,4.777,4.777,0,0,0-1.454-1.051A22.778,22.778,0,0,0,506.9-159.9a46.36,46.36,0,0,0-7.4-.117,31.839,31.839,0,0,0-7.262,1.23,11.774,11.774,0,0,0-1.686.683,3.927,3.927,0,0,0-1.385,1.045,1.052,1.052,0,0,0,.014,1.41,4.693,4.693,0,0,0,1.411,1.016Z" fill="#fff"/>
      <path id="Path_16067" data-name="Path 16067" d="M477.477-165.139l15.915,5.715-16.077-5.242Z" fill="#fff"/>
      <path id="Path_16068" data-name="Path 16068" d="M491.769-153.616a11.179,11.179,0,0,1-1.738-.77,3.4,3.4,0,0,1-1.44-1.345,1.468,1.468,0,0,1-.092-1.07,2.389,2.389,0,0,1,.577-.855,6.1,6.1,0,0,1,1.632-1.024,25.02,25.02,0,0,1,7.3-1.6,46.368,46.368,0,0,1,7.453-.058,30.192,30.192,0,0,1,7.329,1.327,11.045,11.045,0,0,1,1.718.76,3.3,3.3,0,0,1,1.389,1.29,1.339,1.339,0,0,1,.085.978,2.261,2.261,0,0,1-.545.8,6.021,6.021,0,0,1-1.6,1,24.89,24.89,0,0,1-7.259,1.589,46.337,46.337,0,0,1-7.432.058,30.041,30.041,0,0,1-7.3-1.321Zm.081-.237a30.007,30.007,0,0,0,7.3,1.259,46.127,46.127,0,0,0,7.415-.121,24.756,24.756,0,0,0,7.194-1.635,5.863,5.863,0,0,0,1.532-.975,2.081,2.081,0,0,0,.485-.721,1.125,1.125,0,0,0-.082-.821,3.1,3.1,0,0,0-1.307-1.18,10.751,10.751,0,0,0-1.683-.727,29.883,29.883,0,0,0-7.27-1.252,45.993,45.993,0,0,0-7.4.12,24.679,24.679,0,0,0-7.154,1.624,5.773,5.773,0,0,0-1.5.951,1.145,1.145,0,0,0-.377,1.4,2.987,2.987,0,0,0,1.256,1.125,10.686,10.686,0,0,0,1.661.718Z" fill="#fff"/>
      <path id="Path_16069" data-name="Path 16069" d="M472.675-163.778l19,4.84-19.122-4.354Z" fill="#fff"/>
      <path id="Path_16070" data-name="Path 16070" d="M493.469-153.132a13.694,13.694,0,0,1-3.536-1.321,3.167,3.167,0,0,1-1.39-1.4,1.593,1.593,0,0,1-.109-.534,2.06,2.06,0,0,1,.114-.532,2.5,2.5,0,0,1,.614-.815,9.327,9.327,0,0,1,3.427-1.6,27.954,27.954,0,0,1,3.667-.741,45.546,45.546,0,0,1,7.445-.353,37.954,37.954,0,0,1,7.391.931,13.6,13.6,0,0,1,3.5,1.307,3.052,3.052,0,0,1,1.337,1.339,1.475,1.475,0,0,1,.1.488,1.961,1.961,0,0,1-.1.487,2.394,2.394,0,0,1-.581.769,9.243,9.243,0,0,1-3.378,1.577,27.919,27.919,0,0,1-3.65.736,45.272,45.272,0,0,1-7.424.352,37.858,37.858,0,0,1-7.365-.927Zm.059-.243a37.793,37.793,0,0,0,7.367.865,45.354,45.354,0,0,0,7.4-.413,28.005,28.005,0,0,0,3.624-.763,9.11,9.11,0,0,0,3.3-1.566,1.351,1.351,0,0,0,.522-1.532,2.871,2.871,0,0,0-1.258-1.224,13.358,13.358,0,0,0-3.45-1.252,37.633,37.633,0,0,0-7.341-.861,45.105,45.105,0,0,0-7.384.412,27.5,27.5,0,0,0-3.606.759,8.991,8.991,0,0,0-3.247,1.539,1.224,1.224,0,0,0-.489,1.393,2.769,2.769,0,0,0,1.2,1.162,13.28,13.28,0,0,0,3.415,1.238Z" fill="#fff"/>
      <path id="Path_16071" data-name="Path 16071" d="M468.777-162.2l21.51,3.823L468.695-161.7Z" fill="#fff"/>
      <path id="Path_16072" data-name="Path 16072" d="M495.427-152.742a24.25,24.25,0,0,1-3.643-.9,10.127,10.127,0,0,1-1.739-.759,3.558,3.558,0,0,1-1.442-1.326,1.318,1.318,0,0,1-.151-.515c-.006-.092-.015-.185-.015-.275l.067-.265a1.942,1.942,0,0,1,.559-.855,5.608,5.608,0,0,1,1.624-1.024,17.52,17.52,0,0,1,3.592-1.085,39.89,39.89,0,0,1,7.421-.708,43.367,43.367,0,0,1,7.428.551,24.075,24.075,0,0,1,3.623.894,9.987,9.987,0,0,1,1.718.749,3.447,3.447,0,0,1,1.392,1.274,1.187,1.187,0,0,1,.138.472l.015.25-.063.241a1.813,1.813,0,0,1-.526.8,5.525,5.525,0,0,1-1.588,1,17.5,17.5,0,0,1-3.565,1.077,39.95,39.95,0,0,1-7.4.705,43.2,43.2,0,0,1-7.406-.55Zm.041-.247a43.193,43.193,0,0,0,7.4.487,39.729,39.729,0,0,0,7.373-.765,17.372,17.372,0,0,0,3.526-1.1,5.378,5.378,0,0,0,1.532-.979,1.29,1.29,0,0,0,.389-1.56,3.279,3.279,0,0,0-1.324-1.18,9.766,9.766,0,0,0-1.689-.719,23.768,23.768,0,0,0-3.593-.854,43.113,43.113,0,0,0-7.383-.486,39.692,39.692,0,0,0-7.349.763,17.181,17.181,0,0,0-3.5,1.087,5.239,5.239,0,0,0-1.5.955,1.165,1.165,0,0,0-.366,1.415,3.177,3.177,0,0,0,1.274,1.126,9.628,9.628,0,0,0,1.668.711,23.751,23.751,0,0,0,3.573.848Z" fill="#fff"/>
      <path id="Path_16073" data-name="Path 16073" d="M465.9-160.445l23.358,2.695-23.41-2.2Z" fill="#fff"/>
      <path id="Path_16074" data-name="Path 16074" d="M497.586-152.456a22.767,22.767,0,0,1-7.26-1.8,4.538,4.538,0,0,1-1.54-1.178,1.474,1.474,0,0,1-.252-.455l-.085-.255c-.007-.09-.005-.182-.006-.274a1.589,1.589,0,0,1,.385-.963,7.3,7.3,0,0,1,3.316-1.824,32.012,32.012,0,0,1,7.366-1.172,46.757,46.757,0,0,1,7.446.183,22.648,22.648,0,0,1,7.217,1.79,4.415,4.415,0,0,1,1.5,1.142,1.321,1.321,0,0,1,.235.423l.08.234,0,.249a1.46,1.46,0,0,1-.359.888,7.214,7.214,0,0,1-3.255,1.783,31.934,31.934,0,0,1-7.335,1.166,46.5,46.5,0,0,1-7.426-.183Zm.026-.249a46.452,46.452,0,0,0,7.422.12,31.86,31.86,0,0,0,7.3-1.222,7.115,7.115,0,0,0,3.169-1.76,1.208,1.208,0,0,0,.025-1.6,4.277,4.277,0,0,0-1.442-1.077,22.469,22.469,0,0,0-7.158-1.708,46.436,46.436,0,0,0-7.4-.12,31.763,31.763,0,0,0-7.271,1.217,7.023,7.023,0,0,0-3.109,1.718,1.082,1.082,0,0,0-.023,1.444,4.143,4.143,0,0,0,1.4,1.04,22.345,22.345,0,0,0,7.114,1.7Z" fill="#fff"/>
      <path id="Path_16075" data-name="Path 16075" d="M464.123-158.576l24.494,1.492-24.52-.992Z" fill="#fff"/>
      <path id="Path_16076" data-name="Path 16076" d="M499.883-152.283a33.805,33.805,0,0,1-7.382-1.149,9.074,9.074,0,0,1-3.4-1.657,2.173,2.173,0,0,1-.582-.828,1.213,1.213,0,0,1-.077-.529l.026-.271.1-.243a3.291,3.291,0,0,1,1.4-1.347,20.643,20.643,0,0,1,7.22-1.878,46.185,46.185,0,0,1,7.446-.193,33.655,33.655,0,0,1,7.354,1.144,9,9,0,0,1,3.349,1.628,2.058,2.058,0,0,1,.549.779,1.065,1.065,0,0,1,.07.482l-.022.246-.1.224a3.175,3.175,0,0,1-1.352,1.288,20.539,20.539,0,0,1-7.172,1.862,46.023,46.023,0,0,1-7.424.192Zm.013-.25a46.05,46.05,0,0,0,7.417-.254,20.476,20.476,0,0,0,7.117-1.908,3.056,3.056,0,0,0,1.285-1.236,1.331,1.331,0,0,0-.48-1.561,8.852,8.852,0,0,0-3.295-1.562,33.514,33.514,0,0,0-7.314-1.075,46.029,46.029,0,0,0-7.4.254,20.391,20.391,0,0,0-7.068,1.892,2.957,2.957,0,0,0-1.233,1.177,1.206,1.206,0,0,0,.451,1.421,8.752,8.752,0,0,0,3.244,1.533,33.376,33.376,0,0,0,7.285,1.07Z" fill="#fff"/>
      <path id="Path_16077" data-name="Path 16077" d="M463.506-156.647l24.885.25-24.885.25Z" fill="#fff"/>
      <path id="Path_16078" data-name="Path 16078" d="M502.248-152.227a42.079,42.079,0,0,1-7.436-.664,20.727,20.727,0,0,1-3.615-1,8.128,8.128,0,0,1-1.69-.871,2.208,2.208,0,0,1-1.086-1.638,2.2,2.2,0,0,1,1.1-1.625,8.119,8.119,0,0,1,1.692-.854,20.751,20.751,0,0,1,3.616-.965,42.1,42.1,0,0,1,7.424-.6,42.084,42.084,0,0,1,7.414.663,20.645,20.645,0,0,1,3.592.99,8.009,8.009,0,0,1,1.663.857,2.09,2.09,0,0,1,1.034,1.535,2.086,2.086,0,0,1-1.043,1.524,8.028,8.028,0,0,1-1.665.84,20.7,20.7,0,0,1-3.593.958,41.917,41.917,0,0,1-7.4.6Zm0-.25a41.883,41.883,0,0,0,7.391-.66,20.622,20.622,0,0,0,3.57-.983,7.96,7.96,0,0,0,1.636-.843,1.976,1.976,0,0,0,.981-1.434,1.973,1.973,0,0,0-.99-1.421,7.944,7.944,0,0,0-1.639-.826,20.469,20.469,0,0,0-3.57-.951,41.827,41.827,0,0,0-7.379-.6,41.869,41.869,0,0,0-7.367.658,20.366,20.366,0,0,0-3.547.978,7.8,7.8,0,0,0-1.61.828,1.86,1.86,0,0,0-.928,1.331,1.861,1.861,0,0,0,.937,1.32,7.853,7.853,0,0,0,1.612.811,20.327,20.327,0,0,0,3.547.945,41.636,41.636,0,0,0,7.356.594Z" fill="#fff"/>
      <path id="Path_16079" data-name="Path 16079" d="M464.064-154.716l24.52-.992-24.494,1.492Z" fill="#fff"/>
      <path id="Path_16080" data-name="Path 16080" d="M504.612-152.289a46.349,46.349,0,0,1-7.459-.256,20.706,20.706,0,0,1-7.213-1.94,3.293,3.293,0,0,1-1.39-1.353l-.1-.242-.022-.267a1.174,1.174,0,0,1,.079-.52,2.166,2.166,0,0,1,.581-.814,9.035,9.035,0,0,1,3.4-1.619,33.7,33.7,0,0,1,7.371-1.085,46.2,46.2,0,0,1,7.438.256,20.6,20.6,0,0,1,7.165,1.923,3.174,3.174,0,0,1,1.337,1.295l.093.222.019.243a1.066,1.066,0,0,1-.072.472,2.028,2.028,0,0,1-.549.765,8.957,8.957,0,0,1-3.345,1.591,33.617,33.617,0,0,1-7.343,1.079Zm-.013-.25a33.607,33.607,0,0,0,7.325-1.139,8.867,8.867,0,0,0,3.3-1.6,1.352,1.352,0,0,0,.473-1.59,3.069,3.069,0,0,0-1.3-1.229,20.453,20.453,0,0,0-7.124-1.846,46,46,0,0,0-7.4-.192,33.387,33.387,0,0,0-7.3,1.135,8.764,8.764,0,0,0-3.249,1.57,1.228,1.228,0,0,0-.444,1.45,2.964,2.964,0,0,0,1.248,1.17,20.345,20.345,0,0,0,7.075,1.83,45.864,45.864,0,0,0,7.384.191Z" fill="#fff"/>
      <path id="Path_16081" data-name="Path 16081" d="M465.78-152.842l23.41-2.2-23.358,2.695Z" fill="#fff"/>
      <path id="Path_16082" data-name="Path 16082" d="M506.9-152.469a46.617,46.617,0,0,1-7.463.121,32.006,32.006,0,0,1-7.362-1.234,7.3,7.3,0,0,1-3.291-1.843,1.555,1.555,0,0,1-.371-.945l.008-.266.085-.247a1.4,1.4,0,0,1,.249-.442,4.5,4.5,0,0,1,1.53-1.151,22.7,22.7,0,0,1,7.246-1.733,46.588,46.588,0,0,1,7.442-.121,31.988,31.988,0,0,1,7.332,1.228,7.212,7.212,0,0,1,3.23,1.8,1.43,1.43,0,0,1,.344.87l-.005.241-.079.226a1.308,1.308,0,0,1-.233.411,4.385,4.385,0,0,1-1.486,1.114,22.559,22.559,0,0,1-7.2,1.72Zm-.026-.249a22.516,22.516,0,0,0,7.173-1.776,4.309,4.309,0,0,0,1.452-1.1,1.25,1.25,0,0,0-.038-1.643,7.127,7.127,0,0,0-3.194-1.741,31.867,31.867,0,0,0-7.306-1.16,46.46,46.46,0,0,0-7.4.182,22.446,22.446,0,0,0-7.13,1.764,4.2,4.2,0,0,0-1.408,1.068,1.119,1.119,0,0,0,.036,1.491,7.032,7.032,0,0,0,3.133,1.7,31.689,31.689,0,0,0,7.275,1.154,46.222,46.222,0,0,0,7.385-.181Z" fill="#fff"/>
      <path id="Path_16083" data-name="Path 16083" d="M468.6-151.082l21.592-3.329-21.51,3.822Z" fill="#fff"/>
      <path id="Path_16084" data-name="Path 16084" d="M509.053-152.761a43.341,43.341,0,0,1-7.45.491,40.144,40.144,0,0,1-7.42-.77,17.644,17.644,0,0,1-3.579-1.114,5.6,5.6,0,0,1-1.6-1.029,1.883,1.883,0,0,1-.539-.837l-.064-.255c0-.087.011-.176.017-.263a1.272,1.272,0,0,1,.149-.494,3.49,3.49,0,0,1,1.424-1.286,10.075,10.075,0,0,1,1.731-.738,24.013,24.013,0,0,1,3.633-.864,43.272,43.272,0,0,1,7.428-.489,39.85,39.85,0,0,1,7.4.768,17.4,17.4,0,0,1,3.553,1.105,5.456,5.456,0,0,1,1.568,1,1.416,1.416,0,0,1,.413,1.7,3.387,3.387,0,0,1-1.374,1.233,9.9,9.9,0,0,1-1.71.729,23.967,23.967,0,0,1-3.613.859Zm-.041-.246a23.935,23.935,0,0,0,3.6-.889,9.954,9.954,0,0,0,1.7-.74,3.337,3.337,0,0,0,1.341-1.22,1.346,1.346,0,0,0-.412-1.621,5.409,5.409,0,0,0-1.552-.974,17.387,17.387,0,0,0-3.539-1.068,39.821,39.821,0,0,0-7.374-.7,43.238,43.238,0,0,0-7.384.548,23.839,23.839,0,0,0-3.582.884,9.749,9.749,0,0,0-1.677.731,3.226,3.226,0,0,0-1.291,1.167,1.221,1.221,0,0,0,.389,1.476,5.28,5.28,0,0,0,1.516.949,17.2,17.2,0,0,0,3.512,1.059,39.615,39.615,0,0,0,7.35.7,42.952,42.952,0,0,0,7.362-.546Z" fill="#fff"/>
      <path id="Path_16085" data-name="Path 16085" d="M472.435-149.488l19.122-4.354-19,4.84Z" fill="#fff"/>
      <path id="Path_16086" data-name="Path 16086" d="M511-153.156a38.039,38.039,0,0,1-7.418.872,45.474,45.474,0,0,1-7.448-.416,27.979,27.979,0,0,1-3.658-.77,9.3,9.3,0,0,1-3.394-1.621,2.439,2.439,0,0,1-.59-.795,2.007,2.007,0,0,1-.1-.506,1.508,1.508,0,0,1,.108-.505,3.088,3.088,0,0,1,1.364-1.35,13.55,13.55,0,0,1,3.518-1.279,37.805,37.805,0,0,1,7.392-.869,45.408,45.408,0,0,1,7.426.414,27.914,27.914,0,0,1,3.641.767,9.2,9.2,0,0,1,3.345,1.593,1.475,1.475,0,0,1,.555,1.669,2.976,2.976,0,0,1-1.311,1.287,13.443,13.443,0,0,1-3.484,1.266Zm-.059-.243a13.438,13.438,0,0,0,3.468-1.293,2.94,2.94,0,0,0,1.284-1.277,1.419,1.419,0,0,0-.554-1.605,9.137,9.137,0,0,0-3.329-1.55,27.841,27.841,0,0,0-3.632-.733,45.343,45.343,0,0,0-7.4-.351,37.716,37.716,0,0,0-7.34.925A13.367,13.367,0,0,0,490-158.005a2.839,2.839,0,0,0-1.231,1.215,1.3,1.3,0,0,0,.521,1.468,9.046,9.046,0,0,0,3.28,1.522,27.612,27.612,0,0,0,3.615.729,45.184,45.184,0,0,0,7.382.35,37.633,37.633,0,0,0,7.314-.921Z" fill="#fff"/>
      <path id="Path_16087" data-name="Path 16087" d="M477.168-148.108l16.077-5.242-15.915,5.715Z" fill="#fff"/>
      <path id="Path_16088" data-name="Path 16088" d="M512.682-153.645a30.236,30.236,0,0,1-7.366,1.272,46.416,46.416,0,0,1-7.457-.121,25,25,0,0,1-7.272-1.656,6.1,6.1,0,0,1-1.6-1.023,2.318,2.318,0,0,1-.549-.826,1.373,1.373,0,0,1,.094-1,3.312,3.312,0,0,1,1.41-1.291,11,11,0,0,1,1.725-.746A30.1,30.1,0,0,1,499-160.3a46.272,46.272,0,0,1,7.436.121,24.9,24.9,0,0,1,7.233,1.645,6,6,0,0,1,1.568,1,2.208,2.208,0,0,1,.517.774,1.252,1.252,0,0,1-.088.912,3.205,3.205,0,0,1-1.358,1.235,10.889,10.889,0,0,1-1.7.737Zm-.081-.236a10.971,10.971,0,0,0,1.7-.75,3.181,3.181,0,0,0,1.337-1.235,1.217,1.217,0,0,0,.08-.887,2.176,2.176,0,0,0-.513-.752,5.934,5.934,0,0,0-1.561-.976,24.81,24.81,0,0,0-7.219-1.578,46.194,46.194,0,0,0-7.411-.058,29.867,29.867,0,0,0-7.266,1.315,10.642,10.642,0,0,0-1.675.741,3.065,3.065,0,0,0-1.287,1.179,1.09,1.09,0,0,0-.073.8,2.051,2.051,0,0,0,.481.7,5.8,5.8,0,0,0,1.525.951,24.707,24.707,0,0,0,7.179,1.568,46.07,46.07,0,0,0,7.392.058,29.813,29.813,0,0,0,7.234-1.309Z" fill="#fff"/>
      <path id="Path_16089" data-name="Path 16089" d="M482.651-146.98l12.554-5.97-12.331,6.417Z" fill="#fff"/>
      <path id="Path_16090" data-name="Path 16090" d="M514.057-154.215a23.065,23.065,0,0,1-7.283,1.72,46.543,46.543,0,0,1-7.457.118,32.184,32.184,0,0,1-7.353-1.246,12.093,12.093,0,0,1-1.743-.707,4.268,4.268,0,0,1-1.515-1.155,1.212,1.212,0,0,1-.246-.435,1.193,1.193,0,0,1-.1-.5,1.78,1.78,0,0,1,.1-.5c.08-.146.17-.289.26-.427a5,5,0,0,1,1.538-1.12,22.987,22.987,0,0,1,7.24-1.707,46.523,46.523,0,0,1,7.437-.118,32.039,32.039,0,0,1,7.322,1.241,11.98,11.98,0,0,1,1.724.7,4.178,4.178,0,0,1,1.473,1.119,1.107,1.107,0,0,1,.228.405,1.053,1.053,0,0,1,.087.455,1.645,1.645,0,0,1-.092.456c-.076.135-.159.268-.243.4a4.879,4.879,0,0,1-1.495,1.085Zm-.111-.224a4.861,4.861,0,0,0,1.483-1.1c.082-.129.163-.262.237-.4a1.644,1.644,0,0,0,.087-.449,1.046,1.046,0,0,0-.089-.446,1.09,1.09,0,0,0-.229-.395,4.129,4.129,0,0,0-1.468-1.1,11.716,11.716,0,0,0-1.722-.68,31.938,31.938,0,0,0-7.31-1.176,46.415,46.415,0,0,0-7.41.179,22.818,22.818,0,0,0-7.149,1.745,4.778,4.778,0,0,0-1.441,1.061,1.155,1.155,0,0,0,0,1.533,4.013,4.013,0,0,0,1.425,1.059,11.776,11.776,0,0,0,1.7.673,31.87,31.87,0,0,0,7.28,1.17,46.281,46.281,0,0,0,7.39-.179,22.678,22.678,0,0,0,7.1-1.733Z" fill="#fff"/>
      <path id="Path_16091" data-name="Path 16091" d="M488.71-146.129l8.666-6.524-8.356,6.917Z" fill="#fff"/>
      <path id="Path_16092" data-name="Path 16092" d="M515.088-154.859a10.572,10.572,0,0,1-3.475,1.515,29.125,29.125,0,0,1-3.676.714,45.4,45.4,0,0,1-7.452.311,36.3,36.3,0,0,1-7.392-.98,12.5,12.5,0,0,1-3.487-1.373,2.615,2.615,0,0,1-1.235-1.466,1.838,1.838,0,0,1,.85-1.7,10.488,10.488,0,0,1,3.431-1.492,28.907,28.907,0,0,1,3.66-.71,45.13,45.13,0,0,1,7.431-.31,36.192,36.192,0,0,1,7.365.975,12.456,12.456,0,0,1,3.451,1.357,2.5,2.5,0,0,1,1.179,1.387,1.715,1.715,0,0,1-.8,1.573Zm-.155-.2a1.707,1.707,0,0,0,.79-1.57,2.478,2.478,0,0,0-1.181-1.363,12.362,12.362,0,0,0-3.449-1.323,36.045,36.045,0,0,0-7.354-.911,44.984,44.984,0,0,0-7.4.371,28.716,28.716,0,0,0-3.626.735,10.267,10.267,0,0,0-3.335,1.478,1.591,1.591,0,0,0-.745,1.447,2.377,2.377,0,0,0,1.127,1.283,12.253,12.253,0,0,0,3.412,1.306,35.939,35.939,0,0,0,7.328.908,44.951,44.951,0,0,0,7.381-.37,28.73,28.73,0,0,0,3.609-.732,10.158,10.158,0,0,0,3.29-1.455Z" fill="#fff"/>
      <path id="Path_16093" data-name="Path 16093" d="M495.16-145.558l4.534-6.912-4.108,7.174Z" fill="#fff"/>
      <path id="Path_16094" data-name="Path 16094" d="M515.747-155.58a6.349,6.349,0,0,1-3.271,1.974,24.681,24.681,0,0,1-3.652.846,43.573,43.573,0,0,1-7.445.467,39.217,39.217,0,0,1-7.412-.8,16.953,16.953,0,0,1-3.565-1.138,4.949,4.949,0,0,1-1.569-1.067,1.7,1.7,0,0,1-.47-.867,1.458,1.458,0,0,1,.006-.51,4.2,4.2,0,0,1,.193-.466,6.256,6.256,0,0,1,3.2-1.921,24.56,24.56,0,0,1,3.633-.842,43.5,43.5,0,0,1,7.423-.465,39.174,39.174,0,0,1,7.388.794,16.869,16.869,0,0,1,3.537,1.129,4.828,4.828,0,0,1,1.531,1.039,1.577,1.577,0,0,1,.439.8,1.349,1.349,0,0,1-.005.461c-.043.147-.119.285-.177.428Zm-.213-.131a1.334,1.334,0,0,0-.269-1.683,4.808,4.808,0,0,0-1.533-1.021,16.908,16.908,0,0,0-3.536-1.1,39.106,39.106,0,0,0-7.377-.73,43.309,43.309,0,0,0-7.391.526,24.427,24.427,0,0,0-3.594.863,6.093,6.093,0,0,0-3.059,1.845,1.206,1.206,0,0,0,.254,1.533,4.706,4.706,0,0,0,1.494.992,16.719,16.719,0,0,0,3.509,1.087,38.984,38.984,0,0,0,7.353.727,43.138,43.138,0,0,0,7.369-.524,24.162,24.162,0,0,0,3.574-.859,6.01,6.01,0,0,0,2.993-1.791Z" fill="#fff"/>
      <path id="Path_16095" data-name="Path 16095" d="M501.838-145.253l.25-7.152.25,7.152Z" fill="#fff"/>
      <path id="Path_16096" data-name="Path 16096" d="M515.978-156.387a2.256,2.256,0,0,1-1.121,1.676,8.259,8.259,0,0,1-1.706.862,20.745,20.745,0,0,1-3.627.967,42.058,42.058,0,0,1-7.436.6,42.109,42.109,0,0,1-7.424-.663,20.681,20.681,0,0,1-3.6-.994,8.048,8.048,0,0,1-1.677-.864,2.151,2.151,0,0,1-1.06-1.586,2.146,2.146,0,0,1,1.069-1.575,8.115,8.115,0,0,1,1.679-.847,20.63,20.63,0,0,1,3.6-.961,41.971,41.971,0,0,1,7.413-.6,42.016,42.016,0,0,1,7.4.661,20.622,20.622,0,0,1,3.581.987,8,8,0,0,1,1.65.85,2.03,2.03,0,0,1,1.007,1.485Zm-.25,0a2.028,2.028,0,0,0-1.016-1.473,8,8,0,0,0-1.652-.833,20.6,20.6,0,0,0-3.581-.954,41.88,41.88,0,0,0-7.391-.6,41.928,41.928,0,0,0-7.379.659,20.5,20.5,0,0,0-3.558.981,7.827,7.827,0,0,0-1.623.835,1.921,1.921,0,0,0-.955,1.383,1.92,1.92,0,0,0,.964,1.37,7.807,7.807,0,0,0,1.625.818,20.45,20.45,0,0,0,3.559.949,41.872,41.872,0,0,0,7.367.6,41.626,41.626,0,0,0,7.356-.657,20.254,20.254,0,0,0,3.536-.974,7.742,7.742,0,0,0,1.6-.821,1.8,1.8,0,0,0,.9-1.28Z" fill="#fff"/>
      <path id="Path_16097" data-name="Path 16097" d="M508.593-145.286l-4.108-7.174,4.534,6.912Z" fill="#fff"/>
      <path id="Path_16098" data-name="Path 16098" d="M515.724-157.194a4.228,4.228,0,0,1,.205.5,1.586,1.586,0,0,1,0,.558,1.812,1.812,0,0,1-.505.921,5.03,5.03,0,0,1-1.61,1.077,17,17,0,0,1-3.591,1.115,39.368,39.368,0,0,1-7.425.736,43.554,43.554,0,0,1-7.435-.529,24.724,24.724,0,0,1-3.633-.873,6.286,6.286,0,0,1-3.194-1.951,4.463,4.463,0,0,1-.188-.467,1.446,1.446,0,0,1,0-.508,1.7,1.7,0,0,1,.474-.858,4.924,4.924,0,0,1,1.572-1.049,16.909,16.909,0,0,1,3.564-1.1,39.231,39.231,0,0,1,7.4-.734,43.486,43.486,0,0,1,7.413.528,24.614,24.614,0,0,1,3.613.868,6.183,6.183,0,0,1,3.126,1.9Zm-.213.131a6.167,6.167,0,0,0-3.136-1.868,24.523,24.523,0,0,0-3.613-.837,43.541,43.541,0,0,0-7.4-.464,39.114,39.114,0,0,0-7.364.792,16.794,16.794,0,0,0-3.51,1.12,4.7,4.7,0,0,0-1.492,1.01,1.212,1.212,0,0,0-.243,1.543,6.087,6.087,0,0,0,3.07,1.815,24.241,24.241,0,0,0,3.594.831,43.156,43.156,0,0,0,7.379.463,38.9,38.9,0,0,0,7.339-.789,16.631,16.631,0,0,0,3.482-1.11,4.58,4.58,0,0,0,1.454-.982,1.084,1.084,0,0,0,.228-1.393Z" fill="#fff"/>
      <path id="Path_16099" data-name="Path 16099" d="M515.168-145.718l-8.356-6.917,8.666,6.524Z" fill="#fff"/>
      <path id="Path_16100" data-name="Path 16100" d="M515.044-157.914a3.255,3.255,0,0,1,.679.757,1.867,1.867,0,0,1,.2.5,1.925,1.925,0,0,1,0,.557,2.7,2.7,0,0,1-1.291,1.523,12.575,12.575,0,0,1-3.523,1.355,36.379,36.379,0,0,1-7.406.919,45.4,45.4,0,0,1-7.444-.373,29.116,29.116,0,0,1-3.66-.742,10.517,10.517,0,0,1-3.423-1.523,1.83,1.83,0,0,1-.834-1.693,2.585,2.585,0,0,1,1.236-1.444,12.466,12.466,0,0,1,3.486-1.338,36.211,36.211,0,0,1,7.38-.915,45.033,45.033,0,0,1,7.423.372,28.947,28.947,0,0,1,3.643.738,10.412,10.412,0,0,1,3.379,1.5Zm-.154.2a10.392,10.392,0,0,0-3.387-1.47,28.921,28.921,0,0,0-3.643-.706,45.1,45.1,0,0,0-7.411-.31,36.152,36.152,0,0,0-7.338.972,12.344,12.344,0,0,0-3.414,1.341,2.4,2.4,0,0,0-1.125,1.307,1.6,1.6,0,0,0,.76,1.45,10.3,10.3,0,0,0,3.343,1.448,28.873,28.873,0,0,0,3.626.7,45.061,45.061,0,0,0,7.39.308,35.981,35.981,0,0,0,7.312-.968,12.214,12.214,0,0,0,3.377-1.325,2.285,2.285,0,0,0,1.07-1.226c.109-.491-.274-.968-.715-1.327Z" fill="#fff"/>
      <path id="Path_16101" data-name="Path 16101" d="M521.329-146.5,509-152.922l12.554,5.97Z" fill="#fff"/>
      <path id="Path_16102" data-name="Path 16102" d="M513.993-158.555a5.1,5.1,0,0,1,1.568,1.163c.1.147.189.3.272.455a1.9,1.9,0,0,1,.106.541,1.271,1.271,0,0,1-.106.538,1.3,1.3,0,0,1-.261.457,4.357,4.357,0,0,1-1.555,1.169,12.2,12.2,0,0,1-1.76.7,32.257,32.257,0,0,1-7.371,1.187,46.7,46.7,0,0,1-7.451-.18,23.034,23.034,0,0,1-7.234-1.77,4.994,4.994,0,0,1-1.526-1.129c-.088-.139-.176-.281-.254-.425a1.737,1.737,0,0,1-.1-.5,1.148,1.148,0,0,1,.1-.492,1.189,1.189,0,0,1,.245-.426,4.251,4.251,0,0,1,1.511-1.133,12.136,12.136,0,0,1,1.741-.688,32.078,32.078,0,0,1,7.341-1.181,46.565,46.565,0,0,1,7.431.179,22.934,22.934,0,0,1,7.191,1.758Zm-.111.224a22.865,22.865,0,0,0-7.2-1.7,46.375,46.375,0,0,0-7.416-.118,31.967,31.967,0,0,0-7.292,1.236,11.876,11.876,0,0,0-1.705.69,4.049,4.049,0,0,0-1.429,1.082,1.181,1.181,0,0,0,.017,1.562,4.785,4.785,0,0,0,1.453,1.051,22.784,22.784,0,0,0,7.155,1.683,46.359,46.359,0,0,0,7.4.117,31.82,31.82,0,0,0,7.261-1.23,11.671,11.671,0,0,0,1.687-.683,3.926,3.926,0,0,0,1.385-1.045,1.051,1.051,0,0,0-.015-1.41,4.681,4.681,0,0,0-1.411-1.016Z" fill="#fff"/>
      <path id="Path_16103" data-name="Path 16103" d="M526.892-147.6l-15.915-5.715,16.077,5.242Z" fill="#fff"/>
      <path id="Path_16104" data-name="Path 16104" d="M512.6-159.122a11.148,11.148,0,0,1,1.739.77,3.4,3.4,0,0,1,1.44,1.345,1.469,1.469,0,0,1,.092,1.07,2.4,2.4,0,0,1-.577.855,6.132,6.132,0,0,1-1.632,1.024,25.022,25.022,0,0,1-7.3,1.6,46.368,46.368,0,0,1-7.453.058,30.208,30.208,0,0,1-7.33-1.327,11.073,11.073,0,0,1-1.717-.76,3.3,3.3,0,0,1-1.389-1.29,1.339,1.339,0,0,1-.085-.978,2.258,2.258,0,0,1,.544-.8,6.043,6.043,0,0,1,1.6-1,24.876,24.876,0,0,1,7.258-1.589,46.35,46.35,0,0,1,7.433-.058,30.033,30.033,0,0,1,7.3,1.321Zm-.081.237a30,30,0,0,0-7.3-1.259,46.14,46.14,0,0,0-7.416.121,24.758,24.758,0,0,0-7.193,1.635,5.83,5.83,0,0,0-1.532.975,2.067,2.067,0,0,0-.485.721,1.125,1.125,0,0,0,.082.821,3.093,3.093,0,0,0,1.307,1.18,10.781,10.781,0,0,0,1.682.727,29.949,29.949,0,0,0,7.271,1.253,46.106,46.106,0,0,0,7.395-.121,24.68,24.68,0,0,0,7.154-1.624,5.75,5.75,0,0,0,1.5-.951,1.142,1.142,0,0,0,.377-1.4,2.978,2.978,0,0,0-1.255-1.125,10.656,10.656,0,0,0-1.662-.718Z" fill="#fff"/>
      <path id="Path_16105" data-name="Path 16105" d="M531.694-148.96l-19-4.84,19.122,4.354Z" fill="#fff"/>
      <path id="Path_16106" data-name="Path 16106" d="M510.9-159.606a13.694,13.694,0,0,1,3.536,1.321,3.172,3.172,0,0,1,1.39,1.4,1.592,1.592,0,0,1,.108.534,2.019,2.019,0,0,1-.114.532,2.5,2.5,0,0,1-.613.815,9.327,9.327,0,0,1-3.427,1.6,27.955,27.955,0,0,1-3.667.741,45.546,45.546,0,0,1-7.445.353,37.952,37.952,0,0,1-7.391-.931,13.624,13.624,0,0,1-3.5-1.307,3.055,3.055,0,0,1-1.336-1.339,1.474,1.474,0,0,1-.1-.488,1.916,1.916,0,0,1,.1-.487,2.4,2.4,0,0,1,.581-.769A9.244,9.244,0,0,1,492.4-159.2a27.886,27.886,0,0,1,3.65-.736,45.274,45.274,0,0,1,7.424-.352,37.867,37.867,0,0,1,7.365.927Zm-.059.243a37.792,37.792,0,0,0-7.367-.865,45.366,45.366,0,0,0-7.4.413,28.027,28.027,0,0,0-3.623.763,9.11,9.11,0,0,0-3.3,1.566,1.35,1.35,0,0,0-.522,1.532,2.87,2.87,0,0,0,1.258,1.224,13.365,13.365,0,0,0,3.449,1.252,37.652,37.652,0,0,0,7.342.861,45.084,45.084,0,0,0,7.383-.412,27.508,27.508,0,0,0,3.607-.759,9,9,0,0,0,3.247-1.539,1.224,1.224,0,0,0,.489-1.393,2.774,2.774,0,0,0-1.205-1.162,13.28,13.28,0,0,0-3.415-1.238Z" fill="#fff"/>
      <path id="Path_16107" data-name="Path 16107" d="M535.592-150.541l-21.51-3.823,21.592,3.329Z" fill="#fff"/>
      <path id="Path_16108" data-name="Path 16108" d="M508.942-160a24.255,24.255,0,0,1,3.643.9,10.125,10.125,0,0,1,1.739.759,3.57,3.57,0,0,1,1.442,1.326,1.317,1.317,0,0,1,.151.515c.006.092.015.185.015.275l-.068.265a1.94,1.94,0,0,1-.558.855,5.622,5.622,0,0,1-1.624,1.024,17.539,17.539,0,0,1-3.592,1.085,39.89,39.89,0,0,1-7.422.708,43.385,43.385,0,0,1-7.428-.551,24.11,24.11,0,0,1-3.623-.894,10.054,10.054,0,0,1-1.718-.749,3.444,3.444,0,0,1-1.391-1.274,1.188,1.188,0,0,1-.139-.472l-.014-.25.062-.241a1.824,1.824,0,0,1,.527-.8,5.512,5.512,0,0,1,1.588-1,17.5,17.5,0,0,1,3.565-1.077,39.941,39.941,0,0,1,7.4-.705,43.206,43.206,0,0,1,7.406.55Zm-.041.247a43.191,43.191,0,0,0-7.4-.487,39.728,39.728,0,0,0-7.373.765,17.352,17.352,0,0,0-3.526,1.1,5.378,5.378,0,0,0-1.532.979,1.292,1.292,0,0,0-.39,1.56,3.292,3.292,0,0,0,1.324,1.18,9.833,9.833,0,0,0,1.689.719,23.8,23.8,0,0,0,3.593.854,43.13,43.13,0,0,0,7.384.486,39.692,39.692,0,0,0,7.349-.763,17.2,17.2,0,0,0,3.5-1.087,5.238,5.238,0,0,0,1.5-.955,1.163,1.163,0,0,0,.365-1.415,3.174,3.174,0,0,0-1.273-1.126,9.629,9.629,0,0,0-1.668-.711,23.75,23.75,0,0,0-3.573-.848Z" fill="#fff"/>
      <path id="Path_16109" data-name="Path 16109" d="M538.471-152.293l-23.358-2.695,23.41,2.2Z" fill="#fff"/>
      <path id="Path_16110" data-name="Path 16110" d="M506.783-160.282a22.767,22.767,0,0,1,7.26,1.8,4.535,4.535,0,0,1,1.539,1.178,1.457,1.457,0,0,1,.253.455l.085.255c.007.09.005.183.006.274a1.584,1.584,0,0,1-.386.963,7.3,7.3,0,0,1-3.315,1.824,32.02,32.02,0,0,1-7.366,1.172,46.757,46.757,0,0,1-7.446-.183,22.648,22.648,0,0,1-7.217-1.79,4.415,4.415,0,0,1-1.5-1.142,1.322,1.322,0,0,1-.236-.423l-.079-.234,0-.249a1.46,1.46,0,0,1,.359-.888,7.211,7.211,0,0,1,3.254-1.783,31.953,31.953,0,0,1,7.336-1.166,46.5,46.5,0,0,1,7.426.183Zm-.026.249a46.454,46.454,0,0,0-7.422-.12,31.852,31.852,0,0,0-7.3,1.222,7.118,7.118,0,0,0-3.17,1.76,1.209,1.209,0,0,0-.024,1.6,4.257,4.257,0,0,0,1.442,1.077,22.463,22.463,0,0,0,7.158,1.708,46.424,46.424,0,0,0,7.4.12,31.781,31.781,0,0,0,7.272-1.217,7.029,7.029,0,0,0,3.109-1.718,1.082,1.082,0,0,0,.023-1.444,4.152,4.152,0,0,0-1.4-1.04,22.344,22.344,0,0,0-7.115-1.695Z" fill="#fff"/>
      <path id="Path_16111" data-name="Path 16111" d="M540.246-154.162l-24.494-1.492,24.52.992Z" fill="#fff"/>
      <path id="Path_16112" data-name="Path 16112" d="M504.486-160.455a33.806,33.806,0,0,1,7.382,1.149,9.075,9.075,0,0,1,3.4,1.657,2.161,2.161,0,0,1,.581.828,1.185,1.185,0,0,1,.077.529l-.025.271-.1.243a3.291,3.291,0,0,1-1.4,1.347,20.649,20.649,0,0,1-7.221,1.878,46.174,46.174,0,0,1-7.445.193,33.655,33.655,0,0,1-7.354-1.144,8.99,8.99,0,0,1-3.349-1.628,2.047,2.047,0,0,1-.549-.779,1.066,1.066,0,0,1-.07-.482l.021-.246.1-.224a3.178,3.178,0,0,1,1.351-1.288,20.545,20.545,0,0,1,7.172-1.862,46.037,46.037,0,0,1,7.425-.192Zm-.013.25a46.065,46.065,0,0,0-7.418.254,20.472,20.472,0,0,0-7.116,1.908,3.056,3.056,0,0,0-1.285,1.236,1.329,1.329,0,0,0,.48,1.561,8.829,8.829,0,0,0,3.295,1.562,33.514,33.514,0,0,0,7.313,1.075,46.037,46.037,0,0,0,7.4-.254,20.4,20.4,0,0,0,7.068-1.892,2.957,2.957,0,0,0,1.233-1.177,1.207,1.207,0,0,0-.451-1.421,8.756,8.756,0,0,0-3.245-1.533,33.358,33.358,0,0,0-7.284-1.07Z" fill="#fff"/>
      <path id="Path_16113" data-name="Path 16113" d="M540.863-156.091l-24.885-.25,24.885-.25Z" fill="#fff"/>
      <path id="Path_16114" data-name="Path 16114" d="M502.12-160.511a42.063,42.063,0,0,1,7.436.664,20.715,20.715,0,0,1,3.616,1,8.128,8.128,0,0,1,1.69.871,2.208,2.208,0,0,1,1.086,1.638,2.2,2.2,0,0,1-1.095,1.625,8.151,8.151,0,0,1-1.693.854,20.716,20.716,0,0,1-3.615.965,42.114,42.114,0,0,1-7.425.6,42.08,42.08,0,0,1-7.413-.663,20.644,20.644,0,0,1-3.592-.99,8.016,8.016,0,0,1-1.664-.857,2.091,2.091,0,0,1-1.033-1.535,2.084,2.084,0,0,1,1.042-1.524,8.036,8.036,0,0,1,1.666-.84,20.674,20.674,0,0,1,3.593-.958,41.914,41.914,0,0,1,7.4-.6Zm0,.25a41.87,41.87,0,0,0-7.39.66,20.51,20.51,0,0,0-3.57.984,7.909,7.909,0,0,0-1.636.842,1.974,1.974,0,0,0-.981,1.434,1.971,1.971,0,0,0,.99,1.421,7.921,7.921,0,0,0,1.639.826,20.456,20.456,0,0,0,3.569.951,41.831,41.831,0,0,0,7.379.6,41.882,41.882,0,0,0,7.368-.658,20.364,20.364,0,0,0,3.547-.978,7.821,7.821,0,0,0,1.61-.828,1.863,1.863,0,0,0,.928-1.331,1.861,1.861,0,0,0-.937-1.32,7.851,7.851,0,0,0-1.612-.811,20.34,20.34,0,0,0-3.548-.945,41.629,41.629,0,0,0-7.356-.594Z" fill="#fff"/>
      <path id="Path_16115" data-name="Path 16115" d="M540.3-158.022l-24.52.992,24.494-1.492Z" fill="#fff"/>
      <path id="Path_16116" data-name="Path 16116" d="M499.757-160.449a46.35,46.35,0,0,1,7.459.256,20.706,20.706,0,0,1,7.213,1.94,3.3,3.3,0,0,1,1.39,1.353l.1.242.023.267a1.174,1.174,0,0,1-.079.52,2.159,2.159,0,0,1-.581.814,9.034,9.034,0,0,1-3.4,1.619,33.713,33.713,0,0,1-7.371,1.085,46.213,46.213,0,0,1-7.439-.255,20.619,20.619,0,0,1-7.164-1.924,3.182,3.182,0,0,1-1.338-1.295l-.092-.222-.019-.243a1.038,1.038,0,0,1,.072-.472,2.026,2.026,0,0,1,.548-.765,8.961,8.961,0,0,1,3.346-1.591,33.616,33.616,0,0,1,7.342-1.079Zm.012.25a33.6,33.6,0,0,0-7.324,1.139,8.867,8.867,0,0,0-3.3,1.6,1.352,1.352,0,0,0-.473,1.59,3.069,3.069,0,0,0,1.3,1.229,20.447,20.447,0,0,0,7.124,1.846,46,46,0,0,0,7.4.192,33.387,33.387,0,0,0,7.3-1.135,8.778,8.778,0,0,0,3.249-1.57,1.228,1.228,0,0,0,.443-1.45,2.955,2.955,0,0,0-1.247-1.17,20.345,20.345,0,0,0-7.075-1.83,45.863,45.863,0,0,0-7.384-.191Z" fill="#fff"/>
      <path id="Path_16117" data-name="Path 16117" d="M538.589-159.9l-23.41,2.2,23.358-2.695Z" fill="#fff"/>
      <path id="Path_16118" data-name="Path 16118" d="M497.466-160.269a46.6,46.6,0,0,1,7.462-.121,32.016,32.016,0,0,1,7.363,1.234,7.281,7.281,0,0,1,3.29,1.844,1.537,1.537,0,0,1,.371.944l-.007.266-.085.247a1.406,1.406,0,0,1-.25.442,4.488,4.488,0,0,1-1.529,1.151,22.7,22.7,0,0,1-7.246,1.733,46.584,46.584,0,0,1-7.442.121,31.988,31.988,0,0,1-7.332-1.228,7.206,7.206,0,0,1-3.23-1.8,1.418,1.418,0,0,1-.344-.87l.005-.241.079-.226a1.309,1.309,0,0,1,.233-.411,4.385,4.385,0,0,1,1.486-1.114,22.56,22.56,0,0,1,7.2-1.72Zm.026.249a22.51,22.51,0,0,0-7.173,1.776,4.308,4.308,0,0,0-1.452,1.1,1.248,1.248,0,0,0,.038,1.643,7.122,7.122,0,0,0,3.194,1.741,31.866,31.866,0,0,0,7.3,1.16,46.472,46.472,0,0,0,7.4-.182,22.447,22.447,0,0,0,7.13-1.764,4.2,4.2,0,0,0,1.408-1.068,1.12,1.12,0,0,0-.036-1.491,7.032,7.032,0,0,0-3.133-1.7,31.7,31.7,0,0,0-7.276-1.154,46.21,46.21,0,0,0-7.384.181Z" fill="#fff"/>
      <path id="Path_16119" data-name="Path 16119" d="M535.77-161.656l-21.592,3.329,21.51-3.823Z" fill="#fff"/>
      <path id="Path_16120" data-name="Path 16120" d="M495.316-159.977a43.336,43.336,0,0,1,7.449-.491,40.146,40.146,0,0,1,7.421.77,17.644,17.644,0,0,1,3.579,1.114,5.6,5.6,0,0,1,1.6,1.029,1.9,1.9,0,0,1,.539.837l.063.255c0,.087-.01.176-.017.263a1.254,1.254,0,0,1-.148.494,3.5,3.5,0,0,1-1.425,1.286,10.033,10.033,0,0,1-1.73.738,24.026,24.026,0,0,1-3.634.864,43.256,43.256,0,0,1-7.427.489,39.861,39.861,0,0,1-7.4-.768,17.41,17.41,0,0,1-3.552-1.1,5.456,5.456,0,0,1-1.568-1,1.416,1.416,0,0,1-.413-1.7,3.387,3.387,0,0,1,1.374-1.233,9.946,9.946,0,0,1,1.71-.729,24.059,24.059,0,0,1,3.613-.859Zm.041.246a23.935,23.935,0,0,0-3.6.889,9.918,9.918,0,0,0-1.7.74,3.337,3.337,0,0,0-1.341,1.22,1.346,1.346,0,0,0,.412,1.621,5.4,5.4,0,0,0,1.552.974,17.368,17.368,0,0,0,3.539,1.068,39.822,39.822,0,0,0,7.374.7,43.217,43.217,0,0,0,7.383-.548,23.856,23.856,0,0,0,3.583-.884,9.738,9.738,0,0,0,1.676-.731,3.22,3.22,0,0,0,1.291-1.167,1.219,1.219,0,0,0-.388-1.476,5.279,5.279,0,0,0-1.516-.949,17.219,17.219,0,0,0-3.512-1.059,39.615,39.615,0,0,0-7.35-.7,42.949,42.949,0,0,0-7.362.546Z" fill="#fff"/>
      <path id="Path_16121" data-name="Path 16121" d="M531.934-163.25,512.813-158.9l19-4.84Z" fill="#fff"/>
      <path id="Path_16122" data-name="Path 16122" d="M493.371-159.582a38.039,38.039,0,0,1,7.418-.872,45.458,45.458,0,0,1,7.447.416,27.959,27.959,0,0,1,3.659.77,9.309,9.309,0,0,1,3.394,1.621,2.439,2.439,0,0,1,.59.795,2.008,2.008,0,0,1,.1.506,1.508,1.508,0,0,1-.108.5,3.088,3.088,0,0,1-1.364,1.35,13.577,13.577,0,0,1-3.518,1.279,37.805,37.805,0,0,1-7.393.869,45.419,45.419,0,0,1-7.426-.414,27.909,27.909,0,0,1-3.641-.767,9.212,9.212,0,0,1-3.345-1.593,1.475,1.475,0,0,1-.554-1.669,2.976,2.976,0,0,1,1.311-1.287,13.45,13.45,0,0,1,3.483-1.266Zm.058.243a13.447,13.447,0,0,0-3.467,1.293,2.94,2.94,0,0,0-1.284,1.277,1.42,1.42,0,0,0,.553,1.6,9.138,9.138,0,0,0,3.329,1.55,27.892,27.892,0,0,0,3.633.733,45.347,45.347,0,0,0,7.4.351,37.7,37.7,0,0,0,7.339-.925,13.36,13.36,0,0,0,3.434-1.278,2.842,2.842,0,0,0,1.23-1.215,1.3,1.3,0,0,0-.52-1.468,9.054,9.054,0,0,0-3.28-1.522,27.648,27.648,0,0,0-3.615-.729,45.186,45.186,0,0,0-7.382-.35,37.622,37.622,0,0,0-7.314.921Z" fill="#fff"/>
      <path id="Path_16123" data-name="Path 16123" d="M527.2-164.63l-16.077,5.242,15.915-5.715Z" fill="#fff"/>
      <path id="Path_16124" data-name="Path 16124" d="M491.687-159.093a30.229,30.229,0,0,1,7.366-1.272,46.42,46.42,0,0,1,7.457.121,25,25,0,0,1,7.272,1.656,6.1,6.1,0,0,1,1.6,1.023,2.33,2.33,0,0,1,.549.826,1.378,1.378,0,0,1-.094,1,3.318,3.318,0,0,1-1.41,1.291,11.078,11.078,0,0,1-1.725.746,30.121,30.121,0,0,1-7.334,1.265,46.27,46.27,0,0,1-7.436-.121A24.9,24.9,0,0,1,490.7-154.2a5.979,5.979,0,0,1-1.568-1,2.194,2.194,0,0,1-.517-.774,1.247,1.247,0,0,1,.088-.912,3.2,3.2,0,0,1,1.358-1.235,10.89,10.89,0,0,1,1.7-.737Zm.081.236a10.97,10.97,0,0,0-1.7.75,3.183,3.183,0,0,0-1.338,1.235,1.217,1.217,0,0,0-.079.887,2.148,2.148,0,0,0,.513.752,5.945,5.945,0,0,0,1.56.976,24.817,24.817,0,0,0,7.219,1.578,46.205,46.205,0,0,0,7.412.058,29.866,29.866,0,0,0,7.266-1.315,10.731,10.731,0,0,0,1.675-.74,3.065,3.065,0,0,0,1.286-1.18,1.09,1.09,0,0,0,.073-.8,2.049,2.049,0,0,0-.48-.7,5.82,5.82,0,0,0-1.525-.951,24.713,24.713,0,0,0-7.18-1.568,46.059,46.059,0,0,0-7.391-.058,29.8,29.8,0,0,0-7.234,1.309Z" fill="#fff"/>
      <path id="Path_16125" data-name="Path 16125" d="M521.718-165.758l-12.554,5.97,12.331-6.417Z" fill="#fff"/>
      <path id="Path_16126" data-name="Path 16126" d="M490.312-158.523a23.058,23.058,0,0,1,7.283-1.72,46.538,46.538,0,0,1,7.457-.118,32.184,32.184,0,0,1,7.353,1.246,12.192,12.192,0,0,1,1.743.707,4.269,4.269,0,0,1,1.515,1.155,1.2,1.2,0,0,1,.245.435,1.176,1.176,0,0,1,.095.5,1.778,1.778,0,0,1-.1.5c-.081.146-.17.289-.26.427a5.009,5.009,0,0,1-1.538,1.12,22.988,22.988,0,0,1-7.241,1.707,46.522,46.522,0,0,1-7.437.118,32.057,32.057,0,0,1-7.322-1.241,12.028,12.028,0,0,1-1.724-.7,4.184,4.184,0,0,1-1.472-1.119,1.1,1.1,0,0,1-.228-.4,1.039,1.039,0,0,1-.087-.455,1.644,1.644,0,0,1,.092-.456c.075-.135.159-.268.242-.4a4.884,4.884,0,0,1,1.5-1.085Zm.111.224a4.849,4.849,0,0,0-1.483,1.1c-.082.13-.163.262-.237.4a1.631,1.631,0,0,0-.087.448,1.044,1.044,0,0,0,.089.446,1.073,1.073,0,0,0,.228.4,4.132,4.132,0,0,0,1.469,1.1,11.75,11.75,0,0,0,1.721.68,31.956,31.956,0,0,0,7.311,1.176,46.416,46.416,0,0,0,7.41-.179,22.805,22.805,0,0,0,7.148-1.745,4.77,4.77,0,0,0,1.442-1.061,1.156,1.156,0,0,0,0-1.533,4.025,4.025,0,0,0-1.425-1.059,11.821,11.821,0,0,0-1.7-.673,31.869,31.869,0,0,0-7.28-1.17,46.281,46.281,0,0,0-7.39.179,22.683,22.683,0,0,0-7.106,1.733Z" fill="#fff"/>
      <path id="Path_16127" data-name="Path 16127" d="M515.658-166.609l-8.666,6.524L515.349-167Z" fill="#fff"/>
      <path id="Path_16128" data-name="Path 16128" d="M489.28-157.879a10.585,10.585,0,0,1,3.476-1.515,29.09,29.09,0,0,1,3.676-.714,45.394,45.394,0,0,1,7.452-.311,36.3,36.3,0,0,1,7.391.98,12.492,12.492,0,0,1,3.488,1.373A2.615,2.615,0,0,1,516-156.6a1.838,1.838,0,0,1-.85,1.7,10.485,10.485,0,0,1-3.432,1.492,28.9,28.9,0,0,1-3.659.71,45.134,45.134,0,0,1-7.431.31,36.183,36.183,0,0,1-7.365-.975,12.455,12.455,0,0,1-3.451-1.357,2.507,2.507,0,0,1-1.18-1.387,1.717,1.717,0,0,1,.8-1.573Zm.155.2a1.708,1.708,0,0,0-.789,1.57,2.475,2.475,0,0,0,1.181,1.363,12.362,12.362,0,0,0,3.449,1.323,36.044,36.044,0,0,0,7.354.911,44.992,44.992,0,0,0,7.4-.371,28.717,28.717,0,0,0,3.626-.735,10.267,10.267,0,0,0,3.335-1.478,1.588,1.588,0,0,0,.744-1.447,2.371,2.371,0,0,0-1.126-1.283,12.266,12.266,0,0,0-3.412-1.306,35.939,35.939,0,0,0-7.328-.908,44.951,44.951,0,0,0-7.381.37,28.693,28.693,0,0,0-3.609.732,10.173,10.173,0,0,0-3.291,1.455Z" fill="#fff"/>
      <path id="Path_16129" data-name="Path 16129" d="M509.209-167.18l-4.534,6.912,4.108-7.174Z" fill="#fff"/>
      <ellipse id="Ellipse_152" data-name="Ellipse 152" cx="18.959" cy="5.449" rx="18.959" ry="5.449" transform="translate(483.308 -161.795)" fill="#fff"/>
      <path id="Path_16130" data-name="Path 16130" d="M502.251-144.9c-2.231,0-4.49-.056-6.761-.171-16.579-.84-29.429-4.65-31.975-9.481a3.694,3.694,0,0,1,.171-3.87h0c3.774-6.15,24.121-10.277,45.36-9.2,16.579.84,29.429,4.65,31.974,9.481a3.692,3.692,0,0,1-.171,3.87C537.48-148.779,520.888-144.9,502.251-144.9ZM464.112-158.16a3.222,3.222,0,0,0-.154,3.376c2.466,4.68,15.148,8.384,31.557,9.215,21.08,1.069,41.221-2.953,44.909-8.964a3.224,3.224,0,0,0,.154-3.375c-2.466-4.68-15.148-8.384-31.557-9.215-21.074-1.064-41.221,2.953-44.909,8.963Z" fill="#fff"/>
    </g>
    <path id="Path_16131" data-name="Path 16131" d="M500.982-121.766c-26.019,0-50.846-5.848-68.113-16.045a.5.5,0,0,1-.239-.349.5.5,0,0,1,.113-.407c.872-1.016,1.795-2.11,2.763-3.258,7.1-8.423,16.833-19.957,26.985-25.016a.5.5,0,0,1,.67.224.5.5,0,0,1-.224.67c-9.966,4.968-19.619,16.411-26.666,24.767-.828.981-1.622,1.922-2.379,2.809,17.1,9.923,41.5,15.605,67.09,15.605,25,0,49.03-5.465,66.046-15.006-4.432-7.094-18.3-26.085-29.2-28.705a.5.5,0,0,1-.369-.6.5.5,0,0,1,.6-.37c5.061,1.218,11.122,5.763,18.015,13.512a125.782,125.782,0,0,1,12.072,16.084.5.5,0,0,1,.058.386.5.5,0,0,1-.237.31C550.787-127.376,526.369-121.766,500.982-121.766Z" fill="#fff"/>
    <g id="Group_948" data-name="Group 948">
      <circle id="Ellipse_153" data-name="Ellipse 153" cx="0.729" cy="0.729" r="0.729" transform="translate(503.937 -174.078)" fill="#fff"/>
      <circle id="Ellipse_154" data-name="Ellipse 154" cx="0.729" cy="0.729" r="0.729" transform="translate(503.937 -177.724)" fill="#fff"/>
      <circle id="Ellipse_155" data-name="Ellipse 155" cx="0.729" cy="0.729" r="0.729" transform="translate(503.937 -181.369)" fill="#fff"/>
      <circle id="Ellipse_156" data-name="Ellipse 156" cx="0.729" cy="0.729" r="0.729" transform="translate(503.937 -185.015)" fill="#fff"/>
      <circle id="Ellipse_157" data-name="Ellipse 157" cx="0.729" cy="0.729" r="0.729" transform="translate(503.937 -188.66)" fill="#fff"/>
      <circle id="Ellipse_158" data-name="Ellipse 158" cx="0.729" cy="0.729" r="0.729" transform="translate(503.937 -192.305)" fill="#fff"/>
      <circle id="Ellipse_159" data-name="Ellipse 159" cx="0.729" cy="0.729" r="0.729" transform="translate(503.937 -195.951)" fill="#fff"/>
      <circle id="Ellipse_160" data-name="Ellipse 160" cx="0.729" cy="0.729" r="0.729" transform="translate(503.937 -199.596)" fill="#fff"/>
      <circle id="Ellipse_161" data-name="Ellipse 161" cx="0.729" cy="0.729" r="0.729" transform="translate(503.937 -203.242)" fill="#fff"/>
      <circle id="Ellipse_162" data-name="Ellipse 162" cx="0.729" cy="0.729" r="0.729" transform="translate(503.937 -206.887)" fill="#fff"/>
      <circle id="Ellipse_163" data-name="Ellipse 163" cx="0.729" cy="0.729" r="0.729" transform="translate(503.937 -210.532)" fill="#fff"/>
      <circle id="Ellipse_164" data-name="Ellipse 164" cx="0.729" cy="0.729" r="0.729" transform="translate(503.937 -214.178)" fill="#fff"/>
      <circle id="Ellipse_165" data-name="Ellipse 165" cx="0.729" cy="0.729" r="0.729" transform="translate(503.937 -217.823)" fill="#fff"/>
      <circle id="Ellipse_166" data-name="Ellipse 166" cx="0.729" cy="0.729" r="0.729" transform="translate(503.937 -221.469)" fill="#fff"/>
      <circle id="Ellipse_167" data-name="Ellipse 167" cx="0.729" cy="0.729" r="0.729" transform="translate(503.937 -225.114)" fill="#fff"/>
      <circle id="Ellipse_168" data-name="Ellipse 168" cx="0.729" cy="0.729" r="0.729" transform="translate(503.937 -228.759)" fill="#fff"/>
      <circle id="Ellipse_169" data-name="Ellipse 169" cx="0.729" cy="0.729" r="0.729" transform="translate(503.937 -232.405)" fill="#fff"/>
      <circle id="Ellipse_170" data-name="Ellipse 170" cx="0.729" cy="0.729" r="0.729" transform="translate(503.937 -236.05)" fill="#fff"/>
      <circle id="Ellipse_171" data-name="Ellipse 171" cx="0.729" cy="0.729" r="0.729" transform="translate(503.937 -239.696)" fill="#fff"/>
      <circle id="Ellipse_172" data-name="Ellipse 172" cx="0.729" cy="0.729" r="0.729" transform="translate(503.937 -243.341)" fill="#fff"/>
    </g>
    <g id="Group_949" data-name="Group 949">
      <circle id="Ellipse_173" data-name="Ellipse 173" cx="0.729" cy="0.729" r="0.729" transform="translate(499.887 -174.078)" fill="#fff"/>
      <circle id="Ellipse_174" data-name="Ellipse 174" cx="0.729" cy="0.729" r="0.729" transform="translate(499.887 -177.724)" fill="#fff"/>
      <circle id="Ellipse_175" data-name="Ellipse 175" cx="0.729" cy="0.729" r="0.729" transform="translate(499.887 -181.369)" fill="#fff"/>
      <circle id="Ellipse_176" data-name="Ellipse 176" cx="0.729" cy="0.729" r="0.729" transform="translate(499.887 -185.015)" fill="#fff"/>
      <circle id="Ellipse_177" data-name="Ellipse 177" cx="0.729" cy="0.729" r="0.729" transform="translate(499.887 -188.66)" fill="#fff"/>
      <circle id="Ellipse_178" data-name="Ellipse 178" cx="0.729" cy="0.729" r="0.729" transform="translate(499.887 -192.305)" fill="#fff"/>
      <circle id="Ellipse_179" data-name="Ellipse 179" cx="0.729" cy="0.729" r="0.729" transform="translate(499.887 -195.951)" fill="#fff"/>
      <circle id="Ellipse_180" data-name="Ellipse 180" cx="0.729" cy="0.729" r="0.729" transform="translate(499.887 -199.596)" fill="#fff"/>
      <circle id="Ellipse_181" data-name="Ellipse 181" cx="0.729" cy="0.729" r="0.729" transform="translate(499.887 -203.242)" fill="#fff"/>
      <circle id="Ellipse_182" data-name="Ellipse 182" cx="0.729" cy="0.729" r="0.729" transform="translate(499.887 -206.887)" fill="#fff"/>
      <circle id="Ellipse_183" data-name="Ellipse 183" cx="0.729" cy="0.729" r="0.729" transform="translate(499.887 -210.532)" fill="#fff"/>
      <circle id="Ellipse_184" data-name="Ellipse 184" cx="0.729" cy="0.729" r="0.729" transform="translate(499.887 -214.178)" fill="#fff"/>
      <circle id="Ellipse_185" data-name="Ellipse 185" cx="0.729" cy="0.729" r="0.729" transform="translate(499.887 -217.823)" fill="#fff"/>
      <circle id="Ellipse_186" data-name="Ellipse 186" cx="0.729" cy="0.729" r="0.729" transform="translate(499.887 -221.469)" fill="#fff"/>
      <circle id="Ellipse_187" data-name="Ellipse 187" cx="0.729" cy="0.729" r="0.729" transform="translate(499.887 -225.114)" fill="#fff"/>
      <circle id="Ellipse_188" data-name="Ellipse 188" cx="0.729" cy="0.729" r="0.729" transform="translate(499.887 -228.759)" fill="#fff"/>
      <circle id="Ellipse_189" data-name="Ellipse 189" cx="0.729" cy="0.729" r="0.729" transform="translate(499.887 -232.405)" fill="#fff"/>
      <circle id="Ellipse_190" data-name="Ellipse 190" cx="0.729" cy="0.729" r="0.729" transform="translate(499.887 -236.05)" fill="#fff"/>
      <circle id="Ellipse_191" data-name="Ellipse 191" cx="0.729" cy="0.729" r="0.729" transform="translate(499.887 -239.696)" fill="#fff"/>
      <circle id="Ellipse_192" data-name="Ellipse 192" cx="0.729" cy="0.729" r="0.729" transform="translate(499.887 -243.341)" fill="#fff"/>
    </g>
    <g id="Group_950" data-name="Group 950">
      <circle id="Ellipse_193" data-name="Ellipse 193" cx="0.729" cy="0.729" r="0.729" transform="translate(493.199 -174.136)" fill="#fff"/>
      <circle id="Ellipse_194" data-name="Ellipse 194" cx="0.729" cy="0.729" r="0.729" transform="translate(493.408 -177.775)" fill="#fff"/>
      <circle id="Ellipse_195" data-name="Ellipse 195" cx="0.729" cy="0.729" r="0.729" transform="translate(493.618 -181.414)" fill="#fff"/>
      <circle id="Ellipse_196" data-name="Ellipse 196" cx="0.729" cy="0.729" r="0.729" transform="translate(493.827 -185.054)" fill="#fff"/>
      <circle id="Ellipse_197" data-name="Ellipse 197" cx="0.729" cy="0.729" r="0.729" transform="translate(494.036 -188.693)" fill="#fff"/>
      <circle id="Ellipse_198" data-name="Ellipse 198" cx="0.729" cy="0.729" r="0.729" transform="translate(494.246 -192.332)" fill="#fff"/>
      <circle id="Ellipse_199" data-name="Ellipse 199" cx="0.729" cy="0.729" r="0.729" transform="translate(494.455 -195.972)" fill="#fff"/>
      <circle id="Ellipse_200" data-name="Ellipse 200" cx="0.729" cy="0.729" r="0.729" transform="translate(494.665 -199.611)" fill="#fff"/>
      <circle id="Ellipse_201" data-name="Ellipse 201" cx="0.729" cy="0.729" r="0.729" transform="translate(494.874 -203.251)" fill="#fff"/>
      <circle id="Ellipse_202" data-name="Ellipse 202" cx="0.729" cy="0.729" r="0.729" transform="translate(495.083 -206.89)" fill="#fff"/>
      <circle id="Ellipse_203" data-name="Ellipse 203" cx="0.729" cy="0.729" r="0.729" transform="translate(495.293 -210.529)" fill="#fff"/>
      <circle id="Ellipse_204" data-name="Ellipse 204" cx="0.729" cy="0.729" r="0.729" transform="translate(495.502 -214.169)" fill="#fff"/>
      <circle id="Ellipse_205" data-name="Ellipse 205" cx="0.729" cy="0.729" r="0.729" transform="translate(495.712 -217.808)" fill="#fff"/>
      <circle id="Ellipse_206" data-name="Ellipse 206" cx="0.729" cy="0.729" r="0.729" transform="translate(495.921 -221.447)" fill="#fff"/>
      <circle id="Ellipse_207" data-name="Ellipse 207" cx="0.729" cy="0.729" r="0.729" transform="translate(496.13 -225.087)" fill="#fff"/>
      <circle id="Ellipse_208" data-name="Ellipse 208" cx="0.729" cy="0.729" r="0.729" transform="translate(496.34 -228.726)" fill="#fff"/>
      <circle id="Ellipse_209" data-name="Ellipse 209" cx="0.729" cy="0.729" r="0.729" transform="translate(496.549 -232.366)" fill="#fff"/>
      <circle id="Ellipse_210" data-name="Ellipse 210" cx="0.729" cy="0.729" r="0.729" transform="translate(496.759 -236.005)" fill="#fff"/>
      <circle id="Ellipse_211" data-name="Ellipse 211" cx="0.729" cy="0.729" r="0.729" transform="translate(496.968 -239.644)" fill="#fff"/>
      <circle id="Ellipse_212" data-name="Ellipse 212" cx="0.729" cy="0.729" r="0.729" transform="translate(497.178 -243.284)" fill="#fff"/>
    </g>
    <g id="Group_951" data-name="Group 951">
      <circle id="Ellipse_213" data-name="Ellipse 213" cx="0.729" cy="0.729" r="0.729" transform="translate(510.468 -174.136)" fill="#fff"/>
      <circle id="Ellipse_214" data-name="Ellipse 214" cx="0.729" cy="0.729" r="0.729" transform="translate(510.259 -177.775)" fill="#fff"/>
      <circle id="Ellipse_215" data-name="Ellipse 215" cx="0.729" cy="0.729" r="0.729" transform="translate(510.049 -181.414)" fill="#fff"/>
      <circle id="Ellipse_216" data-name="Ellipse 216" cx="0.729" cy="0.729" r="0.729" transform="translate(509.84 -185.054)" fill="#fff"/>
      <circle id="Ellipse_217" data-name="Ellipse 217" cx="0.729" cy="0.729" r="0.729" transform="translate(509.63 -188.693)" fill="#fff"/>
      <circle id="Ellipse_218" data-name="Ellipse 218" cx="0.729" cy="0.729" r="0.729" transform="translate(509.421 -192.332)" fill="#fff"/>
      <circle id="Ellipse_219" data-name="Ellipse 219" cx="0.729" cy="0.729" r="0.729" transform="translate(509.212 -195.972)" fill="#fff"/>
      <circle id="Ellipse_220" data-name="Ellipse 220" cx="0.729" cy="0.729" r="0.729" transform="translate(509.002 -199.611)" fill="#fff"/>
      <circle id="Ellipse_221" data-name="Ellipse 221" cx="0.729" cy="0.729" r="0.729" transform="translate(508.793 -203.251)" fill="#fff"/>
      <circle id="Ellipse_222" data-name="Ellipse 222" cx="0.729" cy="0.729" r="0.729" transform="translate(508.583 -206.89)" fill="#fff"/>
      <circle id="Ellipse_223" data-name="Ellipse 223" cx="0.729" cy="0.729" r="0.729" transform="translate(508.374 -210.529)" fill="#fff"/>
      <circle id="Ellipse_224" data-name="Ellipse 224" cx="0.729" cy="0.729" r="0.729" transform="translate(508.165 -214.169)" fill="#fff"/>
      <circle id="Ellipse_225" data-name="Ellipse 225" cx="0.729" cy="0.729" r="0.729" transform="translate(507.955 -217.808)" fill="#fff"/>
      <circle id="Ellipse_226" data-name="Ellipse 226" cx="0.729" cy="0.729" r="0.729" transform="translate(507.746 -221.447)" fill="#fff"/>
      <circle id="Ellipse_227" data-name="Ellipse 227" cx="0.729" cy="0.729" r="0.729" transform="translate(507.536 -225.087)" fill="#fff"/>
      <circle id="Ellipse_228" data-name="Ellipse 228" cx="0.729" cy="0.729" r="0.729" transform="translate(507.327 -228.726)" fill="#fff"/>
      <circle id="Ellipse_229" data-name="Ellipse 229" cx="0.729" cy="0.729" r="0.729" transform="translate(507.118 -232.366)" fill="#fff"/>
      <circle id="Ellipse_230" data-name="Ellipse 230" cx="0.729" cy="0.729" r="0.729" transform="translate(506.908 -236.005)" fill="#fff"/>
      <circle id="Ellipse_231" data-name="Ellipse 231" cx="0.729" cy="0.729" r="0.729" transform="translate(506.699 -239.644)" fill="#fff"/>
      <circle id="Ellipse_232" data-name="Ellipse 232" cx="0.729" cy="0.729" r="0.729" transform="translate(506.489 -243.284)" fill="#fff"/>
    </g>
    <text id="PRK" transform="translate(455.925 -306.341)" fill="#fff" font-size="19" font-family="Lato-Bold, Lato" font-weight="700"><tspan x="25.209" y="19">PRK</tspan></text>
  </g>
</svg>
