<svg xmlns="http://www.w3.org/2000/svg" width="150.533" height="129.311" viewBox="0 0 150.533 129.311"><g transform="translate(-21.228 -264.379)"><g transform="translate(21.228 265.764)"><g transform="translate(0 0)"><path d="M112.787,270.556a5.192,5.192,0,0,0-.5.125H110.7v.063h-1.523v.062h-1.52v.059h-1.585v.067h-1.89V271h-.7v-.063a1.883,1.883,0,0,0-.637.128,2.05,2.05,0,0,1-.764-.064,10.745,10.745,0,0,1-1.837.131H98.847l-1.205.062h-.83v.062H95.3v.067H93.647c-.926.258-2.311-.072-3.232.188-.4.112-1.067-.049-1.455.06l-9.318.256v.061H78.12v.063h-1.6a7.574,7.574,0,0,1-1.458.068h-.189v.067H73.235v.06c-.159.038-.234-.06-.318-.06v.06c-.405.084-.945-.024-1.268.062h-2.79v.068H67.22v.06H65.632s0,.05-.128.06h-1.4v.06H62.525v.068H60.883v.067H59.231a7.656,7.656,0,0,1-1.65.059,13.642,13.642,0,0,1-2.026,0v-.194h.068c.217-.244.532-.257.819-.438.019-.043.038-.089.06-.13h.127l.128-.122h.129v-.068h.128v-.062h.126v-.06h.123v-.06h.128v-.062h.125v-.068h.131v-.057h.124v-.067H57.9v-.064h.188a1.058,1.058,0,0,0,.062-.129h.128l.119-.129h.13v-.068h.128v-.059h.126v-.061H58.9v-.064h.129v-.062l.378-.128v-.061c.129-.025.251-.046.383-.062v-.064a2.393,2.393,0,0,1,.25-.062v-.068c.112-.022.214-.042.318-.067v-.068h.191v-.058c.086-.023.177-.037.252-.063v-.062c.131-.018.252-.044.382-.063v-.061l.25-.067v-.06c.17-.082.356-.048.51-.135v-.057h.127v-.067c.128-.021.249-.047.379-.068v-.063h.13v-.068h.186c.022-.036.043-.08.068-.127.122-.019.25-.036.38-.063V268.9l.252-.067v-.052c.125-.023.25-.047.377-.068v-.058h.128v-.068h.193v-.063h.188v-.068h.191v-.06h.381v-.063h.19v-.067h.252V268.2h.188v-.062h.191v-.063h.193v-.056h.178v-.061h.2V267.9c.125-.02.254-.043.383-.068v-.06h.249V267.7h.193v-.057h.19v-.067h.191v-.063h.19v-.055H67.9v-.076c.125-.024.256-.047.383-.068v-.067H68.6V267.2h.19v-.067c.151-.022.3-.041.445-.068v-.057c.27-.042.548-.088.824-.135.914-.306,1.977-.484,2.915-.759h.711a7.543,7.543,0,0,1,1.708.068h1.9v.062h1.839v.068h1.839v.067h1.585c.355.016.819.064,1.266.064h.818v.067h1.9v.057l3.554.063c.338.027.834.06,1.268.06h.7s0,.055.129.062a12.19,12.19,0,0,1,1.778.064h1.778v.065h1.835v.067h1.9v.068h.887a14.582,14.582,0,0,1,2.855.057h.956v.067c.2.047.417.086.629.126v.067H105v.053h.191v.067h.19v.056c.186.046.382.087.567.135v.046h.128v.068h.256v.06h.125v.068h.261v.063h.124v.06h.2v.062h.241v.064h.19v.061h.189v.067h.191v.06h.193v.062h.19v.061l.379.068v.063a2.194,2.194,0,0,1,.253.068v.057l.379.068v.06l.254.068v.059h.188v.064h.193v.067c.086.023.169.039.251.06v.068h.128v.063h.193v.068h.121v.062l.319.059v.063h.187c.561.256,1.17.565,1.712.83Zm15.844,9.7v.122c.135.087.258.179.38.251v.067c.057.081,0,.01.067.068v.252c-.237.023-.467.044-.7.062v.063c-.4.112-1.067-.049-1.457.068h-1.518v.052H123.82v.068H122.3v.067h-1.584v.068h-1.269c-.316.015-.629.038-.952.06v-.06h-.061v.06h-.44a7,7,0,0,0-1.588.06h-1.648c-.889.251-2.339-.067-3.237.188-.4.117-1.067-.047-1.455.062H108.34v.063h-1.52a1.311,1.311,0,0,1-.57.064c-.087-.011.024-.064-.064-.064v.062c-.405.08-.945-.026-1.266.068-.319-.022-.637-.041-.955-.068v.068c-.408.11-1.067-.049-1.457.06h-1.523v.063l-3.164.068v.055H96.171c-.39.108-1.067-.048-1.457.068v.06H93.067v.067h-.188a8.31,8.31,0,0,0-1.591.063c-.4.11-1.067-.05-1.456.059l-4.176.078v.06H84.133v.061h-1.65v.057H80.9v.068H79.378v.067H77.54v.061c-.378.11-1.022-.044-1.391.067H74.311v.068c-.212.057-.356-.053-.506-.068-.384.021-.762.041-1.143.068h-.823v.06H70.191c-.889.252-2.216-.06-3.106.187H65.563v.068H63.911v.062H62.326v.067h-1.7c-.413.116-1.1-.049-1.52.061v.067c-.163.048-.243-.062-.32-.062v.062h-.392v-.062a.693.693,0,0,1-.251.062.133.133,0,0,1-.127-.062c-.1-.014-.105.062-.123.062H56.367v.068H54.783v.067H53.258v.063H51.679v.064H50.156v.062H48.57v.067H47.051v.061H45.4a8.655,8.655,0,0,1-1.9.067h-.572v.063h-.946a11.424,11.424,0,0,1-1.837,0v-.318c.568-.548,1.143-1.1,1.712-1.645.1-.128.209-.258.315-.386H42.3c.148-.167.3-.338.442-.5h.128c.143-.178.292-.343.443-.514h.125c.15-.167.3-.332.445-.5h.127c.063-.09.129-.17.188-.254h.129c.063-.086.125-.167.189-.257h.125c.06-.083.129-.165.19-.252h.129c.063-.078.126-.169.19-.251h.124c.087-.1.178-.214.25-.315h.129a1.118,1.118,0,0,0,.063-.129h.068a.736.736,0,0,1,.063-.123h.125c.086-.11.168-.214.254-.318h.125c.064-.087.128-.177.191-.254h.127c.043-.067.083-.127.128-.193h.125c.068-.085.128-.178.191-.251h.128l.067-.131h.121v-.06c.068-.02.129-.047.19-.062.026-.044.042-.086.067-.125h.125c.067-.087.127-.178.193-.256l.256-.062c.043-.067.086-.128.129-.187h.122c.042-.067.087-.135.125-.2h.129l.127-.19c.09-.019.167-.042.253-.064.025-.045.044-.079.067-.125l.251-.06v-.068h2.093v.068a1.177,1.177,0,0,0,.128-.068c.163,0,.179.068.187.068h1.778v.06h1.518v.062h1.9a.165.165,0,0,0,.187.067v-.067h.508v.067l.194-.067.888.067v.064h1.712v.067h1.778v.061h1.844v.061h1.65v.062q.533-.029,1.067-.062c.739.2,1.859-.023,2.6.2h1.584v.059l14.132.448a11.714,11.714,0,0,0,1.717.061c.318.028.789.063,1.2.063h.7s0,.05.128.061a11.476,11.476,0,0,1,1.651.06H92.44v.068h1.844v.067c1.14.022,2.281.044,3.421.057V278h1.712v.063h1.834v.062h.319a5.54,5.54,0,0,1,1.454,0h1.716v.067h1.839a10.987,10.987,0,0,0,1.711.061c.124.012.124.067.124.067h1.709s0,.048.128.068a9.974,9.974,0,0,1,1.645.061h1.712v.058h1.778v.068h1.777v.058h1.65v.062h1.778v.068h1.9v.061c1.46.047,2.919.084,4.373.125v.067c.127.023.25.043.381.062.083.107.177.214.256.318h.124v.062l.2.125c.06.086.116.177.178.256h.128v.067c.161.135.277.313.5.379m-90.641,6.42h.445v.068h1.711v.06h1.716v.06h1.778v.068h1.84v.063h1.647v.068h1.711v.067h1.778v.059h1.712v.076l3.3.06h.251v.061h1.778v.057h1.708v.067h1.695v.06H61.5v.061c.1.02.108-.059.124-.061h1.081c.811.23,2.087-.014,2.919.193.192-.019.377-.042.567-.067v.067c.429.116,1.107-.048,1.524.059H69.43v.067h1.9v.068c1.183.024,2.363.045,3.555.067v.062h1.523v.067h1.709v.068c.612.019,1.228.038,1.842.06h.823c.327.089.9-.041,1.268.061v.067h1.832v.06h.761c.56,0,1.187.023,1.645.064h.953v.06c.193-.019.377-.042.57-.06v.06h1.143v.067H91.3v.068l.258-.068h.187v.068h.766v.06h1.641v.064c.135-.019.26-.04.383-.064v.064l1.965.061h1.081v.067h1.712a11.776,11.776,0,0,0,1.585.068c.5.045,1.173.06,1.778.06.633,0,1.369.017,1.9.067a10.559,10.559,0,0,1,1.647.061h1.714v.06h1.772v.062h1.651v.067h1.777v.064c1.139.021,2.283.044,3.42.067v.059h1.714v.06h1.777v.068h1.712v.057h1.645v.067h1.778v.073h1.778c.44.125,1.111-.026,1.645.064a9.306,9.306,0,0,0,1.2.06h.57v.067h.381a6.1,6.1,0,0,1,1.4.068c1.422.033,2.836.079,4.249.125a5.527,5.527,0,0,1,1.838.178,1.811,1.811,0,0,1,.315.446l.125.063c.023.083.047.177.067.256a.646.646,0,0,1,.125.064c.02.1.039.2.063.315-.074.051-.011,0-.063.06-.57.023-1.142.041-1.711.068v.061h-1.916v.068h-1.523v.063H132.12v.068h-1.647v.06H129.01v.062h-1.648v.063h-.192a7.006,7.006,0,0,0-1.4.061h-1.452v.064h-.889v-.064h-.067v.064h-.69v.062h-1.59v.059h-1.778v.068l-.828-.068v.068h-1.645v.083h-1.7v.068h-1.52v.067h-1.585v.048H110.45c-.913.26-2.266-.067-3.173.193-.4.109-1.067-.051-1.456.063h-1.9v.063h-.574a8.639,8.639,0,0,0-1.966.06H99.73v.068H98.28v.061H96.694v.067c-2.161.057-4.312.125-6.469.188a1.168,1.168,0,0,1-.565.06s-.027-.081-.193-.06H89.4v.06H88.332v.067c-.236-.019-.468-.039-.711-.067-.889.25-2.215-.06-3.106.193H82.87v.067H81.347v.06H79.765v.068H78.051v.067H76.47v.062h-.888s0-.089-.127-.062a14.78,14.78,0,0,1-2.156.125H72.16c-.908.26-2.261-.067-3.174.2H67.458v.06H65.876v.062H64.353v.068H62.767v.06H61.121v.062q-1.081.035-2.156.063c-.17-.019-.338-.041-.507-.063v.063H56.681v.06c-.4.116-1.067-.044-1.462.068H53.576v.062H52v.063c-.4.116-1.067-.051-1.463.068H49.012v.067H47.3v.059l-1.907.063H43.941a1.355,1.355,0,0,1-.569.06v-.06h-.067v.06H42.169v.063h-.307v-.063c-.24.022-.467.047-.7.063H39.831v.068H38.118v.067H36.6v.061H34.945v.051H33.36v.068a2.637,2.637,0,0,1-.945-.068h-.258v.068h-.95a.8.8,0,0,1-.068-.318c.127-.109.048-.118.13-.246h.062v-.125L31.46,295v-.13a1.343,1.343,0,0,0,.125-.06v-.128c.039-.017.086-.041.125-.06v-.129c.044-.019.087-.043.122-.06v-.13c.044-.019.087-.041.13-.064v-.124a1.307,1.307,0,0,1,.129-.068c.018-.084.041-.167.06-.256a1.963,1.963,0,0,0,.2-.128v-.125c.041-.021.078-.049.125-.068a1.625,1.625,0,0,1,.067-.177h.06v-.129c.043-.021.084-.047.125-.063.023-.087.048-.167.067-.256.068-.038.128-.083.191-.123v-.129c.046-.02.084-.045.127-.068a2.327,2.327,0,0,0,.062-.247,1.211,1.211,0,0,1,.129-.068v-.124a2.226,2.226,0,0,1,.188-.13v-.163c.044-.024.084-.041.122-.064V291.6c.067-.045.135-.086.193-.121v-.128a1.762,1.762,0,0,1,.193-.128v-.135h.061c.02-.064.044-.128.067-.193.041-.021.083-.041.127-.067V290.7c.125-.105.251-.208.382-.315v-.126a.563.563,0,0,1,.128-.06c.019-.067.042-.135.062-.193l.377-.319v-.119c.087-.068.178-.135.249-.2v-.124c.089-.06.178-.129.259-.187v-.131c.062-.04.129-.083.187-.127v-.128c.105-.086.214-.166.32-.251V288.3l.254-.188v-.124c.08-.068.167-.13.251-.188v-.129c.06-.043.13-.079.2-.123a1.565,1.565,0,0,1,.063-.193,1.993,1.993,0,0,1,.249-.178c.107-.135.21-.262.319-.386h.445Zm32.9,12.372v.192l-.254.188v.067h-.125c-.022.043-.046.084-.063.128-.087.022-.167.039-.256.057a1.239,1.239,0,0,1-.067.135H70c-.02.044-.041.087-.061.129l-.258.06v.06h-.123a1.284,1.284,0,0,0-.067.128c-.246.159-.485.178-.637.441h.2v.062H69.3v-.062h1.587V300.6c.356-.1.889.023,1.2-.063h.7c.467-.02.927-.044,1.393-.061v-.06h.949v-.064h1.081v-.067H77.1v-.061h2.026v-.067h1.148c.389-.112,1.058.05,1.455-.06v-.068h1.142v-.06c.462-.022.929-.041,1.393-.068h.7v-.063h.951v-.068h1.013V299.7h.945v-.057h1.081v-.068l1.331-.061h.7v-.068h.952v-.063h1.2v-.061h.891c.743-.212,1.561,0,2.219-.191h1.522v-.063h.95v-.051c.44-.026.888-.041,1.33-.063h.7a1.392,1.392,0,0,1,.7-.068v.068c.128.038.252.078.384.124v.064c.081.02.167.042.249.067.023.043.046.083.063.125l1.836.949q8.054.259,16.1.509v.063h.764v.064h1.711v.055c.233-.024.465-.04.7-.063v.063h.763v.062h.38v-.059h.819v.061h1.649v.067h1.778v.061h1.712v.06h1.63v.067h1.649c.669.187,1.661.021,2.343.192l.827-.068a7.358,7.358,0,0,0,1.836.129h.829v.063h1.588v.062h.377a.178.178,0,0,1,.19-.062v.062h1.332v.067l2.026.061a.889.889,0,0,1,.191.7,1.906,1.906,0,0,1-.63.06c-.249.218-1.142-.038-1.524.068v.061h-1.649v.073H139.85c-.091.018-.105.061-.254.067h-1.46v.061c-1.08.024-2.156.039-3.232.063h-.068v.063h-1.513v.068h-1.65v.067h-.253v-.063a1.175,1.175,0,0,0-.574.067h-.889c-.55.016-1.1.034-1.646.068v.059c-.216-.023-.427-.048-.635-.059-.636.011-1.268.034-1.9.059v.067h-1.823v.055h-1.585v.067H120.9c-.119.012-.125.06-.125.06h-1.713v.068h-1.656v.067H114.69v.061h-1.584v.067h-.7a8.132,8.132,0,0,0-1.14.068c-.686.127-1.688-.21-2.093.191.157.092.043.071.13.189.041.02.084.041.125.063.087.1.167.208.252.319h.068v.122c.262.068.342.286.508.445.3.31.981.73,1.013,1.268-.781-.019-1.567-.044-2.35-.06v-.083h-.945v-.067h-1.142v-.061h-.888v-.063h-.758v-.063H104.3V306h-1.013v-.068c-.533-.023-1.056-.042-1.584-.063h-.819V305.8h-.315v-.063c-.155.021-.3.046-.45.063v-.063h-.5v-.073h-.062v.068h-.2v-.068h-1.2v-.06h-.762v-.062h-.756v-.067h-.7v-.062H94.8v-.064h-.641l-1.2-.061v-.062H91.873v-.064h-.7L90.1,305.1v-.061l-2.157-.064v-.067c-.421-.024-.846-.038-1.267-.062h-.636v-.06H85.15v-.068h-.888v-.063H83.31V304.6h-.889v-.074h-.887v-.063l-1.778-.068v-.06h-.95v-.062c-.384-.023-.766-.045-1.141-.064h-.624v-.062h-.889v-.061H75.2v-.063q-.6-.038-1.2-.068h-.634v-.067h-.889v-.06h-.946v-.068h-.945v-.067h-.828v-.068h-1.08v-.067h-.946v-.068H66.9v-.06c-.711-.021-1.439-.041-2.155-.067-.039.067-.089.127-.128.193h-.129c-.06.086-.127.178-.189.258h-.127c-.237.256-.468.506-.7.762h-.127c-.087.1-.169.212-.256.313h-.128c-.122.148-.252.3-.377.441-.142.112-.276.122-.383.258h-.7v.06H59.86v.068c-.4.113-1.067-.05-1.463.063H56.882v.061H55.227v.063H53.716v.068h-.695V305.9h-.068v.068h-1.9v.06h-.832v.063c-.25-.024-.5-.043-.757-.063v.063c-.461.113-1.148-.062-1.584.063H46.355v.061H44.832v.067H43.25v.068H41.6v.06H40.083v.063H37.3v.061H35.71v.06H34.128v.067H32.478v.061H31.017v.067H29.429v.062h-1.52a10.226,10.226,0,0,1-2.284.067,1.158,1.158,0,0,1-.062-.442c.143-.135.107-.27.191-.444h.063v-.192h.067v-.125h.061v-.188H26v-.125h.068v-.175h.06c.019-.087.042-.178.063-.253h.064v-.19c.041-.021.083-.04.127-.068v-.193h.067v-.19h.062v-.119h.067v-.188h.068c.019-.09.041-.178.06-.256h.062v-.193h.062c.023-.082.041-.167.067-.249h.061v-.193h.067v-.13h.063c.045-.128.084-.256.131-.38H27.3v-.191h.06v-.124h.067c.019-.087.044-.178.062-.256h.06l.068-.254h.06v-.129h.064v-.128H27.8v-.128h.061v-.125h.067v-.127h.061c.146-.337.3-.68.448-1.013l.125-.06v-.128l.123-.129v-.13h.067c.022-.078.043-.163.06-.251h.068v-.125h.063v-.124H29v-.13h.072v-.126h.067v-.135h.064c.019-.084.036-.166.06-.251a1.4,1.4,0,0,1,.129-.059v-.135l.124-.122c.179-.333.142-.675.639-.7a.853.853,0,0,1,.569-.067v.067h1.841v.06h1.71v.063h1.778v.063h1.582v.059H38.91v.067h1.578v.068a1.282,1.282,0,0,0,.129-.068c.252.024.508.043.76.068V298h1.711v.061h1.584v.072h1.778v.067h1.713v.064H49.8v.063h1.778v.059h1.9v.067c.178-.02.342-.044.514-.067.912.233,1.84-.021,2.784.192.128-.019.258-.044.383-.059v.059l1.968.06h.946v.068h1.844v.06h1.637v.06h1.642v.068h1.778c.5.144,1-.1,1.589,0h.061v.067h1.645v.068c.214.014.425.036.64.06M58.529,309.665c0,.635-.27.711-.508,1.067-.019.089-.043.167-.059.254a1.206,1.206,0,0,0-.129.067c-.023.084-.04.167-.063.252h-.062c-.019.068-.042.122-.06.187-.048.021-.084.046-.13.067v.125l-.126.062v.128a1.116,1.116,0,0,0-.128.064v.13H57.2v.122h-.062l-.064.19h.064a1.717,1.717,0,0,0,.888.06H58.1v-.06h1.067s0-.051.127-.06h1.018v-.054l1.645-.063h.822v-.062H64.3v-.06c.466-.026.931-.047,1.4-.068h.7v-.067h1.017v-.064h1.081v-.063H69.63v-.068l2.093-.062v-.061l1.466-.061h.7V311.5c.532-.02,1.054-.044,1.584-.068h.824v-.057h1.522a1.313,1.313,0,0,1,.632-.067v.067h.442v-.067h1.143v-.064c.466-.021.931-.046,1.393-.062h.7v-.064h1.013v-.063q1.583-.068,3.165-.13v-.061l1.46-.067h.7v-.064c.368-.1.942.028,1.271-.062s.888.026,1.2-.06c.356-.1.9.021,1.205-.064h1.14v-.067c.747-.019,1.481-.041,2.22-.057v-.061h1.08v-.06c.488-.023.971-.048,1.457-.067h.7v-.063h1.08v-.06h1.081v-.068h1.141c.767-.219,1.943.03,2.725-.188H105.9v-.067c.464-.022.929-.038,1.393-.06h.7v-.063h1.081V309.6l1.458-.067h.7v-.068h1.141v-.06h1.013v-.057c.192.022.38.047.572.061.062.086.126.178.191.257h.062v.125c.063.042.124.089.188.128v.123a.582.582,0,0,1,.128.067c.023.06.04.123.064.188h.062v.128c.04.017.083.039.128.057v.13l.123.06v.128c.062.042.129.079.194.125v.13l.125.064v.124c.042.02.086.044.125.068v.122c.041.021.087.046.129.063.115.164-.068.118.188.191v.061h.38v.072c.276.019.552.039.825.062a3.628,3.628,0,0,1,1.271-.062v.062h1.65v.063h1.709v.068h1.705v.067h1.645c.441.122,1.118-.03,1.65.06a9.355,9.355,0,0,0,1.269.062h.567v.064h.252a6.327,6.327,0,0,1,1.393.067h1.648v.052H133.4v.06h1.522a.991.991,0,0,0,.25.067h1.458v.062h1.647v.068h1.645v.067h1.712v.06h1.648v.061h1.584v.068h1.712v.063h1.713v.064h.7s.013.034.13.062a1.229,1.229,0,0,1,.06.443c-.27.022-.551.047-.819.059v.067h-1.592v.064h-1.711v.06h-2.093v.064H141.9a5.785,5.785,0,0,0-1.333.067h-1.522v.063h-1.458a.935.935,0,0,0-.253.062h-1.523v.068H134.1v.06h-1.653c-.422.112-1.08-.023-1.589.063h-.06v.068h-1.518v.06h-.321a6.845,6.845,0,0,0-1.391.06h-1.645v.081h-1.6v.067h-1.581v.061h-1.776v.052h-1.712v.06h-.574a4.287,4.287,0,0,0-1.331.128c.067.21.13.427.193.638h.06v.188h.062c.023.085.042.167.067.254h.064v.188h.062v.142h.063v.162h.067v.124h.059v.191a2.864,2.864,0,0,1,.382,1.145,5.565,5.565,0,0,1-1.52.059c-.21-.178-.711.03-1.013-.059v-.068l-1.139-.067h-.628V317.7h-1.013v-.062c-.427-.019-.848-.041-1.269-.067h-.636v-.055h-.888v-.061c-.443-.02-.89-.045-1.331-.062h-.651v-.068h-.889v-.067h-.634c-.421-.019-.843-.041-1.269-.055v-.075h-.62c-.421-.017-.847-.036-1.271-.06v-.062c-.991-.036-1.986-.086-2.978-.127v-.063c-.4-.019-.8-.038-1.2-.064h-.632v-.06h-.951v-.06h-.954v-.068h-.952v-.062h-.625c-.427-.024-.846-.043-1.269-.061v-.067h-.633q-.637-.03-1.268-.068v-.057H91.176v-.063l-1.266-.062h-.636v-.067H88.068V316c-.4-.021-.8-.046-1.2-.062h-.639v-.067H85.092V315.8h-.633v-.072H83.57v-.06H82.49c-.31-.089-.86.032-1.205-.068v-.067h-.628v-.053H79.9v-.067h-1.08v-.059c-.616-.019-1.23-.041-1.84-.061v-.068h-.823v-.067H75.2c-.644-.139-2.133-.034-2.914-.252h-.96s-.034-.1-.194-.068a.178.178,0,0,1-.19.068v-.068h-.822v-.062l-2.15-.068c-.685-.19-1.723-.051-2.411-.25H64.74v-.068H63.6v-.059q-.565-.038-1.143-.061h-.63V314.2H61v-.067c-.51-.024-1.013-.047-1.523-.061h-.7v-.067H57.77v-.062q-.792-.035-1.583-.064c-.044.064-.084.128-.129.194H56c-.063.193-.125.377-.19.567h-.065v.125H55.68v.129h-.06v.129h-.071c-.042.122-.083.25-.122.375h-.068v.186H55.3v.129h-.075v.128c-.038.023-.078.042-.122.068v.124h-.061c-.023.105-.047.212-.067.316h-.061c-.128.254-.092.343-.319.508v.063h-.63c-.251.211-1.139-.048-1.526.062-.878.247-2.3-.06-3.173.2H47.753v.055H46.17c-.392.115-1.067-.049-1.466.067-.664.189-1.936.017-2.465.127h-.946v.062h-.386v-.062h-.7v.062H38.751v.063H37.105v.068H35.582v.061H33.931v.06H32.284v.067h-1.39v.068H29.307v.059H27.721v.068H26.007v.06h-.76v-.06h-.061v.06c-.907.027-1.816.043-2.724.068a1.881,1.881,0,0,1-.067-.637c.14-.163.055-.4.128-.631h.061v-.25h.078v-.254h.062c.021-.21.043-.423.062-.633h.055v-.251H22.9v-.319c.158-.5.288-1.1.444-1.589v-.312h.067v-.191h.061c.044-.218.086-.425.13-.637h.06v-.121h.068v-.252H23.8v-.2h.062v-.193h.063c.084-.356.167-.711.254-1.067h.061v-.242H24.3v-.127h.063v-.254h.064v-.191h.061v-.253h.064v-.129h.063v-.178h.064v-.256h.062c.064-.135.068-.381.195-.446h2.093c.178.157.436,0,.7,0h.193v.068h1.393v.067H30.9v.061h1.833v.067l.51-.067v.067h2.03v.06h1.066v.068h1.648s.009.051.127.06a10.4,10.4,0,0,1,1.522.062h1.778v.063h1.841v.057h1.777v.068h.823l1.327.059h1.523v.067h1.778v.06h1.778v.061H54.1v.067h1.773v.068H56.7a1.378,1.378,0,0,1,.635-.068v.068c.405.02.8.046,1.205.063m-5.217,10.885a3.967,3.967,0,0,1-.249,1.395c-.023.208-.048.419-.06.629a3.5,3.5,0,0,0-.26,1.143,3.677,3.677,0,0,0,1.081.068c.209-.178.71.029,1.013-.068v-.061h.7c.509-.018,1.013-.039,1.523-.061v-.067h1.013v-.057l1.458-.064h.7v-.067c.468-.015.931-.04,1.393-.057h.7v-.068h1.148v-.06h1.71v-.068c.466-.02.93-.04,1.4-.067h.7v-.057h1.013v-.064q1.108-.035,2.219-.063v-.068l1.391-.067h.7v-.048c.491-.021.974-.038,1.463-.064h.682v-.058h1.142v-.074h1.08a8.765,8.765,0,0,1,1.964-.061c.607-.023,1.227-.042,1.84-.067v-.063h1.086v-.06h1.013v-.064q1.586-.067,3.168-.124v-.068c.5-.024,1.013-.046,1.523-.061h.7v-.068h.888v-.057h1.067v-.067h1.148v-.062h1.013v-.061h.442v.061h.068v-.061c.778-.02,1.564-.045,2.341-.063v-.067c.722-.019,1.439-.045,2.153-.062v-.068c.468-.02.934-.041,1.392-.058h.711V321.2h1.013v-.067h1.081v-.059h1.088v-.064h.7c.485-.023.972-.044,1.454-.067v-.063h1.712v-.062h1.136v-.058c.421-.024.844-.043,1.265-.068h.7v-.067h1.142v-.059c.481-.02.969-.042,1.454-.067h.7v-.063h1.017v-.062c.635-.018,1.267-.041,1.9-.068h.889c.3-.08.855.033,1.205-.06a6.3,6.3,0,0,1,1.329-.068,2.209,2.209,0,0,0,.188.441c.045.281.086.553.129.828h.06c.129.533.254,1.067.383,1.58.122.026.127.067.127.067h.89v.068h1.843v.06H124.7v.072h1.778v.057h1.778v.067h1.9v.064h1.778v.057h1.518c.446.026.888.045,1.335.067h.823v.061h1.778v.057H138.9l1.327.067h.829v.068h1.777v.063h1.836v.06h1.778v.061h.753l1.333.067a7.616,7.616,0,0,1,1.9.129h.506v.058H151v.251c-.121.023-.129.063-.129.063h-.629v.068h-1.585v.067c-.405.107-1.067-.049-1.459.061h-1.52v.061H144.1v.063H142.51v.062h-1.589v.063h-2.668c-.422.117-1.066-.023-1.583.062h-.062v.068h-1.455v.054h-.181a8.359,8.359,0,0,0-1.457.064h-1.53v.067h-1.518v.061h-1.585v.072h-1.518v.068h-1.651v.062h-1.52v.067h-1.514v.059l-2.093.067a3.382,3.382,0,0,0-.068,1.013c.129.15.061.63.068.89.017.3.045.589.06.888h.067c-.019.258-.042.506-.067.764a4.306,4.306,0,0,1-1.52-.067h-.889v-.074h-.631c-.421-.016-.847-.039-1.268-.061v-.067h-.953v-.049H114.5V329h-.89v-.067c-.931-.039-1.859-.085-2.789-.125v-.063l-1.205-.063h-.631v-.067h-.95v-.06H107.2v-.068h-.89v-.061h-.953v-.067h-.888v-.068h-.95v-.06h-.888v-.063h-.819v-.045h-.633c-.405-.023-.806-.046-1.205-.063v-.068q-1.361-.067-2.728-.126v-.068c-.4-.021-.8-.039-1.209-.062h-.629v-.06H94.46V327.6h-.953v-.067h-.8v-.063h-.889v-.061h-.951v-.062h-.949v-.068h-.892v-.067c-.086,0-.1.1-.251.067v-.067h-.7v-.06h-.889v-.049H86.115v-.067c-.4-.023-.8-.045-1.205-.064h-.633v-.063h-1.14v-.076h-.889c-.607-.127-1.983-.039-2.727-.25h-.633a4.7,4.7,0,0,1-1.14-.129h-.709v-.067h-.761v-.064c-.739-.018-1.485-.044-2.218-.063V326.2h-.51v-.055H72.66v-.063c-.177.02-.337.04-.5.063v-.063h-.823v-.067H70.76v-.064H70v-.054h-.946v-.062l-1.835-.068V325.7c-.107-.023-.119.058-.135.058-.42-.019-.84-.033-1.264-.058v-.068H65v-.062H63.857v-.068H63.1v-.06h-.569v-.06H61.7v-.068h-.95v-.063h-1.4V325.2c-.481-.023-.971-.05-1.455-.067v-.063c-.077,0-.163.108-.319.063v-.063h-.7c-.089-.024.024-.048-.062-.064H55.739a4.6,4.6,0,0,0-1.2-.125h-.7v-.067l-1.268-.061c-.052.074,0,0-.064.061a4.943,4.943,0,0,1-.192,1.335v.5q-.121.761-.251,1.516a2.213,2.213,0,0,1-.7.068c-.249.211-1.137-.047-1.522.06v.067H48.259c-.888.251-2.215-.06-3.106.192H43.639v.061H42.054v.067H40.083v.063a.166.166,0,0,1-.19-.063h-.441v.063H37.611v.067H36.093v.064h-1.52v.06H33.053c-.092.017-.1.061-.254.067H31.411v.062H29.88v.056H28.3v.067h-1.84v.057H26.2c-.251-.015-.508-.038-.761-.06v.06h-.25v.068H23.411v.067h-.448s0-.083-.123-.067v.067H21.378v-.067h-.067c-.053-.555,0-1.021,0-1.647v-.955h.067q.03-1.333.068-2.667h.061V323.6h.061v-.44h.062v-.564q.22-1.514.443-3.038a8.276,8.276,0,0,1,2.6-.13c.252.216,1.143-.044,1.523.068.343.095.913-.031,1.331.063v.06c.115.021.3-.119.508-.06v.06h.823l1.141.068h1.588v.061h1.136v.067l.576-.067v.067h.889v.068c.19-.021.381-.041.577-.068h.25v.068h1.08v.062h1.081v.067h1.583v.06h.7c.43,0,.928.033,1.266.062H42.18v.06h1.837v.064h1.646v.061h1.713v.067h1.778v.062H50.8v.062h.822c.586,0,1.225.02,1.708.067m67.319,10.593c.009,1.067-.121,1.941-.125,2.915.074.05,0,0,.064.062.27.023.551.047.819.061v.067h1.648v.064H124.7v.074h1.777v.061h1.715v.067h1.7v.05h1.651v.067h1.708v.068h1.708v.057h1.713v.067l8.366.251v.064h1.71v.067H148.4c.373.1,1.013-.051,1.391.059a4.834,4.834,0,0,0,1.205.124v.262a2.486,2.486,0,0,1-.7.057c-.249.217-1.137-.042-1.52.068-.91.256-2.263-.068-3.165.189h-1.584v.067h-1.52c-.888.246-2.284-.053-3.173.187h-.379v-.087a1.182,1.182,0,0,0-.569.061h-1.46a8.057,8.057,0,0,1-1.709.063c-.658.047-1.312.084-1.966.128H131.8v.063h-1.519v.063h-1.651v.068h-1.584v.057h-1.642c-.374.108-1.013-.042-1.395.067v.068h-1.592v.06h-1.582v.063h-.574s0,.041-.124.068c-.3,1.094-.591,2.2-.889,3.3a5.418,5.418,0,0,1-1.522.06c-.191-.156-.608.018-.89-.06v-.067h-.633c-.426-.019-.848-.044-1.271-.062v-.064h-.889v-.067h-.887v-.064h-.889V339.9h-.889v-.068h-.633c-.405-.022-.806-.044-1.211-.06v-.068h-.888v-.061h-.888v-.064h-.632c-.405-.022-.806-.039-1.209-.062v-.057c-.607-.019-1.221-.045-1.836-.068v-.067h-.952v-.068h-.819V339.2H101.7l-1.2-.064v-.062h-.946v-.06H98.91l-1.206-.06v-.068c-.589-.017-1.183-.039-1.778-.058v-.068H95.1v-.06h-.633l-1.207-.068v-.06h-.889v-.053H91.73L90.6,338.45v-.073c-.619-.015-1.23-.038-1.842-.056v-.074h-.889v-.063H86.92v-.058h-.889v-.06H85.2V338H84.2v-.06h-.889v-.068h-.95V337.8h-.632l-1.08-.062v-.067h-.952v-.062h-.824v-.062h-.7a4.641,4.641,0,0,1-1.2-.129H76.08v-.051c-.107.02-.21.038-.316.06v-.06h-.821c-.327-.1-.907.038-1.267-.068v-.061H73.1v-.068h-.633v-.06h-.945v-.062h-.89s0-.082-.125-.062v.062h-.2v-.062H69.3v-.063h-.509v-.068H67.525v-.06l-1.584-.067v-.068l-.318.068v-.068q-4.759-.311-9.51-.63c-.8-.067-1.6-.127-2.406-.2h-.828a.09.09,0,0,0-.108-.067l-.02.007v.06c-.135.091-.128.154-.125.383.134.158.057.4.125.633h.062v.315a7.724,7.724,0,0,1,.384,2.093c-.123.019-.128.06-.128.06h-.637v.074c-.4.116-1.067-.041-1.459.068H49.326v.061H47.691v.061H45.853v.064H44.267v.062c-.319-.018-.635-.039-.953-.062v.062H42.248c-.534.027-1.056.046-1.588.067v.06c-.178-.021-.337-.044-.5-.06v.06l-4.82.128c-.392.109-1.058-.048-1.456.068a7.487,7.487,0,0,1-1.455.063h-.258v.062h-2.8v.062H27.723v.067H26.265v.06H24.681v.064H23.668a9.09,9.09,0,0,1-1.584,0c-.021-.064-.041-.125-.061-.188h-.067v-.509h-.063v-.5h-.067V338.7h-.062V338.2H21.7v-.44h-.063v-.574h-.066v-.7h-.062v-.253H21.45c-.023-.488-.044-.972-.068-1.459v-1.083a10.484,10.484,0,0,1-.067-1.4c0-.116-.06-.121-.06-.121a5.569,5.569,0,0,1,.06-1.525l1.081-.057v.057h.067v-.057h.44v.057h.571v.067h.38v-.067h1.081v.067h1.329l.127.062v-.062h.319v.062q4.621.135,9.243.251c.311.092.86-.027,1.209.062v.068c.59.019,1.18.042,1.778.067h1.209v.061c.074,0,.157-.107.311-.061v.061c.675.025,1.357.041,2.026.061h1.206v.063h1.965v.068h1.78v.061h1.835v.061h1.9v.068h.761c.036.067.113.1.13.125v.128h.064v.441c.151.532.1,1.32.249,1.835.089.307-.049.576.128.761.162.151.794.074,1.081.063.21-.178.711.025,1.013-.063v-.06h.711l1.388-.062v-.068H57.78v-.057c.442-.026.889-.046,1.336-.067h.694v-.068h1.013v-.062h1.013c.738-.214,1.559,0,2.216-.192H65.64v-.064h.7c.462-.023.929-.048,1.393-.067v-.065L70.77,334v-.061h1.018v-.067h1.136v-.062h.633l1.331-.067v-.061c.355-.1.9.027,1.205-.062.4-.116,1.066.053,1.457-.062h1.526v-.053h.439v.063c.1.017.112-.063.128-.063h1.08v-.068H81.8v-.06h.63c.464-.022.929-.046,1.393-.06v-.068c1.032-.035,2.076-.079,3.105-.124v-.064h.95v-.071h.634l1.395-.06v-.064h1.067V332.8H92v-.068h1.138v-.059h.82c.592-.019,1.181-.037,1.777-.062v-.068c.694-.019,1.393-.035,2.093-.067v-.059H98.9v-.063h.635l1.392-.068v-.054h1.137v-.068h.95V332.1h1.152v-.06c.9-.025,1.811-.043,2.719-.068v-.06h.95v-.067h.7c.464-.02.925-.044,1.391-.062v-.063h1.086v-.06h.95V331.6c.489-.02.974-.042,1.461-.06h.7v-.062c.151-.042.239.067.318.062v-.062h.634v-.068h1.013v-.063h1.844v-.061h.953v-.056c.589-.023,1.178-.048,1.778-.067M56.76,347.326c.02.142.009.169.068.252h.061v.129h.064v.128c.039.018.078.036.127.06.019.086.042.166.063.252a1.379,1.379,0,0,1,.122.067,2.465,2.465,0,0,1,.064.25c.048.02.083.047.127.068.021.084.046.177.063.252a.712.712,0,0,0,.13.062c.019.087.041.177.061.254.042.021.087.046.127.063v.127l.129.063v.126h.059v.128h.067a.934.934,0,0,1,.127.569c-.337.02-.675.044-1.013.062v.067c-.405.107-1.067-.049-1.46.061H54.161v.06H52.516v.067H50.355v.062h-2.03v.064h-1.84v.067H45.029a1.092,1.092,0,0,0-.254.059H43.25v.067H41.6v.068h-1.71v.06H38.306V351H36.72v.062H35.073v.061H33.24v.067l-1.081-.067v.067l-5.64.191c-.533.014-1.067.042-1.584.06v-.06h-.255c-.019-.068-.043-.127-.064-.191h-.058c-.048-.211-.084-.426-.127-.636h-.064v-.249h-.063v-.193h-.064v-.188H24.18v-.194h-.063c-.023-.149-.043-.3-.06-.445h-.068v-.251h-.062v-.2h-.064v-.2H23.8v-.194h-.067c-.02-.148-.04-.3-.061-.44h-.06c-.047-.208-.087-.427-.129-.636h-.061c-.023-.146-.044-.3-.067-.444h-.06c-.047-.277-.087-.547-.135-.824H23.1c-.083-.533-.167-1.051-.25-1.584-.116-.356-.21-.839-.32-1.2v-.378a4.069,4.069,0,0,1-.188-1.333c.211-.02.422-.037.631-.061v.061h.32v.064h1.645v.067h1.714v.057H28.3v.068h1.71v.06l8.367.252v.062h1.645v.068l1.9.062h1.462v.062c.356.021.711.039,1.067.059.148,0,.244-.114.443-.059v.059h.761v.067h.129v-.067h.95v.067h1.71v.061H49.9v.068H51.42v.057h.889v.067c.128.023.239-.121.443-.067v.067c.551.023,1.1.038,1.647.061l.128.193h.067c.039.148.086.3.129.441h.06v.135h.068c.041.121.086.251.125.377h.067c.061.188.123.378.179.574H55.3c.016.078.037.167.061.251h.068v.19h.06v.125h.068c.152.285.159.675.508.766v.061h.063v-.061a4.282,4.282,0,0,1,1.08-.067c1.056-.061,2.112-.128,3.168-.193l12.043-.7c.636-.022,1.269-.044,1.9-.06v-.068h1.067v-.067h.636c.444-.015.889-.038,1.327-.06v-.068h.959c.738-.021,1.485-.036,2.216-.055v-.062h1.081v-.062h.63c.448-.023.89-.044,1.333-.062v-.067h1.2l1.584-.056v-.067h1.081v-.063h.946v-.062h1.08v-.064H90.1c.464-.023.931-.038,1.389-.067V343.9h1.081v-.067H93.6v-.062l9-.443v-.061h1.013V343.2h.637c.467-.021.929-.036,1.394-.06v-.064h1.081v-.062h1.067v-.064h1.08v-.067c.509-.023,1.013-.038,1.52-.06h1.192v-.075h.633c.464-.023.931-.038,1.4-.057v-.068h1.145v-.053l1.327-.067h.7a5.935,5.935,0,0,1,1.522-.121,1.148,1.148,0,0,1,.064.443H118.3c-.016.128-.041.254-.06.378h-.067v.129h-.052v.188h-.063v.135H118c-.021.12-.044.251-.063.377h-.067v.125H117.8c-.023.107-.044.208-.064.318a1.3,1.3,0,0,0-.19.572,1.991,1.991,0,0,0,.633.068c.14.117.579.06.823.06l1.84.068c.631.019,1.268.042,1.9.06v.063c.078.019.106-.095.252-.063v.063h2.221v.063h1.716v.063h1.582v.068h1.08c.191.01.382.031.571.06a15.052,15.052,0,0,1,2.161.063h1.835v.063h1.648v.068h.508v.06h.381c.087-.018-.027-.055.062-.06.141-.011.128.06.128.06h1.266v.068c.089.008-.021-.04.067-.068h.946v.068l1.9.06h.888v.063c.711.019,1.437.04,2.161.061H145v.067h1.714v.063h1.835v.061h.631c.067.135.107.113.13.315h-.057v.2h-.068c-.222.241-.472.033-.819.123v.061h-1.719v.063h-.635v-.063h-.063v.063c-.125-.018-.251-.041-.375-.063-.167,0-.188.063-.193.063H143.8v.068h-1.587v.067h-1.663a6.77,6.77,0,0,1-1.4.064H138.9v.062h-1.587v.062h-.064c-.512.087-1.166-.05-1.586.068h-1.581v.06h-1.648v.067h-1.456c-.135.019-.26.043-.385.062H129.2v.068H128.7v-.068h-.067a23.321,23.321,0,0,1-2.666.129H124.7v.063h-1.585v.061H121.4v.062H119.83v.064h-1.651v.067h-1.656v.06h-.633s-.011.045-.128.068c-.041.079-.1.088-.128.125v.125c-.039.02-.083.046-.128.067v.128l-.129.067v.121c-.039.023-.087.046-.122.067v.129a1.257,1.257,0,0,0-.13.06v.135c-.043.015-.083.04-.125.059v.124h-.067c-.02.068-.039.13-.063.2l-.122.064v.123c-.061.046-.128.086-.19.135-.024.083-.041.166-.064.249-.045.02-.087.045-.128.062v.128c-.04.018-.084.044-.125.06v.129l-.193.129v.125c-.083.067-.168.128-.252.191v.063H112.34c-.155-.135-.461,0-.7-.063v-.067l-1.326-.061h-.637v-.067H108.6v-.068c-.356-.015-.711-.037-1.08-.058h-.632v-.068l-1.335-.063h-.7v-.062h-.442v-.068c-.044,0-.216.114-.384.068v-.068h-.887v-.06h-.63v-.06h-.694q-.671-.042-1.336-.068v-.062l-2.093-.061v-.067H97.5V350h-.821v-.06h-.89v-.081H94.776v-.067h-.945v-.061h-.955v-.062h-.638l-1.268-.064v-.063h-.636c-.4-.022-.8-.047-1.2-.068v-.067h-.95v-.06l-1.209-.064h-.633v-.058q-1.866-.1-3.733-.193v-.068h-.955V348.9h-.824v-.068c-.419-.014-.845-.036-1.266-.062h-.636v-.058h-.888v-.068H77.1v-.063h-.95v-.064H75.128v-.067h-.819v-.06H73.42v-.064c-.848-.023-1.688-.042-2.534-.062V348.2h-.254v-.068h-.888v-.067h-.951V348h-.95v-.067h-.888v-.062H66v-.06c-.425-.019-.841-.044-1.266-.064h-.7v-.062h-.76v-.067H62.266v-.062L61,347.487h-.637v-.061h-.888v-.078h-.89v-.062H57.573v-.062c-.275.023-.552.042-.824.062m53.945,7.04v.31c-.135.086-.157.21-.251.32-.235.235-.711.5-.766.889a2.345,2.345,0,0,1,.509.128h1.583v.06h1.778v.068h1.713v.063h1.769v.061h1.651v.064h1.778v.062h1.712v.063c1.71.044,3.42.08,5.132.123v.067h1.777v.061h1.708v.067h1.778v.064h1.647v.06h1.778v.063H137.7v.063h1.648v.06h1.778v.068h1.65c.389.107,1.057-.05,1.456.063v.062c.378.019.759.044,1.139.062.013.356-.048.624-.315.7-.157.135-.459,0-.7.063v.064h-1.013l-2.282.122h-1.65v.067c-.711.021-1.436.041-2.154.064h-.889a1.4,1.4,0,0,1-.572.06v-.06h-.258v.06h-1.587v.064h-1.582c-.393.107-1.067-.049-1.458.062-.871.244-2.171-.057-3.043.188-1,.024-1.986.043-2.981.068v.062h-1.523v.063h-1.579v.062h-1.526v.077H118.62v.063h-.5v-.063h-.064v.063c-.675.015-1.35.041-2.026.062a6.854,6.854,0,0,0-1.582.063h-1.523v.063h-1.582v.061h-1.52v.061q-2.443.068-4.883.131v.06h-.451v.062c-.124.041-.251.087-.38.125v.072h-.128v.059h-.121l-.128.129H103.6c-.02.04-.038.081-.06.125l-.384.125c-.019.045-.043.085-.06.128h-.127v.067h-.143l-.129.123h-.12c-.02.043-.044.087-.063.131h-.129l-.123.129h-.129V361h-.125v.063h-.128c-.022.041-.042.084-.06.127l-.318.064v.062c-.535-.021-1.058-.045-1.586-.062v-.064h-.95v-.061h-.89v-.062h-.888s0-.049-.129-.063a10.736,10.736,0,0,1-1.778-.122h-.952v-.064h-.942v-.067h-.637l-1.269-.067v-.061H90.6v-.06h-.952V360.5h-.825v-.06h-1.08v-.067c-.448-.017-.889-.043-1.331-.061h-.7v-.067c-.147.02-.294.041-.442.067v-.067h-.885v-.062h-.952v-.056h-.952A4.662,4.662,0,0,0,81.338,360h-.632v-.058h-.253v-.073a1.927,1.927,0,0,0-.186.073q-.671-.041-1.336-.073v-.06c-1.067-.043-2.154-.087-3.233-.129v-.06h-.57v-.067c-.761-.041-1.52-.077-2.281-.127a5.006,5.006,0,0,0-1.067-.061,1.264,1.264,0,0,1-.573-.063h-.763v-.063h-.95v-.062c-.441-.019-.889-.041-1.329-.064l-.068.064c.053.074-.009,0,.068.062a1.562,1.562,0,0,0,.379.251c.019.047.038.087.061.13.087.015.167.04.252.06.02.04.047.086.067.129h.135c.02.045.04.081.062.131h.125a.878.878,0,0,1,.061.123h.129v.063a2.068,2.068,0,0,1,.57.377h.062v.254l-.633.067v.064c-.393.113-1.067-.05-1.458.062H66.335V361H64.617v.063h-.572V361h-.067v.063c-.684.127-1.553-.1-2.153.063H60.238v.062H58.72v.063q-1.615.029-3.234.062v.063H53.9v.063H52.315c-.908.26-2.256-.063-3.167.191-.211-.026-.422-.041-.636-.068v.068c-.572.019-1.137.042-1.708.067h-.95v.06H44.4v.068H41.989v.062l-.577-.062v.062q-.978.027-1.958.061H38.307v.063H36.72v.062H35.136v.063H33.549v.063H31.771a9.663,9.663,0,0,1-2.22.062c-.041-.062-.083-.128-.125-.191h-.062c-.019-.082-.042-.177-.062-.25l-.125-.068v-.193c-.048-.02-.087-.038-.13-.061v-.191l-.125-.062c-.047-.127-.086-.253-.129-.376h-.06c-.021-.087-.042-.179-.067-.258H28.6c-.019-.084-.042-.179-.062-.254h-.068v-.125h-.053v-.126h-.072v-.12h-.063v-.129h-.061v-.125h-.053c-.048-.125-.083-.254-.128-.377h-.068v-.128l-.131-.13v-.124c-.037-.021-.083-.044-.127-.064v-.127l-.124-.123v-.128h-.068v-.125h-.067v-.131H27.4v-.123H27.33v-.117h-.049v-.127h-.06v-.188h-.067c-.019-.086-.041-.178-.064-.258h-.067v-.19h-.068v-.125H26.9v-.19h-.053c-.02-.1-.043-.214-.062-.319h-.062c-.019-.084-.039-.169-.061-.252h-.081V356.2h-.063c-.02-.087-.044-.169-.061-.253H26.4v-.193h-.061c-.023-.105-.048-.212-.063-.318H26.2c-.02-.082-.044-.17-.063-.254h-.06V355h-.068v-.13h-.06v-.209h-.06v-.122h-.068v-.187h-.062v-.135h-.078v-.178a2.632,2.632,0,0,1-.377-1.2,4.553,4.553,0,0,1,1.778.063h1.087v.06h1.646v.068h1.713v.06h1.778v.063h1.645v.062h1.714v.061h1.456l1.269.064h.763v.061h1.7v.063H43.5v.068h1.778v.06h1.645v.067h1.838v.064h1.71v.063l11.221.379c.324.115.534.469.759.7.424.387.849.761,1.27,1.148.178.193.337.379.506.565h.762a1.28,1.28,0,0,1,.7-.06v.06h.06v-.06h.318v-.068h1.013v-.063H68.1c.374-.105,1.013.044,1.394-.062.682-.194,1.665,0,2.347-.188.364-.1.94.029,1.266-.067.383-.112.991.033,1.331-.061h1.207v-.062c.146.018.292.037.441.062v-.062h1.59c.324-.1.9.037,1.267-.068v-.06H79.9v.06h.251v-.06c.386-.107.949.021,1.268-.068h1.207c.668-.2,1.678,0,2.344-.2.847-.018,1.688-.044,2.539-.058.3-.087.853.035,1.2-.068.373-.1,1.017.047,1.395-.067.87-.246,2.183.06,3.039-.187.366-.1.94.027,1.269-.064h1.207c.3-.086.851.034,1.2-.062.315-.087.861.034,1.208-.06.692-.2,1.721,0,2.406-.194h1.334v-.06c.591-.022,1.183-.041,1.778-.067h.759V354.6c.235-.06.818.1,1.207,0,0,0-.015-.076.127-.06a1.722,1.722,0,0,0,.633.06c.356-.1.945.048,1.332-.06.3-.089.868.034,1.2-.063v-.068h.249v-.053Zm28.4,13.761a.958.958,0,0,1-.128.563c-.04.022-.087.041-.128.067v.129l-.193.125v.129c-.043.019-.083.042-.125.06v.129h-.061c-.023.046-.048.084-.064.124h-.256c-.153.139-.459,0-.7.068v.061h-1.518v.062c-1.205.028-2.415.04-3.614.067l-1.9.064v.067a.181.181,0,0,1-.191-.067h-.38v.067h-1.71v.062H126.6v.062h-1.578v.063h-1.716v.062l-4.819.128a1.512,1.512,0,0,1-.63.063v-.063c-.112-.021-.116.057-.128.063-.457.108-1.08-.048-1.456.063-.256-.023-.509-.04-.764-.063v.063h-.5v.06a3.21,3.21,0,0,1-.316-.06v.06c-.157.031-.163-.048-.254-.06-.356.024-.723.045-1.08.06v.068c-.251-.027-.509-.047-.758-.068v.068h-1.838v.06h-1.591v.063h-1.642v.06h-1.645v.063h-1.648v.064c-.215-.021-.425-.041-.637-.064v.064c-.178.045-.324-.064-.377-.064v.064c-.588.116-1.336-.078-1.838.062H99.8v.062H98.086v.064H96.563v.058H94.976c-.9.261-2.34-.062-3.234.2H90.158v.063H88.447v.061h-.383v-.061H88v.061H85.589v.067c-.392.116-1.067-.046-1.455.064h-1.52v.06H80.779v.06H79.191v.068H77.545v.063H75.966v.064H74.252v.067H72.539v.06c-.17-.021-.333-.046-.506-.06-.711.015-1.437.036-2.15.06a6.8,6.8,0,0,1-1.4.062h-.252v.064H66.587v.061h-.068c-.519.086-1.161-.06-1.581.068H63.351v.063H61.573v.061H60.75V372.2h-.064v.061H59.673v.067h-.319v-.067a1.157,1.157,0,0,0-.569.067l-4.69.123v.06H52.318v.068H50.8v.062H49.217v.062h-1.65v.068H45.918a7.5,7.5,0,0,1-1.394.06H44.33v.068h-.57a7.26,7.26,0,0,0-1.14.06l-4.059.063c-.3,0-1.178.179-1.395,0h-.125c-.088-.1-.177-.214-.261-.318h-.06v-.09c-.084-.067-.178-.129-.251-.193V372.3c-.083-.06-.177-.124-.254-.188v-.128c-.06-.041-.125-.086-.19-.122v-.135c-.067-.043-.129-.087-.189-.129v-.121l-.319-.254v-.131c-.082-.067-.169-.123-.25-.187v-.127c-.043-.021-.089-.04-.13-.063v-.064c-.043-.026-.084-.039-.127-.06v-.125c-.064-.046-.128-.084-.187-.129V370.2c-.062-.044-.128-.087-.19-.127v-.125c-.11-.084-.214-.169-.321-.254v-.129a1.146,1.146,0,0,1-.127-.06v-.068l-.128-.06v-.128l-.252-.187v-.129l-.125-.062c-.019-.063-.046-.127-.067-.2h-.062v-.122c-.039-.023-.083-.042-.129-.067v-.123a1.094,1.094,0,0,0-.121-.068v-.135l-.129-.055v-.131l-.125-.063v-.127c-.061-.045-.124-.086-.188-.125v-.129c-.048-.022-.086-.041-.131-.06v-.128c-.041-.021-.083-.041-.125-.067v-.125l-.125-.062v-.127l-.125-.062c-.023-.089-.046-.178-.067-.254h-.062c-.023-.068-.041-.126-.068-.2a1.379,1.379,0,0,1-.125-.067v-.117c-.039-.02-.083-.041-.128-.061v-.128a1.093,1.093,0,0,0-.128-.062v-.125h-.062c-.026-.068-.039-.129-.067-.19-.039-.023-.087-.042-.122-.067V365.5c-.062-.047-.127-.084-.193-.129v-.125c-.041-.021-.082-.042-.128-.061v-.129c-.2-.315-.428-.426-.445-.95.277-.027.551-.048.828-.06v.06h1.778v.063h.187v.064H35.2v.06h1.714v.062h1.58v.077h1.841v.058c.4.117,1.067-.044,1.454.068h1.6a8.075,8.075,0,0,0,1.518.063H45.1v.068h1.648v.063h.067v-.063h.315v.063H49.15v.059h1.142v.063c.148.026.343-.122.571-.063v.063l1.9.068h.762V365c.1.023.108-.059.128-.059h.7V365l3.486.067v.062h1.837v.067h1.648v.062h1.841a6.054,6.054,0,0,0,1.33.06c.549.024,1.094.047,1.647.064v.067h.888v.061h1.836v.061h.067a1.021,1.021,0,0,1,.569-.061v.061l1.713.068h.821v.067h1.778a11.611,11.611,0,0,0,1.71.061c.125.01.128.062.128.062H77.3s0,.055.128.068c.7.02,1.4.041,2.093.067a5.866,5.866,0,0,1,1.271.061h1.777v.062h1.71v.064c1.732.045,3.469.083,5.2.123v.06h1.778v.068h1.713v.067H94.66v.068h1.963v.06h1.649v.067h1.778v.063H101.7v.06h.96v-.06c.846.015,1.688.042,2.537.06a6.959,6.959,0,0,0,1.4.068h.317v.063h.569a8.8,8.8,0,0,1,1.205.061c.532.086,1.2-.061,1.648.062h1.777v.063h1.778v.062h1.778a6.771,6.771,0,0,0,1.39.063h.261v.06h.569a8.951,8.951,0,0,1,1.267.068c.534.091,1.208-.061,1.65.067h1.711v.063h1.709v.06h.763l1.335.067h1.523v.064h1.71v.06h1.712v.063H133.1v.067h1.705v.061h1.709v.061h1.688v.068c.292.018.589.041.889.063m-9.631,10.784v.319c-.654.576-1.311,1.148-1.963,1.716h-.761a4.54,4.54,0,0,1-1.4.054h-.192v.068h-1.523v.067h-1.582v.062H120.4v.067h-1.588v.056h-1.65a7.386,7.386,0,0,1-1.395.067h-.179v.064h-2.232v.062c-.1-.019-.21-.045-.318-.062v.062h-2.03v.062l-3.232.068v.067h-1.585v.062h-1.582v.06h-1.778v.068h-1.582v.062H99.473v.063c-.235-.019-.462-.038-.711-.063h-.178v.063H96.867v.062h-1.5v.067H93.653v.061H92.061s0,.054-.125.058H90.473v.068H88.827v.067H87.3v.062H85.523v.067h-.445v-.067h-.06v.067h-.386s0-.085-.128-.067v.067H82.8s0,.055-.124.061a10.331,10.331,0,0,0-1.458.067H79.624v.064H78.039v.06H76.394v.067h-1.65a5.475,5.475,0,0,1-1.205.068c-.569.019-1.139.043-1.708.06a7.127,7.127,0,0,0-1.525.064H68.595v.067H67.017v.061H65.432c-.914.26-2.381-.067-3.3.19H60.487v.067h-.632a8.839,8.839,0,0,0-2.026.068q-3.265.086-6.527.177v.062H49.711v.068h-.953v-.068c-.086-.02-.169-.038-.254-.062-.019-.04-.044-.086-.062-.128h-.128c-.018-.044-.041-.08-.061-.124h-.116l-.2-.259h-.125c-.018-.04-.041-.081-.061-.125h-.129c-.061-.083-.125-.169-.191-.254h-.121c-.045-.06-.09-.125-.131-.188h-.127c-.041-.06-.083-.128-.127-.189h-.125c-.045-.068-.087-.135-.128-.191H46.55l-.127-.19h-.129c-.038-.064-.084-.128-.122-.193h-.129c-.085-.1-.177-.21-.252-.316h-.13l-.318-.378h-.129c-.06-.087-.124-.17-.177-.256H44.9c-.107-.122-.21-.249-.315-.38h-.13c-.083-.1-.178-.206-.254-.313h-.125c-.062-.087-.127-.178-.191-.254h-.125c-.148-.178-.3-.337-.445-.51h-.129l-.567-.629h-.131v-.108a1.3,1.3,0,0,0-.127-.068V378.5h-.128c-.067-.089-.128-.178-.192-.256h-.127l-.129-.128v-.127l-.125-.122h-.125c-.019-.045-.043-.087-.062-.128a2.166,2.166,0,0,1-.179-.128v-.126c-.129-.107-.258-.21-.385-.32-.252-.27-.509-.545-.758-.824-.249-.237-.546-.356-.574-.819a2.96,2.96,0,0,1,.889-.067c.265.226,1.355-.041,1.778.067v.062a.178.178,0,0,0,.19-.062c.162-.034.19.062.19.062h1.14a2.105,2.105,0,0,0,.7.123h1.4v.063h1.508v.064h1.778v.062h1.836v.062h1.523v.064H54.6v.063h.32a.165.165,0,0,1,.179-.063v.063h.952v.062c.178-.015.337-.039.508-.062v.062c.178-.015.337-.039.509-.062v.062h.826v.063h2.784v.063c.444.021.889.044,1.33.06v-.06c.252.044.51.085.763.125v-.054h.252v.067a2.479,2.479,0,0,0,.252-.067h.27v.067h.946v.068h1.585v.061h1.712v.062h1.649v.061h1.708v.063h1.713v.067H74.5v.062h1.713v.068h1.65v.054c1.71.049,3.423.09,5.128.13v.061h1.585v.063h1.778v.068h1.709v.063h1.654v.06h1.645v.068H93.08v.063h1.713v.062c1.138.021,2.281.044,3.421.062v.067h1.712a8.416,8.416,0,0,0,1.838.068c.558,0,1.187.018,1.651.06a10.874,10.874,0,0,1,1.581.06h1.588V378h1.778v.067h1.648c.916.252,2.385-.067,3.3.187h1.782v.067H116.8v.062h1.649v.06h1.63v.068h1.715v.049h1.648v.061h1.778c.393.114,1.067-.048,1.462.068v.062h1.777a3.885,3.885,0,0,0,1.013.119m-15.976,10.466v.254c-.062.023-.128.04-.189.061v.067h-.129c-.019.041-.043.083-.06.125l-.258.067v.062h-.187v.06c-.087.023-.178.044-.256.068v.067h-.2v.06h-.128v.061l-.251.067v.068h-.2v.063c-.078.023-.165.041-.247.059v.063c-.128.022-.258.045-.387.063v.063l-.378.128v.063H110.5v.06h-.128v.063h-.19v.068h-.125v.067h-.188v.061h-.128v.063l-.378.068v.067h-.2v.063h-.116v.061c-.129.021-.254.045-.379.067v.062c-.19.04-.38.081-.574.129v.06h-.131v.059h-.19v.067h-.188v.067H107.4v.068h-.189v.063h-.179v.058h-.2v.068h-.125v.067h-.195v.068h-.188v.06h-.195v.067h-.19v.061h-.179v.062h-.443v.068h-.635v.067c-1.018.019-2.026.034-3.044.062a10.039,10.039,0,0,1-2.214.061h-.641c-.9.253-2.255-.068-3.162.19H94.038v.06H92.452v.068H90.869v.063H89.22v.06l-4.31.062c-.888.256-2.212-.06-3.105.193H80.216v.064H78.569v.067H76.99a7.421,7.421,0,0,1-1.522.064H74.327c-.422.112-1.067-.024-1.584.058a4.466,4.466,0,0,1-1.4.064v-.1h-.194v-.059h-.19v-.063L70.4,393.7v-.063h-.277v-.045h-.177v-.06h-.2v-.067h-.315V393.4h-.2v-.06h-.249v-.06h-.19v-.067h-.251v-.06h-.254v-.068H68.03v-.062c-.142-.019-.291-.039-.442-.061V392.9c-.167-.029-.338-.042-.506-.062v-.068h-.128V392.7H66.7v-.063h-.129v-.06l-.315-.068v-.06l-.637-.13v-.068H65.5V392.2c-.128-.023-.258-.047-.38-.062v-.067h-.19V392H64.8v-.063c-.129-.02-.251-.036-.378-.059v-.067c-.193-.049-.383-.09-.574-.129v-.048h-.129v-.068h-.177v-.06h-.267v-.063h-.123v-.064l-.383-.067v-.06c-.1-.021-.21-.036-.319-.06v-.064h-.129v-.067c-.078-.019-.166-.04-.249-.063v-.073h-.188v-.062h-.121V390.8h-.193v-.051c-.084-.019-.166-.041-.254-.064v-.062h-.188v-.063c-.083-.019-.167-.034-.254-.059v-.064h-.189l-.061-.131H60.5v-.065H60.31v-.06h-.144v-.068l-.318-.063v-.062h-.191v-.062h-.124v-.067c-.084-.02-.169-.043-.256-.061v-.067c-.128-.021-.251-.04-.379-.068v-.06l-.38-.128v-.062c-.13-.043-.252-.087-.381-.129v-.059a2.343,2.343,0,0,1-.251-.068v-.063l-.252-.062v-.071l-.256-.068v-.06h-.128v-.068h-.122V388.7H57v-.064h-.121v-.062c-.129-.044-.258-.087-.384-.127l-.06-.13c-.087-.017-.179-.04-.254-.057-.024-.044-.044-.087-.064-.13-.107-.023-.21-.041-.317-.062-.019-.04-.04-.084-.064-.129H55.62l-.135-.128h-.126v-.06c-.307-.166-.646-.146-.7-.571a6.047,6.047,0,0,1,1.708-.068c.177.159.836.068,1.141.068.931.021,1.863.046,2.793.067v.068c.7.019,1.391.045,2.093.057h.89v.067h.7v.068l.319-.068v.068c.532.015,1.055.036,1.587.06h.187v-.06h.256v.06h.886v.068a1.287,1.287,0,0,0,.567-.068,1.312,1.312,0,0,1,.7.128l3.485.061v.06h1.708v.064h1.58v.063h1.778v.067h1.71v.061h1.711v.062h1.649v.063c1.137.022,2.282.041,3.423.067v.057h1.71a10.921,10.921,0,0,0,1.65.067c.119.009.125.064.125.064h1.716v.06h1.708v.067h1.707v.062H95.8v.064h1.71v.062h1.778v.068h1.645v.06l1.08-.06,1.46.06h.889v.068h1.778v.06h1.649v.062H109.5v.064h1.645v.067h1.017v.059l1.33.068" transform="translate(-21.228 -266.092)" fill="#c6c9cc" fill-rule="evenodd"/></g></g><path d="M95.3,376.24a25.133,25.133,0,0,1-11.312-2.448,32.942,32.942,0,0,1-8.877-6.448l5.971-7.469a29.923,29.923,0,0,0,6.795,5.161,15.252,15.252,0,0,0,7.345,1.888,11.169,11.169,0,0,0,7.934-2.783c4.148-3.863,3.883-13.883-.2-17.235a12.51,12.51,0,0,0-8.209-2.615,19.056,19.056,0,0,0-5.5.755,27.284,27.284,0,0,0-4.634,1.846L78.8,342.781,80.373,314h39.706l-3.285,9.156-28.1-.009-.864,13.762a29.614,29.614,0,0,1,3.964-1.213,21.373,21.373,0,0,1,4.753-.462,24.178,24.178,0,0,1,7.5,1.132,16.731,16.731,0,0,1,6.089,3.44c8.251,7.4,7.805,23.414-.053,30.981a18.684,18.684,0,0,1-6.471,4.028,23.418,23.418,0,0,1-8.327,1.426" transform="translate(-10.296 -9.481)" fill="#4e3a6a" fill-rule="evenodd"/><path d="M133.563,264.379l14.475,40.694,42.685-.081L157.465,331.21l11.851,31.273,4.91,12.956-40.579-28.9-6.059,4.415a28.438,28.438,0,0,0-.256-11.215l6.267-4.576,21.638,15.408-8.661-22.855,17.87-14.088-22.876.044-8.023-22.554-3.507,9.729h-9.578Z" transform="translate(-18.962 0)" fill="#4e3a6a" fill-rule="evenodd"/></g></svg>