<svg xmlns="http://www.w3.org/2000/svg" width="88" height="183.653" viewBox="0 0 88 183.653">
  <g id="Group_954" data-name="Group 954" transform="translate(-1056 -330)">
    <text id="RLE" transform="translate(1056 330)" fill="#fff" font-size="19" font-family="Lato-Bold, Lato" font-weight="700"><tspan x="27.427" y="19">RLE</tspan></text>
    <path id="Path_16132" data-name="Path 16132" d="M706.947,226.954a29.6,29.6,0,0,0-37.526-28.517,2.522,2.522,0,0,0-1.027.041c-1.511.54-7.77,2.266-9.928,2.05s-3.884-2.806-3.884-5.288,3.345-6.366,5.4-8.74,9.065-13.92,10.467-15.646,7.877-3.777,9.927-3.885,1.835,1.835,4.748,1.619c3.665-.272,4.316-2.158,4.424-4.1s-2.913-3.993-5.072-4.1A14.314,14.314,0,0,0,677.349,162c-3.237,1.619-13.272,7.877-13.92,8.525s-8.093,8.848-9.28,10.683-3.129,6.151-4.856,12.517-1.618,33.02-1.618,33.02l.075.154c0,.017,0,.033,0,.05a29.6,29.6,0,0,0,40.339,27.581c2.5-.7,6.422-1.633,8.039-1.471,2.158.216,3.885,2.806,3.885,5.287s-3.345,6.367-5.4,8.74-9.064,13.92-10.467,15.647-7.877,3.777-9.928,3.884-1.835-1.834-4.748-1.618c-3.665.271-4.316,2.158-4.424,4.1s2.914,3.992,5.072,4.1a14.306,14.306,0,0,0,7.122-1.618c3.238-1.618,13.272-7.877,13.92-8.525s8.094-8.848,9.28-10.682,3.13-6.151,4.856-12.518c1.505-5.552,1.616-26.526,1.62-31.806C706.932,227.69,706.947,227.324,706.947,226.954Z" transform="translate(421.6 219.931)" fill="none" stroke="#fff" stroke-miterlimit="10" stroke-width="1"/>
  </g>
</svg>
