<svg xmlns="http://www.w3.org/2000/svg" width="22.829" height="22.83" viewBox="0 0 22.829 22.83"><g transform="translate(0)"><path d="M894.632,163.289c-1.06-1.06-2.977-2.7-3.9-1.774l-1.406,1.406c-.233.227-2.063-.255-4.274-2.467s-2.7-4.042-2.467-4.274l1.406-1.406c.927-.927-.713-2.844-1.774-3.9a11.174,11.174,0,0,0-1.949-1.592c-.328-.2-1.325-.812-1.955-.182L875.5,151.91c-.844.844-.543,2.483.9,4.87a42.728,42.728,0,0,0,12.331,12.331,7.725,7.725,0,0,0,3.613,1.363,1.7,1.7,0,0,0,1.257-.467l2.813-2.813c.629-.629.018-1.627-.182-1.955A11.178,11.178,0,0,0,894.632,163.289ZM892.589,169c-.1.1-.936.215-3.132-1.108a41.394,41.394,0,0,1-11.847-11.847c-1.323-2.2-1.21-3.03-1.108-3.132l2.631-2.631a9.98,9.98,0,0,1,3.668,3.668l-1.224,1.224c-1.311,1.313.36,4.178,2.467,6.284s4.973,3.778,6.284,2.467l1.224-1.224a9.982,9.982,0,0,1,3.668,3.668Z" transform="translate(-875.03 -147.644)" fill="#fff"/><path d="M1186.08,127.6a8.832,8.832,0,0,0-6.289-2.6h0a.771.771,0,0,0,0,1.541h0a7.346,7.346,0,0,1,7.351,7.353.771.771,0,0,0,1.542,0A8.833,8.833,0,0,0,1186.08,127.6Z" transform="translate(-1165.854 -125)" fill="#fff"/><path d="M1159.18,188.329h0a5.314,5.314,0,0,1,5.32,5.322.771.771,0,1,0,1.541,0,6.856,6.856,0,0,0-6.861-6.863h0a.771.771,0,1,0,0,1.541Z" transform="translate(-1146.262 -183.74)" fill="#fff"/><path d="M1138.57,250.116h0a3.286,3.286,0,0,1,3.289,3.291.771.771,0,0,0,1.542,0,4.828,4.828,0,0,0-4.83-4.832h0a.771.771,0,1,0,0,1.541Z" transform="translate(-1126.083 -243.065)" fill="#fff"/></g></svg>