<svg xmlns="http://www.w3.org/2000/svg" width="21.952" height="25.714" viewBox="0 0 21.952 25.714"><path d="M188.233,241.29H186.4v-1.343a.695.695,0,1,0-1.372,0v1.339h-3.2v-1.339a.695.695,0,1,0-1.372,0v1.339h-3.2v-1.339a.695.695,0,1,0-1.372,0v1.339h-3.2v-1.339a.695.695,0,1,0-1.372,0v1.339h-1.829a1.756,1.756,0,0,0-1.6,1.875v19.821a1.756,1.756,0,0,0,1.6,1.875h18.751a1.756,1.756,0,0,0,1.6-1.875V243.161A1.756,1.756,0,0,0,188.233,241.29ZM169.483,242.9h1.829v1.339a.694.694,0,1,0,1.372,0V242.9h3.2v1.339a.694.694,0,1,0,1.372,0V242.9h3.2v1.339a.694.694,0,1,0,1.372,0V242.9h3.2v1.339a.694.694,0,1,0,1.372,0V242.9h1.829a.253.253,0,0,1,.229.268v4.018H169.254v-4.018A.252.252,0,0,1,169.483,242.9Zm18.751,20.357H169.483a.254.254,0,0,1-.229-.269V248.254h19.208v14.731a.254.254,0,0,1-.229.268Z" transform="translate(-167.882 -239.143)" fill="#fff"/><path d="M178.821,260.774a.792.792,0,0,1-.592-.279l-3.217-3.628a1.125,1.125,0,0,1-.022-1.414.769.769,0,0,1,1.207-.027l2.438,2.751,4.1-8.121a.789.789,0,0,1,1.17-.352,1.1,1.1,0,0,1,.3,1.37l-4.646,9.209a.859.859,0,0,1-.62.483A.889.889,0,0,1,178.821,260.774Z" transform="translate(-168.887 -239.143)" fill="#fff"/></svg>