<svg xmlns="http://www.w3.org/2000/svg" width="16.708" height="25.714" viewBox="0 0 16.708 25.714"><path d="M295.287,229.167c-2.017,0-3.659,1.923-3.659,4.286s1.641,4.286,3.659,4.286,3.659-1.923,3.659-4.286S297.3,229.167,295.287,229.167Zm0,7.5a3.254,3.254,0,1,1,2.744-3.214A3.01,3.01,0,0,1,295.287,236.667Z" transform="translate(-286.933 -223.81)" fill="#fff"/><path d="M193.065,125h-.055c-4.6.027-8.326,4.41-8.326,9.793a11.719,11.719,0,0,0,1.751,5.992l.016.027,6.019,9.575a.71.71,0,0,0,.583.327.66.66,0,0,0,.552-.327l6.019-9.575.016-.027a11.719,11.719,0,0,0,1.751-5.992C201.392,129.41,197.661,125.027,193.065,125Zm5.446,14.872h0l-5.473,8.707-5.473-8.707h0a9.943,9.943,0,0,1-1.508-5.079c0-4.508,3.13-8.176,6.982-8.186,3.852.009,6.982,3.678,6.982,8.186A9.942,9.942,0,0,1,198.511,139.872Z" transform="translate(-184.684 -125)" fill="#fff"/></svg>