<svg xmlns="http://www.w3.org/2000/svg" width="367.175" height="361.826" viewBox="0 0 367.175 361.826"><g transform="translate(-244.381 -465.943)"><g transform="translate(417.09 341.287)"><g transform="translate(-172.709 124.656)"><path d="M355.432,80.063a14.352,14.352,0,0,0-1.428.353h-4.486v.18h-4.31v.175h-4.3v.166h-4.486v.2h-5.356v.18h-1.982v-.18a5.339,5.339,0,0,0-1.8.361,5.8,5.8,0,0,1-2.163-.18,30.509,30.509,0,0,1-5.2.371h-3.937l-3.411.173h-2.348v.175h-4.286v.185h-4.671c-2.62.729-6.54-.205-9.145.529-1.132.316-3.018-.136-4.118.171l-26.371.724v.171h-4.305v.18h-4.5a21.509,21.509,0,0,1-4.125.188h-.536v.185h-4.644v.171c-.452.106-.662-.171-.9-.171v.171c-1.142.237-2.677-.069-3.586.175h-7.9V84.9H226.5v.171h-4.491s0,.141-.363.171H217.7v.171h-4.481V85.6h-4.644v.2H203.9a21.688,21.688,0,0,1-4.669.166,38.355,38.355,0,0,1-5.739,0v-.549h.2c.613-.69,1.508-.729,2.318-1.241.054-.121.106-.252.171-.368h.358l.361-.346h.363v-.188h.361V83.1h.358v-.171h.346v-.171h.363v-.175h.356v-.193h.368v-.161h.351V82.04h.363v-.175h.531a2.763,2.763,0,0,0,.178-.363h.361l.336-.366h.368v-.188h.361v-.166h.358v-.175h.356v-.18h.363v-.178l1.07-.361v-.171c.363-.072.709-.131,1.083-.178v-.18a6.907,6.907,0,0,1,.709-.175V79c.316-.062.6-.121.9-.188v-.19h.539v-.175c.242-.067.5-.106.714-.18V78.09c.371-.054.714-.126,1.08-.18v-.171l.709-.19v-.168c.479-.235,1.006-.136,1.443-.376V76.84h.358v-.183c.361-.059.7-.131,1.07-.185v-.18h.368v-.185h.526c.062-.1.121-.227.193-.358.346-.054.709-.1,1.075-.18V75.4l.714-.188v-.171c.353-.064.709-.131,1.068-.185v-.166h.361V74.5h.544v-.18h.534v-.185h.541v-.171h1.078V73.79h.539v-.2h.714v-.2h.531v-.173h.539v-.18h.549v-.151h.5v-.171h.554v-.18c.353-.057.719-.121,1.082-.2v-.171h.7v-.185h.546V71.82h.539v-.193h.539v-.18h.539v-.156h.531v-.215c.353-.067.724-.131,1.083-.183v-.185h.89v-.136h.539v-.2c.428-.062.84-.116,1.258-.188v-.161c.774-.121,1.552-.25,2.333-.376,2.585-.87,5.593-1.369,8.247-2.148h2.012a21.381,21.381,0,0,1,4.834.185H255v.175h5.2v.2h5.2v.185h4.483c1.006.044,2.318.18,3.581.18H275.8v.19h5.385v.158l10.059.18c.947.079,2.36.171,3.586.171H296.8s0,.156.366.175a34.526,34.526,0,0,1,5.03.18h5.03v.178h5.19v.2H317.8v.18h2.513a41.414,41.414,0,0,1,8.077.161H331.1v.188c.573.131,1.176.245,1.777.356v.188h.536v.151h.539v.185h.539v.156c.526.131,1.08.247,1.6.373v.161h.361v.185h.724v.171h.353v.2h.724v.18h.351v.171h.554v.175h.68v.18h.539v.173h.536v.2h.539v.171H342v.175h.539V74.1c.346.064.714.126,1.07.185v.18c.242.052.5.116.719.185v.168l1.073.185v.171l.719.185v.168h.531v.18h.549V75.9c.242.067.477.111.709.171v.188h.363v.18h.546v.185h.344V76.8l.9.168v.18h.529c1.589.724,3.309,1.6,4.847,2.348ZM400.261,107.5v.346c.373.247.729.5,1.075.709v.185c.163.227,0,.027.2.188v.714c-.67.064-1.322.126-1.977.175V110c-1.122.316-3.018-.141-4.12.183h-4.293v.171h-4.488v.175H382.34v.185h-4.481v.193h-3.591c-.895.044-1.779.109-2.694.171v-.171H371.4v.171h-1.246a19.812,19.812,0,0,0-4.493.171h-4.656c-2.514.709-6.619-.2-9.159.534-1.12.331-3.018-.131-4.118.175H342.86v.18h-4.3a3.73,3.73,0,0,1-1.614.18c-.247-.03.069-.18-.18-.18v.175c-1.137.227-2.667-.074-3.581.188-.9-.062-1.8-.116-2.7-.188v.188c-1.157.311-3.018-.136-4.12.171h-4.31v.18l-8.952.185v.173h-4.671c-1.1.306-3.018-.136-4.12.19v.171h-4.661v.19h-.534a23.219,23.219,0,0,0-4.5.178c-1.122.311-3.018-.141-4.12.166l-11.814.22v.171h-4.305v.173h-4.669v.161h-4.481v.185h-4.305v.185h-5.2v.173c-1.07.311-2.892-.126-3.937.185h-5.2v.185c-.6.161-1.006-.151-1.433-.185-1.087.059-2.158.116-3.235.185h-2.328v.171h-4.669c-2.513.714-6.27-.171-8.791.529H221.82v.185h-4.671v.173h-4.486v.185h-4.82c-1.166.326-3.107-.141-4.3.171v.185c-.462.136-.687-.176-.9-.176v.176h-1.107v-.176a2,2,0,0,1-.709.176.39.39,0,0,1-.361-.176c-.287-.04-.3.176-.346.176H195.8v.188h-4.483v.185h-4.315v.18H182.54v.18h-4.31v.173h-4.486v.185h-4.3v.171h-4.666a24.507,24.507,0,0,1-5.383.185h-1.619v.178h-2.684a32,32,0,0,1-5.2,0v-.9c1.606-1.552,3.235-3.117,4.844-4.656.287-.363.593-.729.895-1.092h.358c.418-.472.835-.954,1.251-1.416h.363c.4-.5.826-.971,1.253-1.456h.356c.423-.472.84-.939,1.258-1.426h.361c.178-.252.363-.479.534-.719h.363c.18-.242.356-.475.536-.727h.353c.171-.235.366-.467.539-.712h.366c.18-.222.358-.479.539-.709h.356c.247-.292.5-.606.709-.892h.363a3.35,3.35,0,0,0,.18-.366h.185a2.309,2.309,0,0,1,.178-.348h.356c.242-.311.477-.6.719-.9h.353c.18-.247.361-.5.541-.719h.358c.121-.185.235-.361.361-.549h.353c.185-.24.361-.5.539-.709h.361l.19-.371h.344v-.171c.185-.057.366-.131.536-.173.072-.124.121-.245.188-.356h.351c.188-.247.358-.5.544-.724l.724-.175c.121-.183.242-.363.363-.529h.346c.121-.185.247-.373.356-.554h.363c.121-.175.232-.351.361-.539.252-.054.475-.119.714-.18.072-.126.126-.225.193-.356l.709-.171v-.188h5.919v.188a3.293,3.293,0,0,0,.361-.188c.46,0,.5.188.529.188h5.03v.171h4.3v.175h5.385a.468.468,0,0,0,.529.185v-.185h1.438v.185l.549-.185,2.514.185v.18h4.844v.188h5.03v.171h5.22v.175h4.669V97.8q1.509-.082,3.018-.175c2.091.568,5.259-.064,7.353.554h4.481v.166l39.984,1.268a33.235,33.235,0,0,0,4.859.171c.9.082,2.232.18,3.388.18h1.982s0,.141.363.173a32.408,32.408,0,0,1,4.671.171h5.19v.185h5.215v.185c3.225.062,6.453.126,9.678.163v.185H317.6v.18h5.19v.175h.9a15.691,15.691,0,0,1,4.113,0h4.854v.188h5.205a31.04,31.04,0,0,0,4.839.171c.351.035.351.185.351.185h4.834s0,.136.361.185a28.427,28.427,0,0,1,4.654.173h4.847v.166h5.03v.2h5.029v.166h4.669v.175h5.029v.188h5.376v.176c4.13.131,8.26.237,12.372.351v.188c.358.064.709.121,1.078.176.235.3.5.6.724.9h.351v.175l.554.353c.171.247.331.5.5.724h.361v.19c.457.378.784.885,1.424,1.073M143.8,125.756h1.258v.185H149.9v.171h4.854v.171h5.029v.188h5.205v.18h4.659v.185h4.842v.188h5.03v.166h4.844v.215l9.345.171h.709v.173h5.03v.18h4.834v.185h4.792v.171h1.258v.171c.287.057.306-.166.351-.171h3.052c2.284.65,5.9-.04,8.26.544.541-.054,1.065-.121,1.6-.185v.185c1.211.326,3.134-.136,4.31.166h4.842v.183h5.383v.185c3.349.069,6.688.126,10.059.185v.175h4.31v.2h4.837v.185c1.73.054,3.472.106,5.212.171h2.328c.924.252,2.546-.116,3.586.171v.2h5.185v.171h2.153c1.584,0,3.359.064,4.656.18h2.7v.171c.549-.054,1.065-.119,1.614-.171v.171h3.235v.183h6.624v.185l.729-.185h.526v.185h2.168v.171H302.7v.18c.376-.054.734-.114,1.085-.18v.18l5.558.173H312.4v.185h4.849a33.167,33.167,0,0,0,4.486.185c1.419.126,3.319.171,5.029.171,1.789,0,3.873.047,5.381.188a29.94,29.94,0,0,1,4.659.171h4.849v.171h5.027v.175h4.669v.188h5.029v.18c3.223.059,6.458.126,9.676.2v.166H370.9v.171h5.03v.193h4.844v.161h4.656v.185h5.03v.208h5.03c1.246.356,3.144-.072,4.656.18a26.07,26.07,0,0,0,3.4.171h1.614v.185h1.078a17.159,17.159,0,0,1,3.947.188c4.024.094,8.023.225,12.022.356a15.576,15.576,0,0,1,5.2.5,5,5,0,0,1,.89,1.26l.356.178c.067.235.131.5.193.724a1.881,1.881,0,0,1,.351.18c.057.287.111.578.18.89-.21.146-.03,0-.18.171-1.614.067-3.233.116-4.842.183v.175h-5.423v.185h-4.31v.18h-4.486v.188h-4.659v.171h-4.14v.175h-4.661v.18h-.544a19.714,19.714,0,0,0-3.947.173h-4.11v.18H385.56v-.18h-.2v.18h-1.95v.175h-4.5v.166h-5.029v.185l-2.341-.185v.185h-4.656v.237h-4.812v.185h-4.3v.183H353.29V143h-4.471c-2.585.734-6.411-.183-8.982.546-1.122.309-3.018-.146-4.12.178h-5.385v.18h-1.609a24.36,24.36,0,0,0-5.563.171H318.5v.185h-4.12v.173h-4.486v.185c-6.107.161-12.2.351-18.3.529a3.3,3.3,0,0,1-1.6.171s-.074-.227-.546-.171h-.183v.171h-3.018v.2c-.667-.054-1.322-.111-2.012-.185-2.513.709-6.265-.171-8.786.544h-4.656v.185h-4.31v.171H262v.185h-4.849v.183h-4.471v.175h-2.514s0-.252-.358-.175a41.944,41.944,0,0,1-6.1.351h-3.22c-2.57.734-6.4-.185-8.981.554h-4.325v.171h-4.476v.175H218.4v.183h-4.488v.171h-4.656v.175q-3.047.1-6.1.18c-.479-.054-.952-.116-1.433-.18v.18h-5.029v.171c-1.117.329-3.018-.124-4.135.193H187.9v.175h-4.466v.18c-1.132.329-3.018-.146-4.14.183h-4.305v.19h-4.829v.166l-5.4.18h-4.12a3.862,3.862,0,0,1-1.609.171v-.171h-.185v.171h-3.225v.178h-.87v-.178c-.68.062-1.322.131-1.977.178h-3.772v.2h-4.842v.185h-4.305v.173H135.2v.146h-4.481v.185a7.483,7.483,0,0,1-2.682-.185h-.729v.185h-2.689a2.3,2.3,0,0,1-.183-.9c.358-.309.136-.334.368-.694h.175v-.353l.363-.18v-.368a3.47,3.47,0,0,0,.356-.171V148.2c.111-.047.242-.116.353-.171v-.363c.126-.054.245-.121.346-.171v-.368c.126-.054.247-.114.368-.18V146.6a3.891,3.891,0,0,1,.366-.183c.049-.24.116-.472.171-.724.183-.1.363-.23.554-.361v-.354c.116-.059.222-.136.353-.19.054-.161.119-.346.185-.5h.171v-.363c.121-.059.237-.131.353-.18.064-.242.136-.472.185-.724.185-.106.361-.232.539-.348V142.3c.131-.057.24-.126.361-.185a7.059,7.059,0,0,0,.176-.7,3.566,3.566,0,0,1,.363-.183v-.351c.171-.131.341-.247.534-.368v-.361c.124-.067.24-.116.346-.18v-.363c.2-.126.373-.242.549-.341v-.363a5.06,5.06,0,0,1,.544-.361v-.378h.171c.059-.18.126-.361.19-.544.116-.059.232-.116.358-.19v-.358c.351-.3.709-.588,1.08-.89v-.356a1.626,1.626,0,0,1,.363-.171c.054-.188.119-.373.175-.549l1.065-.9v-.339c.247-.2.5-.376.7-.563v-.351c.252-.171.5-.363.734-.529v-.371c.175-.111.363-.232.529-.358v-.361c.3-.242.6-.47.9-.709v-.358l.719-.534v-.361c.227-.185.472-.368.709-.534v-.366c.171-.121.368-.222.554-.348a4.664,4.664,0,0,1,.18-.544,5.642,5.642,0,0,1,.7-.5c.3-.373.593-.744.9-1.092h1.258Zm93.095,35v.544l-.719.529v.185h-.356c-.062.121-.131.237-.18.361-.247.062-.475.111-.722.161a3.485,3.485,0,0,1-.185.373h-.346c-.057.126-.116.247-.171.363l-.729.171v.17h-.348a3.311,3.311,0,0,0-.185.361c-.695.45-1.374.5-1.8,1.248h.554v.175h.709v-.175H236.9v-.175c1.006-.277,2.516.064,3.4-.18h1.972c1.322-.057,2.625-.126,3.942-.173v-.171H248.9v-.18h3.052v-.185h2.514v-.171H260.2V163.8h3.24c1.1-.316,2.993.141,4.118-.171v-.185h3.23v-.171c1.307-.062,2.63-.116,3.942-.183h1.977v-.18H279.4v-.185h2.872v-.188h2.684v-.161H288v-.185l3.767-.175h1.97v-.185h2.7v-.178h3.4v-.175h2.514c2.108-.6,4.417,0,6.278-.539h4.305v-.18h2.687V160.6c1.246-.072,2.514-.116,3.762-.18h1.98a3.941,3.941,0,0,1,1.972-.188v.188c.363.109.714.22,1.088.351v.18c.23.057.472.121.7.188.064.121.131.235.18.351l5.2,2.687q22.789.73,45.557,1.438v.18h2.163v.18h4.842v.156c.66-.069,1.315-.114,1.977-.18v.18H387.2v.173h1.078v-.173h2.318v.173h4.666v.185h5.03v.171h4.849v.17h4.612v.183h4.666c1.893.526,4.7.059,6.631.541l2.338-.185a20.821,20.821,0,0,0,5.2.363h2.333v.18h4.491v.175h1.068a.5.5,0,0,1,.536-.175v.175h3.769v.185l5.739.173a2.507,2.507,0,0,1,.541,1.97,5.429,5.429,0,0,1-1.784.171c-.7.615-3.23-.109-4.31.193v.175H436.3v.205H432c-.257.052-.3.173-.719.188h-4.13v.171c-3.047.069-6.1.111-9.145.18h-.19v.18h-4.286v.183h-4.671v.185h-.714v-.18a3.332,3.332,0,0,0-1.624.185h-2.516c-1.555.044-3.1.1-4.656.185v.166c-.61-.064-1.209-.133-1.8-.166-1.8.032-3.586.1-5.385.166v.183h-5.161v.156h-4.486v.19h-4.13c-.336.035-.351.171-.351.171h-4.849v.183h-4.684v.19h-7.684v.171h-4.481v.185h-1.982a23.458,23.458,0,0,0-3.225.183c-1.94.361-4.782-.593-5.924.541.442.262.121.2.368.534.116.057.237.116.351.18.247.287.474.588.714.9h.183v.346c.744.185.969.811,1.438,1.258.848.875,2.776,2.066,2.865,3.586-2.212-.052-4.434-.126-6.648-.171v-.173H341.8v-.185h-3.23v-.171h-2.513v-.18h-2.143v-.178H331.4v-.171h-2.867v-.185c-1.508-.067-2.986-.121-4.481-.18h-2.318V179.8h-.89v-.18c-.437.062-.85.131-1.273.18v-.18h-1.428v-.205h-.175v.185h-.559v-.185h-3.4v-.171h-2.158v-.173h-2.14v-.185H307.74v-.176h-3.22v-.18h-1.814l-3.4-.173v-.175h-3.057V178h-1.967l-3.047-.18v-.173l-6.1-.18v-.185c-1.194-.067-2.395-.106-3.586-.175h-1.8v-.171h-2.513v-.188h-2.516v-.18h-2.694V176.4h-2.516v-.208H267v-.18l-5.03-.185v-.171h-2.687v-.173c-1.088-.064-2.168-.128-3.23-.18H254.29v-.175h-2.514v-.171h-2.7v-.18q-1.705-.107-3.406-.188H243.88V174.4h-2.516v-.171h-2.679v-.183H236v-.185h-2.343v-.185h-3.047v-.185h-2.682v-.183H225.6v-.171c-2.012-.059-4.071-.116-6.1-.19-.109.19-.25.361-.361.549h-.363c-.171.245-.361.5-.536.729h-.358c-.67.724-1.322,1.433-1.972,2.158h-.361c-.247.287-.477.6-.724.885h-.363c-.346.418-.714.84-1.065,1.248-.4.316-.781.346-1.082.729h-1.97v.171h-4.659v.185c-1.132.321-3.018-.141-4.137.18h-4.291v.173h-4.684v.18h-4.281v.185h-1.965v-.185h-.2v.185h-5.38v.171H178.4v.178c-.709-.067-1.424-.121-2.143-.178v.178c-1.3.321-3.245-.173-4.481.18h-4.291v.171h-4.31v.2h-4.481v.183h-4.669v.171h-4.3v.18h-7.887v.171h-4.486v.171H132.88v.188h-4.666v.171h-4.135v.19h-4.5v.175h-4.3a28.993,28.993,0,0,1-6.463.183,3.321,3.321,0,0,1-.175-1.253c.405-.378.3-.759.541-1.258h.178v-.541h.185V179.6h.171v-.534h.171v-.356h.183v-.529h.171c.054-.247.121-.5.18-.714h.18v-.539c.116-.059.237-.114.358-.185v-.549h.185v-.536h.175V175.3h.183v-.534h.19c.054-.255.116-.5.171-.724h.175v-.546h.175c.067-.232.116-.475.183-.7h.171v-.534h.185v-.368h.18c.126-.361.237-.724.368-1.075h.21v-.539h.168v-.351h.19c.054-.247.126-.5.175-.724h.171l.193-.719h.171v-.363h.18v-.361h.18v-.363h.173v-.351h.185v-.358h.17c.413-.959.84-1.925,1.268-2.872l.351-.171v-.361l.348-.363v-.371h.2c.062-.217.121-.46.171-.709h.183v-.353h.18v-.351h.171v-.368h.205v-.351h.188v-.373h.18c.054-.237.1-.467.171-.709.119-.062.24-.116.363-.166v-.378l.351-.346c.5-.942.4-1.91,1.807-1.972a2.414,2.414,0,0,1,1.609-.185v.185h5.21v.171h4.839v.178h5.03v.18h4.476v.166h3.6v.185h4.466v.183c.126-.062.247-.116.366-.183.714.067,1.438.121,2.153.183v.18h4.839v.171h4.481v.205h5.03v.183h4.849v.18h4.666v.18h5.03v.166h5.373v.183c.5-.057.969-.126,1.453-.183,2.58.66,5.2-.059,7.877.544.361-.054.729-.126,1.085-.166v.166l5.568.171h2.669v.193h5.217v.17h4.632v.171h4.656v.185h5.03c1.419.408,2.818-.277,4.5,0h.173v.188h4.656v.185c.6.04,1.2.1,1.812.171m-35.021,29.945c0,1.8-.773,2.012-1.438,3.018-.054.252-.121.475-.166.719-.126.057-.247.121-.363.188-.064.24-.114.472-.18.714H199.6c-.054.185-.121.346-.171.526-.136.062-.237.131-.368.188v.351l-.356.176v.363a3.305,3.305,0,0,0-.363.18v.368h-.171v.346h-.175l-.18.539h.18a4.881,4.881,0,0,0,2.514.171h.188v-.171h3.018s0-.146.361-.171h2.882v-.153l4.656-.18h2.326v-.176h4.31v-.171c1.317-.072,2.635-.131,3.952-.185h1.967v-.183h2.877v-.18h3.047v-.18h3.223v-.188l5.914-.176v-.175l4.145-.171h1.967v-.185c1.508-.057,2.983-.126,4.481-.183h2.333v-.161h4.305a3.691,3.691,0,0,1,1.787-.185v.185H259.5v-.185h3.235v-.18c1.317-.062,2.635-.131,3.942-.178h1.977v-.18h2.872v-.18q4.482-.193,8.957-.368v-.171l4.13-.185h1.972v-.18c1.04-.287,2.664.079,3.6-.178s2.513.072,3.393-.171c1.006-.287,2.546.062,3.411-.18H300.2v-.2c2.113-.052,4.192-.116,6.283-.163v-.19h3.052v-.171c1.379-.067,2.746-.136,4.12-.185h1.977v-.178h3.052v-.171h3.047v-.2h3.23c2.167-.62,5.5.084,7.709-.534h3.23v-.185c1.312-.062,2.63-.106,3.942-.171h1.972v-.178h3.052v-.18l4.125-.185h1.97v-.188h3.23v-.171h2.867v-.171c.541.062,1.075.131,1.619.171.175.242.356.5.539.729h.175v.353c.18.121.351.252.534.361v.348a1.8,1.8,0,0,1,.361.19c.067.171.111.348.18.534h.178v.361c.114.047.235.111.361.161v.368l.349.17v.363c.175.121.366.225.551.356v.368l.353.18v.351c.121.057.242.126.356.183v.346c.116.062.247.131.363.18.326.465-.19.334.534.539v.175h1.075v.2c.779.054,1.56.111,2.333.176a10.291,10.291,0,0,1,3.6-.176v.176h4.669v.18h4.837v.183h4.849v.185h4.656c1.248.346,3.164-.087,4.669.171a26.8,26.8,0,0,0,3.591.175H399.4v.18h.714a17.986,17.986,0,0,1,3.942.188h4.664v.171h5.03v.171h4.305a2.805,2.805,0,0,0,.709.185h4.127v.173h4.659v.185h4.656v.19h4.844v.171h4.661v.173h4.481v.185h4.844v.18h4.849v.18h1.965s.037.1.368.173a3.492,3.492,0,0,1,.171,1.255c-.774.062-1.56.131-2.318.166v.183h-4.5v.18h-4.839v.171H440.8v.18h-3.018a16.471,16.471,0,0,0-3.772.183h-4.305v.18h-4.125a2.627,2.627,0,0,0-.714.175h-4.31v.188H415.72v.171h-4.661c-1.2.316-3.047-.067-4.5.18h-.17v.185h-4.3v.171h-.907a19.428,19.428,0,0,0-3.937.168h-4.656v.23h-4.518v.185H383.6v.173h-5.029v.146h-4.847v.171H372.1a12.166,12.166,0,0,0-3.767.361c.185.6.368,1.209.544,1.807h.171v.534h.175c.067.24.121.472.188.719h.18v.531h.175v.4h.18v.5h.183v.351h.166v.539a8.1,8.1,0,0,1,1.08,3.238,15.672,15.672,0,0,1-4.3.168c-.593-.5-2.012.084-2.872-.168v-.185l-3.223-.185h-1.775v-.171h-2.862V213.3c-1.209-.054-2.4-.119-3.591-.185h-1.8v-.18h-2.514v-.175c-1.253-.057-2.516-.126-3.767-.173H342.86V212.4h-2.516v-.185h-1.794c-1.191-.052-2.385-.116-3.591-.156v-.213H333.2c-1.191-.049-2.395-.1-3.6-.171V211.5c-2.8-.1-5.618-.247-8.425-.358v-.18c-1.127-.054-2.269-.106-3.4-.18H316v-.171h-2.691v-.171h-2.7v-.183h-2.691v-.176h-1.77c-1.209-.069-2.395-.121-3.591-.171v-.185h-1.792c-1.2-.057-2.4-.121-3.586-.183v-.161H294.3v-.18l-3.581-.176h-1.8v-.183H285.5v-.171c-1.132-.059-2.259-.131-3.388-.175h-1.807v-.185h-3.223v-.183h-1.792v-.205H272.78v-.171h-3.052c-.877-.252-2.435.089-3.411-.19v-.193H264.53v-.151h-2.143v-.185h-3.052v-.166c-1.745-.052-3.48-.116-5.205-.173v-.2H251.8v-.185h-2.7c-1.822-.393-6.035-.1-8.242-.714h-2.716s-.1-.277-.549-.185a.507.507,0,0,1-.539.185v-.185h-2.333v-.178l-6.085-.185c-1.938-.539-4.874-.146-6.821-.709H219.5v-.185h-3.233v-.166q-1.6-.108-3.235-.173h-1.784v-.185h-2.323v-.185c-1.443-.067-2.872-.131-4.31-.171h-1.972v-.188h-2.872v-.175q-2.243-.1-4.481-.18c-.126.18-.237.361-.363.549h-.176c-.18.544-.356,1.065-.539,1.6h-.18v.356h-.171v.363h-.171v.366h-.2c-.119.348-.235.709-.346,1.063h-.185v.526h-.171v.363h-.213v.363c-.106.064-.22.119-.346.185v.351h-.173c-.064.3-.133.6-.185.895h-.171c-.363.719-.262.971-.9,1.438v.178h-1.782c-.709.6-3.223-.136-4.315.175-2.484.7-6.488-.171-8.977.554H171.43v.156H166.95c-1.107.326-3.018-.136-4.145.185-1.881.534-5.477.047-6.975.358h-2.682v.175h-1.092v-.175h-1.965v.175h-4.13v.18h-4.656v.185h-4.31v.173h-4.664v.171H127.67v.185h-3.932v.185h-4.493v.168h-4.486v.185h-4.849v.171h-2.153v-.171h-.171v.171c-2.565.077-5.138.121-7.709.19a5.33,5.33,0,0,1-.193-1.8c.4-.462.156-1.132.363-1.787h.171v-.707h.222v-.719h.171c.059-.6.121-1.2.175-1.792h.156v-.709h.171v-.9c.447-1.414.816-3.114,1.258-4.5v-.882h.185V200.4h.17c.126-.615.242-1.2.368-1.8h.171v-.341h.193v-.714h.19v-.554h.175v-.544H104c.237-1.006.475-2.012.719-3.018h.173v-.739h.18v-.361h.18v-.719h.18v-.539h.173v-.719h.18v-.363h.18v-.5h.18v-.724h.178c.18-.373.2-1.078.551-1.263H112.8c.5.442,1.233,0,1.972,0h.544v.185h3.942v.183h4.493v.171h5.185v.185l1.443-.185v.185h5.744v.171h3.018v.188H143.8s.025.146.358.171a29.5,29.5,0,0,1,4.308.175h5.03v.18H158.7v.161h5.03v.188h2.328l3.757.166h4.31v.185h5.03v.171h5.03v.171h5.2v.188h5.03v.185h2.318a3.925,3.925,0,0,1,1.8-.185v.185c1.139.059,2.276.131,3.408.18m-14.76,30.832a11.264,11.264,0,0,1-.7,3.947c-.067.588-.136,1.186-.171,1.779a9.924,9.924,0,0,0-.736,3.235,10.36,10.36,0,0,0,3.05.185c.593-.5,2.012.082,2.872-.185v-.18h1.995c1.438-.052,2.872-.111,4.31-.173v-.19h2.867v-.161l4.125-.18h1.967v-.188c1.322-.045,2.635-.114,3.942-.161h1.967v-.2h3.248v-.17h4.839V228.7c1.317-.059,2.63-.114,3.952-.185h1.977v-.161h2.872v-.18q3.133-.1,6.278-.18v-.183l3.937-.185h1.967v-.136c1.389-.059,2.756-.106,4.14-.18h1.93v-.166h3.23v-.208h3.052a24.869,24.869,0,0,1,5.556-.171c1.725-.064,3.472-.121,5.208-.19V226.4h3.072v-.171h2.857v-.18q4.486-.193,8.962-.351v-.183c1.429-.069,2.872-.131,4.31-.175h1.977v-.185h2.514v-.175h3.018v-.183h3.24v-.175h2.867v-.171h1.251v.171h.188v-.171c2.2-.057,4.426-.126,6.624-.18v-.2c2.042-.054,4.073-.126,6.095-.175v-.2c1.322-.057,2.642-.116,3.94-.166h2.012v-.178h2.86v-.185h3.055v-.166h3.077v-.18h1.977c1.372-.067,2.751-.126,4.118-.183v-.18H337.7v-.176h3.23v-.18c1.191-.067,2.388-.121,3.579-.193h1.977v-.18h3.24v-.166c1.362-.057,2.741-.121,4.113-.185h1.972V221.2h2.877v-.176c1.8-.049,3.586-.116,5.376-.185h2.516c.86-.227,2.42.094,3.411-.171a17.736,17.736,0,0,1,3.762-.183,6.185,6.185,0,0,0,.531,1.248c.126.8.242,1.565.363,2.343h.171c.363,1.51.719,3.018,1.083,4.471.346.072.361.188.361.188h2.516v.185H384v.171h5.136v.2h5.029v.161h5.03v.185h5.376v.18H409.6v.161h4.3c1.263.072,2.514.126,3.777.193H420v.171h5.03v.161h4.305l3.757.185h2.346v.183h5.029v.18h5.2v.171h5.029v.171h2.131l3.774.188a21.588,21.588,0,0,1,5.381.366h1.433v.166h.161v.709c-.341.067-.366.18-.366.18h-1.782v.188h-4.481v.185c-1.137.3-3.018-.141-4.13.171h-4.3v.176h-4.476v.178h-4.491v.175h-4.5v.18H427.5c-1.2.331-3.018-.064-4.481.175h-.176v.2h-4.13v.156H418.2a23.667,23.667,0,0,0-4.12.18h-4.33v.19h-4.3v.173H400.97v.205h-4.3v.2H392v.173h-4.3v.185h-4.286v.166l-5.924.185a9.645,9.645,0,0,0-.183,2.857c.363.423.173,1.782.183,2.516.049.838.126,1.668.171,2.514h.185c-.054.729-.121,1.428-.185,2.163a12.156,12.156,0,0,1-4.3-.185H370.85V246.1h-1.787c-1.191-.044-2.395-.109-3.586-.171v-.185h-2.7V245.6h-2.514v-.185h-2.516v-.188c-2.635-.109-5.259-.24-7.889-.351v-.18l-3.411-.178h-1.787v-.185h-2.689v-.171h-2.338v-.185h-2.516V243.8h-2.7v-.185h-2.513v-.185h-2.686v-.171h-2.514v-.178h-2.318v-.156h-1.8c-1.142-.064-2.279-.131-3.411-.18v-.19q-3.852-.185-7.719-.358v-.185c-1.132-.059-2.274-.111-3.421-.175h-1.779v-.171h-2.7v-.193h-2.7v-.185H298.6v-.18h-2.513v-.173h-2.692v-.175h-2.686v-.19h-2.514v-.185c-.242,0-.292.287-.709.185v-.185H285.5v-.168H282.99v-.151h-3.018v-.185c-1.142-.064-2.274-.126-3.411-.18h-1.794v-.18h-3.225v-.208h-2.514c-1.72-.361-5.613-.111-7.716-.709h-1.789a13.356,13.356,0,0,1-3.225-.366H254.29v-.183h-2.153v-.18c-2.091-.054-4.194-.126-6.275-.18v-.19h-1.443v-.156H241.9v-.178c-.5.057-.956.111-1.429.178v-.178h-2.328v-.19h-1.619v-.18H234.38v-.171h-2.672v-.173l-5.2-.185V236.1c-.3-.067-.336.166-.373.166-1.186-.054-2.378-.1-3.574-.166v-.185h-2.341v-.178h-3.233v-.2H214.84v-.171h-1.609V235.2h-2.345V235H208.2v-.18h-3.949v-.156c-1.362-.067-2.746-.141-4.117-.2V234.3c-.218,0-.46.306-.9.178V234.3h-1.97c-.252-.069.069-.136-.178-.18h-3.052a12.965,12.965,0,0,0-3.408-.356h-1.972v-.183l-3.586-.171c-.146.208,0,0-.18.171a13.971,13.971,0,0,1-.544,3.779v1.429q-.341,2.15-.709,4.288a6.2,6.2,0,0,1-1.977.193c-.7.6-3.218-.131-4.305.171v.185h-4.481c-2.514.709-6.265-.171-8.791.544h-4.286v.171h-4.481v.185h-5.578v.178a.469.469,0,0,1-.536-.178h-1.248v.178h-5.21v.185h-4.3v.181h-4.3v.171h-4.3c-.262.047-.287.173-.719.188h-3.932v.175h-4.325v.156h-4.483v.185h-5.205v.161h-.724c-.709-.044-1.438-.109-2.153-.171v.171h-.709v.188h-5.029v.185h-1.268s0-.237-.346-.185v.185H96.808v-.185h-.185c-.151-1.569,0-2.887,0-4.659v-2.7h.185q.085-3.774.183-7.546h.18v-1.253h.175v-1.246h.176v-1.594q.619-4.286,1.253-8.6a23.406,23.406,0,0,1,7.343-.368c.714.611,3.235-.126,4.31.188.971.269,2.585-.086,3.767.18v.171c.326.059.85-.336,1.438-.171v.171h2.328l3.23.185h4.491v.173H128.9v.185l1.631-.185v.185h2.513v.185c.539-.059,1.078-.116,1.631-.185h.707v.185h3.055v.175h3.047v.183h4.481v.171h1.977c1.216,0,2.625.094,3.581.175h4.127v.171h5.2v.18H165.5v.173h4.849V221h5.03v.175h4.656v.176h2.333c1.656,0,3.465.057,4.834.188m190.47,29.97c.025,3.018-.341,5.492-.351,8.247.21.141,0,0,.18.178.773.064,1.559.131,2.318.171v.185h4.661v.18h4.649v.213h5.029v.171h4.847v.19h4.824v.141H408.5v.183h4.849v.185h4.834v.161h4.847v.185l23.67.709v.18h4.839v.193h4.671c1.055.287,2.867-.146,3.937.166a13.644,13.644,0,0,0,3.411.351v.741a7.043,7.043,0,0,1-1.972.161c-.7.613-3.218-.121-4.3.185-2.573.724-6.4-.185-8.957.534h-4.481v.19h-4.3c-2.513.694-6.463-.151-8.972.529h-1.073v-.17a3.333,3.333,0,0,0-1.609.17h-4.13a22.779,22.779,0,0,1-4.837.18c-1.861.131-3.712.237-5.563.361H409.25v.178h-4.305v.18h-4.674v.185H395.79v.161h-4.646c-1.058.306-2.862-.119-3.945.188v.185h-4.506v.171h-4.476v.18h-1.626s0,.116-.351.183c-.84,3.1-1.671,6.216-2.513,9.325a15.332,15.332,0,0,1-4.305.171c-.539-.442-1.72.049-2.516-.171v-.183h-1.789c-1.2-.054-2.4-.126-3.6-.175v-.18H359V276.6H356.49v-.18h-2.516v-.141h-2.513v-.185h-1.792c-1.142-.062-2.279-.126-3.426-.171v-.193H343.73v-.175h-2.513v-.18h-1.787c-1.137-.062-2.279-.111-3.421-.175v-.173c-1.715-.054-3.455-.123-5.2-.19v-.18h-2.7v-.185H325.8v-.178h-1.75l-3.411-.18v-.176h-2.679v-.17h-1.8l-3.413-.171V273.4c-1.666-.049-3.346-.111-5.03-.166v-.2h-2.336v-.171h-1.789l-3.416-.188v-.171h-2.513v-.171h-1.8l-3.208-.185v-.208c-1.75-.04-3.48-.106-5.21-.156v-.205H284.93v-.178h-2.684v-.166H279.73v-.171h-2.338v-.185H274.54v-.171h-2.516v-.183h-2.689v-.2h-1.787l-3.047-.175v-.183h-2.691v-.175h-2.333v-.175h-1.97a13.166,13.166,0,0,1-3.406-.363h-2.516v-.17c-.3.057-.593.106-.895.17v-.17h-2.323c-.924-.277-2.566.106-3.586-.19v-.175h-1.624v-.183h-1.792v-.171h-2.679V268.2h-2.516s0-.232-.356-.175v.175h-.554v-.175H232.4v-.18h-1.438v-.183h-3.581V267.5l-4.481-.185v-.185l-.9.185v-.185q-13.465-.879-26.907-1.782c-2.274-.19-4.528-.361-6.807-.554h-2.343a.255.255,0,0,0-.363-.17v.17c-.381.257-.361.438-.356,1.083.388.447.161,1.137.356,1.794h.178v.892a21.854,21.854,0,0,1,1.085,5.924c-.346.054-.361.171-.361.171h-1.8v.18c-1.122.326-3.018-.116-4.127.19h-4.669v.173h-4.627v.175h-5.2v.18h-4.486v.175c-.9-.049-1.8-.109-2.7-.175v.175h-3.018c-1.51.077-2.988.131-4.491.193v.171c-.5-.062-.952-.126-1.429-.171v.171l-13.635.361c-1.107.309-2.993-.136-4.12.183a21.054,21.054,0,0,1-4.118.18h-.729v.175h-7.911v.175h-4.664v.183h-4.125v.17h-4.491v.18h-2.862a25.6,25.6,0,0,1-4.481,0c-.059-.18-.116-.351-.171-.534h-.2v-1.438h-.178V274.3h-.19v-1.438h-.176v-1.438h-.171v-1.246h-.178v-1.624h-.175v-1.967h-.175v-.719h-.18c-.067-1.379-.126-2.751-.183-4.125v-3.067a29.353,29.353,0,0,1-.185-3.954c0-.326-.17-.341-.17-.341a15.786,15.786,0,0,1,.17-4.315l3.047-.161v.161h.193V249.9h1.246v.161h1.616v.185h1.075v-.185h3.052v.185h3.762l.358.175v-.175h.9v.175q13.076.374,26.154.709c.88.262,2.434-.079,3.421.178v.19c1.668.054,3.339.121,5.03.185h3.421v.171c.21,0,.442-.3.88-.171v.171c1.915.072,3.841.116,5.739.173h3.413v.18H165.5v.185h5.03v.175h5.2v.173h5.385v.19h2.153c.1.2.319.277.368.356v.363h.181V254.9c.427,1.508.287,3.737.7,5.2.252.87-.136,1.629.363,2.153.457.428,2.247.21,3.047.18.593-.5,2.012.069,2.872-.18v-.17h2.012l3.927-.173v-.185h3.052v-.161c1.253-.072,2.516-.131,3.779-.185h1.965v-.188H208.4v-.175h2.872c2.088-.608,4.412,0,6.273-.544h4.491v-.181h1.977c1.307-.064,2.63-.136,3.942-.185v-.171l8.606-.363V259.4h2.882v-.19h3.213v-.173h1.792l3.767-.19v-.171c1.006-.277,2.546.074,3.411-.175,1.125-.329,3.018.151,4.122-.178h4.315v-.151H261.3v.178c.3.049.316-.178.361-.178h3.055v-.185h3.052v-.171h1.784c1.312-.062,2.627-.131,3.94-.171v-.2c2.921-.1,5.875-.225,8.8-.351v-.18h2.687v-.2h1.794l3.947-.171v-.18h3.018v-.2h2.877v-.185h3.22v-.166h2.333c1.676-.054,3.344-.106,5.029-.175v-.183c1.962-.054,3.942-.1,5.919-.185V255.1h3.018v-.18h1.8l3.937-.188v-.156h3.223v-.185h2.687v-.18h3.26v-.171c2.548-.072,5.123-.121,7.694-.188v-.171h2.687v-.185h1.977c1.312-.057,2.62-.126,3.937-.175v-.178H350.4v-.171h2.687v-.19c1.384-.057,2.756-.121,4.135-.171H359.2v-.178c.427-.119.677.2.9.178v-.178H361.9v-.185h2.857v-.18h5.215v-.171h2.7v-.171c1.666-.067,3.334-.136,5.03-.188M196.914,297.27c.057.4.025.477.188.714h.176v.363h.18v.361c.111.052.222.1.358.171.054.242.119.47.181.714.116.052.235.126.346.183a6.763,6.763,0,0,1,.18.707c.136.057.237.131.358.183.059.24.131.5.18.714a1.86,1.86,0,0,0,.368.175c.054.247.116.5.171.719.121.059.247.131.361.18v.358l.363.18v.356h.166v.363h.185a2.656,2.656,0,0,1,.358,1.609c-.957.057-1.91.126-2.862.175v.2c-1.147.3-3.018-.141-4.13.171h-4.486v.17H184.9v.185h-6.117v.173h-5.744v.18h-5.2v.185h-4.12a3.014,3.014,0,0,0-.719.166h-4.308v.188h-4.669v.185h-4.839v.171H144.7v.18h-4.486v.178h-4.661V308h-5.185v.185L127.311,308v.185q-7.974.271-15.959.539c-1.508.04-3.018.121-4.481.171v-.171h-.729c-.054-.188-.121-.358-.18-.539H105.8c-.136-.6-.237-1.206-.358-1.8h-.18v-.7h-.18v-.544h-.18V304.6h-.173v-.549h-.18c-.064-.423-.121-.86-.171-1.26h-.185v-.709h-.178v-.554h-.18V301h-.175v-.549h-.2c-.057-.418-.111-.84-.173-1.246h-.171c-.131-.588-.247-1.209-.366-1.8h-.173c-.064-.413-.124-.845-.185-1.258h-.171c-.131-.784-.247-1.547-.373-2.333h-.171c-.235-1.508-.472-2.973-.709-4.481-.326-1.006-.593-2.373-.9-3.406v-1.07a11.543,11.543,0,0,1-.534-3.772c.6-.057,1.194-.106,1.787-.173v.173h.9v.18h4.656v.19h4.849v.161h4.656v.193h4.839v.171l23.675.714v.175h4.656v.185c1.8.057,3.6.121,5.385.178h4.125v.176c1.006.059,2.012.111,3.018.166.418,0,.69-.321,1.253-.166v.166h2.153v.2h.366v-.2h2.686v.2h4.839v.173h4.127v.2h4.3v.161h2.516v.185c.361.067.677-.341,1.256-.185v.185c1.56.067,3.124.106,4.659.173l.361.546h.183c.109.418.24.84.366,1.248h.171v.378h.183c.119.341.245.709.356,1.065h.185c.173.534.349,1.07.5,1.624h.21c.047.222.106.475.173.709h.185v.539h.171v.351h.2c.432.806.45,1.9,1.438,2.167v.173h.178v-.173a12.153,12.153,0,0,1,3.052-.185c2.988-.171,5.974-.361,8.962-.544l34.075-1.97c1.8-.062,3.591-.126,5.388-.171v-.183h3.018v-.19h1.8c1.258-.044,2.516-.106,3.757-.171v-.188h2.711c2.088-.059,4.194-.1,6.273-.156v-.18h3.052v-.175h1.784c1.268-.067,2.516-.126,3.772-.175v-.2h3.406l4.481-.156v-.185h3.06v-.18h2.684v-.173h3.047v-.18h1.8c1.312-.064,2.635-.106,3.932-.185v-.171H298.2v-.188h2.914v-.176l25.469-1.253v-.175h2.862v-.18h1.8c1.322-.059,2.63-.1,3.944-.171v-.18h3.052v-.178h3.018v-.18h3.052v-.185c1.438-.067,2.872-.106,4.3-.171h3.411v-.213h1.789c1.312-.064,2.635-.106,3.949-.161v-.2H361v-.146l3.757-.2h1.977a16.784,16.784,0,0,1,4.305-.341,3.271,3.271,0,0,1,.18,1.253h-.19c-.047.361-.116.719-.171,1.07h-.188v.363h-.146v.531h-.18v.378h-.165c-.062.341-.126.709-.181,1.065h-.183v.353h-.175c-.064.3-.126.588-.18.9a3.669,3.669,0,0,0-.539,1.619,5.686,5.686,0,0,0,1.792.183c.4.331,1.639.171,2.328.171l5.205.185c1.784.054,3.586.121,5.381.171v.18c.222.052.3-.269.714-.18v.18H390.6v.178h4.854v.18h4.476v.19h3.047a16.03,16.03,0,0,1,1.614.171,42.777,42.777,0,0,1,6.112.178h5.2v.18h4.661v.185H422v.171h1.078c.245-.049-.077-.156.175-.171.4-.03.361.171.361.171H427.2v.188c.252.025-.059-.111.188-.188h2.684v.188l5.388.171h2.513v.18c2.012.052,4.063.111,6.107.171h2.513v.188h4.849v.18h5.2v.171h1.784c.2.383.3.321.368.895h-.175v.554h-.193c-.628.68-1.332.091-2.318.348v.171h-4.854v.18h-1.794v-.18h-.18v.18c-.353-.049-.709-.116-1.063-.18-.472,0-.531.18-.546.18h-4.474v.185H438.7v.183h-4.706a19.019,19.019,0,0,1-3.949.18h-.714v.175H424.84v.175h-.181c-1.448.247-3.3-.141-4.488.183H415.7v.171h-4.661v.185h-4.12c-.376.054-.734.121-1.09.176h-3.95v.188h-1.429v-.188h-.19a66.33,66.33,0,0,1-7.543.363h-3.581v.18h-4.488v.171H379.8v.178H375.35v.18h-4.669v.185H366v.171H364.2s-.03.126-.361.183c-.116.225-.277.25-.363.356v.351c-.109.057-.235.131-.361.183v.361l-.363.188v.341c-.111.064-.245.131-.346.19v.363a3.6,3.6,0,0,0-.368.17v.373c-.121.044-.235.114-.351.166v.351h-.19c-.057.185-.111.368-.178.554l-.346.181v.348c-.176.131-.363.245-.539.376-.069.237-.116.47-.18.7-.126.057-.247.126-.363.175v.363c-.114.049-.24.126-.351.17v.363l-.544.366v.354c-.237.185-.477.361-.714.541v.178h-4.122c-.44-.383-1.3,0-1.982-.178v-.19l-3.752-.171h-1.8V307.1h-3.047v-.188c-1.006-.044-2.012-.106-3.047-.166h-1.787v-.185c-1.26-.062-2.513-.116-3.776-.18H333v-.173H331.75v-.185c-.126,0-.611.321-1.088.185v-.185h-2.514v-.17h-1.782v-.171H324.4q-1.9-.119-3.779-.2v-.175c-1.965-.059-3.947-.116-5.914-.171v-.2H312.2v-.173h-2.323V304.6h-2.516v-.161h-2.862v-.19h-2.679v-.17h-2.7V303.9h-1.807l-3.586-.18v-.18h-1.8c-1.127-.062-2.264-.131-3.391-.183v-.185h-2.689V303l-3.421-.18h-1.792v-.166q-5.279-.289-10.561-.544v-.185h-2.7v-.183h-2.333v-.19c-1.186-.04-2.39-.1-3.581-.175h-1.8v-.166h-2.514v-.188h-2.682v-.18h-2.689v-.18H248.9v-.183h-2.323v-.17h-2.516v-.18c-2.4-.064-4.772-.121-7.167-.175v-.175h-.719V299.6h-2.514v-.185h-2.691v-.185h-2.687v-.183h-2.514v-.175h-2.691V298.7c-1.206-.054-2.383-.126-3.581-.18h-1.975v-.175h-2.153v-.188h-2.872v-.176l-3.571-.185h-1.8v-.171h-2.514V297.4H202.09v-.175h-2.877v-.175c-.779.064-1.565.119-2.333.175m152.628,19.92v.875c-.376.242-.442.6-.709.907-.667.662-2.012,1.419-2.168,2.513a6.573,6.573,0,0,1,1.438.363h4.481v.171h5.03v.185h4.849v.18h5v.173h4.671v.18h5.03v.175h4.844v.18c4.839.126,9.676.227,14.525.348v.185h5.029v.171h4.832v.193h5.03v.18h4.659v.171h5.029v.18h4.842v.178h4.664v.171h5.029v.19h4.666c1.1.3,2.993-.141,4.12.18v.173c1.07.054,2.148.124,3.223.175.037,1.006-.136,1.765-.895,1.977-.442.376-1.3,0-1.967.18v.18h-2.872l-6.456.346h-4.669v.193c-2.012.059-4.063.116-6.095.18h-2.516a3.946,3.946,0,0,1-1.619.171V328.6h-.729v.171H415.32v.18h-4.476c-1.112.3-3.018-.138-4.125.178-2.464.69-6.142-.161-8.611.531-2.817.067-5.618.121-8.435.183v.175h-4.31v.18H380.9v.175h-4.315v.217H371.93v.18h-1.409v-.18h-.18v.18c-1.906.04-3.814.116-5.734.175a19.38,19.38,0,0,0-4.476.178h-4.31v.18h-4.476v.171h-4.3v.175q-6.914.193-13.816.368v.17H331.97v.175c-.351.116-.709.247-1.075.353v.205h-.363v.166h-.341l-.363.363h-.366c-.057.116-.106.23-.17.356l-1.087.353c-.054.126-.121.24-.171.361h-.358v.185h-.405l-.363.348h-.341c-.057.121-.126.247-.178.371h-.366l-.349.363h-.366v.171h-.353v.18h-.361a3.809,3.809,0,0,0-.171.358l-.9.18v.175c-1.51-.059-2.993-.124-4.488-.175v-.18h-2.689v-.175h-2.516v-.178h-2.514s0-.141-.363-.18a30.284,30.284,0,0,1-5.03-.346h-2.7v-.18h-2.664v-.188h-1.8l-3.591-.185V334.9h-2.513v-.17h-2.7v-.188h-2.338v-.171h-3.047v-.19c-1.268-.047-2.516-.121-3.767-.171h-1.972v-.183c-.418.057-.835.116-1.253.183v-.183h-2.514v-.175h-2.7v-.176h-2.7a13.265,13.265,0,0,0-3.228-.363h-1.787v-.166h-.719v-.205a5.555,5.555,0,0,0-.526.205q-1.9-.115-3.779-.205v-.171c-3.018-.121-6.095-.247-9.147-.363v-.171h-1.614v-.19c-2.153-.116-4.3-.218-6.453-.358a14.192,14.192,0,0,0-3.018-.171,3.614,3.614,0,0,1-1.621-.18h-2.158v-.178h-2.689v-.175c-1.248-.054-2.516-.116-3.762-.18l-.183.18c.151.213-.025,0,.183.175a4.457,4.457,0,0,0,1.075.709c.054.131.106.247.171.368.247.044.474.111.714.171.057.111.131.242.193.363h.381c.057.129.111.23.176.371h.353a2.563,2.563,0,0,1,.175.348h.363v.18a5.812,5.812,0,0,1,1.614,1.065h.175v.719l-1.789.188v.18c-1.112.321-3.018-.141-4.125.176h-4.656v.17h-4.859v.18h-1.619v-.18h-.178v.18c-1.935.358-4.4-.3-6.095.178h-4.491v.175h-4.3v.18q-4.567.081-9.15.175v.178h-4.476v.18h-4.5c-2.57.734-6.384-.18-8.962.539-.6-.072-1.194-.116-1.8-.183v.183c-1.619.054-3.218.121-4.834.185h-2.689v.171H161.93v.185h-6.814v.178c-.549-.057-1.092-.121-1.631-.178v.178q-2.766.074-5.531.171H144.7v.18h-4.486V339h-4.481v.178h-4.491v.18h-5.029a27.4,27.4,0,0,1-6.283.176c-.116-.176-.232-.361-.351-.539H119.4c-.054-.235-.119-.5-.175-.709l-.351-.185v-.544c-.136-.059-.247-.109-.368-.175v-.539l-.356-.175c-.131-.361-.242-.719-.363-1.065h-.171c-.059-.247-.121-.5-.2-.729h-.173c-.054-.237-.119-.5-.175-.719h-.185V333.8h-.151v-.356h-.2v-.339h-.18v-.366h-.171v-.353h-.151c-.136-.351-.232-.719-.363-1.065h-.185v-.363l-.371-.366v-.363c-.106-.059-.237-.126-.358-.18v-.361l-.351-.349v-.361h-.193v-.353h-.19v-.371h-.175v-.348h-.193v-.331h-.136v-.358h-.171v-.531h-.185c-.054-.242-.116-.5-.18-.729H112.8v-.539h-.185v-.353h-.17v-.536h-.18c-.057-.3-.121-.606-.176-.9h-.178c-.054-.24-.109-.477-.171-.714h-.23v-.526h-.178c-.059-.247-.126-.479-.175-.719H111v-.544h-.17c-.067-.3-.136-.6-.18-.9h-.2c-.059-.232-.126-.48-.18-.719H110.1v-.529h-.183v-.366h-.171v-.591h-.171v-.346h-.185v-.529h-.176v-.376h-.222v-.5a7.467,7.467,0,0,1-1.065-3.408,12.911,12.911,0,0,1,5.03.18h3.077v.171h4.656v.185h4.849v.17h5.029v.178h4.656v.176h4.849v.175h4.12l3.591.18h2.158v.173h4.817v.18h4.654v.185h5.029v.17H169.1v.188h5.2v.18h4.839v.18q15.867.534,31.749,1.073c.917.326,1.51,1.327,2.148,1.97,1.2,1.092,2.4,2.153,3.591,3.24.5.544.947,1.07,1.434,1.6h2.158a3.62,3.62,0,0,1,1.977-.171v.171h.171v-.171h.9v-.193h2.867v-.18h2.877c1.058-.3,2.862.126,3.945-.175,1.93-.549,4.708,0,6.638-.534,1.031-.292,2.659.082,3.581-.185,1.085-.316,2.805.1,3.767-.171h3.416v-.178c.413.052.825.106,1.246.178v-.178h4.5c.914-.269,2.548.106,3.581-.185v-.171h2.709v.171h.709v-.171c1.092-.3,2.687.059,3.586-.185H270.1c1.891-.554,4.748,0,6.633-.554,2.4-.052,4.773-.126,7.182-.166.86-.247,2.415.1,3.4-.183,1.055-.292,2.877.131,3.947-.19,2.459-.695,6.176.171,8.606-.529,1.036-.292,2.662.077,3.591-.18h3.416c.855-.242,2.407.1,3.388-.175.89-.247,2.435.1,3.416-.171,1.957-.559,4.869,0,6.809-.549h3.774v-.171c1.673-.062,3.349-.116,5.029-.188h2.148v-.17c.667-.171,2.313.282,3.413,0,0,0-.04-.215.358-.171a4.913,4.913,0,0,0,1.789.171c1.006-.282,2.677.136,3.772-.171.855-.252,2.454.1,3.4-.18v-.2h.7v-.151Zm80.361,38.934a2.727,2.727,0,0,1-.363,1.594c-.114.062-.245.116-.361.185v.363l-.544.356v.363c-.121.054-.237.121-.356.17v.363h-.173c-.064.131-.136.24-.18.351h-.724c-.432.393-1.3,0-1.972.185v.173H420.9v.176c-3.411.079-6.831.116-10.227.19l-5.385.18v.183a.509.509,0,0,1-.539-.183h-1.075v.183h-4.839v.175h-4.31v.175h-4.466v.18h-4.854v.173l-13.633.361a4.268,4.268,0,0,1-1.782.18v-.18c-.316-.059-.326.161-.361.18-1.293.306-3.055-.136-4.12.178-.724-.067-1.438-.111-2.163-.178v.178H361.72v.17a9.066,9.066,0,0,1-.895-.17v.17c-.442.089-.462-.136-.719-.17-1.006.069-2.046.128-3.052.17v.2c-.709-.074-1.438-.131-2.143-.2v.2h-5.2v.17h-4.5v.178h-4.656v.171H335.9v.18h-4.664v.18c-.608-.059-1.2-.116-1.8-.18v.18c-.5.126-.917-.18-1.068-.18v.18c-1.663.329-3.781-.22-5.2.175h-4.481v.178h-4.844v.18h-4.31v.166h-4.491c-2.546.739-6.619-.175-9.15.559h-4.481v.18h-4.842v.171h-1.082v-.171h-.171v.171h-6.831v.188c-1.11.326-3.018-.131-4.117.18h-4.3v.171h-5.19v.171h-4.5v.188h-4.659v.18h-4.466v.18H246.4v.188h-4.847v.171c-.48-.062-.942-.131-1.434-.171-2.012.04-4.066.1-6.082.171a19.44,19.44,0,0,1-3.957.176h-.719v.18h-4.656v.176h-.193c-1.468.242-3.285-.171-4.476.183h-4.481v.18h-5.03v.171H208.2v-.171h-.18v.171h-2.872v.19h-.9v-.19a3.275,3.275,0,0,0-1.609.19l-13.272.348v.171h-5.03v.185h-4.305v.178h-4.466v.175H170.9v.19H166.23a21.035,21.035,0,0,1-3.942.171h-.539v.193h-1.614a20.705,20.705,0,0,0-3.225.171l-11.483.18c-.85,0-3.334.5-3.947,0h-.353c-.25-.292-.5-.608-.739-.9h-.171v-.311c-.237-.188-.5-.363-.709-.544v-.358c-.235-.171-.5-.351-.719-.531v-.363c-.171-.116-.356-.242-.539-.346V366.3c-.19-.121-.366-.247-.536-.366v-.344l-.9-.719V364.5c-.23-.183-.477-.348-.707-.529v-.358c-.121-.059-.252-.114-.368-.18v-.18c-.121-.072-.237-.111-.358-.171v-.354c-.18-.131-.361-.24-.526-.366V362c-.175-.126-.363-.247-.539-.361v-.353c-.311-.24-.6-.477-.909-.719V360.2a3.169,3.169,0,0,1-.358-.171v-.188l-.361-.171v-.361l-.714-.529v-.363l-.353-.175c-.054-.18-.131-.361-.2-.554h-.175v-.346c-.111-.067-.232-.121-.363-.19v-.349a3.039,3.039,0,0,0-.341-.185v-.378l-.363-.156v-.371l-.356-.178v-.361a6.173,6.173,0,0,0-.534-.354v-.366c-.136-.062-.242-.116-.371-.17v-.363c-.116-.059-.232-.116-.353-.185v-.353l-.356-.175v-.361l-.353-.173c-.064-.25-.131-.5-.19-.719h-.175c-.067-.185-.116-.356-.183-.551-.119-.057-.235-.116-.356-.183v-.356c-.111-.057-.237-.116-.363-.17v-.363a3.264,3.264,0,0,0-.361-.176v-.353h-.175c-.072-.19-.111-.366-.183-.536-.109-.067-.245-.121-.346-.188V348.7c-.175-.131-.358-.237-.544-.363v-.351c-.116-.062-.23-.121-.361-.175v-.363c-.573-.89-1.209-1.206-1.258-2.686.783-.079,1.56-.136,2.343-.171v.171h5.03v.178h.529v.18h4.671v.17h4.849v.176h4.471v.217h5.21v.166c1.132.331,3.018-.126,4.115.19h4.5a22.905,22.905,0,0,0,4.3.18h.544v.188h4.661v.18h.183v-.18h.89v.18h5.734v.166h3.233v.18c.418.072.971-.346,1.614-.18v.18l5.378.183h2.158v.166c.292.064.307-.166.361-.166H190.1v.166l9.861.2v.176h5.2v.183h4.661v.176h5.21a17.117,17.117,0,0,0,3.762.171c1.555.067,3.094.131,4.659.18v.188h2.514v.171h5.2v.175h.193a2.89,2.89,0,0,1,1.609-.175v.175l4.849.185h2.323v.188h5.03a32.923,32.923,0,0,0,4.837.171c.353.03.363.176.363.176h4.656s0,.156.363.19c1.97.057,3.952.116,5.914.183a16.534,16.534,0,0,1,3.6.171h5.029v.176h4.837v.18c4.9.126,9.815.232,14.708.349v.171h5.03v.185h4.847v.183h4.795v.2h5.556v.171h4.664v.185h5.03v.178h4.666v.171h2.716v-.171c2.395.044,4.782.119,7.177.171a19.581,19.581,0,0,0,3.952.185h.9v.18H340.4a24.958,24.958,0,0,1,3.411.173c1.508.245,3.408-.173,4.661.175h5.03v.18h5.029v.175h5.03a19.028,19.028,0,0,0,3.932.178h.739v.17h1.612a25.553,25.553,0,0,1,3.584.185c1.51.257,3.416-.17,4.669.185h4.839v.178h4.837v.17h2.158l3.776.185h4.31v.181h4.839v.17H407.7v.178h5.2v.19h4.844v.17h4.837v.175h4.773v.193c.826.049,1.666.116,2.516.18m-27.251,30.513v.9c-1.849,1.631-3.71,3.24-5.556,4.854H394.91c-.5.4-3.018.141-3.95.156h-.536v.2h-4.31v.183H381.63v.176h-4.656v.19h-4.491v.156h-4.669a20.857,20.857,0,0,1-3.947.188h-.5v.18h-6.315v.176c-.287-.054-.6-.126-.9-.176v.176H350.4v.175l-9.142.183v.185h-4.486v.176H332.3v.17h-5.03V395h-4.478v.175h-5.03v.18c-.662-.054-1.307-.106-2.012-.18h-.5v.18h-4.859v.175h-4.244v.193H301.3v.171h-4.506s0,.151-.353.166H292.3v.185h-4.651v.188h-4.315v.175H278.3v.19h-1.258v-.19h-.17v.19h-1.09s0-.24-.363-.19v.19h-4.834s0,.156-.351.17a29.114,29.114,0,0,0-4.125.183h-4.5v.18h-4.486v.171h-4.656v.185H247.8a15.445,15.445,0,0,1-3.411.183c-1.609.054-3.223.121-4.832.171a20.161,20.161,0,0,0-4.315.18h-4.839v.185h-4.481v.173h-4.486c-2.585.734-6.735-.183-9.335.536h-4.656v.193h-1.787a25.052,25.052,0,0,0-5.739.185q-9.238.245-18.467.5v.173h-4.486v.185h-2.7v-.185c-.242-.057-.477-.106-.719-.173-.054-.114-.126-.245-.176-.361h-.363c-.049-.126-.116-.227-.171-.351h-.331l-.554-.732h-.353c-.049-.114-.114-.23-.171-.356h-.366c-.173-.232-.353-.477-.539-.719h-.344c-.128-.17-.255-.351-.371-.534h-.358c-.119-.171-.235-.361-.361-.536h-.353c-.129-.188-.245-.373-.361-.539h-.358c-.114-.17-.245-.363-.361-.539H167.3c-.109-.18-.24-.361-.346-.544h-.363c-.24-.287-.5-.593-.712-.895h-.368l-.9-1.07h-.363c-.17-.247-.351-.479-.5-.724h-.388c-.3-.348-.593-.7-.89-1.078H162.1c-.235-.292-.5-.583-.719-.885h-.356c-.176-.247-.358-.5-.539-.719h-.356c-.418-.5-.84-.957-1.258-1.443h-.363l-1.6-1.779h-.371v-.178c-.111-.059-.227-.136-.358-.2v-.346h-.346c-.183-.252-.363-.5-.544-.727h-.358l-.366-.361v-.358l-.353-.346h-.356c-.054-.126-.121-.247-.175-.361-.188-.126-.358-.242-.5-.363v-.356c-.366-.3-.729-.6-1.09-.907-.714-.759-1.438-1.542-2.143-2.333-.7-.67-1.545-1.006-1.626-2.318a8.446,8.446,0,0,1,2.516-.185c.749.643,3.833-.116,5.03.185v.175a.506.506,0,0,0,.539-.175c.457-.1.536.175.536.175h3.225a5.957,5.957,0,0,0,1.97.348h3.954v.18h4.266v.18h5.03v.176h5.2v.178h4.31v.18H190.8v.18h.9a.466.466,0,0,1,.5-.18v.18h2.694v.176c.5-.044.956-.109,1.438-.176v.176c.5-.044.961-.109,1.438-.176v.176h2.336V379H208v.18c1.258.059,2.516.126,3.764.171v-.171c.712.126,1.444.24,2.158.356v-.156h.712v.185a6.98,6.98,0,0,0,.714-.185h.771v.185H218.8v.183h4.483v.175h4.847v.176h4.664v.171h4.832v.18h4.849v.2h4.656v.175h4.849v.19h4.669v.156c4.837.136,9.686.252,14.508.368v.171h4.483v.18h5.029v.188H285.5v.18h4.679v.171h4.656v.188h4.844v.18h4.847v.175c3.22.059,6.453.126,9.678.176v.188h4.847a23.9,23.9,0,0,0,5.2.185c1.579,0,3.359.049,4.671.171a30.746,30.746,0,0,1,4.476.171h4.491v.17h5.03v.193h4.664c2.59.714,6.745-.193,9.335.526h5.029v.188h4.832v.175h4.664v.17h4.612v.185h4.852v.173h4.664v.175H390.6c1.112.321,3.018-.136,4.135.2v.175h5.03a11.019,11.019,0,0,0,2.872.339m-45.2,29.6v.719c-.176.064-.361.114-.536.171v.185h-.363c-.054.116-.121.232-.17.353l-.729.19v.175h-.529v.17c-.247.067-.5.126-.724.183v.185h-.559v.171h-.361v.17l-.709.185v.188H352.2v.18c-.222.064-.467.116-.7.166v.18c-.361.062-.729.126-1.092.178v.18l-1.07.361v.178h-.363v.171h-.361v.18h-.539v.185h-.356v.183h-.534v.171h-.361v.18l-1.068.185v.183H345.2v.18h-.331v.171c-.363.059-.719.126-1.073.185v.173c-.536.114-1.075.23-1.624.366v.171H341.8v.165h-.539v.183h-.534v.185h-.544v.185h-.536v.178h-.5v.166h-.554v.185h-.351v.185H337.7v.183h-.534v.171h-.551v.185h-.539v.171h-.5v.175h-1.255v.183h-1.8v.19c-2.877.054-5.739.1-8.611.175a28.258,28.258,0,0,1-6.265.171h-1.812c-2.556.719-6.381-.2-8.947.539h-4.491v.171h-4.488v.188h-4.481v.18h-4.666v.171l-12.192.176c-2.514.724-6.26-.171-8.781.544h-4.5v.18H258.63v.188H254.15a20.9,20.9,0,0,1-4.305.18h-3.228c-1.2.316-3.018-.067-4.481.166a12.617,12.617,0,0,1-3.949.18v-.18h-.549v-.166H237.1v-.18l-1.594-.188v-.18h-.781v-.126h-.5V428h-.554v-.19h-.89v-.178h-.568v-.171h-.7v-.18h-.539v-.185h-.709v-.171h-.719v-.183h-.729v-.175c-.4-.054-.826-.111-1.253-.175v-.171c-.472-.082-.954-.121-1.434-.178v-.19h-.361v-.2h-.7v-.178H224.7V425.3l-.895-.185v-.171l-1.8-.368v-.185h-.353v-.166c-.361-.067-.729-.131-1.075-.175v-.188h-.539v-.185h-.361v-.18c-.363-.057-.709-.1-1.068-.166v-.2c-.549-.136-1.085-.252-1.624-.366v-.136h-.363v-.188h-.5v-.171h-.754v-.18h-.349v-.18l-1.085-.188v-.18c-.292-.059-.6-.1-.9-.171v-.18h-.366v-.188c-.217-.054-.467-.114-.7-.18v-.205h-.529v-.178h-.341v-.18h-.544v-.146c-.237-.054-.467-.116-.719-.18v-.175h-.534v-.18c-.235-.052-.472-.1-.719-.168v-.181h-.536l-.173-.371H207.5v-.173h-.529v-.171h-.408v-.185c-.3-.062-.6-.116-.9-.18v-.173h-.549v-.175h-.351v-.19c-.237-.057-.477-.121-.724-.17v-.183c-.363-.059-.709-.114-1.073-.185v-.171l-1.075-.363v-.175c-.368-.121-.714-.247-1.078-.366v-.168c-.235-.054-.5-.119-.709-.185v-.18l-.714-.175v-.2l-.724-.19v-.171H198.3v-.183h-.346v-.176H197.6v-.18h-.341v-.175c-.363-.126-.729-.247-1.087-.358-.059-.131-.111-.245-.171-.371-.242-.047-.5-.111-.719-.161-.067-.126-.126-.247-.18-.368-.3-.064-.593-.116-.9-.175-.054-.111-.114-.237-.18-.363h-.336l-.373-.361h-.356v-.171c-.87-.47-1.826-.413-1.972-1.616a17.134,17.134,0,0,1,4.834-.19c.5.447,2.368.19,3.228.19,2.635.062,5.272.131,7.9.183v.185c1.972.054,3.937.126,5.914.161h2.516v.185h1.975v.193l.9-.193v.193c1.508.044,2.986.1,4.491.171h.529v-.171H224v.171h2.514v.185a3.612,3.612,0,0,0,1.6-.185,3.714,3.714,0,0,1,1.977.361l9.859.173v.171h4.832v.18h4.471v.18h5.03v.188h4.839v.17h4.842v.176h4.664v.18c3.218.062,6.458.116,9.686.188v.161h4.839a30.985,30.985,0,0,0,4.666.19c.339.025.353.18.353.18h4.854v.17h4.832V414h4.829v.176h4.676v.18h4.839v.176h5.029v.183h4.656v.171l3.052-.171,4.13.171h2.516v.19h5.029v.171h4.666v.178h4.849v.18h4.656v.185h2.877v.166l3.762.188" transform="translate(-96.392 -67.44)" fill="#f2f2f2" fill-rule="evenodd"/></g></g></g></svg>