<svg xmlns="http://www.w3.org/2000/svg" width="88" height="192.715" viewBox="0 0 88 192.715">
  <g id="Group_937" data-name="Group 937" transform="translate(1.11 62.077)">
    <path id="Path_15969" data-name="Path 15969" d="M77.072-126.058c-.245,0-.5-.012-.759-.035a8.324,8.324,0,0,1-7.55-8.184c-.078-1.641.016-3.408.126-5.455a68.27,68.27,0,0,0-.125-11.838c-.184-1.655-.5-4.105-.856-6.942-1.282-10.081-3.22-25.317-3.062-32.873-.157-7.54,1.78-22.776,3.062-32.858.36-2.837.672-5.287.856-6.943a68.27,68.27,0,0,0,.125-11.838c-.11-2.047-.2-3.814-.126-5.454a8.324,8.324,0,0,1,7.55-8.184c3.393-.31,5.314,1.5,7.008,3.1,1.426,1.347,2.643,2.511,4.561,2.466.807-.018,2.6-.1,4.672-.195,4.125-.188,9.772-.454,12.458-.428,2.686-.025,8.335.239,12.459.428,2.073.095,3.864.177,4.671.195,1.907.05,3.136-1.12,4.561-2.466,1.694-1.6,3.611-3.411,7.008-3.1a8.325,8.325,0,0,1,7.55,8.184c.078,1.64-.017,3.407-.127,5.453a68.287,68.287,0,0,0,.125,11.839c.184,1.656.5,4.105.857,6.942,1.282,10.082,3.219,25.317,3.062,32.874.157,7.541-1.781,22.776-3.062,32.858-.361,2.836-.673,5.286-.857,6.941a68.287,68.287,0,0,0-.125,11.839c.11,2.047.2,3.814.127,5.454a8.325,8.325,0,0,1-7.55,8.184c-3.387.313-5.315-1.5-7.008-3.1-1.426-1.347-2.628-2.494-4.561-2.466-.807.018-2.6.1-4.673.2-4.125.188-9.783.443-12.459.428-2.675.016-8.328-.239-12.453-.428-2.075-.095-3.868-.177-4.675-.2-1.9-.033-3.135,1.12-4.561,2.466C81.758-127.715,80-126.058,77.072-126.058Zm45.17-6.339c2.142,0,3.578,1.356,4.968,2.669,1.656,1.564,3.364,3.181,6.433,2.9a7.6,7.6,0,0,0,6.88-7.483c.076-1.6-.018-3.352-.126-5.378a68.986,68.986,0,0,1,.128-11.96c.185-1.661.5-4.114.858-6.953,1.28-10.06,3.213-25.264,3.057-32.765.156-7.517-1.777-22.72-3.057-32.781-.36-2.839-.673-5.292-.858-6.953a68.986,68.986,0,0,1-.128-11.96c.109-2.026.2-3.777.126-5.378a7.6,7.6,0,0,0-6.88-7.483c-3.068-.285-4.777,1.335-6.433,2.9-1.415,1.337-2.882,2.706-5.085,2.669-.816-.019-2.525-.1-4.689-.2-4.117-.188-9.749-.443-12.423-.427h0c-2.672-.018-8.3.239-12.422.427-2.164.1-3.874.177-4.689.2-2.215.037-3.67-1.332-5.086-2.668-1.656-1.565-3.368-3.182-6.433-2.9a7.6,7.6,0,0,0-6.879,7.483c-.077,1.6.017,3.353.126,5.38A68.9,68.9,0,0,1,69.5-231.1c-.185,1.662-.5,4.114-.858,6.954-1.279,10.06-3.213,25.263-3.057,32.765-.157,7.517,1.777,22.72,3.057,32.78.361,2.839.673,5.292.858,6.954a68.9,68.9,0,0,1,.129,11.959c-.109,2.027-.2,3.777-.126,5.38a7.6,7.6,0,0,0,6.879,7.483c3.065.281,4.776-1.335,6.433-2.9,1.415-1.336,2.9-2.7,5.086-2.668.816.018,2.526.1,4.692.2,4.117.188,9.752.447,12.419.427,2.671.016,8.308-.239,12.425-.427,2.165-.1,3.875-.177,4.691-.2Z" transform="translate(-64.837 256.696)" fill="#fff"/>
    <path id="Path_15970" data-name="Path 15970" d="M104.776-135.14a51.385,51.385,0,0,1-36.319-14.916l-.091-.09-.457-3.614c-1.283-10.083-3.221-25.321-3.063-32.878-.157-7.54,1.779-22.771,3.061-32.85.185-1.451.355-2.787.5-3.968l.016-.128.092-.09a51.394,51.394,0,0,1,36.261-14.86,51.325,51.325,0,0,1,36.8,15.4l.088.089.449,3.546c1.282,10.082,3.22,25.317,3.062,32.875.157,7.544-1.781,22.781-3.063,32.864l-.389,3.066-.088.089A51.313,51.313,0,0,1,104.776-135.14Zm-35.71-15.352a50.651,50.651,0,0,0,35.71,14.614,50.576,50.576,0,0,0,36.249-15.154l.357-2.819c1.28-10.061,3.214-25.266,3.058-32.771.156-7.518-1.777-22.721-3.057-32.782l-.417-3.3A50.592,50.592,0,0,0,104.776-237.8a50.653,50.653,0,0,0-35.651,14.558c-.143,1.15-.308,2.443-.486,3.842-1.279,10.058-3.212,25.255-3.055,32.756-.157,7.518,1.777,22.723,3.057,32.785Z" transform="translate(-64.837 251.95)" fill="#fff"/>
    <path id="Path_15971" data-name="Path 15971" d="M110.364-151.109A25.753,25.753,0,0,1,84.64-176.833a25.752,25.752,0,0,1,25.724-25.724,25.753,25.753,0,0,1,25.724,25.724A25.754,25.754,0,0,1,110.364-151.109Zm0-50.71a25.013,25.013,0,0,0-24.985,24.985,25.014,25.014,0,0,0,24.985,24.986,25.015,25.015,0,0,0,24.986-24.986A25.014,25.014,0,0,0,110.364-201.818Z" transform="translate(-70.012 242.547)" fill="#fff"/>
    <path id="Path_15972" data-name="Path 15972" d="M166.467-148.442c-.265-.247-6.5-6.112-6.188-10.943a49.257,49.257,0,0,1,1.406-7.389c.853-3.58,1.82-7.636,1.82-11.087a73.117,73.117,0,0,0-1.531-11.426c-.753-4.128-1.466-8.026-1.389-10.574.158-5.189,5.681-9.02,5.916-9.182l.417.61c-.055.037-5.448,3.783-5.594,8.594-.075,2.47.63,6.331,1.377,10.419a73.507,73.507,0,0,1,1.543,11.559c0,3.537-.978,7.638-1.84,11.258a48.768,48.768,0,0,0-1.388,7.265c-.293,4.481,5.892,10.3,5.954,10.354Z" transform="translate(-89.777 244.242)" fill="#fff"/>
    <path id="Path_15973" data-name="Path 15973" d="M68.8-148.4,68.385-149c.055-.038,5.448-3.783,5.594-8.594.075-2.469-.63-6.331-1.377-10.419a73.5,73.5,0,0,1-1.543-11.559c0-3.537.978-7.639,1.841-11.259a48.876,48.876,0,0,0,1.388-7.265c.293-4.481-5.892-10.3-5.955-10.354l.5-.541c.266.247,6.5,6.112,6.188,10.942a49.246,49.246,0,0,1-1.407,7.388c-.853,3.58-1.82,7.637-1.82,11.087a73.094,73.094,0,0,0,1.531,11.426c.753,4.128,1.466,8.026,1.389,10.574C74.561-152.388,69.038-148.556,68.8-148.4Z" transform="translate(-65.751 244.23)" fill="#fff"/>
    <path id="Path_15974" data-name="Path 15974" d="M157.25-244.313a2.846,2.846,0,0,1-2.843-2.843A2.846,2.846,0,0,1,157.25-250a2.846,2.846,0,0,1,2.842,2.843A2.846,2.846,0,0,1,157.25-244.313Zm0-4.948a2.107,2.107,0,0,0-2.1,2.1,2.107,2.107,0,0,0,2.1,2.1,2.107,2.107,0,0,0,2.1-2.1A2.106,2.106,0,0,0,157.25-249.26Z" transform="translate(-88.245 254.946)" fill="#fff"/>
    <path id="Path_15975" data-name="Path 15975" d="M79.39-88.314a2.846,2.846,0,0,1-2.844-2.842A2.847,2.847,0,0,1,79.39-94a2.846,2.846,0,0,1,2.842,2.844A2.845,2.845,0,0,1,79.39-88.314Zm0-4.948a2.108,2.108,0,0,0-2.105,2.105,2.107,2.107,0,0,0,2.105,2.1,2.106,2.106,0,0,0,2.1-2.1A2.107,2.107,0,0,0,79.39-93.261Z" transform="translate(-67.897 214.177)" fill="#fff"/>
    <path id="Path_15976" data-name="Path 15976" d="M118.18-121.8a2.846,2.846,0,0,1-2.843-2.843,2.846,2.846,0,0,1,2.843-2.843,2.847,2.847,0,0,1,2.843,2.843A2.847,2.847,0,0,1,118.18-121.8Zm0-4.948a2.107,2.107,0,0,0-2.1,2.1,2.107,2.107,0,0,0,2.1,2.1,2.107,2.107,0,0,0,2.1-2.1A2.107,2.107,0,0,0,118.18-126.749Z" transform="translate(-78.035 222.929)" fill="#fff"/>
    <path id="Path_15977" data-name="Path 15977" d="M118.18-209.151a2.846,2.846,0,0,1-2.843-2.843,2.846,2.846,0,0,1,2.843-2.842,2.846,2.846,0,0,1,2.843,2.842A2.846,2.846,0,0,1,118.18-209.151Zm0-4.947a2.106,2.106,0,0,0-2.1,2.1,2.107,2.107,0,0,0,2.1,2.1,2.107,2.107,0,0,0,2.1-2.1A2.106,2.106,0,0,0,118.18-214.1Z" transform="translate(-78.035 245.756)" fill="#fff"/>
    <text id="Visian_ICL" data-name="Visian ICL" transform="translate(-1.11 -62.077)" fill="#fff" font-size="19" font-family="Lato-Bold, Lato" font-weight="700"><tspan x="1.483" y="19">Visian ICL</tspan></text>
  </g>
</svg>
