<svg xmlns="http://www.w3.org/2000/svg" xmlns:xlink="http://www.w3.org/1999/xlink" width="329" height="416" viewBox="0 0 329 416">
  <defs>
    <style>
      .cls-1 {
        fill: #fff;
        stroke: #707070;
      }

      .cls-2 {
        clip-path: url(#clip-path);
      }

      .cls-3 {
        fill: #f2f2f2;
        fill-rule: evenodd;
      }
    </style>
    <clipPath id="clip-path">
      <rect id="Rectangle_188" data-name="Rectangle 188" class="cls-1" width="329" height="416" transform="translate(-5943 -461)"/>
    </clipPath>
  </defs>
  <g id="thats-no-moon" class="cls-2" transform="translate(5943 461)">
    <g id="Group_953" data-name="Group 953">
      <path id="Path_1" data-name="Path 1" class="cls-3" d="M409.826,82.713a17.364,17.364,0,0,0-1.728.428H402.67v.218h-5.215v.212h-5.2v.2h-5.428v.239h-6.48v.218h-2.4v-.218a6.46,6.46,0,0,0-2.177.437,7.019,7.019,0,0,1-2.617-.218,36.915,36.915,0,0,1-6.289.449H362.1l-4.127.209H355.13V85.1h-5.186v.224h-5.652c-3.17.882-7.913-.248-11.065.64-1.37.383-3.651-.164-4.982.206l-31.909.876v.206h-5.21v.218h-5.446a26.023,26.023,0,0,1-4.991.227h-.649v.224h-5.619v.206c-.547.129-.8-.206-1.089-.206v.206c-1.382.287-3.239-.084-4.339.212h-9.555v.227h-5.622v.206h-5.434s0,.17-.44.206h-4.776v.206h-5.422v.221h-5.619v.242H226.47a26.243,26.243,0,0,1-5.649.2,46.4,46.4,0,0,1-6.944,0v-.664h.239c.742-.834,1.824-.882,2.805-1.5.066-.147.129-.305.206-.446h.434l.437-.419h.44v-.227h.437v-.212h.434v-.206h.419V85.97h.44v-.212h.431v-.233h.446V85.33h.425v-.224h.44v-.212h.643a3.334,3.334,0,0,0,.215-.44h.437l.407-.443h.446v-.227h.437v-.2h.434v-.212h.431v-.218h.44v-.215l1.295-.437v-.206c.44-.087.858-.159,1.31-.215v-.218a8.353,8.353,0,0,1,.858-.212v-.224c.383-.075.73-.147,1.089-.227v-.23H231v-.212c.293-.081.607-.129.864-.218v-.209c.449-.066.864-.152,1.307-.218V79.9l.858-.23v-.2c.58-.284,1.217-.165,1.746-.455v-.2h.434v-.221c.437-.072.852-.159,1.295-.224V78.15h.446v-.224h.637c.075-.123.147-.275.233-.434.419-.066.858-.123,1.3-.218v-.2l.864-.227v-.206c.428-.078.858-.159,1.292-.224v-.2h.437v-.227h.658v-.218h.646v-.224h.655v-.206h1.3v-.215h.652v-.242h.864v-.242h.643v-.209h.652v-.218h.664v-.182h.607v-.206h.67V73.6c.428-.069.87-.147,1.31-.239v-.206h.852v-.224h.661V72.74h.652v-.233h.652v-.218h.652V72.1h.643v-.26c.428-.081.876-.159,1.31-.221v-.224h1.077V71.23h.652v-.242c.517-.075,1.017-.141,1.522-.227v-.194c.936-.147,1.878-.3,2.823-.455,3.128-1.053,6.767-1.657,9.979-2.6h2.434a25.869,25.869,0,0,1,5.849.224h6.51v.212h6.3v.239h6.292v.224h5.425c1.217.054,2.805.218,4.333.218h2.823v.23h6.516v.191l12.171.218c1.145.1,2.856.206,4.339.206h2.38s0,.188.443.212a41.778,41.778,0,0,1,6.086.218H351.5v.215h6.28v.236H364.3v.218h3.041a50.108,50.108,0,0,1,9.773.194h3.275V71c.694.159,1.423.3,2.15.431v.227h.649v.182h.652v.224h.652v.188c.637.158,1.307.3,1.941.452V72.9h.437v.224h.876v.206h.428v.239h.876v.218h.425v.206h.67v.212h.822v.218h.652v.209h.649v.242h.652v.206h.658v.212h.652V75.5c.419.078.864.153,1.295.224v.218c.293.063.61.141.87.224v.2l1.3.224V76.8l.87.224v.2h.643v.218h.664v.224c.293.081.577.135.858.206v.227h.44v.218h.661v.224h.416v.212l1.089.2v.218h.64c1.923.876,4,1.935,5.864,2.841Zm54.242,33.2v.419c.452.3.882.61,1.3.858v.224c.2.275,0,.033.239.227v.864c-.81.078-1.6.152-2.392.212v.218c-1.358.383-3.651-.17-4.985.221h-5.194v.206h-5.431v.212h-5.221v.224h-5.422v.233h-4.345c-1.083.054-2.153.132-3.26.206v-.206h-.209v.206h-1.507a23.971,23.971,0,0,0-5.437.206H416.57c-3.041.858-8.009-.242-11.083.646-1.355.4-3.651-.159-4.982.212h-5.891v.218h-5.2a4.513,4.513,0,0,1-1.953.218c-.3-.036.084-.218-.218-.218v.212c-1.376.275-3.227-.09-4.333.227-1.091-.075-2.18-.141-3.269-.227v.227c-1.4.377-3.651-.164-4.985.206h-5.215v.218l-10.832.224v.209h-5.652c-1.334.371-3.651-.164-4.985.23v.206h-5.64v.23h-.646a28.1,28.1,0,0,0-5.446.215c-1.358.377-3.651-.17-4.985.2l-14.294.266v.206h-5.209v.209H306.1v.194h-5.422v.224h-5.21v.224h-6.292v.209c-1.295.377-3.5-.153-4.764.224h-6.292v.224c-.727.194-1.217-.182-1.734-.224-1.316.072-2.611.141-3.915.224h-2.817v.206H264c-3.041.864-7.587-.206-10.637.64h-5.209v.224h-5.652v.209h-5.428v.224h-5.832c-1.411.395-3.759-.17-5.2.206v.224c-.559.164-.831-.212-1.095-.212v.212h-1.34v-.212a2.424,2.424,0,0,1-.858.212.472.472,0,0,1-.437-.212c-.347-.048-.359.212-.419.212H216.68v.227h-5.425v.224h-5.221v.218h-5.4v.218h-5.215v.209h-5.428v.224h-5.2v.206h-5.646a29.656,29.656,0,0,1-6.513.224h-1.959v.215h-3.248a38.733,38.733,0,0,1-6.289,0v-1.086c1.944-1.878,3.915-3.771,5.861-5.634.347-.44.718-.882,1.083-1.322h.434c.505-.571,1.011-1.154,1.513-1.714h.44c.487-.61,1-1.175,1.516-1.761h.431c.511-.571,1.017-1.136,1.522-1.726h.437c.215-.305.44-.58.646-.87h.44c.218-.293.431-.574.649-.879h.428c.206-.284.443-.565.652-.861h.443c.218-.269.434-.58.652-.858h.431c.3-.353.61-.733.858-1.08H180a4.047,4.047,0,0,0,.218-.443h.224a2.8,2.8,0,0,1,.215-.422h.431c.293-.377.577-.73.87-1.089h.428c.218-.3.437-.607.655-.87h.434c.147-.224.284-.437.437-.664h.428c.224-.29.437-.607.652-.858h.437l.23-.449h.416V107c.224-.069.443-.158.649-.209.087-.15.147-.3.227-.431h.425c.227-.3.434-.607.658-.876l.876-.212c.147-.221.293-.44.44-.64h.419c.147-.224.3-.452.431-.67h.44c.147-.212.281-.425.437-.652.305-.066.574-.144.864-.218.087-.153.153-.272.233-.431l.858-.206v-.227h7.162v.227a3.987,3.987,0,0,0,.437-.227c.556,0,.61.227.64.227h6.086v.206h5.2v.212h6.516a.566.566,0,0,0,.64.224v-.224h1.74v.224l.664-.224,3.041.224v.218h5.861v.227H237.1v.206h6.316v.212h5.649v.212q1.826-.1,3.651-.212c2.53.688,6.364-.078,8.9.67h5.422v.2l48.38,1.534a40.221,40.221,0,0,0,5.879.206c1.088.1,2.7.218,4.1.218h2.4s0,.17.44.209a39.217,39.217,0,0,1,5.652.206h6.28v.224h6.31v.224c3.9.075,7.808.153,11.711.2v.224h5.864v.218h6.28v.212h1.091a18.988,18.988,0,0,1,4.976,0h5.873v.227h6.3a37.559,37.559,0,0,0,5.855.206c.425.042.425.224.425.224H400.7s0,.164.437.224a34.4,34.4,0,0,1,5.631.209h5.864v.2h6.086v.236H424.8v.2h5.649v.212h6.086v.227h6.5v.212c5,.158,9.994.287,14.97.425v.227c.434.078.858.147,1.3.212.284.365.607.73.876,1.089h.425v.212l.67.428c.206.3.4.607.61.876h.437v.23c.553.458.948,1.071,1.722,1.3M153.754,138h1.522v.224h5.864v.206h5.873v.206H173.1v.227h6.3v.218h5.637v.224h5.858v.227h6.086v.2h5.861V140l11.307.206H215v.209h6.086v.218h5.849v.224h5.8v.206h1.522v.206c.347.069.371-.2.425-.206h3.693c2.763.786,7.144-.048,9.994.658.655-.066,1.289-.147,1.941-.224v.224c1.465.395,3.792-.164,5.215.2h5.858v.221H267.9v.224c4.052.084,8.092.153,12.171.224v.212h5.215v.239h5.852v.224c2.093.066,4.2.129,6.307.206h2.817c1.118.305,3.08-.141,4.339.206v.239h6.274v.206h2.6c1.917,0,4.064.078,5.634.218h3.263v.206c.664-.066,1.289-.144,1.953-.206v.206h3.915v.221h8.015v.224l.882-.224h.637v.224H340.4v.206h5.619v.218c.455-.066.888-.138,1.313-.218v.218l6.726.209h3.693v.224h5.867a40.131,40.131,0,0,0,5.428.224c1.717.153,4.016.206,6.086.206,2.165,0,4.686.057,6.51.227a36.229,36.229,0,0,1,5.637.206h5.867v.206h6.083v.212h5.649v.227h6.086v.218c3.9.072,7.814.153,11.708.236v.2h5.867v.206h6.086v.233h5.861v.194h5.634v.224h6.086v.251h6.086c1.507.431,3.8-.087,5.634.218a31.544,31.544,0,0,0,4.115.206H470v.224h1.3a20.765,20.765,0,0,1,4.776.227c4.869.114,9.707.272,14.546.431a18.846,18.846,0,0,1,6.292.61,6.046,6.046,0,0,1,1.077,1.525l.431.215c.081.284.159.607.233.876a2.272,2.272,0,0,1,.425.218c.069.347.135.7.218,1.077-.254.176-.036,0-.218.206-1.953.081-3.911.141-5.858.221v.212h-6.561v.224h-5.215v.218h-5.428v.227h-5.637v.206h-5.009v.212h-5.64v.218h-.658a23.851,23.851,0,0,0-4.776.209h-4.973v.218h-3.041v-.218h-.239v.218h-2.359v.212h-5.446v.2h-6.086v.224l-2.832-.224v.224h-5.634v.287h-5.822v.224h-5.2v.221h-5.425v.164h-5.41c-3.128.888-7.757-.221-10.867.661-1.358.374-3.651-.176-4.985.215h-6.516v.218h-1.947a29.474,29.474,0,0,0-6.732.206h-5.64v.224h-4.985v.209h-5.428v.224c-7.39.194-14.764.425-22.145.64a4,4,0,0,1-1.938.206s-.09-.275-.661-.206h-.221v.206h-3.651v.236c-.807-.066-1.6-.135-2.434-.224-3.041.858-7.581-.206-10.631.658h-5.634v.224h-5.215v.206h-5.416v.224H290.91v.221H285.5v.212h-3.041s0-.305-.434-.212a50.751,50.751,0,0,1-7.38.425h-3.9c-3.11.888-7.739-.224-10.867.67h-5.233v.206h-5.416v.212h-5.215v.221h-5.431v.206h-5.634v.212q-3.687.121-7.381.218c-.58-.066-1.151-.141-1.734-.218v.218H217.75v.206c-1.352.4-3.651-.15-5,.233h-5.628v.212h-5.4v.218c-1.37.4-3.651-.176-5.009.221H191.5v.23h-5.843v.2l-6.528.218H174.14a4.674,4.674,0,0,1-1.947.206v-.206h-.224v.206h-3.9v.215h-1.053v-.215c-.822.075-1.6.158-2.392.215h-4.563v.242H154.2v.224H148.99v.209h-5.643v.176h-5.422v.224a9.054,9.054,0,0,1-3.245-.224H133.8v.224h-3.254a2.779,2.779,0,0,1-.221-1.089c.434-.374.164-.4.446-.84h.212v-.428l.44-.218V165.8a4.2,4.2,0,0,0,.431-.206v-.437c.135-.057.293-.141.428-.206v-.44c.152-.066.3-.147.419-.206v-.446c.152-.066.3-.138.446-.218v-.425a4.705,4.705,0,0,1,.443-.221c.06-.29.141-.571.206-.876.221-.126.44-.278.67-.437v-.428c.141-.072.269-.164.428-.23.066-.194.144-.419.224-.607h.206v-.44c.147-.072.287-.159.428-.218.078-.293.164-.571.224-.876.224-.129.437-.281.652-.422v-.443c.159-.069.29-.152.437-.224a8.526,8.526,0,0,0,.212-.846,4.323,4.323,0,0,1,.44-.221v-.425c.206-.158.413-.3.646-.446v-.437c.15-.081.29-.141.419-.218v-.44c.236-.152.452-.293.664-.413v-.44a6.128,6.128,0,0,1,.658-.437v-.458h.206c.072-.218.152-.437.23-.658.141-.072.281-.141.434-.23V151.7c.425-.359.858-.712,1.307-1.077v-.431a1.968,1.968,0,0,1,.44-.206c.066-.227.144-.452.212-.664l1.289-1.089v-.41c.3-.236.61-.455.852-.682v-.425c.305-.206.61-.44.888-.64v-.449c.212-.135.44-.281.64-.434v-.437c.359-.293.73-.568,1.095-.858v-.434l.87-.646v-.437c.275-.224.571-.446.858-.646v-.443c.206-.147.446-.269.67-.422a5.656,5.656,0,0,1,.218-.658,6.829,6.829,0,0,1,.852-.607c.365-.452.718-.9,1.089-1.322h1.522ZM266.4,180.356v.658l-.87.64v.224H265.1c-.075.147-.158.287-.218.437-.3.075-.574.135-.873.194a4.218,4.218,0,0,1-.224.452h-.419c-.069.153-.141.3-.206.44l-.882.206v.206h-.422a4,4,0,0,0-.224.437c-.84.544-1.663.61-2.18,1.51h.67v.212h.858v-.212h5.434v-.212c1.217-.335,3.044.078,4.109-.218H272.9c1.6-.069,3.176-.153,4.77-.209v-.206h3.251V184.7h3.693v-.224h3.041v-.206H294.6v-.227h3.921c1.331-.383,3.622.17,4.982-.206v-.224h3.909V183.4c1.582-.075,3.182-.141,4.77-.221h2.392v-.218h3.257v-.224H321.3v-.227h3.248v-.194h3.69v-.224l4.558-.212h2.383v-.224h3.263v-.215h4.115v-.212H345.6c2.551-.724,5.344,0,7.6-.652h5.209v-.218h3.251v-.194c1.507-.087,3.041-.141,4.552-.218h2.4a4.768,4.768,0,0,1,2.386-.227v.227c.44.132.864.266,1.316.425v.218c.278.069.571.147.852.227.078.147.159.284.218.425l6.286,3.251q27.574.884,55.124,1.74v.218H437.4v.218h5.858v.188c.8-.084,1.591-.138,2.392-.218v.218h2.611v.209h1.3v-.209h2.805v.209h5.646v.224H464.1v.206h5.867v.206h5.58v.221H481.2c2.291.637,5.685.072,8.023.655l2.829-.224a25.192,25.192,0,0,0,6.286.44h2.823v.218h5.434v.212h1.292a.607.607,0,0,1,.649-.212v.212h4.56v.224l6.944.209a3.034,3.034,0,0,1,.655,2.383,6.568,6.568,0,0,1-2.159.206c-.852.745-3.909-.132-5.215.233v.212h-5.646v.248h-5.2c-.311.063-.359.209-.87.227h-5v.206c-3.687.084-7.381.135-11.065.218h-.23v.218h-5.185v.221h-5.652v.224h-.864v-.218a4.032,4.032,0,0,0-1.965.224H468.6c-1.881.054-3.756.117-5.634.224v.2c-.739-.078-1.462-.161-2.174-.2-2.177.039-4.339.117-6.516.2v.221h-6.244v.188h-5.428v.23h-5c-.407.042-.425.206-.425.206h-5.867v.221h-5.667v.23h-9.3v.206H410.93v.224h-2.4a28.386,28.386,0,0,0-3.9.221c-2.348.437-5.787-.718-7.168.655.535.317.147.245.446.646.141.069.287.141.425.218.3.347.574.712.864,1.092h.221v.419c.9.224,1.172.981,1.74,1.522,1.026,1.059,3.358,2.5,3.466,4.339-2.677-.063-5.365-.152-8.044-.206v-.209h-3.242v-.224h-3.909v-.206h-3.041v-.218h-2.593v-.215H380.75v-.206h-3.469v-.224c-1.824-.081-3.612-.147-5.422-.218h-2.805v-.209h-1.077v-.218c-.529.075-1.029.159-1.54.218v-.218h-1.728v-.248H364.5v.224h-.676v-.224h-4.109v-.206H357.1v-.209h-2.59v-.224h-2.392v-.212h-3.9v-.218h-2.2l-4.109-.209v-.212h-3.7v-.218h-2.38l-3.687-.218v-.209l-7.38-.218v-.224c-1.444-.081-2.9-.129-4.339-.212h-2.174v-.206h-3.041V199.7h-3.044v-.218h-3.26v-.2h-3.044v-.251h-3.041v-.218l-6.086-.224v-.206H293.49v-.209c-1.316-.078-2.623-.155-3.909-.218h-2.135v-.212h-3.041v-.206h-3.263v-.218q-2.064-.13-4.121-.227h-2.171v-.224h-3.044v-.206h-3.242v-.221H265.32v-.224h-2.835v-.224H258.8v-.224h-3.245v-.221H252.73v-.206c-2.434-.072-4.925-.141-7.378-.23-.132.23-.3.437-.437.664h-.44c-.206.3-.437.607-.649.882h-.434c-.811.876-1.6,1.734-2.386,2.611h-.437c-.3.347-.577.724-.876,1.071h-.44c-.419.505-.864,1.017-1.289,1.51-.487.383-.945.419-1.31.882h-2.383v.206h-5.637v.224c-1.37.389-3.651-.17-5.006.218h-5.191v.209h-5.667v.218h-5.179v.224h-2.377V203.8h-.239v.224h-6.51v.206h-2.847v.215c-.858-.081-1.723-.147-2.593-.215v.215c-1.576.389-3.927-.209-5.422.218h-5.191v.206H177.2v.242h-5.422v.221h-5.649v.206h-5.2v.218h-9.543v.206h-5.428v.206h-5.416v.227H134.9v.206h-5v.23h-5.44v.212h-5.2a35.08,35.08,0,0,1-7.82.221,4.019,4.019,0,0,1-.212-1.516c.49-.458.365-.918.655-1.522h.215v-.655h.224v-.428h.206V202.5h.206v-.431h.221v-.64h.206c.066-.3.147-.607.218-.864h.218v-.652c.141-.072.287-.138.434-.224v-.664h.224v-.649h.212v-.434h.221V197.3h.23c.066-.308.141-.607.206-.876h.212v-.661h.212c.081-.281.141-.574.221-.852h.206v-.646h.224v-.446h.218c.153-.437.287-.876.446-1.3h.254v-.652h.2v-.425h.23c.066-.3.152-.61.212-.876h.206l.233-.87h.206v-.44h.218v-.437h.218v-.44h.209v-.425h.224v-.434h.206c.5-1.16,1.017-2.33,1.534-3.475l.425-.206V183.4l.422-.44v-.449h.236c.075-.263.147-.556.206-.858h.221v-.428h.218V180.8h.206v-.446h.248v-.425h.227v-.452h.218c.066-.287.123-.565.206-.858.144-.075.29-.141.44-.2v-.458l.425-.419c.61-1.139.487-2.312,2.186-2.386a2.92,2.92,0,0,1,1.947-.224v.224h6.3v.206h5.855v.215h6.086v.218h5.416v.2h4.351v.224h5.4v.221c.152-.075.3-.141.443-.221.864.081,1.74.147,2.6.221v.218h5.855v.206h5.422v.248h6.086v.221h5.867v.218h5.646v.218h6.086v.2h6.5v.221c.607-.069,1.172-.152,1.758-.221,3.122.8,6.3-.072,9.531.658.437-.066.882-.152,1.313-.2v.2l6.738.206h3.23v.233h6.313v.206h5.6v.206h5.634v.224h6.086c1.717.493,3.409-.335,5.44,0h.209v.227h5.634v.224c.73.048,1.453.123,2.192.206M224.078,216.6c0,2.174-.936,2.434-1.74,3.651-.066.305-.147.574-.2.87-.153.069-.3.146-.44.227-.078.29-.138.571-.218.864h-.212c-.066.224-.146.419-.206.637-.164.075-.287.159-.446.227v.425l-.431.212v.44a4,4,0,0,0-.44.218v.446h-.206v.419h-.212l-.218.652h.218a5.906,5.906,0,0,0,3.041.206h.227v-.206h3.651s0-.176.437-.206h3.487V225.5l5.634-.218h2.814v-.212h5.215v-.206c1.594-.087,3.188-.159,4.782-.224H251v-.221h3.481V224.2h3.687v-.218h3.9v-.227l7.156-.212v-.212l5.015-.206h2.38V222.9c1.824-.069,3.61-.152,5.422-.221h2.823v-.194h5.209a4.467,4.467,0,0,1,2.162-.224v.224h1.513v-.224h3.915v-.218c1.594-.075,3.188-.159,4.77-.215h2.392V221.6H308.3v-.218q5.423-.233,10.837-.446v-.206l5-.224h2.386v-.218c1.259-.347,3.224.1,4.351-.215s3.041.087,4.106-.206c1.217-.347,3.08.075,4.127-.218H343v-.236c2.557-.063,5.072-.141,7.6-.2v-.23H354.3v-.206c1.669-.081,3.322-.165,4.985-.224h2.392v-.215h3.693v-.206h3.687v-.242h3.909c2.623-.751,6.651.1,9.327-.646H386.2v-.224c1.588-.075,3.182-.129,4.77-.206h2.386V216.6h3.693v-.218l4.991-.224h2.383v-.227h3.909v-.206H411.8v-.206c.655.075,1.3.159,1.959.206.212.293.431.61.652.882h.212v.428c.218.147.425.305.646.437v.422a2.174,2.174,0,0,1,.437.23c.081.206.135.422.218.646h.215v.437c.138.057.284.135.437.194v.446l.422.206v.44c.212.147.443.272.667.431v.446l.428.218v.425c.147.069.293.152.431.221v.419c.141.075.3.159.44.218.395.562-.23.4.646.652v.212h1.3v.245c.942.066,1.887.135,2.823.212a12.452,12.452,0,0,1,4.351-.212v.212h5.649v.218h5.852v.221h5.867v.224h5.634c1.51.419,3.828-.1,5.649.206a32.435,32.435,0,0,0,4.345.212h1.947v.218h.864a21.764,21.764,0,0,1,4.77.227H474.3v.206h6.086v.206H485.6a3.4,3.4,0,0,0,.858.224h4.994v.209h5.637v.224h5.634v.23h5.861v.206h5.64v.209h5.422v.224h5.861v.218h5.867v.218h2.377s.045.117.446.209a4.225,4.225,0,0,1,.206,1.519c-.936.075-1.887.159-2.805.2v.221h-5.446v.218H520.3v.206h-7.174v.218h-3.651a19.93,19.93,0,0,0-4.563.221H499.7v.218h-4.991a3.181,3.181,0,0,0-.864.212h-5.215v.227h-5.855v.206h-5.64c-1.447.383-3.687-.081-5.44.218h-.206v.224h-5.2v.206h-1.1a23.509,23.509,0,0,0-4.764.2h-5.634v.278h-5.467v.224h-5.416v.209h-6.086v.176h-5.864v.206h-1.962a14.72,14.72,0,0,0-4.558.437c.224.721.446,1.462.658,2.186h.206v.646h.212c.081.29.147.571.227.87h.218v.643h.212v.487h.218v.61h.221v.425h.2v.652a9.806,9.806,0,0,1,1.307,3.918,18.961,18.961,0,0,1-5.2.2c-.718-.61-2.434.1-3.475-.2v-.224l-3.9-.224h-2.147v-.206H410.93v-.209c-1.462-.066-2.9-.144-4.345-.224h-2.174v-.218h-3.041v-.212c-1.516-.069-3.044-.153-4.557-.209h-2.2v-.224H391.57v-.224H389.4c-1.441-.063-2.886-.141-4.345-.188v-.257H382.93c-1.441-.06-2.9-.126-4.351-.206v-.212c-3.391-.123-6.8-.3-10.195-.434V241.1c-1.364-.066-2.745-.129-4.112-.218H362.11v-.206h-3.257v-.206h-3.266v-.221h-3.257v-.212H350.19c-1.462-.084-2.9-.147-4.345-.206v-.224h-2.168c-1.453-.069-2.9-.147-4.339-.221v-.194h-3.481v-.218l-4.333-.212h-2.177v-.221h-4.133v-.206c-1.37-.072-2.733-.159-4.1-.212h-2.186V237.9h-3.9v-.221H312.86v-.248h-3.041v-.206h-3.693c-1.062-.305-2.946.108-4.127-.23v-.233h-2.162v-.182h-2.593v-.224H293.55v-.2c-2.111-.063-4.211-.141-6.3-.209V235.7h-2.817v-.224h-3.263c-2.2-.476-7.3-.117-9.973-.864h-3.287s-.117-.335-.664-.224a.613.613,0,0,1-.652.224v-.224h-2.823v-.215l-7.363-.224c-2.345-.652-5.9-.176-8.254-.858h-2.811v-.224h-3.912v-.2q-1.938-.13-3.915-.209h-2.159v-.224H232.55v-.224c-1.746-.081-3.475-.159-5.215-.206h-2.386v-.227h-3.475v-.212q-2.714-.121-5.422-.218c-.152.218-.287.437-.44.664H215.4c-.218.658-.431,1.289-.652,1.941h-.218v.431h-.206v.44h-.206v.443h-.245c-.144.422-.284.858-.419,1.286h-.224v.637h-.206v.44h-.257v.44c-.129.078-.266.144-.419.224v.425h-.209c-.078.359-.161.724-.224,1.083h-.206c-.44.87-.317,1.175-1.095,1.74v.215h-2.156c-.858.724-3.9-.164-5.221.212-3.005.846-7.85-.206-10.861.67h-5.186v.188h-5.422c-1.34.395-3.651-.164-5.015.224-2.276.646-6.627.057-8.439.434h-3.245v.212h-1.322v-.212h-2.377v.212h-5v.218h-5.634v.224h-5.215v.209h-5.643v.206h-5.64v.224H129.48v.224h-5.437v.2h-5.428v.224h-5.867v.206h-2.6v-.206h-.206v.206c-3.1.093-6.217.147-9.327.23a6.448,6.448,0,0,1-.233-2.177c.481-.559.188-1.37.44-2.162h.206v-.855h.269v-.87h.206c.072-.721.147-1.45.212-2.168h.188v-.858h.206V235.48c.541-1.711.987-3.768,1.522-5.44v-1.068h.224v-.655h.206c.153-.745.293-1.456.446-2.18h.206v-.413h.233v-.864h.23v-.67h.212v-.658h.218c.287-1.217.574-2.434.87-3.651h.209v-.894h.218v-.437h.218v-.87h.218v-.652h.209v-.87h.218v-.44h.218v-.607h.218v-.876h.215c.218-.452.236-1.3.667-1.528h7.156c.61.535,1.492,0,2.386,0h.658v.224h4.77v.221h5.437v.206h6.274v.224l1.746-.224v.224h6.95v.206h3.651v.227h5.64s.03.176.434.206a35.689,35.689,0,0,1,5.212.212h6.086v.218h6.3v.194h6.086v.227h2.817l4.546.2h5.215v.224h6.086v.206h6.086v.206h6.292v.227H215v.224H217.8a4.749,4.749,0,0,1,2.174-.224v.224c1.379.072,2.754.158,4.124.218m-17.859,37.306a13.63,13.63,0,0,1-.852,4.776c-.081.712-.165,1.435-.206,2.153a12.008,12.008,0,0,0-.891,3.915,12.537,12.537,0,0,0,3.69.224c.718-.607,2.434.1,3.475-.224v-.218h2.413c1.74-.063,3.475-.135,5.215-.209v-.23h3.469v-.194l4.991-.218h2.38v-.227c1.6-.054,3.188-.138,4.77-.194h2.38V263h3.93v-.206h5.855v-.227c1.594-.072,3.182-.138,4.782-.224h2.392v-.194h3.475v-.218q3.79-.121,7.6-.218v-.221l4.764-.224h2.38V261.1c1.681-.072,3.334-.129,5.009-.218H279.6v-.2h3.909v-.251H287.2a30.1,30.1,0,0,1,6.723-.206c2.087-.078,4.2-.147,6.3-.23v-.215h3.717v-.206H307.4v-.218q5.428-.233,10.844-.425v-.221c1.729-.084,3.475-.158,5.215-.212h2.392v-.224h3.041v-.212h3.651v-.221h3.921v-.212h3.469v-.206h1.513v.206h.227v-.206c2.665-.069,5.356-.152,8.014-.218v-.239c2.47-.066,4.928-.152,7.375-.212v-.236c1.6-.069,3.2-.141,4.767-.2h2.434V256.1h3.46v-.224h3.7v-.2h3.723v-.218h2.392c1.66-.081,3.328-.153,4.982-.221v-.218h5.861V254.8h3.909v-.218c1.441-.081,2.889-.147,4.33-.233h2.392v-.218h3.921v-.2c1.648-.069,3.316-.147,4.976-.224h2.386v-.215h3.481v-.212c2.174-.06,4.339-.141,6.5-.224h3.044c1.041-.275,2.928.114,4.127-.206a21.458,21.458,0,0,1,4.552-.221,7.475,7.475,0,0,0,.643,1.51c.152.963.293,1.893.44,2.835h.206c.44,1.827.87,3.651,1.31,5.41.419.087.437.227.437.227h3.044v.224h6.31v.206H450.6v.245h6.086v.194h6.086v.224h6.5v.218h6.086v.194h5.2c1.528.087,3.041.153,4.57.233h2.817v.206h6.086v.194h5.209l4.546.224h2.838v.221h6.086v.218H519v.206h6.086v.206h2.578l4.566.227a26.123,26.123,0,0,1,6.51.443h1.734v.2h.194v.858c-.413.081-.443.218-.443.218h-2.156V268h-5.422v.224c-1.376.365-3.651-.17-5,.206h-5.2v.212H517.03v.215H511.6v.212h-5.44v.218h-9.13c-1.447.4-3.651-.078-5.422.212h-.212v.239h-5v.188h-.619a28.636,28.636,0,0,0-4.985.218h-5.239v.23h-5.2v.209h-5.428v.248h-5.2v.236h-5.652v.209h-5.2v.224h-5.186v.2l-7.168.224a11.673,11.673,0,0,0-.221,3.457c.439.511.209,2.156.221,3.044.06,1.014.152,2.019.206,3.041h.224c-.066.882-.147,1.728-.224,2.617a14.709,14.709,0,0,1-5.2-.224h-3.041v-.251h-2.162c-1.441-.054-2.9-.132-4.339-.206v-.224h-3.263v-.176h-3.041v-.224h-3.044v-.227c-3.188-.132-6.364-.29-9.546-.425v-.218l-4.127-.215H396.8v-.224h-3.254v-.206h-2.829v-.224H387.67v-.209h-3.263v-.224h-3.041v-.224h-3.25v-.206h-3.041v-.215h-2.805v-.188h-2.174c-1.382-.078-2.757-.159-4.127-.218v-.23q-4.661-.224-9.339-.434v-.224c-1.37-.072-2.751-.135-4.139-.212h-2.153v-.206h-3.263v-.233h-3.263v-.224H341.06v-.218h-3.041v-.209h-3.257v-.212h-3.251v-.23H328.47V276.7c-.293,0-.353.347-.858.224V276.7h-2.4v-.2h-3.041v-.182h-3.651v-.224c-1.382-.078-2.751-.153-4.127-.218h-2.171v-.218h-3.9V275.4h-3.041c-2.081-.437-6.791-.135-9.336-.858h-2.165a16.161,16.161,0,0,1-3.9-.443h-2.428v-.221h-2.6v-.218c-2.53-.066-5.075-.152-7.593-.218v-.23H275.5v-.188h-3.044v-.215c-.607.069-1.157.135-1.729.215v-.215h-2.817v-.23h-1.959v-.218h-2.6v-.206h-3.233v-.209l-6.286-.224v-.2c-.365-.081-.407.2-.452.2-1.435-.066-2.877-.117-4.324-.2v-.224h-2.832v-.215h-3.912v-.242h-2.6v-.206h-1.947v-.206h-2.838v-.233h-3.254v-.218H226.9v-.188c-1.648-.081-3.322-.171-4.982-.236v-.215c-.263,0-.556.371-1.092.215v-.215h-2.383c-.305-.084.084-.164-.215-.218h-3.693a15.687,15.687,0,0,0-4.124-.431h-2.386v-.221l-4.339-.206c-.176.251,0,0-.218.206a16.9,16.9,0,0,1-.658,4.572v1.729q-.413,2.6-.858,5.189a7.5,7.5,0,0,1-2.392.233c-.852.724-3.894-.159-5.21.206v.224h-5.422c-3.041.858-7.581-.206-10.637.658H173.1v.206h-5.422v.224h-6.75v.215a.567.567,0,0,1-.649-.215h-1.51v.215h-6.3v.224h-5.2v.218h-5.2v.206h-5.2c-.317.057-.347.209-.87.227h-4.758v.212H126v.188h-5.425v.224h-6.3v.194H113.4c-.858-.054-1.74-.132-2.6-.206v.206h-.858v.227h-6.086v.224h-1.534s0-.287-.419-.224v.224h-5v-.224h-.224c-.182-1.9,0-3.493,0-5.637v-3.266H96.9q.1-4.567.221-9.13h.218v-1.516h.212v-1.507h.212v-1.929q.749-5.186,1.516-10.407A28.321,28.321,0,0,1,108.16,250c.864.739,3.915-.153,5.215.227,1.175.326,3.128-.1,4.558.218v.206c.395.072,1.029-.407,1.74-.206v.206h2.817l3.909.224h5.434v.209h3.888v.224l1.974-.224v.224h3.041v.224c.652-.072,1.3-.141,1.974-.224h.855v.224h3.7v.212h3.687v.221h5.422v.206h2.392c1.471,0,3.176.114,4.333.212h4.994v.206h6.289v.218h5.634v.209h5.867v.224h6.086v.212H197.6v.212h2.823c2,0,4.193.069,5.849.227m230.465,36.263c.03,3.651-.413,6.645-.425,9.979.254.17,0,0,.218.215.936.078,1.887.158,2.805.206v.224h5.64v.218H450.6v.257h6.086v.206h5.864v.23h5.837v.171h5.652v.221h5.867v.224h5.849v.194h5.864v.224l28.64.858v.218h5.855v.233h5.652c1.277.347,3.469-.176,4.764.2a16.513,16.513,0,0,0,4.127.425v.9a8.524,8.524,0,0,1-2.386.194c-.852.742-3.894-.147-5.2.224-3.113.876-7.745-.224-10.838.646h-5.422v.23h-5.2c-3.041.84-7.82-.182-10.855.64h-1.3V307.3a4.033,4.033,0,0,0-1.947.206h-5a27.563,27.563,0,0,1-5.852.218c-2.252.159-4.492.287-6.732.437h-4.982v.215h-5.21v.218H464.08v.224h-5.422v.194h-5.622c-1.28.371-3.463-.143-4.773.227v.224h-5.452v.206H437.4v.218h-1.968s0,.141-.425.221c-1.017,3.747-2.022,7.521-3.041,11.283a18.554,18.554,0,0,1-5.21.206c-.652-.535-2.081.06-3.044-.206v-.221h-2.165c-1.456-.066-2.9-.153-4.351-.212v-.218h-3.044v-.221h-3.041V320.3h-3.044v-.171h-3.041V319.9h-2.168c-1.382-.075-2.757-.153-4.145-.206v-.233h-3.041v-.212h-3.041v-.218h-2.162c-1.376-.075-2.757-.135-4.139-.212v-.209c-2.075-.066-4.181-.149-6.286-.23v-.218h-3.263v-.224h-2.805v-.215h-2.117l-4.127-.218v-.212h-3.242v-.206h-2.174l-4.13-.206v-.227c-2.016-.06-4.049-.135-6.086-.2v-.236h-2.826v-.206H347.1l-4.133-.227v-.206H339.93v-.206h-2.18l-3.882-.224V314.9c-2.117-.048-4.211-.129-6.3-.188v-.248H324.52v-.215h-3.248v-.2h-3.044v-.206H315.4v-.224h-3.451v-.206H308.9v-.221H305.65v-.236h-2.162l-3.687-.212v-.221h-3.257V312.3h-2.823v-.212h-2.383a15.931,15.931,0,0,1-4.121-.44h-3.044v-.206c-.365.069-.718.129-1.083.206v-.206h-2.811c-1.118-.335-3.1.129-4.339-.23V311h-1.965v-.221h-2.168v-.206h-3.242v-.212H265.52s0-.281-.431-.212v.212h-.67v-.212h-3.463v-.218h-1.74v-.221h-4.333V309.5l-5.422-.224v-.224l-1.089.224v-.224q-16.292-1.063-32.557-2.156c-2.751-.23-5.479-.437-8.236-.67h-2.835a.309.309,0,0,0-.44-.206v.206c-.461.311-.437.529-.431,1.31.47.541.194,1.376.431,2.171h.215v1.08a26.442,26.442,0,0,1,1.313,7.168c-.419.066-.437.206-.437.206h-2.18v.218c-1.358.395-3.651-.141-4.994.23h-5.649v.209h-5.6v.212h-6.292v.218h-5.428v.212c-1.092-.06-2.174-.132-3.263-.212v.212h-3.651c-1.827.093-3.616.159-5.434.233v.206c-.61-.075-1.151-.153-1.728-.206v.206l-16.5.437c-1.34.374-3.621-.164-4.985.221a25.48,25.48,0,0,1-4.982.218h-.882v.212h-9.573v.212h-5.643v.221h-4.991v.206H108.19v.218h-3.463a30.974,30.974,0,0,1-5.422,0c-.072-.218-.141-.425-.206-.646h-.242v-1.741h-.215v-1.728h-.23V316H98.2v-1.74h-.206v-1.507h-.215v-1.965h-.212V308.4h-.212v-.87h-.218c-.081-1.669-.153-3.328-.221-4.991V298.83a35.512,35.512,0,0,1-.224-4.785c0-.395-.206-.413-.206-.413a19.1,19.1,0,0,1,.206-5.221l3.687-.194v.194h.233v-.194h1.507v.194h1.956v.224h1.3v-.224h3.693v.224h4.552l.434.212v-.212h1.089v.212q15.821.453,31.645.858c1.065.317,2.946-.1,4.139.215v.23c2.019.066,4.04.147,6.086.224h4.139v.206c.254,0,.535-.365,1.065-.206v.206c2.318.087,4.647.141,6.944.209h4.13v.218h6.725v.224H186.1v.212h6.286v.209H198.9v.23h2.6c.123.242.386.335.446.431v.44h.218v1.51c.517,1.824.347,4.522.852,6.286.305,1.053-.164,1.971.44,2.6.553.517,2.718.254,3.687.218.718-.61,2.434.084,3.475-.218v-.206h2.434l4.752-.209v-.224H221.5v-.194c1.516-.087,3.044-.158,4.573-.224h2.377v-.227h3.463v-.212h3.475c2.527-.736,5.338,0,7.59-.658h5.434v-.218h2.392c1.582-.078,3.182-.164,4.77-.224v-.206l10.413-.44v-.206h3.487v-.23h3.888v-.209h2.168l4.558-.23v-.206c1.217-.335,3.08.09,4.127-.212,1.361-.4,3.651.182,4.988-.215h5.221v-.182h1.5v.215c.359.06.383-.215.437-.215h3.7V298h3.693v-.206h2.159c1.588-.075,3.179-.158,4.767-.206v-.239c3.535-.12,7.108-.272,10.643-.425V296.7h3.251v-.245h2.171l4.776-.206v-.218h3.651v-.245h3.481v-.224h3.9v-.2h2.823c2.028-.066,4.046-.129,6.086-.212v-.221c2.374-.066,4.77-.12,7.162-.224v-.2h3.651v-.218h2.174l4.764-.227v-.188h3.9v-.224h3.251v-.218h3.944v-.206c3.083-.087,6.2-.146,9.309-.227v-.206h3.251v-.224h2.392c1.588-.069,3.17-.152,4.764-.212v-.215h3.717v-.206h3.251v-.23c1.675-.069,3.334-.147,5-.206h2.392v-.215c.517-.144.819.239,1.089.215v-.215h2.171v-.224H421.1v-.218h6.31v-.206h3.263v-.206c2.016-.081,4.034-.165,6.086-.227M218.022,345.53c.069.487.03.577.227.864h.212v.44h.218v.437c.135.063.269.123.434.206.066.293.144.568.218.864.141.063.284.153.419.221a8.169,8.169,0,0,1,.218.855c.164.069.287.159.434.221.072.29.159.607.218.864a2.251,2.251,0,0,0,.446.212c.066.3.14.607.206.87.147.072.3.159.437.218v.434l.44.218v.431h.2v.44h.224a3.214,3.214,0,0,1,.434,1.947c-1.157.069-2.312.153-3.463.212v.239c-1.388.365-3.651-.17-5,.206H209.12v.206h-5.634v.224h-7.4v.209h-6.95v.218h-6.3v.224h-4.985a3.643,3.643,0,0,0-.87.2h-5.212v.227h-5.649v.224h-5.855v.206h-5.422v.218h-5.428v.215h-5.64v.206H137.5v.224l-3.7-.224v.224q-9.649.327-19.31.652c-1.824.048-3.651.146-5.422.206v-.206h-.882c-.066-.227-.146-.434-.218-.652h-.2c-.164-.724-.287-1.459-.434-2.177h-.218v-.852H106.9v-.658h-.218V354.4h-.209v-.664h-.218c-.078-.511-.147-1.041-.206-1.525h-.224v-.858h-.215v-.67h-.218v-.64h-.212v-.664h-.236c-.069-.505-.135-1.017-.209-1.507h-.206c-.159-.712-.3-1.462-.443-2.174h-.209c-.078-.5-.15-1.023-.224-1.522h-.206c-.158-.948-.3-1.872-.452-2.823h-.206c-.284-1.824-.571-3.6-.858-5.422-.395-1.217-.718-2.871-1.094-4.121v-1.295a13.967,13.967,0,0,1-.646-4.564c.724-.069,1.444-.129,2.162-.209v.209h1.095v.218h5.634v.23h5.867v.194h5.634v.233h5.855v.206l28.646.864v.212h5.634v.224c2.174.069,4.357.146,6.516.215h4.991v.212c1.217.072,2.434.135,3.651.2.505,0,.834-.389,1.516-.2v.2H180v.236h.443v-.236h3.251v.236h5.855v.209h4.994v.236h5.2v.194h3.044v.224c.437.081.819-.413,1.519-.224v.224c1.887.081,3.78.129,5.637.209l.437.661h.221c.132.505.29,1.017.443,1.51h.206v.458h.221c.144.413.3.858.431,1.289h.224c.209.646.422,1.295.61,1.965h.254c.057.269.129.574.209.858h.224v.652h.206v.425h.242c.523.975.544,2.3,1.74,2.623v.209h.215v-.209a14.706,14.706,0,0,1,3.693-.224c3.615-.206,7.228-.437,10.844-.658l41.23-2.383c2.174-.075,4.345-.153,6.519-.206v-.221h3.651v-.23h2.177c1.522-.054,3.044-.129,4.546-.206v-.227h3.281c2.527-.072,5.075-.126,7.59-.188v-.218h3.693v-.212h2.159c1.534-.081,3.044-.153,4.564-.212v-.239h4.121l5.422-.188v-.224h3.7v-.218h3.248v-.209h3.687v-.218h2.174c1.588-.078,3.188-.129,4.758-.224V333.8h3.693v-.227H344.1v-.212l30.817-1.516v-.212h3.463v-.218h2.177c1.6-.072,3.182-.123,4.773-.206v-.218h3.693v-.215h3.651v-.218h3.693v-.224c1.74-.081,3.475-.129,5.2-.206H405.7v-.257h2.165c1.588-.078,3.188-.129,4.779-.194v-.236h3.912v-.176l4.546-.239H423.5a20.311,20.311,0,0,1,5.209-.413,3.957,3.957,0,0,1,.218,1.516h-.23c-.057.437-.141.87-.206,1.295h-.227v.44h-.177v.643h-.218v.458h-.2c-.075.413-.153.858-.218,1.289h-.221v.428h-.212c-.078.365-.153.712-.218,1.088a4.44,4.44,0,0,0-.652,1.959,6.882,6.882,0,0,0,2.168.221c.478.4,1.983.206,2.817.206l6.3.224c2.159.066,4.339.147,6.51.206v.218c.269.063.365-.326.864-.218v.218h7.584v.215h5.873v.218h5.416v.23h3.687a19.377,19.377,0,0,1,1.953.206,51.758,51.758,0,0,1,7.4.215h6.286v.218h5.64v.224h1.74v.206h1.3c.3-.06-.093-.188.212-.206.481-.036.437.206.437.206h4.333v.227c.305.03-.072-.134.227-.227h3.248v.227l6.519.206H509.7v.218c2.434.063,4.916.135,7.39.206h3.041v.227H526v.218h6.286v.206h2.159c.239.464.365.389.446,1.083h-.212v.67h-.233c-.76.822-1.612.111-2.805.422v.206h-5.873v.218h-2.171v-.218h-.218v.218c-.428-.06-.858-.141-1.286-.218-.571,0-.643.218-.661.218h-5.413v.224h-5.434v.221h-5.694a23.018,23.018,0,0,1-4.779.218h-.864v.212h-5.434v.212h-.218c-1.752.3-3.992-.17-5.431.221h-5.416v.206H477.1v.224h-4.985c-.454.066-.888.147-1.319.212h-4.779v.227h-1.729v-.227h-.23a80.25,80.25,0,0,1-9.127.44H450.6v.218h-5.431v.206h-5.864v.215h-5.38v.218h-5.649v.224h-5.67v.206H420.44s-.036.152-.437.221c-.141.272-.335.3-.44.431v.425c-.132.069-.284.158-.437.221v.437l-.44.227v.413c-.135.078-.3.158-.419.23v.44a4.361,4.361,0,0,0-.446.206v.452c-.147.054-.284.138-.425.2v.425h-.23c-.069.224-.135.446-.215.67l-.419.218v.422c-.212.158-.44.3-.652.454-.084.287-.141.568-.218.852-.153.069-.3.152-.44.212v.44c-.138.06-.29.152-.425.206v.44l-.658.442v.428c-.287.224-.577.437-.864.655v.215h-4.988c-.532-.463-1.579,0-2.4-.215v-.23l-4.54-.206h-2.18v-.224h-3.687V357.2c-1.217-.054-2.434-.129-3.687-.2h-2.162v-.224c-1.525-.075-3.041-.141-4.569-.218h-2.38v-.209h-1.513v-.224c-.152,0-.739.389-1.316.224v-.224h-3.041v-.206h-2.156v-.206h-2.377q-2.3-.144-4.572-.239v-.212c-2.377-.072-4.776-.141-7.156-.206v-.236h-3.041v-.209H354.7V354.4h-3.044v-.194h-3.463v-.23h-3.242v-.206h-3.269v-.215H339.5l-4.339-.218v-.218H332.98c-1.364-.075-2.739-.158-4.1-.221v-.224h-3.254v-.206l-4.139-.218h-2.168v-.2q-6.388-.35-12.778-.658v-.224h-3.269v-.221h-2.823v-.23c-1.436-.048-2.892-.123-4.333-.212h-2.174v-.2H290.9v-.227h-3.245v-.218H284.4v-.218h-3.481v-.221h-2.811v-.206h-3.044v-.218c-2.9-.078-5.775-.147-8.672-.212v-.212h-.87v-.221h-3.041v-.224h-3.257V347.9h-3.251v-.221H252.93v-.212h-3.257v-.206c-1.459-.066-2.883-.153-4.333-.218h-2.389v-.212h-2.6V346.6h-3.475v-.212l-4.321-.224h-2.18v-.206h-3.041v-.269h-3.044v-.212H220.8v-.212c-.942.078-1.893.144-2.823.212m184.678,24.1v1.059c-.455.293-.535.721-.858,1.1-.807.8-2.434,1.717-2.623,3.041a7.953,7.953,0,0,1,1.74.44h5.422v.206h6.086v.224h5.867v.218h6.056v.209H430v.218h6.086v.212h5.861v.218c5.855.152,11.708.275,17.575.422v.224h6.086v.206h5.846v.233h6.086v.218h5.637v.206h6.086v.218h5.858v.215h5.643v.206h6.086v.23H512.5c1.334.365,3.621-.171,4.985.218v.209c1.295.066,2.6.149,3.9.212.045,1.217-.165,2.135-1.083,2.392-.535.455-1.57,0-2.38.218v.218h-3.475l-7.811.419h-5.649v.233c-2.434.072-4.916.141-7.375.218h-3.044a4.776,4.776,0,0,1-1.959.206v-.206h-.882v.206h-5.434v.218h-5.416c-1.346.368-3.651-.167-4.991.215-2.982.834-7.431-.194-10.419.643-3.409.081-6.8.147-10.206.221v.212h-5.215v.218h-5.4v.212h-5.221v.263h-5.628v.218h-1.7v-.218h-.218v.218c-2.306.048-4.614.141-6.938.212a23.45,23.45,0,0,0-5.416.215H410.3v.218H404.88v.206h-5.2v.212q-8.366.233-16.717.446v.206h-1.528V388c-.425.141-.858.3-1.3.428v.248h-.44v.2h-.413l-.44.44H378.4c-.069.141-.129.278-.206.431l-1.316.428c-.066.152-.147.29-.206.437h-.434v.224h-.49l-.44.422H374.9c-.069.146-.153.3-.215.449h-.443l-.422.44h-.443v.206h-.428v.218h-.437a4.623,4.623,0,0,0-.206.434l-1.088.218v.212c-1.827-.072-3.622-.15-5.431-.212V393h-3.254v-.212h-3.044v-.215h-3.041s0-.17-.44-.218a36.655,36.655,0,0,1-6.086-.419h-3.263v-.218h-3.224v-.227h-2.18l-4.345-.224v-.206h-3.041v-.206h-3.263v-.227h-2.829v-.206h-3.687v-.23c-1.534-.057-3.044-.146-4.558-.206h-2.386v-.221c-.505.069-1.011.141-1.516.221v-.221h-3.041v-.212h-3.263v-.212h-3.263a16.054,16.054,0,0,0-3.906-.439h-2.162v-.2h-.87v-.248a6.734,6.734,0,0,0-.637.248q-2.3-.139-4.572-.248v-.206c-3.651-.146-7.375-.3-11.068-.439V387.6h-1.953v-.23c-2.6-.141-5.2-.263-7.808-.434a17.169,17.169,0,0,0-3.651-.206,4.374,4.374,0,0,1-1.962-.218h-2.611V386.3h-3.254v-.212c-1.51-.066-3.044-.141-4.551-.218l-.221.218c.182.257-.03,0,.221.212a5.391,5.391,0,0,0,1.3.858c.066.158.129.3.206.446.3.054.574.135.864.206.069.135.159.293.233.439h.46c.069.156.135.278.212.449h.428a3.091,3.091,0,0,1,.212.422h.44v.218a7.034,7.034,0,0,1,1.953,1.289h.212v.87l-2.165.227v.218c-1.346.389-3.651-.17-4.991.212h-5.634v.206H244.91v.218h-1.959v-.218h-.215v.218c-2.342.434-5.323-.359-7.375.215h-5.434V393h-5.2v.218q-5.526.1-11.071.212v.215h-5.416v.218H202.8c-3.11.888-7.725-.218-10.844.652-.721-.087-1.444-.141-2.174-.221v.221c-1.959.066-3.894.147-5.849.224h-3.254v.206h-4.991v.224h-8.245v.215c-.664-.069-1.322-.147-1.974-.215v.215q-3.346.09-6.693.206h-3.939v.218h-5.428v.212h-5.422v.215h-5.434v.218h-6.086a33.156,33.156,0,0,1-7.6.212c-.141-.212-.281-.437-.425-.652h-.215c-.066-.284-.144-.607-.212-.858l-.425-.224v-.658c-.164-.072-.3-.132-.446-.212v-.652l-.431-.212c-.159-.437-.293-.87-.44-1.289h-.206c-.072-.3-.146-.61-.236-.882h-.209c-.066-.287-.144-.61-.212-.87h-.224v-.428h-.182V389.3h-.245v-.41h-.218v-.443h-.206v-.428h-.182c-.164-.425-.281-.87-.44-1.289h-.224v-.44l-.449-.443v-.44c-.129-.072-.287-.152-.434-.218v-.437l-.425-.422V383.9h-.233v-.428h-.23v-.449h-.212V382.6h-.233v-.4h-.164v-.434H116.9v-.643h-.224c-.066-.293-.141-.61-.218-.882h-.221v-.652h-.224v-.428h-.206v-.649h-.218c-.069-.359-.147-.733-.212-1.092h-.215c-.066-.29-.132-.577-.206-.864h-.278v-.637h-.215c-.072-.3-.152-.58-.212-.87h-.182v-.658h-.206c-.081-.359-.165-.724-.218-1.088H113.4c-.072-.281-.153-.58-.218-.87h-.206v-.64h-.221v-.443h-.206v-.715h-.206v-.419h-.224v-.64H111.9v-.455h-.269v-.61a9.034,9.034,0,0,1-1.289-4.124,15.621,15.621,0,0,1,6.086.218h3.723v.206h5.634v.224h5.867v.206h6.086v.215h5.634v.212h5.867v.212h4.985l4.345.218h2.611v.209h5.828v.218h5.631v.224h6.086v.206h5.634v.227h6.292v.218h5.855v.218q19.2.646,38.416,1.3c1.109.395,1.827,1.606,2.6,2.383,1.45,1.322,2.9,2.6,4.345,3.921.61.658,1.145,1.295,1.735,1.935h2.611a4.38,4.38,0,0,1,2.392-.206v.206h.206v-.206H249.9v-.233h3.469v-.218h3.481c1.28-.359,3.463.153,4.773-.212,2.335-.664,5.7,0,8.032-.646,1.247-.353,3.218.1,4.333-.224,1.313-.383,3.394.117,4.558-.206h4.133V375c.5.063,1,.129,1.507.215V375h5.443c1.106-.326,3.083.129,4.333-.224v-.206h3.278v.206h.858v-.206c1.322-.365,3.251.072,4.339-.224h4.133c2.288-.67,5.745,0,8.026-.67,2.9-.063,5.775-.152,8.69-.2,1.041-.3,2.922.12,4.109-.221,1.277-.353,3.481.159,4.776-.23,2.976-.84,7.473.206,10.413-.64,1.253-.353,3.221.093,4.345-.218h4.133c1.035-.293,2.913.117,4.1-.212,1.077-.3,2.946.117,4.133-.206,2.368-.676,5.891,0,8.239-.664H372.1v-.206c2.025-.075,4.052-.141,6.086-.227h2.6v-.206c.807-.206,2.8.341,4.13,0,0,0-.048-.26.434-.206a5.945,5.945,0,0,0,2.165.206c1.217-.341,3.239.164,4.564-.206,1.035-.305,2.969.117,4.115-.218v-.239h.852V369.6Zm97.236,47.109a3.3,3.3,0,0,1-.44,1.929c-.138.075-.3.141-.437.224v.44l-.658.431v.44c-.147.066-.287.147-.431.206v.44h-.209c-.078.158-.164.29-.218.425h-.876c-.523.475-1.57,0-2.387.224v.209h-5.194v.212c-4.127.1-8.266.141-12.375.23l-6.516.218v.221a.615.615,0,0,1-.652-.221h-1.3v.221h-5.855v.212H457.13v.212h-5.4v.218h-5.873v.209l-16.5.437a5.166,5.166,0,0,1-2.156.218v-.218c-.383-.072-.395.194-.437.218-1.564.371-3.7-.164-4.985.215-.876-.081-1.74-.135-2.617-.215v.215h-1.728v.206a10.948,10.948,0,0,1-1.083-.206v.206c-.535.108-.559-.164-.87-.206-1.217.084-2.476.155-3.693.206v.242c-.858-.09-1.74-.159-2.593-.242v.242H402.9v.206h-5.449v.215h-5.634v.206h-5.634v.218h-5.643v.218c-.736-.072-1.453-.141-2.177-.218v.218c-.61.152-1.109-.218-1.292-.218v.218c-2.013.4-4.576-.266-6.292.212h-5.422v.215H359.5v.218h-5.215v.2H348.85c-3.08.894-8.008-.212-11.071.676h-5.422v.218H326.5v.206h-1.31v-.206h-.206v.206h-8.266v.227c-1.343.395-3.651-.158-4.982.218h-5.2v.206h-6.28v.206h-5.44v.227h-5.637v.218h-5.4v.218H277.9v.227H272.04v.206c-.58-.075-1.139-.158-1.735-.206-2.434.048-4.919.126-7.36.206a23.526,23.526,0,0,1-4.788.212h-.87v.218h-5.634v.212h-.233c-1.776.293-3.974-.206-5.416.221h-5.422v.218H234.5v.206H231.68v-.206h-.218v.206h-3.475v.23H226.9v-.23a3.963,3.963,0,0,0-1.947.23l-16.059.422v.206H202.8v.224h-5.209v.215h-5.4v.212h-5.649v.23H180.9a25.46,25.46,0,0,1-4.77.206h-.652v.233h-1.953a25.058,25.058,0,0,0-3.9.206l-13.894.218c-1.029,0-4.034.61-4.776,0h-.428c-.3-.353-.607-.736-.894-1.088h-.206V432.1c-.287-.227-.607-.44-.858-.658v-.434c-.284-.206-.607-.425-.87-.643v-.44c-.206-.141-.431-.293-.652-.419v-.452c-.23-.147-.443-.3-.649-.443V428.2l-1.092-.87v-.449c-.278-.221-.577-.422-.855-.64v-.434c-.147-.072-.3-.138-.446-.218v-.218c-.147-.087-.287-.135-.434-.206v-.428c-.218-.158-.437-.29-.637-.442v-.44c-.212-.152-.44-.3-.652-.437v-.428c-.377-.29-.73-.577-1.1-.87v-.443a3.842,3.842,0,0,1-.434-.206v-.227l-.437-.206V420.6l-.864-.64v-.44l-.428-.212c-.066-.218-.158-.437-.236-.67h-.212v-.419c-.135-.081-.281-.147-.44-.23v-.422a3.679,3.679,0,0,0-.413-.224v-.458l-.44-.188v-.449l-.431-.215V415.6a7.5,7.5,0,0,0-.646-.428v-.443c-.165-.075-.293-.14-.449-.206v-.44c-.141-.072-.281-.141-.428-.224v-.428l-.431-.212v-.437l-.428-.209c-.078-.3-.159-.607-.23-.87h-.212c-.081-.224-.141-.431-.221-.667-.144-.069-.284-.141-.431-.221v-.431c-.135-.069-.287-.14-.44-.206v-.44a3.939,3.939,0,0,0-.437-.212V409.1h-.212c-.087-.23-.135-.443-.221-.649-.132-.081-.3-.146-.419-.227v-.461c-.212-.159-.434-.287-.658-.44V406.9c-.141-.075-.278-.147-.437-.212v-.44c-.694-1.076-1.462-1.459-1.522-3.251.948-.1,1.887-.164,2.835-.206V403h6.086v.215h.64v.218h5.652v.206H150.1v.212h5.41v.263h6.3v.2c1.37.4,3.651-.153,4.979.23h5.44a27.717,27.717,0,0,0,5.2.218h.658v.227h5.64v.218h.221v-.218h1.077v.218h6.938v.2h3.912v.218c.505.087,1.175-.419,1.953-.218v.218l6.507.221h2.611v.2c.353.078.371-.2.437-.2h2.386v.2l11.932.236v.212h6.289v.221h5.64v.212h6.3a20.715,20.715,0,0,0,4.552.206c1.881.081,3.744.159,5.637.218v.227h3.041v.206h6.286V408h.233a3.5,3.5,0,0,1,1.947-.212V408l5.867.224h2.811v.227H276.4a39.828,39.828,0,0,0,5.852.206c.428.036.44.212.44.212h5.634s0,.188.44.23c2.383.069,4.782.14,7.156.221a20,20,0,0,1,4.351.206h6.086v.212h5.852v.218c5.93.153,11.875.281,17.8.422v.206h6.086v.224h5.864v.221h5.8v.236h6.723v.206h5.643v.224h6.086v.215h5.646v.206h3.287v-.206c2.9.054,5.786.144,8.684.206a23.691,23.691,0,0,0,4.782.224h1.086v.218h1.947a30.2,30.2,0,0,1,4.127.209c1.824.3,4.124-.209,5.64.212h6.086v.218h6.086v.212h6.086a23.019,23.019,0,0,0,4.758.215h.894v.206h1.95a30.919,30.919,0,0,1,4.336.224c1.827.311,4.133-.206,5.649.224H443.1v.215h5.852v.206h2.611l4.569.224h5.216v.218h5.855v.206h5.861v.215h6.292v.23h5.861v.206h5.852v.212h5.775v.233c1,.06,2.016.141,3.044.218m-32.973,36.921v1.088c-2.237,1.974-4.489,3.921-6.723,5.873h-2.6c-.61.488-3.651.171-4.779.188h-.649v.236h-5.215v.221h-5.425v.212h-5.634v.23h-5.434v.188h-5.649a25.238,25.238,0,0,1-4.776.227h-.61v.218h-7.641v.212c-.347-.066-.721-.153-1.091-.212v.212h-6.95v.212l-11.062.221v.224h-5.428v.212h-5.416v.206H375.75v.221h-5.419V464h-6.086v.218c-.8-.066-1.582-.129-2.434-.218H361.2v.218h-5.879v.212H350.19v.233h-5.867v.206h-5.452s0,.182-.428.2h-5.009v.224h-5.628v.227h-5.221v.212H316.5v.23h-1.522v-.23h-.206v.23h-1.319s0-.29-.44-.23v.23h-5.849s0,.188-.425.206a35.226,35.226,0,0,0-4.991.221h-5.44v.218H290.88v.206h-5.634v.224H279.6a18.693,18.693,0,0,1-4.127.221c-1.947.066-3.9.147-5.846.206a24.39,24.39,0,0,0-5.221.218h-5.855v.224h-5.422v.209H247.7c-3.128.888-8.149-.221-11.3.649h-5.634V469h-2.162a30.312,30.312,0,0,0-6.944.224q-11.178.3-22.345.607v.209h-5.428v.224h-3.263v-.224c-.293-.069-.577-.128-.87-.209-.066-.137-.153-.3-.212-.437h-.44c-.06-.153-.141-.275-.206-.425h-.4l-.67-.885H187.4c-.06-.138-.138-.278-.206-.431h-.443c-.209-.281-.428-.577-.652-.87h-.416c-.156-.206-.308-.425-.449-.646H184.8c-.144-.206-.284-.437-.437-.649h-.428c-.156-.227-.3-.452-.437-.652h-.434c-.138-.206-.3-.44-.437-.652h-.44c-.132-.218-.29-.437-.419-.658h-.44c-.29-.347-.607-.718-.861-1.083h-.446l-1.089-1.295h-.44c-.206-.3-.425-.58-.607-.876h-.47c-.365-.422-.718-.852-1.077-1.3H175.9c-.284-.353-.607-.706-.87-1.071H174.6c-.212-.3-.434-.61-.652-.87h-.431c-.505-.61-1.017-1.157-1.522-1.746h-.44l-1.941-2.153h-.449v-.215c-.135-.072-.275-.164-.434-.236v-.419h-.419c-.221-.305-.44-.61-.658-.879h-.434l-.443-.437v-.434l-.428-.419h-.431c-.066-.152-.146-.3-.212-.437-.227-.152-.434-.293-.61-.44v-.431c-.443-.368-.882-.721-1.319-1.1-.864-.918-1.74-1.866-2.593-2.823-.852-.81-1.869-1.217-1.968-2.805a10.22,10.22,0,0,1,3.044-.224c.906.778,4.638-.141,6.086.224v.212a.612.612,0,0,0,.652-.212c.553-.117.649.212.649.212h3.9a7.207,7.207,0,0,0,2.383.422h4.785v.218h5.162v.218h6.086v.212h6.286v.215h5.215v.218h7.162V444h1.094a.564.564,0,0,1,.61-.218V444h3.26v.212c.61-.054,1.157-.132,1.74-.212v.212c.61-.054,1.163-.132,1.74-.212v.212H221.9v.215h9.534v.218c1.522.072,3.044.152,4.555.206v-.206c.861.152,1.747.29,2.611.431v-.188h.861v.224a8.441,8.441,0,0,0,.864-.224h.933v.224H244.5v.221h5.425v.212h5.864v.212h5.643v.206h5.846v.218h5.867v.239h5.634v.212h5.867v.23H290.3v.188c5.852.165,11.72.3,17.554.446v.206h5.425v.218h6.086v.227h5.852v.218h5.661v.206h5.634v.227h5.861v.218h5.864v.212c3.9.072,7.808.153,11.711.212v.227h5.864a28.913,28.913,0,0,0,6.289.224c1.911,0,4.064.06,5.652.206a37.211,37.211,0,0,1,5.416.206H388.6v.206h6.086v.233h5.643c3.134.864,8.161-.233,11.3.637h6.086v.227h5.846v.212H429.2v.206h5.58v.224h5.87v.209h5.643v.212h6.086c1.346.389,3.651-.165,5,.236v.212h6.086a13.333,13.333,0,0,0,3.475.41m-54.693,35.82v.87c-.212.078-.437.138-.649.206v.224h-.44c-.066.141-.146.281-.206.428l-.882.23v.212h-.64v.206c-.3.081-.607.153-.876.221v.224h-.676v.206h-.437v.206l-.858.224v.227h-.67v.218c-.269.078-.565.141-.846.2v.218c-.437.075-.882.153-1.322.215v.218l-1.295.437v.215h-.44v.206h-.437v.218h-.652v.224h-.431v.221h-.646v.206h-.437v.218l-1.292.224v.221h-.67v.218h-.4v.206c-.44.072-.87.153-1.3.224v.209c-.649.138-1.3.278-1.965.443v.206h-.449v.2h-.652v.221h-.646v.224h-.658v.224h-.649v.215h-.61v.2h-.67v.224h-.425v.224h-.658v.221h-.646v.206h-.667v.224H386.4v.206h-.61v.212h-1.519v.221H382.1v.23c-3.481.066-6.944.117-10.419.212a34.194,34.194,0,0,1-7.581.206H361.91c-3.092.87-7.721-.236-10.826.652h-5.434v.206H340.22v.227H334.8v.218h-5.646v.206l-14.752.212c-3.041.876-7.575-.206-10.625.658h-5.44v.218H292.7v.227h-5.422a25.288,25.288,0,0,1-5.21.218h-3.906c-1.447.383-3.651-.081-5.422.2a15.267,15.267,0,0,1-4.779.218v-.218H267.3v-.2h-.649v-.218l-1.929-.227v-.218h-.945v-.152h-.607v-.206h-.67v-.23H261.42v-.215h-.688v-.206h-.852v-.218h-.652v-.224h-.858v-.206h-.87v-.221h-.882v-.212c-.487-.066-1-.135-1.516-.212v-.206c-.571-.1-1.154-.147-1.735-.215v-.23h-.437v-.236h-.852v-.215h-.44v-.206l-1.083-.224v-.206l-2.177-.446v-.224h-.428v-.2c-.437-.081-.882-.159-1.3-.212v-.227H246v-.224h-.437v-.218c-.44-.069-.858-.123-1.292-.2v-.239c-.664-.164-1.313-.3-1.965-.443v-.164h-.44v-.227h-.607v-.206h-.912v-.218h-.422v-.218l-1.313-.227V495.9c-.353-.072-.721-.123-1.092-.206v-.218h-.443v-.227c-.263-.066-.565-.137-.852-.218v-.248h-.64v-.215h-.413v-.218h-.658v-.176c-.287-.066-.565-.141-.87-.218v-.212H233v-.218c-.284-.063-.571-.117-.87-.2V493.1h-.649l-.209-.449h-.443v-.209h-.64v-.206h-.493v-.224c-.365-.075-.73-.141-1.089-.218v-.209h-.664v-.212h-.425v-.23c-.287-.069-.577-.146-.876-.206v-.221c-.44-.072-.858-.138-1.3-.224v-.206l-1.3-.44v-.212c-.446-.146-.864-.3-1.3-.443v-.2c-.284-.066-.607-.143-.858-.224v-.218l-.864-.212v-.245l-.876-.23v-.206H219.7v-.221h-.419v-.212h-.434V487h-.413v-.212c-.44-.153-.882-.3-1.316-.434-.072-.159-.135-.3-.206-.449-.293-.057-.61-.135-.87-.194-.081-.153-.153-.3-.218-.446-.365-.078-.718-.141-1.086-.212-.066-.135-.138-.287-.218-.44h-.407l-.451-.437h-.431v-.206c-1.053-.568-2.21-.5-2.386-1.956a20.733,20.733,0,0,1,5.849-.23c.607.541,2.865.23,3.906.23,3.188.075,6.379.159,9.561.221v.224c2.386.066,4.764.153,7.156.194h3.044v.224h2.389v.233l1.092-.233v.233c1.824.054,3.612.126,5.434.206h.64v-.206h.876v.206h3.041v.224a4.369,4.369,0,0,0,1.941-.224,4.5,4.5,0,0,1,2.392.437l11.929.209v.206h5.846v.218h5.41v.218h6.086v.227H293.3v.206h5.858v.212H304.8v.218c3.894.075,7.814.141,11.72.227v.194h5.855a37.5,37.5,0,0,0,5.646.23c.41.03.428.218.428.218h5.873v.206h5.846v.221h5.843v.212h5.658v.218h5.855v.212h6.086v.221h5.634v.206l3.693-.206,5,.206h3.044v.23h6.086v.206h5.646v.215h5.867v.218h5.634v.224h3.481v.2l4.551.227" transform="translate(-6028.514 -510.825)"/>
    </g>
  </g>
</svg>
