<svg xmlns="http://www.w3.org/2000/svg" width="30.313" height="21.219" viewBox="0 0 30.313 21.219"><path d="M394.063,655.641l-6.22-.115a32.061,32.061,0,0,1-6.006-.376c-3-.62-3.216-3.664-3.439-6.218a44.15,44.15,0,0,1,.391-10.8,3.667,3.667,0,0,1,3.6-3.319,196.606,196.606,0,0,1,20.172-.2,14.334,14.334,0,0,1,2.117.255c3.444.611,3.528,4.061,3.751,6.965a39.94,39.94,0,0,1-.3,8.8c-.342,2.413-.994,4.436-3.751,4.631-3.454.255-6.828.461-10.291.4C394.093,655.641,394.073,655.641,394.063,655.641Zm-3.656-6.108c2.6-1.512,5.155-3,7.743-4.5-2.607-1.512-5.156-3-7.743-4.5Z" transform="translate(-378.235 -634.45)" fill="#fff"/></svg>